<?xml version="1.0" encoding="UTF-8"?>
<svg width="116px" height="68px" viewBox="0 0 116 68" version="1.1" xmlns="http://www.w3.org/2000/svg" xmlns:xlink="http://www.w3.org/1999/xlink">
    <!-- Generator: sketchtool 50.2 (55047) - http://www.bohemiancoding.com/sketch -->
    <title>Artboard</title>
    <desc>Created with sketchtool.</desc>
    <defs/>
    <g id="Page-1" stroke="none" stroke-width="1" fill-rule="evenodd">
        <g id="Artboard">
            <path d="M40.1170448,27.4683688 C33.1170448,21.4683688 15.1170448,6.46836876 7.6170448,2.96836876 C0.117044797,-0.53163124 -1.3829552,6.46836876 1.1170448,7.96836876 C3.6170448,9.46836876 27.6170448,25.9683688 33.1170448,31.9683688 C37.5,28.5 36,29.5 40.1170448,27.4683688 Z" id="Path-4-Copy"/>
            <path d="M40.1170448,25.4683688 C33.1170448,19.4683688 15.1170448,4.46836876 7.6170448,0.96836876 C0.117044797,-2.53163124 -1.3829552,4.46836876 1.1170448,5.96836876 C3.6170448,7.46836876 27.6170448,23.9683688 33.1170448,29.9683688 C37.5,26.5 36,27.5 40.1170448,25.4683688 Z" id="Path-4"/>
            <path d="M37.5,26 C28.5,17.5 16.5,9 7.07919181,2.73528094 C3.57919181,0.735280937 1,2.73528094 3.5,5.5 C8,8.5 31.8421751,26.2352809 34.0791918,28.2352809 C35.5791918,26.7352809 34.5,26 37.5,26 Z" id="Path-5"/>
            <path d="M35.48655,27.0753982 C35.5006384,27.049749 35.5070242,27.0384619 35.5072206,27.0386392 C35.5003029,27.0506386 35.4934205,27.06289 35.48655,27.0753982 Z M35.1332477,27.7139671 C34.9451219,28.0159141 34.7226516,28.2989279 34.4327452,28.5888343 L34.0984167,28.9231629 L33.745937,28.6080292 C31.5128187,26.6115145 7.67223513,8.8824153 3.2226499,5.91602515 L3.12913786,5.83535246 C1.7852033,4.34911187 1.62775957,2.79102349 2.73363226,1.93541381 C3.75500702,1.14517986 5.53029328,1.27432051 7.3560577,2.31893339 C19.6954772,10.5244923 30.0593022,18.2849288 37.8433118,25.6364934 L38.7576128,26.5 L37.5,26.5 C36.0547091,26.5 35.7578564,26.6038889 35.5072206,27.0386392 C35.5085347,27.0398258 35.2328286,27.5541371 35.1332477,27.7139671 Z M6.83112234,3.16940251 C5.34978443,2.3229237 3.99439306,2.2243277 3.34555956,2.72632783 C2.78955915,3.15650333 2.87023194,4.03614818 3.83033416,5.11938008 C8.2598631,8.08595961 30.2528754,24.4290195 34.0329171,27.5404502 C34.1265212,27.4236638 34.2089489,27.3064307 34.2845035,27.1851634 C34.3745271,27.0406732 34.6776208,26.4722678 34.6182608,26.5791175 C34.9580242,25.9666157 35.3804962,25.6715118 36.2953938,25.5581813 C28.6629216,18.4916591 18.6485565,11.0291725 6.83112234,3.16940251 Z M34.6182608,26.5791175 C34.6160444,26.5831071 34.6133227,26.5880381 34.6100658,26.5939677 C34.612284,26.5899291 34.6145056,26.5859043 34.6167307,26.581893 L34.6182608,26.5791175 Z" id="Path-5-Copy" fill-rule="nonzero"/>
            <path d="M71,68 C47.2517558,68 28,57.0309764 28,43.5 C28,29.9690236 47.2517558,19 71,19 C94.7482442,19 114,29.9690236 114,43.5 C114,57.0309764 94.7482442,68 71,68 Z M71,66 C93.6436747,66 112,55.9264069 112,43.5 C112,31.0735931 93.6436747,21 71,21 C48.3563253,21 30,31.0735931 30,43.5 C30,55.9264069 48.3563253,66 71,66 Z" id="Oval-2-Copy-5"/>
            <ellipse id="Oval-2-Copy-2" cx="71" cy="38.5" rx="43" ry="20.5"/>
            <ellipse id="Oval-Copy-2" cx="71" cy="47" rx="34" ry="16"/>
            <ellipse id="Oval-Copy" cx="71" cy="47" rx="32" ry="14"/>
            <ellipse id="Oval" cx="71" cy="47" rx="30" ry="12"/>
            <path d="M71,59 C47.2517558,59 28,49.8218374 28,38.5 C28,27.1781626 47.2517558,18 71,18 C94.7482442,18 114,27.1781626 114,38.5 C114,49.8218374 94.7482442,59 71,59 Z M71,57 C93.6436747,57 112,48.7172679 112,38.5 C112,28.2827321 93.6436747,20 71,20 C48.3563253,20 30,28.2827321 30,38.5 C30,48.7172679 48.3563253,57 71,57 Z" id="Combined-Shape" fill-opacity="0.449999988"/>
            <path d="M71,61 C46.1471863,61 26,50.9264069 26,38.5 C26,26.0735931 46.1471863,16 71,16 C95.8528137,16 116,26.0735931 116,38.5 C116,50.9264069 95.8528137,61 71,61 Z M71,59 C94.7482442,59 114,49.8218374 114,38.5 C114,27.1781626 94.7482442,18 71,18 C47.2517558,18 28,27.1781626 28,38.5 C28,49.8218374 47.2517558,59 71,59 Z" id="Oval-2-Copy-4"/>
            <path d="M71,68 C47.2517558,68 28,57.0309764 28,43.5 C28,29.9690236 47.2517558,19 71,19 C94.7482442,19 114,29.9690236 114,43.5 C114,57.0309764 94.7482442,68 71,68 Z M71,66 C93.6436747,66 112,55.9264069 112,43.5 C112,31.0735931 93.6436747,21 71,21 C48.3563253,21 30,31.0735931 30,43.5 C30,55.9264069 48.3563253,66 71,66 Z" id="Combined-Shape"/>
        </g>
    </g>
</svg>