<?xml version="1.0" encoding="UTF-8"?>
<svg width="66px" height="114px" viewBox="0 0 66 114" version="1.1" xmlns="http://www.w3.org/2000/svg" xmlns:xlink="http://www.w3.org/1999/xlink">
    <!-- Generator: sketchtool 50.2 (55047) - http://www.bohemiancoding.com/sketch -->
    <title>barstool</title>
    <desc>Created with sketchtool.</desc>
    <defs/>
    <g id="Page-1" stroke="none" stroke-width="1" fill-rule="evenodd">
        <g id="barstool">
            <g id="!stool" transform="translate(-326.000000, 0.000000)">
                <polygon id="Fill-990" fill="#808080" points="355.548 107.29 362.183 107.29 362.183 18.9 355.548 18.9"/>
                <path d="M377.919,57.71 L339.812,57.71 C339.102,57.71 338.52,58.29 338.52,59 L338.52,60.3 C338.52,61.01 339.102,61.59 339.812,61.59 L377.919,61.59 C378.63,61.59 379.211,61.01 379.211,60.3 L379.211,59 C379.211,58.29 378.63,57.71 377.919,57.71" id="Fill-991" fill="#CCCCCC"/>
                <path d="M382.56,0 L335.171,0 C331.697,0 328.88,2.81 328.88,6.29 L328.88,18.15 L388.851,18.15 L388.851,6.29 C388.851,2.81 386.035,0 382.56,0" id="Fill-992" fill="#333333"/>
                <polygon id="Fill-993" fill="#B3B3B3" points="326 23.53 391.731 23.53 391.731 12.64 326 12.64"/>
                <polyline id="Fill-994" fill="#B3B3B3" points="362.384 98.53 355.466 98.53 332.949 113.43 384.782 113.43 362.384 98.53"/>
                <polygon id="Fill-995" fill="#CCCCCC" points="355.185 74.87 362.572 74.87 362.572 71.67 355.185 71.67"/>
                <polyline id="Fill-996" fill="#CCCCCC" points="360.037 74.83 357.795 74.65 343.951 60.94 345.009 59.87 358.459 73.2 359.472 73.28 372.688 60.31 373.74 61.38 360.037 74.83"/>
            </g>
        </g>
    </g>
</svg>