<?xml version="1.0" encoding="UTF-8"?>
<svg width="128px" height="300px" viewBox="0 0 128 300" version="1.1" xmlns="http://www.w3.org/2000/svg" xmlns:xlink="http://www.w3.org/1999/xlink">
    <!-- Generator: sketchtool 59.1 (101010) - https://sketch.com -->
    <title>chef-outside</title>
    <desc>Created with sketchtool.</desc>
    <g id="Page-1" stroke="none" stroke-width="1" fill-rule="evenodd">
        <g id="chef-outside">
            <g id="!chef">
                <path d="M62.7996437,278.69569 L61.4461954,283.964655 C61.4461954,283.964655 88.3936092,288.200862 87.0022299,299.463793 L51.7418851,299.463793 C51.7418851,299.463793 48.6487816,291.901724 54.0617126,284.493966 L57.3091264,275.862069 L62.2582644,278.337069 L62.7996437,278.69569" id="Fill-2898" fill="#666666"/>
                <path d="M61.4461954,283.964655 C61.4461954,283.964655 88.3936092,288.200862 87.0022299,299.463793 L51.7418851,299.463793 C51.7418851,299.463793 48.6487816,291.890517 54.0617126,284.482759 L61.4461954,283.964655" id="Fill-2899" fill="#3A4142"/>
                <path d="M81.3772299,293.144828 C80.5263678,292.649138 79.6436092,292.226724 78.7375747,291.880172 C78.7703333,292.25431 78.8401609,292.625 78.9453333,292.981897 C76.3341264,291.537069 73.3746437,291.224138 70.528092,290.576724 C67.6832644,289.92931 64.728954,288.800862 62.8970575,286.235345 C62.9711954,286.232759 63.0461954,286.231034 63.1203333,286.231034 C63.9151609,286.231034 64.7056782,286.37931 65.4892989,286.537931 C69.1755057,287.287931 72.8220575,288.29569 76.4013678,289.553448 C78.3263678,290.231034 80.4005057,291.135345 81.3772299,293.144828" id="Fill-2922" fill="#5F6566"/>
                <path d="M20.2663793,278.326739 L18.912931,283.595705 C18.912931,283.595705 45.8612069,287.831912 44.4689655,299.094843 L9.20862069,299.094843 C9.20862069,299.094843 6.11637931,291.532774 11.5284483,284.125015 L14.7758621,275.493119 L19.725,277.968119 L20.2663793,278.326739" id="Fill-2900" fill="#808080"/>
                <path d="M18.912931,283.595705 C18.912931,283.595705 45.8612069,287.831912 44.4689655,299.094843 L9.20862069,299.094843 C9.20862069,299.094843 6.11637931,291.521567 11.5284483,284.113808 L18.912931,283.595705" id="Fill-2901" fill="#3A4142"/>
                <path d="M52.9758621,5.0939806 C52.4655172,5.0939806 51.9689655,5.12760129 51.4836207,5.18191163 C51.5137931,4.88708405 51.5181034,4.59053232 51.4732759,4.29311853 C51.0275862,1.30260129 46.8551724,-0.553433196 42.1560345,0.148290942 C39.0112069,0.618118528 36.4336207,2.11553232 35.2017241,3.95001508 C33.1827586,2.90173922 30.0439655,2.9577737 26.9836207,4.31035991 C22.7603448,6.17760129 20.2612069,9.81639439 21.2448276,12.5577737 C19.6931034,13.049153 18.0741379,14.0043254 16.6396552,15.386222 C13.2172414,18.6827737 12.1431034,23.1207047 14.2413793,25.299153 C16.3387931,27.4767392 20.8137931,26.5698427 24.2362069,23.2732909 C26.8077586,20.7957047 31.3482759,21.6526013 30.9189655,19.3301875 C32.137931,19.2026013 31.9862069,17.0793254 33.2655172,16.5138082 C35.7017241,15.437084 36.6913793,16.6939806 37.6456897,14.9500151 C39.3939655,16.0250151 40.9991379,11.3931185 43.7724138,10.9793254 C43.9836207,10.9474289 44.1896552,10.9060496 44.3956897,10.8655323 C44.637931,13.7508771 48.3810345,16.0448427 52.9758621,16.0448427 C57.7275862,16.0448427 61.5793103,13.5931185 61.5793103,10.5698427 C61.5793103,7.54570474 57.7275862,5.0939806 52.9758621,5.0939806" id="Fill-2902" fill="#FFFFFF"/>
                <path d="M67.5241379,143.068981 C67.5241379,143.068981 83.4413793,227.087946 66.1198276,281.412946 L51.1965517,280.531912 C51.1965517,280.531912 63.6456897,253.104325 60.2431034,202.130187 L56.5612069,170.358636 C56.5612069,170.358636 51.4284483,165.029325 40.6025862,173.143119 C40.6025862,173.143119 40.4086207,221.504325 24.9836207,280.323291 L9.20862069,280.323291 C9.20862069,280.323291 25.3913793,225.41036 25.9112069,144.225015 L67.5241379,143.068981" id="Fill-2903" fill="#FFFFFF"/>
                <polygon id="Fill-2904" fill="#FFFFFF" points="24.9905172 158.657774 70.512931 158.657774 70.512931 83.2327737 24.9905172 83.2327737"/>
                <polygon id="Fill-2905" fill="#CC9C81" points="41.7422414 82.299153 49.6293103 82.299153 49.6293103 71.861222 41.7422414 71.861222"/>
                <path d="M34.7698276,62.487084 C34.7698276,62.487084 36.6353448,71.7663944 42.3293103,72.5413944 C48.0241379,73.3172565 58.7112069,74.1043254 64.3991379,71.5017392 C70.087069,68.9000151 68.2525862,64.761222 68.2525862,64.761222 L64.4215517,49.7707047 C64.4215517,49.7707047 64.0612069,38.449153 62.5637931,33.2474289 C61.0672414,28.0457047 60.4387931,27.2784634 59.0767241,25.9000151 C57.7146552,24.5215668 46.4224138,23.7758771 40.6956897,28.4810496 C34.9689655,33.187084 27.2543103,35.3681185 27.7896552,37.7888082 C28.3258621,40.2094978 33.5698276,57.2000151 33.5698276,57.2000151 C33.5698276,57.2000151 27.5077586,52.9094978 27.2353448,60.6319116 C27.0043103,67.2034634 34.7698276,62.487084 34.7698276,62.487084" id="Fill-2906" fill="#E6B89C"/>
                <path d="M46.687069,45.4594978 C46.3560345,44.3103599 45.1568966,43.6465668 44.0077586,43.9776013 C42.8577586,44.3086358 42.1948276,45.5077737 42.525,46.6569116 C42.8560345,47.8060496 44.0560345,48.4698427 45.2043103,48.1388082 C46.3543103,47.8086358 47.0172414,46.6086358 46.687069,45.4594978" id="Fill-2907" fill="#1A1A1A"/>
                <path d="M60.3327586,43.9474289 C60.0603448,43.0026013 59.075,42.4586358 58.1318966,42.7293254 C57.187931,43.0008771 56.6431034,43.986222 56.9137931,44.9301875 C57.1853448,45.874153 58.1706897,46.4198427 59.1155172,46.1474289 C60.0586207,45.8767392 60.6043103,44.8905323 60.3327586,43.9474289" id="Fill-2908" fill="#1A1A1A"/>
                <path d="M63.3525862,58.4905323 C63.3525862,58.4905323 60.3284483,64.6431185 57.512069,65.1129461 C54.6965517,65.5819116 48.7517241,61.2543254 48.7517241,61.2543254 L63.3525862,58.4905323" id="Fill-2909" fill="#FFFFFF"/>
                <path d="M54.55,54.9715668 C54.0025862,54.9715668 53.4431034,54.8732909 52.9025862,54.6457047 C53.2301724,54.7767392 53.625,54.8379461 54.0525862,54.8379461 C56.0956897,54.8379461 58.8741379,53.4396703 58.4905172,51.5982909 C58.187069,50.1413944 56.687931,49.8784634 55.6474138,49.8784634 C55.0612069,49.8784634 54.6206897,49.962084 54.6206897,49.962084 C56.9568966,44.3077737 53.4887931,42.286222 53.4887931,42.286222 C53.5310345,42.2103599 53.6094828,42.1663944 53.6913793,42.1663944 C53.7293103,42.1663944 53.7672414,42.1758771 53.8034483,42.1957047 C53.9318966,42.2663944 56.8991379,43.986222 55.1637931,49.7784634 C55.2508621,49.7750151 55.3508621,49.7724289 55.4612069,49.7724289 C56.475,49.7724289 58.3525862,49.9836358 58.7232759,51.5000151 C58.9146552,52.2827737 58.5241379,53.1689806 57.675,53.8681185 C57.2146552,54.2482909 56.6008621,54.5767392 55.9155172,54.774153 C55.4827586,54.899153 55.0206897,54.9715668 54.55,54.9715668 M52.7784483,54.5913944 C52.7732759,54.5888082 52.7689655,54.587084 52.7646552,54.5844978 C52.7689655,54.587084 52.7732759,54.5888082 52.7784483,54.5913944" id="Fill-2910" fill="#826B5C"/>
                <path d="M39.8025862,42.9051875 C39.8025862,42.9051875 44.5060345,41.974153 46.6586207,38.6767392 C46.6586207,38.6767392 46.475,37.2267392 45.2232759,36.8250151 C43.9715517,36.4232909 41.6586207,39.7457047 39.0267241,41.336222 C37.0086207,42.5569116 39.8025862,42.9051875 39.8025862,42.9051875" id="Fill-2911" fill="#333333"/>
                <path d="M60.9017241,40.2301875 C60.9017241,40.2301875 56.0275862,39.0508771 55.3206897,38.4293254 C54.6146552,37.8077737 54.9887931,36.5413944 55.8224138,36.2146703 C55.8224138,36.2146703 60.4353448,38.0319116 60.9103448,38.8569116 C61.3844828,39.6810496 60.9017241,40.2301875 60.9017241,40.2301875" id="Fill-2912" fill="#333333"/>
                <path d="M53.4887931,42.286222 C53.4887931,42.286222 56.9568966,44.3077737 54.6206897,49.962084 C54.6206897,49.962084 58.0163793,49.3207047 58.4905172,51.5982909 C58.9646552,53.8750151 54.6051724,55.4750151 52.7784483,54.5913944 C50.9508621,53.7069116 50.9362069,43.3732909 53.4887931,42.286222" id="Fill-2913" fill="#FE938C"/>
                <path d="M44.9862069,49.8896703 C44.4706897,49.8896703 43.9612069,49.6827737 43.6715517,49.2629461 C43.9284483,49.3698427 44.2034483,49.4172565 44.4810345,49.4172565 C44.8577586,49.4172565 45.237931,49.3301875 45.5862069,49.1836358 C46.1905172,48.9301875 46.712069,48.5138082 47.2051724,48.0810496 C46.9137931,48.7844978 46.4224138,49.4413944 45.7232759,49.7413944 C45.4931034,49.8396703 45.2387931,49.8896703 44.9862069,49.8896703" id="Fill-2914" fill="#826B5C"/>
                <path d="M58.5431034,47.9319116 C58.4637931,47.9319116 58.3844828,47.9267392 58.3051724,47.9172565 C57.8,47.7560496 57.3775862,47.3560496 57.1896552,46.861222 C57.6,47.2060496 58.1181034,47.3569116 58.6525862,47.3569116 C59.2439655,47.3569116 59.8543103,47.1715668 60.3594828,46.861222 C60.0086207,47.511222 59.2793103,47.9319116 58.5431034,47.9319116" id="Fill-2915" fill="#826B5C"/>
                <path d="M33.4318966,61.1681185 C33.2017241,60.4043254 32.8586207,59.5276013 32.0896552,59.3224289 C31.9560345,59.286222 31.8181034,59.2750151 31.6793103,59.2750151 C31.5801724,59.2750151 31.4810345,59.2801875 31.3836207,59.2879461 C30.8534483,59.3276013 30.2931034,59.4250151 29.9,59.7819116 C29.662931,59.9974289 29.4827586,60.3086358 29.1732759,60.3939806 C28.9284483,59.6844978 29.3931034,58.8844978 30.0422414,58.5060496 C30.4034483,58.2948427 30.8215517,58.1896703 31.2396552,58.1896703 C31.7525862,58.1896703 32.2655172,58.3482909 32.6724138,58.662084 C33.4094828,59.2319116 33.737931,60.287084 33.4318966,61.1681185" id="Fill-2916" fill="#826B5C"/>
                <path d="M55.7646552,51.7767392 C55.6758621,51.7767392 55.587069,51.7715668 55.4982759,51.7603599 C55.3508621,51.7413944 55.2,51.7034634 55.0844828,51.6094978 C54.9689655,51.5155323 54.8991379,51.3526013 54.95,51.2129461 C55.0172414,51.0276013 55.25,50.9603599 55.3793103,50.8155323 L55.2543103,50.8060496 C55.5646552,50.5879461 55.9439655,50.4689806 56.3241379,50.4689806 C56.3827586,50.4689806 56.4413793,50.4715668 56.5,50.4776013 C56.6965517,50.4965668 56.9068966,50.5594978 57.0172414,50.7224289 C57.1336207,50.8948427 57.1,51.1388082 56.9784483,51.3086358 C56.8577586,51.4784634 56.6655172,51.5836358 56.4698276,51.6543254 C56.2439655,51.7353599 56.0043103,51.7767392 55.7646552,51.7767392" id="Fill-2917" fill="#FEC2BE"/>
                <path d="M44.6258621,45.7853599 C44.3482759,45.7853599 44.0931034,45.6034634 44.012069,45.324153 C43.9146552,44.9853599 44.1103448,44.6319116 44.4491379,44.5344978 C44.5086207,44.5172565 44.5672414,44.5094978 44.6258621,44.5094978 C44.9025862,44.5094978 45.1586207,44.6913944 45.2387931,44.9715668 C45.3362069,45.3094978 45.1405172,45.6629461 44.8017241,45.7603599 C44.7431034,45.7776013 44.6836207,45.7853599 44.6258621,45.7853599" id="Fill-2918" fill="#7D7D7D"/>
                <path d="M59.2939655,44.387084 C59.0836207,44.387084 58.8905172,44.249153 58.8293103,44.0379461 C58.7560345,43.7810496 58.9043103,43.5129461 59.1603448,43.4396703 C59.2051724,43.4267392 59.25,43.4207047 59.2939655,43.4207047 C59.5043103,43.4207047 59.6974138,43.5586358 59.7586207,43.7698427 C59.8327586,44.0267392 59.6844828,44.2939806 59.4275862,44.3681185 C59.3827586,44.3810496 59.337931,44.387084 59.2939655,44.387084" id="Fill-2919" fill="#7D7D7D"/>
                <path d="M38.8439655,292.775877 C37.9931034,292.280187 37.1103448,291.857774 36.2043103,291.511222 C36.237931,291.88536 36.3068966,292.25605 36.412069,292.612946 C33.8017241,291.168119 30.8413793,290.855187 27.9956897,290.207774 C25.15,289.56036 22.1965517,288.431912 20.3637931,285.866394 C20.4387931,285.863808 20.512931,285.862084 20.587931,285.862084 C21.3818966,285.862084 22.1724138,286.01036 22.9560345,286.168981 C26.6431034,286.918981 30.2896552,287.926739 33.8681034,289.184498 C35.7931034,289.862084 37.8681034,290.766394 38.8439655,292.775877" id="Fill-2920" fill="#5F6566"/>
                <path d="M28.4913793,38.0474289 C28.7663793,37.6284634 29.2241379,37.374153 29.6655172,37.1379461 C31.7396552,36.0250151 33.8362069,34.9551875 35.9543103,33.9293254 C34.4931034,39.5086358 34.2706897,45.4086358 35.3068966,51.0819116 C35.3655172,51.4060496 35.4293103,51.736222 35.3887931,52.0638082 C35.3534483,52.3560496 35.2362069,52.6301875 35.137931,52.9077737 C34.6637931,54.2431185 34.6077586,55.7232909 34.9801724,57.0905323 C34.6112069,57.1879461 34.2413793,57.2844978 33.8724138,57.3819116 C33.7534483,57.4129461 33.6224138,57.4431185 33.512069,57.3888082 C33.3724138,57.3207047 33.3241379,57.149153 33.2905172,56.9974289 C32.4284483,53.0801875 31.3094828,50.5379461 29.8232759,45.5327737 C29.2155172,43.4844978 28.1241379,41.4957047 28.1637931,39.3603599 C28.1724138,38.9034634 28.2396552,38.4293254 28.4913793,38.0474289" id="Fill-2921" fill="#1A1A1A"/>
                <path d="M29.0413793,44.3594978 C29.0413793,44.3594978 48.0482759,29.7327737 62.5181034,32.7827737 L54.3836207,10.3353599 C54.3836207,10.3353599 49.6905172,8.22329094 40.1482759,11.1957047 C30.6060345,14.1672565 21.2982759,23.0844978 21.2982759,23.0844978 L29.0413793,44.3594978" id="Fill-2923" fill="#ED1B2D"/>
                <path d="M47.1353448,87.8215668 C47.1353448,87.4043254 46.7974138,87.0655323 46.3793103,87.0655323 C45.962069,87.0655323 45.6232759,87.4043254 45.6232759,87.8215668 C45.6232759,88.2388082 45.962069,88.5776013 46.3793103,88.5776013 C46.7974138,88.5776013 47.1353448,88.2388082 47.1353448,87.8215668" id="Fill-2924" fill="#3C3E3F"/>
                <path d="M47.1353448,95.3301875 C47.1353448,94.9129461 46.7974138,94.574153 46.3793103,94.574153 C45.962069,94.574153 45.6232759,94.9129461 45.6232759,95.3301875 C45.6232759,95.7482909 45.962069,96.086222 46.3793103,96.086222 C46.7974138,96.086222 47.1353448,95.7482909 47.1353448,95.3301875" id="Fill-2925" fill="#3C3E3F"/>
                <path d="M47.0284483,102.818981 C47.0163793,102.401739 46.6681034,102.073291 46.2508621,102.084498 C45.8336207,102.097429 45.5051724,102.444843 45.5163793,102.862084 C45.5284483,103.280187 45.8767241,103.608636 46.2939655,103.596567 C46.7112069,103.584498 47.0396552,103.237084 47.0284483,102.818981" id="Fill-2926" fill="#3C3E3F"/>
                <path d="M47.2422414,110.325015 C47.2301724,109.907774 46.8827586,109.579325 46.4646552,109.590532 C46.0474138,109.602601 45.7189655,109.950877 45.7310345,110.368119 C45.7422414,110.78536 46.0905172,111.11467 46.5086207,111.102601 C46.925,111.090532 47.2543103,110.742256 47.2422414,110.325015" id="Fill-2927" fill="#3C3E3F"/>
                <path d="M47.0284483,116.58536 C47.0163793,116.168119 46.6681034,115.838808 46.2508621,115.850877 C45.8336207,115.862946 45.5051724,116.211222 45.5163793,116.628463 C45.5284483,117.045705 45.8767241,117.375015 46.2939655,117.362946 C46.7112069,117.350877 47.0396552,117.002601 47.0284483,116.58536" id="Fill-2928" fill="#3C3E3F"/>
                <path d="M47.0284483,124.091394 C47.0163793,123.674153 46.6681034,123.344843 46.2508621,123.356912 C45.8336207,123.368981 45.5051724,123.716394 45.5163793,124.134498 C45.5284483,124.551739 45.8767241,124.880187 46.2939655,124.868119 C46.7112069,124.856912 47.0396552,124.508636 47.0284483,124.091394" id="Fill-2929" fill="#3C3E3F"/>
                <path d="M47.0284483,130.351739 C47.0163793,129.933636 46.6681034,129.605187 46.2508621,129.617256 C45.8336207,129.629325 45.5051724,129.976739 45.5163793,130.394843 C45.5284483,130.812084 45.8767241,131.140532 46.2939655,131.129325 C46.7112069,131.116394 47.0396552,130.768981 47.0284483,130.351739" id="Fill-2930" fill="#3C3E3F"/>
                <path d="M47.0284483,137.857774 C47.0163793,137.43967 46.6681034,137.111222 46.2508621,137.123291 C45.8336207,137.134498 45.5051724,137.482774 45.5163793,137.900015 C45.5284483,138.318119 45.8767241,138.646567 46.2939655,138.634498 C46.7112069,138.622429 47.0396552,138.274153 47.0284483,137.857774" id="Fill-2931" fill="#3C3E3F"/>
                <polygon id="Fill-2932" fill="#FFFFFF" points="38.7043103 83.5198427 52.1577586 83.5198427 52.1577586 78.3051875 38.7043103 78.3051875"/>
                <polyline id="Fill-2933" fill="#ADAEAE" points="48.1482759 98.8603599 47.5232759 98.8603599 47.4948276 83.5198427 48.1198276 83.5198427 48.1482759 98.8603599"/>
                <polyline id="Fill-2934" fill="#ADAEAE" points="48.1198276 83.5198427 47.4948276 83.5198427 47.4853448 78.3534634 48.1103448 78.3474289 48.1198276 83.5198427"/>
                <path d="M47.1353448,81.5638082 C47.1353448,81.1465668 46.7974138,80.8086358 46.3793103,80.8086358 C45.962069,80.8086358 45.6232759,81.1465668 45.6232759,81.5638082 C45.6232759,81.9819116 45.962069,82.3207047 46.3793103,82.3207047 C46.7974138,82.3207047 47.1353448,81.9819116 47.1353448,81.5638082" id="Fill-2937" fill="#3C3E3F"/>
                <path d="M13.4224138,156.531912 C13.4224138,156.531912 18.4534483,171.959498 19.475,173.481912 C20.4965517,175.004325 19.0293103,177.155187 17.4844828,175.547429 C15.9396552,173.93967 14.8025862,170.611222 14.8025862,170.611222 L14.462931,184.356912 C14.462931,184.356912 14.6508621,186.31467 13.2965517,186.513808 C11.9413793,186.713808 11.9965517,183.858636 11.9965517,183.858636 L11.7198276,174.83536 L9.95517241,184.645705 C9.95517241,184.645705 9.46637931,186.665532 8.19224138,186.566394 C6.91896552,186.466394 7.41810345,183.920705 7.41810345,183.920705 L8.35775862,174.093981 L5.77241379,183.663808 C5.77241379,183.663808 5.12586207,186.05605 3.70517241,185.803463 C2.28448276,185.550877 3.32413793,182.188808 3.32413793,182.188808 L5.15344828,172.905187 L2.3612069,177.661222 C2.3612069,177.661222 1.81982759,178.477601 1.15603448,177.863808 C0.493103448,177.250015 1.03965517,176.132774 1.03965517,176.132774 C1.03965517,176.132774 5.4612069,164.719843 6.93275862,162.343981 C8.40431034,159.967256 7.74827586,155.069843 7.74827586,155.069843 L13.0508621,156.374153 L13.4224138,156.531912" id="Fill-2954" fill="#E6B89C"/>
                <path d="M24.9741379,83.1543254 C24.9741379,83.1543254 12.4362069,94.7310496 8.78534483,120.662084 C5.13448276,146.593981 5.21108207,158.234498 5.21108207,158.234498 L15.712069,158.436222 C15.712069,158.436222 18.4448276,108.450877 25.6,103.178463 L24.9741379,83.1543254" id="Fill-2955" fill="#F2F2F2"/>
                <path d="M57.3034483,58.4905323 C57.3034483,58.4905323 57.6163793,60.3672565 54.8008621,61.7232909 C51.9853448,63.0793254 44.5801724,62.1405323 44.4758621,58.8034634 C44.4758621,58.8034634 46.6663793,60.6801875 48.9603448,60.2629461 C51.2551724,59.8465668 53.6017241,51.8155323 57.3034483,58.4905323" id="Fill-2956" fill="#1A1A1A"/>
                <path d="M55.7189655,57.5707047 C55.7189655,57.5707047 55.8939655,59.462084 58.7448276,60.1457047 C61.5956897,60.8301875 67.9991379,58.2603599 67.2827586,54.999153 C67.2827586,54.999153 65.7767241,57.311222 63.6206897,57.4207047 C61.4646552,57.5301875 56.6008621,51.9750151 55.7189655,57.5707047" id="Fill-2957" fill="#1A1A1A"/>
                <path d="M109.168103,55.9224289 L102.578448,55.6189806 L101.767241,48.2172565 C101.767241,48.2172565 102.578448,42.8439806 105.040517,40.5181185 C107.067241,38.6034634 111.343103,32.8155323 111.750862,32.5939806 C112.158621,32.3724289 114.527586,31.4758771 113.776724,33.7569116 C113.026724,36.0379461 107.618103,40.2931185 109.151724,41.4784634 C109.906034,42.061222 114.3,39.3810496 114.3,39.3810496 C114.3,39.3810496 113.877586,33.4638082 114.012069,32.7224289 C114.146552,31.9819116 115.109483,31.0026013 116.319828,31.5077737 C117.055172,31.8146703 116.565517,38.2026013 117.151724,39.7810496 C117.259483,40.0707047 117.192241,40.3957047 116.978448,40.6181185 L114.040517,43.7879461 L114.018103,43.8310496 C114.002586,43.9060496 114.000862,44.099153 114.434483,43.9551875 C114.964655,43.7793254 124.013793,35.4534634 125.259483,36.6655323 C126.881034,38.2413944 116.589655,45.8801875 116.589655,45.8801875 C116.589655,45.8801875 116.425862,46.3224289 116.851724,46.1776013 C117.277586,46.0327737 126.663793,38.9060496 127.998276,40.3301875 C129.339655,41.761222 117.87069,48.4707047 117.87069,48.4707047 C117.87069,48.4707047 117.369828,48.7543254 117.930172,48.749153 C118.490517,48.7439806 124.931034,47.4301875 125.307759,48.1103599 C126.162931,49.9707047 112.467241,53.5207047 108.530172,51.4603599 L109.168103,55.9224289" id="Fill-2958" fill="#E6B89C"/>
                <path d="M42.131199,30.8804784 C40.7334908,30.8804784 39.6388179,30.4901087 38.8471473,29.7093577 C38.0554766,28.9286067 37.6596473,27.8120948 37.6596473,26.3597887 L37.6596473,26.0485818 C38.7625263,26.179617 39.7725737,26.2451336 40.6898197,26.2451336 C40.8099352,26.2451336 40.949158,26.2424037 41.1074921,26.2369439 C41.2658262,26.2314841 41.3668309,26.2287542 41.4105093,26.2287542 C41.5306249,27.4189901 41.7763121,28.0140991 42.1475783,28.0140991 C42.3878094,28.0140991 42.5952786,27.8639569 42.7699921,27.563668 C42.9447056,27.2633792 43.0320611,26.8184124 43.0320611,26.2287542 C43.0320611,26.0758799 42.9993028,25.9694155 42.9337852,25.9093577 C42.8682676,25.8492999 42.7590733,25.8083521 42.606199,25.7865129 C42.1803348,25.7428345 41.6125244,25.6855075 40.9027507,25.6145301 C40.192977,25.5435527 39.6688444,25.4862257 39.3303369,25.4425473 C38.7734376,25.3661102 38.3503096,25.1995889 38.0609404,24.9429784 C37.7715711,24.6863679 37.6268886,24.2686997 37.6268886,23.6899611 C37.6268886,22.5980017 37.8561967,21.516978 38.3148197,20.4468577 C38.7734427,19.3767374 39.4449877,18.6287564 40.3294748,18.2028922 C40.7771782,17.9845003 41.3122304,17.875306 41.9346473,17.875306 C43.2995966,17.875306 44.405189,18.2438368 45.2514576,18.9809094 C46.0977262,19.7179821 46.5208542,20.812655 46.5208542,22.2649611 L46.5208542,22.5597887 C46.3679798,22.5597887 46.1222926,22.5515992 45.7837852,22.5352198 C45.4452778,22.5188404 45.21051,22.5106508 45.0794748,22.5106508 C44.3260228,22.5106508 43.6271792,22.5543285 42.9829231,22.6416853 C42.9174056,21.4405298 42.6062018,20.8399611 42.0493024,20.8399611 C41.8855085,20.8399611 41.7326365,20.976454 41.5906817,21.2494439 C41.3504507,21.6753081 41.2303369,22.1230048 41.2303369,22.5925473 C41.2303369,22.8546176 41.3777492,23.0020299 41.6725783,23.0347887 C43.2668391,23.2095022 44.2550476,23.3132368 44.6372335,23.3459956 C45.3906855,23.4005936 45.9284675,23.5534656 46.2505955,23.8046163 C46.5727236,24.055767 46.7337852,24.5034637 46.7337852,25.1477198 C46.7337852,25.8465738 46.6464297,26.5235786 46.4717162,27.1787542 C46.2970027,27.8339299 46.0322065,28.4454181 45.6773197,29.013237 C45.3224328,29.5810559 44.839248,30.0342123 44.2277507,30.3727198 C43.6162534,30.7112272 42.9174098,30.8804784 42.131199,30.8804784 Z" id="S" fill="#FFFFFF" transform="translate(42.180337, 24.377892) rotate(-15.000000) translate(-42.180337, -24.377892) "/>
                <path d="M93.7681034,105.536222 C81.5155172,105.536222 72.162931,97.2586358 69.7293103,95.5138082 L69.6784483,83.2457047 C78.1948276,89.7344978 92.1939655,98.6250151 97.0172414,94.7948427 C102.568966,90.3853599 102.417241,68.374153 100.497414,54.886222 L110.183621,53.511222 C111.112931,60.0163944 115.069828,92.9482909 103.14569,102.417256 C100.340517,104.644843 97.0741379,105.536222 93.7681034,105.536222" id="Fill-2959" fill="#F2F2F2"/>
            </g>
        </g>
    </g>
</svg>