<?xml version="1.0" encoding="UTF-8"?>
<svg width="145px" height="184px" viewBox="0 0 145 184" version="1.1" xmlns="http://www.w3.org/2000/svg" xmlns:xlink="http://www.w3.org/1999/xlink">
    <!-- Generator: sketchtool 50.2 (55047) - http://www.bohemiancoding.com/sketch -->
    <title>chef</title>
    <desc>Created with sketchtool.</desc>
    <defs/>
    <g id="Page-1" stroke="none" stroke-width="1" fill-rule="evenodd">
        <g id="chef">
            <g id="!chef" transform="translate(1.000000, 0.000000)">
                <path d="M55.1764273,5.90901749 C54.5844273,5.90901749 54.0084273,5.94801749 53.4454273,6.01101749 C53.4804273,5.66901749 53.4854273,5.32501749 53.4334273,4.98001749 C52.9164273,1.51101749 48.0764273,-0.641982507 42.6254273,0.172017493 C38.9774273,0.717017493 35.9874273,2.45401749 34.5584273,4.58201749 C32.2164273,3.36601749 28.5754273,3.43101749 25.0254273,5.00001749 C20.1264273,7.16601749 17.2274273,11.3870175 18.3684273,14.5670175 C16.5684273,15.1370175 14.6904273,16.2450175 13.0264273,17.8480175 C9.05642734,21.6720175 7.81042734,26.8200175 10.2444273,29.3470175 C12.6774273,31.8730175 17.8684273,30.8210175 21.8384273,26.9970175 C24.8214273,24.1230175 30.0884273,25.1170175 29.5904273,22.4230175 C31.0044273,22.2750175 30.8284273,19.8120175 32.3124273,19.1560175 C35.1384273,17.9070175 36.2864273,19.3650175 37.3934273,17.3420175 C39.4214273,18.5890175 41.2834273,13.2160175 44.5004273,12.7360175 C44.7454273,12.6990175 44.9844273,12.6510175 45.2234273,12.6040175 C45.5044273,15.9510175 49.8464273,18.6120175 55.1764273,18.6120175 C60.6884273,18.6120175 65.1564273,15.7680175 65.1564273,12.2610175 C65.1564273,8.75301749 60.6884273,5.90901749 55.1764273,5.90901749" id="Fill-2902" fill="#FFFFFF"/>
                <polygon id="Fill-2904" fill="#FFFFFF" points="23 183.493 75.806 183.493 75.806 96 23 96"/>
                <polygon id="Fill-2905" fill="#CC9C81" points="43 95.108 52.149 95.108 52.149 83 43 83"/>
                <path d="M34.7458636,71.6532323 C34.7458636,71.6532323 36.9098636,82.4172323 43.5148636,83.3162323 C50.1208636,84.2162323 62.5178636,85.1292323 69.1158636,82.1102323 C75.7138636,79.0922323 73.5858636,74.2912323 73.5858636,74.2912323 L69.1418636,56.9022323 C69.1418636,56.9022323 68.7238636,43.7692323 66.9868636,37.7352323 C65.2508636,31.7012323 64.5218636,30.8112323 62.9418636,29.2122323 C61.3618636,27.6132323 48.2628636,26.7482323 41.6198636,32.2062323 C34.9768636,37.6652323 26.0278636,40.1952323 26.6488636,43.0032323 C27.2708636,45.8112323 33.3538636,65.5202323 33.3538636,65.5202323 C33.3538636,65.5202323 26.3218636,60.5432323 26.0058636,69.5012323 C25.7378636,77.1242323 34.7458636,71.6532323 34.7458636,71.6532323" id="Fill-2906" fill="#E6B89C"/>
                <path d="M47.9263845,51.817746 C47.5423845,50.484746 46.1513845,49.714746 44.8183845,50.098746 C43.4843845,50.482746 42.7153845,51.873746 43.0983845,53.206746 C43.4823845,54.539746 44.8743845,55.309746 46.2063845,54.925746 C47.5403845,54.542746 48.3093845,53.150746 47.9263845,51.817746" id="Fill-2907" fill="#1A1A1A"/>
                <path d="M64.0465295,50.4936043 C63.7305295,49.3976043 62.5875295,48.7666043 61.4935295,49.0806043 C60.3985295,49.3956043 59.7665295,50.5386043 60.0805295,51.6336043 C60.3955295,52.7286043 61.5385295,53.3616043 62.6345295,53.0456043 C63.7285295,52.7316043 64.3615295,51.5876043 64.0465295,50.4936043" id="Fill-2908" fill="#1A1A1A"/>
                <path d="M67.937,67 C67.937,67 64.429,74.137 61.162,74.682 C57.896,75.226 51,70.206 51,70.206 L67.937,67" id="Fill-2909" fill="#FFFFFF"/>
                <path d="M57.071,62.854 C56.436,62.854 55.787,62.74 55.16,62.476 C55.54,62.628 55.998,62.699 56.494,62.699 C58.864,62.699 62.087,61.077 61.642,58.941 C61.29,57.251 59.551,56.946 58.344,56.946 C57.664,56.946 57.153,57.043 57.153,57.043 C59.863,50.484 55.84,48.139 55.84,48.139 C55.889,48.051 55.98,48 56.075,48 C56.119,48 56.163,48.011 56.205,48.034 C56.354,48.116 59.796,50.111 57.783,56.83 C57.884,56.826 58,56.823 58.128,56.823 C59.304,56.823 61.482,57.068 61.912,58.827 C62.134,59.735 61.681,60.763 60.696,61.574 C60.162,62.015 59.45,62.396 58.655,62.625 C58.153,62.77 57.617,62.854 57.071,62.854 M55.016,62.413 C55.01,62.41 55.005,62.408 55,62.405 C55.005,62.408 55.01,62.41 55.016,62.413" id="Fill-2910" fill="#826B5C"/>
                <path d="M40.7493009,49.0917577 C40.7493009,49.0917577 46.2053009,48.0117577 48.7023009,44.1867577 C48.7023009,44.1867577 48.4893009,42.5047577 47.0373009,42.0387577 C45.5853009,41.5727577 42.9023009,45.4267577 39.8493009,47.2717577 C37.5083009,48.6877577 40.7493009,49.0917577 40.7493009,49.0917577" id="Fill-2911" fill="#333333"/>
                <path d="M64.9050238,46.658 C64.9050238,46.658 59.2510238,45.29 58.4310238,44.569 C57.6120238,43.848 58.0460238,42.379 59.0130238,42 C59.0130238,42 64.3640238,44.108 64.9150238,45.065 C65.4650238,46.021 64.9050238,46.658 64.9050238,46.658" id="Fill-2912" fill="#333333"/>
                <path d="M56.3294466,49 C56.3294466,49 60.3524466,51.345 57.6424466,57.904 C57.6424466,57.904 61.5814466,57.16 62.1314466,59.802 C62.6814466,62.443 57.6244466,64.299 55.5054466,63.274 C53.3854466,62.248 53.3684466,50.261 56.3294466,49" id="Fill-2913" fill="#E7AC88"/>
                <path d="M46.525,57.098 C45.927,57.098 45.336,56.858 45,56.371 C45.298,56.495 45.617,56.55 45.939,56.55 C46.376,56.55 46.817,56.449 47.221,56.279 C47.922,55.985 48.527,55.502 49.099,55 C48.761,55.816 48.191,56.578 47.38,56.926 C47.113,57.04 46.818,57.098 46.525,57.098" id="Fill-2914" fill="#826B5C"/>
                <path d="M61.57,55.242 C61.478,55.242 61.386,55.236 61.294,55.225 C60.708,55.038 60.218,54.574 60,54 C60.476,54.4 61.077,54.575 61.697,54.575 C62.383,54.575 63.091,54.36 63.677,54 C63.27,54.754 62.424,55.242 61.57,55.242" id="Fill-2915" fill="#826B5C"/>
                <path d="M33.0169746,70.455 C32.7499746,69.569 32.3519746,68.552 31.4599746,68.314 C31.3049746,68.272 31.1449746,68.259 30.9839746,68.259 C30.8689746,68.259 30.7539746,68.265 30.6409746,68.274 C30.0259746,68.32 29.3759746,68.433 28.9199746,68.847 C28.6449746,69.097 28.4359746,69.458 28.0769746,69.557 C27.7929746,68.734 28.3319746,67.806 29.0849746,67.367 C29.5039746,67.122 29.9889746,67 30.4739746,67 C31.0689746,67 31.6639746,67.184 32.1359746,67.548 C32.9909746,68.209 33.3719746,69.433 33.0169746,70.455" id="Fill-2916" fill="#826B5C"/>
                <path d="M58.9645545,59.517 C58.8615545,59.517 58.7585545,59.511 58.6555545,59.498 C58.4845545,59.476 58.3095545,59.432 58.1755545,59.323 C58.0415545,59.214 57.9605545,59.025 58.0195545,58.863 C58.0975545,58.648 58.3675545,58.57 58.5175545,58.402 L58.3725545,58.391 C58.7325545,58.138 59.1725545,58 59.6135545,58 C59.6815545,58 59.7495545,58.003 59.8175545,58.01 C60.0455545,58.032 60.2895545,58.105 60.4175545,58.294 C60.5525545,58.494 60.5135545,58.777 60.3725545,58.974 C60.2325545,59.171 60.0095545,59.293 59.7825545,59.375 C59.5205545,59.469 59.2425545,59.517 58.9645545,59.517" id="Fill-2917" fill="#FEC2BE"/>
                <path d="M45.7410211,52.48 C45.4190211,52.48 45.1230211,52.269 45.0290211,51.945 C44.9160211,51.552 45.1430211,51.142 45.5360211,51.029 C45.6050211,51.009 45.6730211,51 45.7410211,51 C46.0620211,51 46.3590211,51.211 46.4520211,51.536 C46.5650211,51.928 46.3380211,52.338 45.9450211,52.451 C45.8770211,52.471 45.8080211,52.48 45.7410211,52.48" id="Fill-2918" fill="#7D7D7D"/>
                <path d="M62.5607232,51.121 C62.3167232,51.121 62.0927232,50.961 62.0217232,50.716 C61.9367232,50.418 62.1087232,50.107 62.4057232,50.022 C62.4577232,50.007 62.5097232,50 62.5607232,50 C62.8047232,50 63.0287232,50.16 63.0997232,50.405 C63.1857232,50.703 63.0137232,51.013 62.7157232,51.099 C62.6637232,51.114 62.6117232,51.121 62.5607232,51.121" id="Fill-2919" fill="#7D7D7D"/>
                <path d="M27.3812199,43.777 C27.7002199,43.291 28.2312199,42.996 28.7432199,42.722 C31.1492199,41.431 33.5812199,40.19 36.0382199,39 C34.3432199,45.472 34.0852199,52.316 35.2872199,58.897 C35.3552199,59.273 35.4292199,59.656 35.3822199,60.036 C35.3412199,60.375 35.2052199,60.693 35.0912199,61.015 C34.5412199,62.564 34.4762199,64.281 34.9082199,65.867 C34.4802199,65.98 34.0512199,66.092 33.6232199,66.205 C33.4852199,66.241 33.3332199,66.276 33.2052199,66.213 C33.0432199,66.134 32.9872199,65.935 32.9482199,65.759 C31.9482199,61.215 30.6502199,58.266 28.9262199,52.46 C28.2212199,50.084 26.9552199,47.777 27.0012199,45.3 C27.0112199,44.77 27.0892199,44.22 27.3812199,43.777" id="Fill-2921" fill="#1A1A1A"/>
                <path d="M27.982,51.312099 C27.982,51.312099 50.03,34.345099 66.815,37.883099 L57.379,11.844099 C57.379,11.844099 51.935,9.39409896 40.866,12.842099 C29.797,16.289099 19,26.633099 19,26.633099 L27.982,51.312099" id="Fill-2923" fill="#D22424"/>
                <path d="M48.754,101.877 C48.754,101.393 48.362,101 47.877,101 C47.393,101 47,101.393 47,101.877 C47,102.361 47.393,102.754 47.877,102.754 C48.362,102.754 48.754,102.361 48.754,101.877" id="Fill-2924" fill="#3C3E3F"/>
                <polygon id="Fill-2932" fill="#FFFFFF" points="39 96.049 54.606 96.049 54.606 90 39 90"/>
                <polyline id="Fill-2933" fill="#ADAEAE" points="49.758 113.795 49.033 113.795 49 96 49.725 96 49.758 113.795"/>
                <polyline id="Fill-2934" fill="#ADAEAE" points="49.736 96 49.011 96 49 90.007 49.725 90 49.736 96"/>
                <polygon id="Fill-2935" fill="#333333" points="63 114.691 68.444 114.691 68.444 96 63 96"/>
                <polygon id="Fill-2936" fill="#333333" points="31 114.691 36.444 114.691 36.444 96 31 96"/>
                <path d="M48.754,93.876 C48.754,93.392 48.362,93 47.877,93 C47.393,93 47,93.392 47,93.876 C47,94.361 47.393,94.754 47.877,94.754 C48.362,94.754 48.754,94.361 48.754,93.876" id="Fill-2937" fill="#3C3E3F"/>
                <path d="M22.9251448,96 C22.9251448,96 8.3811448,109.429 4.1461448,139.509 C-0.0888552021,169.59 0.000144797864,183.093 0.000144797864,183.093 L12.1811448,183.327 C12.1811448,183.327 15.3511448,125.344 23.6511448,119.228 L22.9251448,96" id="Fill-2955" fill="#F2F2F2"/>
                <path d="M60.88,67.0639587 C60.88,67.0639587 61.243,69.2409587 57.977,70.8139587 C54.711,72.3869587 46.121,71.2979587 46,67.4269587 C46,67.4269587 48.541,69.6039587 51.202,69.1199587 C53.864,68.6369587 56.586,59.3209587 60.88,67.0639587" id="Fill-2956" fill="#1A1A1A"/>
                <path d="M59,65.983 C59,65.983 59.203,68.177 62.51,68.97 C65.817,69.764 73.245,66.783 72.414,63 C72.414,63 70.667,65.682 68.166,65.809 C65.665,65.936 60.023,59.492 59,65.983" id="Fill-2957" fill="#1A1A1A"/>
                <path d="M121.585,65.4822466 L113.941,65.1302466 L113,56.5442466 C113,56.5442466 113.941,50.3112466 116.797,47.6132466 C119.148,45.3922466 124.108,38.6782466 124.581,38.4212466 C125.054,38.1642466 127.802,37.1242466 126.931,39.7702466 C126.061,42.4162466 119.787,47.3522466 121.566,48.7272466 C122.441,49.4032466 127.538,46.2942466 127.538,46.2942466 C127.538,46.2942466 127.048,39.4302466 127.204,38.5702466 C127.36,37.7112466 128.477,36.5752466 129.881,37.1612466 C130.734,37.5172466 130.166,44.9272466 130.846,46.7582466 C130.971,47.0942466 130.893,47.4712466 130.645,47.7292466 L127.237,51.4062466 L127.211,51.4562466 C127.193,51.5432466 127.191,51.7672466 127.694,51.6002466 C128.309,51.3962466 138.806,41.7382466 140.251,43.1442466 C142.132,44.9722466 130.194,53.8332466 130.194,53.8332466 C130.194,53.8332466 130.004,54.3462466 130.498,54.1782466 C130.992,54.0102466 141.88,45.7432466 143.428,47.3952466 C144.984,49.0552466 131.68,56.8382466 131.68,56.8382466 C131.68,56.8382466 131.099,57.1672466 131.749,57.1612466 C132.399,57.1552466 139.87,55.6312466 140.307,56.4202466 C141.299,58.5782466 125.412,62.6962466 120.845,60.3062466 L121.585,65.4822466" id="Fill-2958" fill="#E6B89C"/>
                <path d="M121.585,65.4822466 L113.941,65.1302466 L113,56.5442466 C113,56.5442466 113.941,50.3112466 116.797,47.6132466 C119.148,45.3922466 124.108,38.6782466 124.581,38.4212466 C125.054,38.1642466 127.802,37.1242466 126.931,39.7702466 C126.061,42.4162466 119.787,47.3522466 121.566,48.7272466 C122.441,49.4032466 127.538,46.2942466 127.538,46.2942466 C127.538,46.2942466 127.048,39.4302466 127.204,38.5702466 C127.36,37.7112466 128.477,36.5752466 129.881,37.1612466 C130.734,37.5172466 130.166,44.9272466 130.846,46.7582466 C130.971,47.0942466 130.893,47.4712466 130.645,47.7292466 L127.237,51.4062466 L127.211,51.4562466 C127.193,51.5432466 127.191,51.7672466 127.694,51.6002466 C128.309,51.3962466 138.806,41.7382466 140.251,43.1442466 C142.132,44.9722466 130.194,53.8332466 130.194,53.8332466 C130.194,53.8332466 130.004,54.3462466 130.498,54.1782466 C130.992,54.0102466 141.88,45.7432466 143.428,47.3952466 C144.984,49.0552466 131.68,56.8382466 131.68,56.8382466 C131.68,56.8382466 131.099,57.1672466 131.749,57.1612466 C132.399,57.1552466 139.87,55.6312466 140.307,56.4202466 C141.299,58.5782466 125.412,62.6962466 120.845,60.3062466 L121.585,65.4822466" id="Path" fill="#E6B89C"/>
                <path d="M102.944,122.349 C88.731,122.349 77.882,112.747 75.059,110.723 L75,96.492 C84.879,104.019 101.118,114.332 106.713,109.889 C113.153,104.774 112.977,79.241 110.75,63.595 L121.986,62 C123.064,69.546 127.654,107.747 113.822,118.731 C110.568,121.315 106.779,122.349 102.944,122.349" id="Fill-2959" fill="#F2F2F2"/>
                <path d="M42.8721908,35.8213549 C41.2508494,35.8213549 39.9810287,35.3685261 39.0626908,34.4628549 C38.1443529,33.5571837 37.6851908,32.26203 37.6851908,30.5773549 L37.6851908,30.2163549 C38.9645306,30.3683557 40.1361855,30.4443549 41.2001908,30.4443549 C41.3395249,30.4443549 41.5010232,30.4411883 41.6846908,30.4348549 C41.8683584,30.4285216 41.9855239,30.4253549 42.0361908,30.4253549 C42.1755249,31.8060285 42.460522,32.4963549 42.8911908,32.4963549 C43.1698589,32.4963549 43.4105231,32.32219 43.6131908,31.9738549 C43.8158585,31.6255199 43.9171908,31.1093583 43.9171908,30.4253549 C43.9171908,30.2480207 43.8791912,30.1245219 43.8031908,30.0548549 C43.7271904,29.9851879 43.600525,29.9376884 43.4231908,29.9123549 C42.9291884,29.861688 42.2705283,29.7951887 41.4471908,29.7128549 C40.6238534,29.6305212 40.0158595,29.5640218 39.6231908,29.5133549 C38.9771876,29.4246878 38.4863592,29.2315231 38.1506908,28.9338549 C37.8150225,28.6361868 37.6471908,28.1516916 37.6471908,27.4803549 C37.6471908,26.2136819 37.9131882,24.9596945 38.4451908,23.7183549 C38.9771935,22.4770154 39.7561857,21.6093574 40.7821908,21.1153549 C41.3015268,20.8620203 41.9221872,20.7353549 42.6441908,20.7353549 C44.2275321,20.7353549 45.5100192,21.1628507 46.4916908,22.0178549 C47.4733624,22.8728592 47.9641908,24.1426798 47.9641908,25.8273549 L47.9641908,26.1693549 C47.7868566,26.1693549 47.5018595,26.159855 47.1091908,26.1408549 C46.7165222,26.1218548 46.4441916,26.1123549 46.2921908,26.1123549 C45.4181865,26.1123549 44.6075279,26.1630211 43.8601908,26.2643549 C43.7841904,24.8710146 43.4231941,24.1743549 42.7771908,24.1743549 C42.5871899,24.1743549 42.4098583,24.3326867 42.2451908,24.6493549 C41.9665228,25.1433574 41.8271908,25.6626855 41.8271908,26.2073549 C41.8271908,26.5113564 41.9981891,26.6823547 42.3401908,26.7203549 C44.1895334,26.9230226 45.3358553,27.0433547 45.7791908,27.0813549 C46.6531952,27.1446886 47.2770223,27.3220201 47.6506908,27.6133549 C48.0243594,27.9046897 48.2111908,28.4240179 48.2111908,29.1713549 C48.2111908,29.9820256 48.1098585,30.7673511 47.9071908,31.5273549 C47.7045231,32.2873587 47.3973595,32.996685 46.9856908,33.6553549 C46.5740221,34.3140249 46.0135277,34.8396863 45.3041908,35.2323549 C44.5948539,35.6250236 43.7841954,35.8213549 42.8721908,35.8213549 Z" id="S" fill="#FFFFFF" transform="translate(42.929191, 28.278355) rotate(-15.000000) translate(-42.929191, -28.278355) "/>
            </g>
        </g>
    </g>
</svg>