<?xml version="1.0" encoding="UTF-8"?>
<svg width="30px" height="47px" viewBox="0 0 30 47" version="1.1" xmlns="http://www.w3.org/2000/svg" xmlns:xlink="http://www.w3.org/1999/xlink">
    <!-- Generator: sketchtool 50.2 (55047) - http://www.bohemiancoding.com/sketch -->
    <title>customer-head</title>
    <desc>Created with sketchtool.</desc>
    <defs/>
    <g id="Page-1" stroke="none" stroke-width="1" fill-rule="evenodd">
        <g id="customer-head">
            <g id="!head">
                <path d="M1.04967259,6.79138537 C0.323460541,6.97653884 -0.160019431,7.82295469 0.0489814874,8.54373068 C0.798342375,8.186649 1.54770326,7.83617994 2.29706415,7.48571087 C2.10790509,7.3534584 1.83937859,7.50554874 1.74347627,7.71715271 C1.64757395,7.92214404 1.66278605,8.1601985 1.63765302,8.38502771 C1.53579815,9.28434455 0.765934004,10.0580215 0.838026093,10.9573384 C0.949140506,12.3459894 2.92538969,13.073378 2.89165853,14.462029 C2.8817376,14.865399 2.68662599,15.2621565 2.72101854,15.6655265 C2.77789854,16.3400142 3.40886967,16.78306 3.9115301,17.2327184 C5.29186212,18.4560538 5.99823231,20.2414622 6.92881551,21.8351045 C8.76088052,24.9761009 11.6200925,27.5021232 14.9601388,28.9370625 C16.8775238,29.7636405 19.0045711,30.2331368 21.0621719,29.8826677 C23.1191113,29.5321987 25.086101,28.2625749 25.9194591,26.3515266 C26.0504153,26.0539585 26.1569,25.72994 26.3698693,25.4852729 C26.8368144,24.9364251 27.7726887,24.7644969 27.9208413,24.0635588 C27.9949176,23.7064771 27.8262618,23.3229449 27.9512655,22.9857011 C28.1582822,22.4302407 29.0769603,22.2120241 28.9982542,21.616888 C28.971137,21.4118966 28.8183547,21.246581 28.7747026,21.0482023 C28.6814459,20.6183818 29.0908496,20.2613001 29.2886068,19.8711553 C29.4354365,19.5801998 29.4658607,19.2495686 29.4949621,18.9255501 C29.6510514,17.1599795 29.8078021,15.4010216 29.9645528,13.635451 C29.9989454,13.2519188 30.0326765,12.8485488 29.9400812,12.4716292 C29.8421947,12.0748718 29.6054151,11.6979522 29.6166589,11.2879696 C29.6226114,11.0631404 29.7059472,10.8449238 29.7396784,10.6200946 C29.9235463,9.38353391 28.6470533,8.44454133 27.4757222,8.01472078 C28.1523296,7.39313414 27.6754636,6.02432101 26.7567855,5.95158215 C26.9743846,5.46224799 26.3110051,5.09194105 25.9055698,4.74147199 C25.1700982,4.10004748 25.2574024,2.75107222 26.0689344,2.21544969 C25.4048935,2.22867494 24.7891345,2.75768485 24.6780201,3.4123346 C24.0596155,3.28669475 23.7547122,2.61220712 23.3711029,2.10964771 C22.9868323,1.61370093 22.1217272,1.28306974 21.7943365,1.82530489 C21.7559756,1.25661924 21.26985,0.806960823 20.7433794,0.595356861 C20.2162473,0.377140275 19.6375264,0.337464532 19.081293,0.218437304 C18.875599,0.172148937 18.6599841,0.119247946 18.4582586,0.178761561 C18.057453,0.304401413 17.8854902,0.833411318 17.4807163,0.939213299 C16.9740875,1.0780784 16.5990764,0.496167504 16.1625554,0.205212056 C15.6129359,-0.158482254 14.788176,-0.0262297774 14.3880318,0.502780128 C14.2888225,0.62841998 14.2061481,0.787122951 14.058657,0.859861813 C13.8152635,0.978889042 13.5394616,0.813573447 13.2881314,0.71438409 C12.7378505,0.48955488 12.0685185,0.608582109 11.6247222,1.00533954 C11.4124143,1.190493 11.2325148,1.44177271 10.9573744,1.51451157 C10.548632,1.61370093 10.1749437,1.25661924 9.76223302,1.17726776 C9.21261352,1.06485315 8.68812704,1.44838533 8.30187218,1.85175539 C7.91495592,2.26173806 7.54788152,2.73784698 7.01148993,2.90316257 C6.47509833,3.06847817 5.74425651,2.68494599 5.83552906,2.12948559 C5.51276815,2.38076529 5.51805931,2.94283831 5.8441272,3.18089277 C5.44729001,3.24040639 5.09013655,3.51813659 4.9280947,3.8818309 C4.83682214,4.09343486 4.80441377,4.32487669 4.68139424,4.51664278 C4.19130032,5.27709452 2.68001203,4.88033709 2.37973856,5.73336556 C2.31029206,5.93174428 2.3327795,6.15657349 2.2335702,6.34172695 C2.02523068,6.72525913 1.47494978,6.68558339 1.04967259,6.79138537" id="Fill-1184" fill="#7C2512" transform="translate(15.000000, 15.000000) scale(-1, 1) translate(-15.000000, -15.000000) "/>
                <polyline id="Fill-1194" fill="#CC9C81" transform="translate(16.000000, 42.000000) scale(-1, 1) translate(-16.000000, -42.000000) " points="13.247302 37 19 37.1439342 18.752698 47 13 46.8560658 13.247302 37"/>
                <path d="M24.0881826,31.0444794 C24.0881826,31.0444794 23.1935261,37.3259081 19.4738098,38.0539978 C15.7540936,38.7820876 8.74898553,39.7021282 4.91223571,38.1665208 C1.0748357,36.6309133 2.13398931,33.7913634 2.13398931,33.7913634 L4.11640758,23.6047261 C4.11640758,23.6047261 3.94735912,16.0061169 4.745788,12.4649532 C5.54356668,8.93040849 8.0103738,6.96456621 8.85756666,5.99157356 C9.70410932,5.01858092 17.7839754,2.41731487 21.7215042,5.3627688 C25.6590329,8.30822272 27.9919016,14.1395596 27.7266256,15.781071 C27.4613495,17.4225824 24.6876544,27.4569827 24.6876544,27.4569827 C24.6876544,27.4569827 28.5231039,24.3592918 28.9795347,29.52211 C29.3683462,33.9171243 24.0881826,31.0444794 24.0881826,31.0444794" id="Fill-1195" fill="#E6B89C" transform="translate(15.500000, 21.500000) scale(-1, 1) translate(-15.500000, -21.500000) "/>
                <path d="M13.0382876,20.1652362 C13.2241186,19.3590705 14.028931,18.8535089 14.835793,19.0379706 C15.6426551,19.2224322 16.1468584,20.028598 15.9617106,20.8347638 C15.7765627,21.6409295 14.9717503,22.1464911 14.1648883,21.9620294 C13.3573431,21.7775678 12.8531397,20.971402 13.0382876,20.1652362" id="Fill-1196" fill="#1A1A1A" transform="translate(14.500000, 20.500000) scale(-1, 1) translate(-14.500000, -20.500000) "/>
                <path d="M22.6884198,26 C22.4393288,26 22.1940896,25.969278 21.9597642,25.9201229 C21.5071631,25.8218126 21.0969332,25.6374808 20.7842854,25.4162826 C20.2077807,25.0107527 19.9220963,24.4700461 20.0183944,23.9784946 C20.2263984,22.9155146 21.6959074,22.7926267 22.2711281,22.7864823 C20.9377203,19.2411674 22.8046196,18.0737327 22.8861519,18.0245776 C22.9111895,18.0061444 22.9387949,18 22.9657584,18 C23.0164754,18 23.0652664,18.0245776 23.0935139,18.0675883 C23.0935139,18.0675883 20.9120408,19.4439324 22.630641,22.8786482 C22.630641,22.8786482 22.4508845,22.8602151 22.1883117,22.8602151 C21.5264227,22.8602151 20.3361782,23.0015361 20.1731134,24.0276498 C19.9972089,25.1397849 21.6946234,25.9016897 23.0049196,25.9016897 C23.3477409,25.9016897 23.6635986,25.8463902 23.9133317,25.7357911 C23.5165835,25.9201229 23.0973658,26 22.6884198,26 M23.9922962,25.6989247 C23.9948641,25.6989247 23.9974321,25.6927803 24,25.6927803 C23.9974321,25.6927803 23.9948641,25.6989247 23.9922962,25.6989247" id="Fill-1197" fill="#826B5C" transform="translate(22.000000, 22.000000) scale(-1, 1) translate(-22.000000, -22.000000) "/>
                <path d="M16.1765247,17.9801199 C16.1765247,17.9801199 13.0061611,18.2790608 11.0142034,16.5584897 C11.0142034,16.5584897 10.8583053,15.5885925 11.5794975,15.0903576 C12.3006897,14.5921228 14.399418,16.2927644 16.3743449,16.8175718 C17.8894381,17.2228029 16.1765247,17.9801199 16.1765247,17.9801199" id="Fill-1198" fill="#682014" transform="translate(14.000000, 16.500000) scale(-1, 1) translate(-14.000000, -16.500000) "/>
                <path d="M22.0300584,17.7544354 C22.0300584,17.7544354 25.0378934,18.1951229 25.5642794,17.895788 C26.0912602,17.6047679 26.1340848,16.4905767 25.7260613,16 C25.7260613,16 22.738449,16.1413526 22.3024706,16.6651888 C21.8664921,17.1807101 22.0300584,17.7544354 22.0300584,17.7544354" id="Fill-1199" fill="#682014" transform="translate(24.000000, 17.000000) scale(-1, 1) translate(-24.000000, -17.000000) "/>
                <path d="M21.2561295,18 C21.2561295,18 18.834382,19.4059689 20.7422743,22.9146145 C20.7422743,22.9146145 18.2670745,22.6258887 18.0140667,24.0883474 C17.7617717,25.5570828 20.9703377,26.4169834 22.2539066,25.7955954 C23.5367628,25.1679307 23.1405028,18.6025581 21.2561295,18" id="Fill-1200" fill="#E7AC88" transform="translate(20.500000, 22.000000) scale(-1, 1) translate(-20.500000, -22.000000) "/>
                <path d="M15.2295442,23 C15.1081823,23 14.9868204,22.9766082 14.8742449,22.9356725 C14.476112,22.7777778 14.1834157,22.4093567 14,22 C14.2872048,22.2397661 14.5892367,22.4678363 14.9330038,22.6023392 C15.107084,22.6666667 15.2943438,22.7076023 15.4788578,22.7076023 C15.6589786,22.7076023 15.8374519,22.6666667 16,22.5847953 C15.841296,22.8596491 15.5365184,23 15.2295442,23" id="Fill-1201" fill="#826B5C" transform="translate(15.000000, 22.500000) scale(-1, 1) translate(-15.000000, -22.500000) "/>
                <path d="M24.1158879,22 C23.6735202,22 23.2323988,21.6724138 23,21.1465517 C23.3003115,21.3706897 23.6517134,21.5 23.9937695,21.5 C24.3669782,21.5 24.7283489,21.3448276 25,21 C24.8978193,21.4396552 24.6448598,21.8103448 24.3327103,21.9741379 C24.2610592,21.9913793 24.188785,22 24.1158879,22" id="Fill-1202" fill="#826B5C" transform="translate(24.000000, 21.500000) scale(-1, 1) translate(-24.000000, -21.500000) "/>
                <path d="M4.10516692,30 C3.86499862,29.4394904 4.04881458,28.7515924 4.52780947,28.3566879 C4.81627978,28.1210191 5.19598722,28 5.57636551,28 C5.82928018,28 6.08286571,28.0509554 6.30894593,28.1592357 C6.76311896,28.3821656 7.10861247,28.8853503 6.96840248,29.3503185 C6.75506862,29.3057325 6.62156724,29.1082803 6.45183936,28.9808917 C6.17209025,28.7643312 5.78768679,28.7197452 5.42676347,28.7133758 C5.39791643,28.7133758 5.36974026,28.7133758 5.34089323,28.7133758 C5.20806272,28.7133758 5.07456134,28.7197452 4.94843944,28.7579618 C4.4338889,28.9235669 4.23330141,29.4968153 4.10516692,30" id="Fill-1203" fill="#826B5C" transform="translate(5.500000, 29.000000) scale(-1, 1) translate(-5.500000, -29.000000) "/>
                <path d="M21.5771625,25 C21.4840903,25 21.3914722,24.9769231 21.3024861,24.9307692 C21.210322,24.8846154 21.1195199,24.8076923 21.0595905,24.6846154 C20.9996611,24.5538462 20.9778686,24.3692308 21.0273557,24.2307692 C21.0736648,24.1 21.169007,24.0384615 21.2589011,24.0153846 C21.3006701,24.0076923 21.342893,24 21.385116,24 C21.5449277,24 21.7042854,24.0769231 21.8391265,24.2153846 L21.7823752,24.2307692 C21.8450287,24.3384615 21.9539912,24.3846154 21.989404,24.5230769 C22.0166446,24.6307692 21.988496,24.7615385 21.9376468,24.8384615 C21.8872516,24.9153846 21.818696,24.9538462 21.7510485,24.9692308 C21.6938432,24.9923077 21.6352758,25 21.5771625,25" id="Fill-1204" fill="#FEC2BE" transform="translate(21.500000, 24.500000) scale(-1, 1) translate(-21.500000, -24.500000) "/>
                <path d="M14.5003668,20 C14.4632762,20 14.4261856,19.9923077 14.3883223,19.9846154 C14.1194153,19.9230769 13.9509621,19.6538462 14.0127798,19.3846154 C14.0660975,19.1615385 14.2716414,19 14.4995941,19 C14.5366847,19 14.5745481,19.0076923 14.6116387,19.0153846 C14.8813184,19.0769231 15.0489989,19.3461538 14.9871812,19.6076923 C14.9338634,19.8384615 14.7283196,20 14.5003668,20" id="Fill-1205" fill="#7D7D7D" transform="translate(14.500000, 19.500000) scale(-1, 1) translate(-14.500000, -19.500000) "/>
                <path d="M13.7690463,30 C13.7618859,30 13.7547254,30 13.747565,30 L13.7061935,29.9921875 C13.6107207,29.9609375 13.5454811,29.8671875 13.5558239,29.765625 C13.5963998,29.3515625 13.5788965,28.8046875 13.2582673,28.5625 C13.1150582,28.453125 12.9352513,28.4140625 12.7689696,28.4140625 C12.5135801,28.4140625 12.2924016,28.5 12.2884236,28.5 C12.2637598,28.5078125 12.239096,28.5078125 12.2144322,28.5078125 C12.1277112,28.5078125 12.0457638,28.4609375 12.0131439,28.375 C11.972568,28.265625 12.029056,28.1484375 12.1396453,28.1015625 C12.1587398,28.09375 12.4324283,28 12.7673784,28 C13.0100382,28 13.2853179,28.046875 13.5184305,28.2265625 C13.9011169,28.515625 14.0570557,29.046875 13.9814731,29.8125 C13.9711303,29.9140625 13.8780444,30 13.7690463,30" id="Fill-1206" fill="#826B5C" transform="translate(13.000000, 29.000000) scale(-1, 1) translate(-13.000000, -29.000000) "/>
                <path d="M26,29.1214915 C26,29.1214915 18.9588786,31.5887728 14,28 C14,28 15.0992718,32.2313572 14.1360127,33.1285504 C14.1360127,33.1285504 24.3080545,36.7840065 26,29.1214915" id="Fill-1207" fill="#333333" transform="translate(20.000000, 31.000000) scale(-1, 1) translate(-20.000000, -31.000000) "/>
                <path d="M14,29 C14,29 14.1857483,31.6972903 14.3391063,31.6733676 C14.3391063,31.6733676 21.3876256,33.2821726 24,29.3588413 C24,29.3588413 18.3786356,31.147067 14,29" id="Fill-1208" fill="#FFFFFF" transform="translate(19.000000, 30.500000) scale(-1, 1) translate(-19.000000, -30.500000) "/>
                <path d="M24,33.0319294 C24,33.0319294 22.2338193,32.9600883 20.3668208,33.0319294 C18.4998222,33.1037705 17,33.7599197 17,33.7599197 C17,33.7599197 20.0394737,34.2484395 21.9886202,33.8317608 C23.4156294,33.5252386 24,33.0319294 24,33.0319294" id="Fill-1209" fill="#EA8686" transform="translate(20.500000, 33.500000) scale(-1, 1) translate(-20.500000, -33.500000) "/>
                <path d="M22.038295,19.1652362 C22.2234695,18.3590705 23.028398,17.8535089 23.8360597,18.0379706 C24.6430382,18.2224322 25.1473143,19.028598 24.9614564,19.8347638 C24.7762819,20.6409295 23.9720366,21.1464911 23.1643749,20.9620294 C22.3573965,20.7775678 21.8531204,19.971402 22.038295,19.1652362" id="Fill-1210" fill="#1A1A1A" transform="translate(23.500000, 19.500000) scale(-1, 1) translate(-23.500000, -19.500000) "/>
                <path d="M23.5007722,19 C23.4636545,19 23.4257634,18.9923077 23.3886456,18.9846154 C23.1187685,18.9230769 22.9509652,18.6538462 23.0128282,18.3923077 C23.0654117,18.1615385 23.2718793,18 23.4999989,18 C23.5371167,18 23.5742345,18.0076923 23.6121255,18.0153846 C23.8812294,18.0769231 24.0490326,18.3461538 23.9871697,18.6153846 C23.9345862,18.8461538 23.7288919,19 23.5007722,19" id="Fill-1211" fill="#7D7D7D" transform="translate(23.500000, 18.500000) scale(-1, 1) translate(-23.500000, -18.500000) "/>
                <path d="M23.7094526,28 C23.2128224,26.6796433 23.1845902,25.2332224 23.163416,23.8266113 C23.097327,19.4541738 23.0305963,15.0883713 22.9645073,10.7159338 C22.2939924,10.1320575 21.2923906,11.5187638 20.5044553,11.1140313 C20.1996758,10.9614273 20.0488901,10.5765997 19.7383358,10.4306306 C18.6494709,9.92637382 18.1060009,12.7462311 17.0107195,12.2552441 C17.2795671,12.6400717 17.2616012,13.2173131 16.9690128,13.5822358 C16.6764245,13.9471585 16.135521,14.0798577 15.717171,13.8808089 C16.2644909,13.8343642 17.0107195,13.4760765 16.7925615,12.9585497 C16.7033734,12.7462311 16.4736659,12.6334368 16.3434128,12.4476579 C16.0264421,11.9832109 16.4255428,11.3727947 16.8034694,10.9614273 C17.4091786,10.3045664 18.0155295,9.65434053 18.6218803,8.99747966 C18.1008677,9.84011936 16.6931072,9.07709916 15.9019637,9.65434053 C15.2635308,10.1187876 15.2712305,11.2998102 14.5250019,11.5386687 C14.0591704,11.6846377 13.4970928,11.3661597 13.0896507,11.644828 C12.9106329,11.7642572 12.8105368,11.9765759 12.6603928,12.1358149 C12.0707247,12.7462311 11.0697645,12.3282287 10.3517681,11.8836865 C10.1079445,12.3215937 9.8641209,12.752866 9.62029728,13.1907733 C9.53175081,13.3500123 9.41433049,13.5225212 9.23852083,13.5357911 C9.06271116,13.542426 8.95812366,13.2173131 9.13136676,13.1907733 C8.15928049,13.1376936 7.17243647,13.4827114 6.43069936,14.1329373 C7.32514706,13.2770277 8.21959475,12.4277531 9.11340081,11.5718435 C8.2343525,12.2087994 6.73034575,11.3130801 6.05469767,12.1756247 C5.71655281,12.6068969 5.72810235,13.3699171 5.21799767,13.549061 C4.82274675,13.6817602 4.37808947,13.3301074 3.98797168,13.4827114 C3.52599008,13.6618553 3.53497306,14.3319861 3.62801102,14.8362429 C3.45220136,14.8495128 3.28729959,14.9623071 3.20067804,15.1215461 C2.90167329,13.7945545 2.91643103,12.3746734 3.38354576,11.1073964 C3.94562336,9.57472103 5.11661838,8.36052368 6.40824192,7.41172465 C8.35754759,5.98520863 10.6225407,5.0695844 12.9337319,4.43926337 C13.9237842,4.17386504 14.9407853,3.95491142 15.9629196,4.00799109 C17.4592266,4.08761058 18.8663456,4.75110641 20.17786,5.50085668 C21.2718581,6.12454276 22.3408322,6.82121337 23.215389,7.75010752 C24.4486232,9.05055933 25.2359168,10.7159338 26.0013946,12.3614035 C26.3485225,13.0978838 26.6975752,13.8476341 26.8669685,14.657099 C27.064594,15.5926281 27.0100545,16.561332 26.9086752,17.516766 C26.5166325,21.179263 25.4226344,24.7621404 23.7094526,28" id="Fill-1213" fill="#7C2512" transform="translate(15.000000, 16.000000) scale(-1, 1) translate(-15.000000, -16.000000) "/>
            </g>
        </g>
    </g>
</svg>