<?xml version="1.0" encoding="UTF-8"?>
<svg width="145px" height="299px" viewBox="0 0 145 299" version="1.1" xmlns="http://www.w3.org/2000/svg" xmlns:xlink="http://www.w3.org/1999/xlink">
    <!-- Generator: sketchtool 50.2 (55047) - http://www.bohemiancoding.com/sketch -->
    <title>customer</title>
    <desc>Created with sketchtool.</desc>
    <defs/>
    <g id="Page-1" stroke="none" stroke-width="1" fill-rule="evenodd">
        <g id="customer">
            <g id="!customer">
                <path d="M20.9964632,10.875 C19.8984632,11.155 19.1674632,12.435 19.4834632,13.525 C20.6164632,12.985 21.7494632,12.455 22.8824632,11.925 C22.5964632,11.725 22.1904632,11.955 22.0454632,12.275 C21.9004632,12.585 21.9234632,12.945 21.8854632,13.285 C21.7314632,14.645 20.5674632,15.815 20.6764632,17.175 C20.8444632,19.275 23.8324632,20.375 23.7814632,22.475 C23.7664632,23.085 23.4714632,23.685 23.5234632,24.295 C23.6094632,25.315 24.5634632,25.985 25.3234632,26.665 C27.4104632,28.515 28.4784632,31.215 29.8854632,33.625 C32.6554632,38.375 36.9784632,42.195 42.0284632,44.365 C44.9274632,45.615 48.1434632,46.325 51.2544632,45.795 C54.3644632,45.265 57.3384632,43.345 58.5984632,40.455 C58.7964632,40.005 58.9574632,39.515 59.2794632,39.145 C59.9854632,38.315 61.4004632,38.055 61.6244632,36.995 C61.7364632,36.455 61.4814632,35.875 61.6704632,35.365 C61.9834632,34.525 63.3724632,34.195 63.2534632,33.295 C63.2124632,32.985 62.9814632,32.735 62.9154632,32.435 C62.7744632,31.785 63.3934632,31.245 63.6924632,30.655 C63.9144632,30.215 63.9604632,29.715 64.0044632,29.225 C64.2404632,26.555 64.4774632,23.895 64.7144632,21.225 C64.7664632,20.645 64.8174632,20.035 64.6774632,19.465 C64.5294632,18.865 64.1714632,18.295 64.1884632,17.675 C64.1974632,17.335 64.3234632,17.005 64.3744632,16.665 C64.6524632,14.795 62.7224632,13.375 60.9514632,12.725 C61.9744632,11.785 61.2534632,9.715 59.8644632,9.605 C60.1934632,8.865 59.1904632,8.305 58.5774632,7.775 C57.4654632,6.805 57.5974632,4.765 58.8244632,3.955 C57.8204632,3.975 56.8894632,4.775 56.7214632,5.765 C55.7864632,5.575 55.3254632,4.555 54.7454632,3.795 C54.1644632,3.045 52.8564632,2.545 52.3614632,3.365 C52.3034632,2.505 51.5684632,1.825 50.7724632,1.505 C49.9754632,1.175 49.1004632,1.115 48.2594632,0.935 C47.9484632,0.865 47.6224632,0.785 47.3174632,0.875 C46.7114632,1.065 46.4514632,1.865 45.8394632,2.025 C45.0734632,2.235 44.5064632,1.355 43.8464632,0.915 C43.0154632,0.365 41.7684632,0.565 41.1634632,1.365 C41.0134632,1.555 40.8884632,1.795 40.6654632,1.905 C40.2974632,2.085 39.8804632,1.835 39.5004632,1.685 C38.6684632,1.345 37.6564632,1.525 36.9854632,2.125 C36.6644632,2.405 36.3924632,2.785 35.9764632,2.895 C35.3584632,3.045 34.7934632,2.505 34.1694632,2.385 C33.3384632,2.215 32.5454632,2.795 31.9614632,3.405 C31.3764632,4.025 30.8214632,4.745 30.0104632,4.995 C29.1994632,5.245 28.0944632,4.665 28.2324632,3.825 C27.7444632,4.205 27.7524632,5.055 28.2454632,5.415 C27.6454632,5.505 27.1054632,5.925 26.8604632,6.475 C26.7224632,6.795 26.6734632,7.145 26.4874632,7.435 C25.7464632,8.585 23.4614632,7.985 23.0074632,9.275 C22.9024632,9.575 22.9364632,9.915 22.7864632,10.195 C22.4714632,10.775 21.6394632,10.715 20.9964632,10.875" id="Fill-1184" fill="#7C2512" transform="translate(42.088732, 23.288552) scale(-1, 1) translate(-42.088732, -23.288552) "/>
                <path d="M7.46895674,159.855 C7.46895674,159.855 2.00695674,174.095 0.975956739,175.465 C-0.0560432611,176.845 1.21695674,178.935 2.74395674,177.505 C4.27095674,176.065 5.49695674,173.005 5.49695674,173.005 L5.15395674,185.915 C5.15395674,185.915 4.88395674,187.745 6.14495674,187.995 C7.40695674,188.245 7.49195674,185.565 7.49195674,185.565 L8.18595674,177.115 L9.36895674,186.405 C9.36895674,186.405 9.73095674,188.325 10.9309567,188.285 C12.1309567,188.255 11.7849567,185.845 11.7849567,185.845 L11.3759567,176.575 L13.3409567,185.685 C13.3409567,185.685 13.8329567,187.955 15.1779567,187.785 C16.5229567,187.615 15.7089567,184.415 15.7089567,184.415 L14.4389567,175.615 L16.8309567,180.215 C16.8309567,180.215 17.2989567,181.005 17.9509567,180.465 C18.6029567,179.915 18.1439567,178.845 18.1439567,178.845 C18.1439567,178.845 14.5449567,167.925 13.2779567,165.625 C12.0119567,163.325 12.8639567,158.765 12.8639567,158.765 L7.82595674,159.725 L7.46895674,159.855" id="Fill-1185" fill="#CC9C81" transform="translate(9.451478, 173.525308) scale(-1, 1) translate(-9.451478, -173.525308) "/>
                <path d="M138.34587,136.815 C138.34587,136.815 131.49587,136.425 128.96787,135.605 C126.44087,134.795 124.83687,135.055 124.83687,135.055 C124.83687,135.055 115.05887,138.625 114.14387,139.565 C113.22987,140.505 114.02487,141.105 114.30987,141.345 C114.43787,141.455 116.41587,140.855 118.55887,140.155 L114.34887,142.765 C114.34887,142.765 113.33687,144.045 114.61687,144.245 C115.34687,144.355 115.67387,144.275 115.82587,144.185 C115.60887,144.425 115.21687,144.915 115.38487,145.125 C115.61187,145.405 116.33287,146.005 117.23987,145.405 C117.23987,145.405 116.76887,146.115 117.36987,146.615 C117.96887,147.115 123.81987,143.175 123.81987,143.175 L128.61487,143.055 L128.67287,143.135 C128.97487,143.735 128.45887,144.435 127.90187,144.805 C126.69987,145.615 125.15487,145.875 124.08387,146.845 C123.81887,147.085 123.57987,147.385 123.54287,147.745 C123.50487,148.095 123.74087,148.495 124.09587,148.525 C124.22787,148.535 124.35687,148.505 124.48387,148.465 C128.84987,147.145 133.20387,145.815 137.39687,144.015 C137.82287,143.835 139.00387,143.295 139.07887,142.845 L144.02887,141.405 L141.79987,134.735 L138.34587,136.815" id="Fill-1186" fill="#E6B89C" transform="translate(128.872935, 141.630969) scale(-1, 1) translate(-128.872935, -141.630969) "/>
                <path d="M62.012,144.955 L59.745,134.645 C67.192,133.735 87.963,129.655 94.558,121.825 C101.46,113.635 109.338,74.995 112.607,72.495 L119.367,78.555 C118.696,82.495 112.529,117.345 102.772,128.925 C92.663,140.935 65.119,144.585 62.012,144.955" id="Fill-1187" fill="#5B5959" transform="translate(89.556000, 108.725000) scale(-1, 1) translate(-89.556000, -108.725000) "/>
                <path d="M73.583423,278.165 L75.017423,282.755 C75.017423,282.755 46.476423,288.175 47.951423,298.175 L85.294423,298.175 C85.294423,298.175 88.570423,291.155 82.837423,283.315 L79.398423,274.665 L74.157423,277.535 L73.583423,278.165" id="Fill-1188" fill="#666768" transform="translate(67.061212, 286.420000) scale(-1, 1) translate(-67.061212, -286.420000) "/>
                <path d="M75.017423,282.755 C75.017423,282.755 46.476423,288.175 47.951423,298.175 L85.294423,298.175 C85.294423,298.175 88.570423,290.655 82.837423,282.805 L75.017423,282.755" id="Fill-1189" fill="#42210B" transform="translate(67.061212, 290.465000) scale(-1, 1) translate(-67.061212, -290.465000) "/>
                <path d="M28.3787494,278.165 L29.8117494,282.755 C29.8117494,282.755 1.27174944,288.175 2.74574944,298.175 L40.0897494,298.175 C40.0897494,298.175 43.3647494,291.155 37.6327494,283.315 L34.1927494,274.665 L28.9517494,277.535 L28.3787494,278.165" id="Fill-1190" fill="#666768" transform="translate(21.855875, 286.420000) scale(-1, 1) translate(-21.855875, -286.420000) "/>
                <path d="M29.8117494,282.755 C29.8117494,282.755 1.27174944,288.175 2.74574944,298.175 L40.0897494,298.175 C40.0897494,298.175 43.3647494,290.655 37.6327494,282.805 L29.8117494,282.755" id="Fill-1191" fill="#42210B" transform="translate(21.855875, 290.465000) scale(-1, 1) translate(-21.855875, -290.465000) "/>
                <path d="M9.88464773,148.145 C9.88464773,148.145 -5.82535227,221.065 12.5186477,278.605 L28.3246477,277.665 C28.3246477,277.665 16.2716477,251.455 19.8756477,197.465 L23.7756477,163.815 C23.7756477,163.815 29.2116477,157.125 40.6766477,165.715 C40.6766477,165.715 35.2716477,221.175 57.2186477,278.175 L73.9256477,278.175 C73.9256477,278.175 51.3226477,236.515 56.2366477,148.345 L9.88464773,148.145" id="Fill-1192" fill="#3D4A60" transform="translate(38.773824, 213.375000) scale(-1, 1) translate(-38.773824, -213.375000) "/>
                <path d="M24.4540439,70.415 L67.1540439,71.345 C68.8550439,71.385 70.2020439,72.795 70.1600439,74.495 L68.0860439,157.615 L17.8190439,156.355 L21.3160439,73.355 C21.3870439,71.685 22.7810439,70.375 24.4540439,70.415" id="Fill-1193" fill="#808080" transform="translate(43.990022, 114.014554) scale(-1, 1) translate(-43.990022, -114.014554) "/>
                <polyline id="Fill-1194" fill="#CC9C81" transform="translate(42.862000, 63.780000) scale(-1, 1) translate(-42.862000, -63.780000) " points="38.866 56.485 47.217 56.695 46.858 71.075 38.507 70.865 38.866 56.485"/>
                <path d="M56.1546023,47.725 C56.1546023,47.725 54.7786023,57.215 49.0576023,58.315 C43.3366023,59.415 32.5626023,60.805 26.6616023,58.485 C20.7596023,56.165 22.3886023,51.875 22.3886023,51.875 L25.4376023,36.485 C25.4376023,36.485 25.1776023,25.005 26.4056023,19.655 C27.6326023,14.315 31.4266023,11.345 32.7296023,9.875 C34.0316023,8.405 46.4586023,4.475 52.5146023,8.925 C58.5706023,13.375 62.1586023,22.185 61.7506023,24.665 C61.3426023,27.145 57.0766023,42.305 57.0766023,42.305 C57.0766023,42.305 62.9756023,37.625 63.6776023,45.425 C64.2756023,52.065 56.1546023,47.725 56.1546023,47.725" id="Fill-1195" fill="#E6B89C" transform="translate(42.945801, 33.305174) scale(-1, 1) translate(-42.945801, -33.305174) "/>
                <path d="M38.4619973,31.145 C38.7339973,29.965 39.9119973,29.225 41.0929973,29.495 C42.2739973,29.765 43.0119973,30.945 42.7409973,32.125 C42.4699973,33.305 41.2919973,34.045 40.1109973,33.775 C38.9289973,33.505 38.1909973,32.325 38.4619973,31.145" id="Fill-1196" fill="#1A1A1A" transform="translate(40.601499, 31.635000) scale(-1, 1) translate(-40.601499, -31.635000) "/>
                <path d="M52.5766524,41.215 C52.1886524,41.215 51.8066524,41.165 51.4416524,41.085 C50.7366524,40.925 50.0976524,40.625 49.6106524,40.265 C48.7126524,39.605 48.2676524,38.725 48.4176524,37.925 C48.7416524,36.195 51.0306524,35.995 51.9266524,35.985 C49.8496524,30.215 52.7576524,28.315 52.8846524,28.235 C52.9236524,28.205 52.9666524,28.195 53.0086524,28.195 C53.0876524,28.195 53.1636524,28.235 53.2076524,28.305 C53.2076524,28.305 49.8096524,30.545 52.4866524,36.135 C52.4866524,36.135 52.2066524,36.105 51.7976524,36.105 C50.7666524,36.105 48.9126524,36.335 48.6586524,38.005 C48.3846524,39.815 51.0286524,41.055 53.0696524,41.055 C53.6036524,41.055 54.0956524,40.965 54.4846524,40.785 C53.8666524,41.085 53.2136524,41.215 52.5766524,41.215 M54.6076524,40.725 C54.6116524,40.725 54.6156524,40.715 54.6196524,40.715 C54.6156524,40.715 54.6116524,40.725 54.6076524,40.725" id="Fill-1197" fill="#826B5C" transform="translate(51.504326, 34.705000) scale(-1, 1) translate(-51.504326, -34.705000) "/>
                <path d="M43.0675341,28.235 C43.0675341,28.235 38.2275341,28.685 35.1865341,26.095 C35.1865341,26.095 34.9485341,24.635 36.0495341,23.885 C37.1505341,23.135 40.3545341,25.695 43.3695341,26.485 C45.6825341,27.095 43.0675341,28.235 43.0675341,28.235" id="Fill-1198" fill="#682014" transform="translate(39.744767, 26.006955) scale(-1, 1) translate(-39.744767, -26.006955) "/>
                <path d="M51.93197,26.335 C51.93197,26.335 56.98897,26.865 57.87397,26.505 C58.75997,26.155 58.83197,24.815 58.14597,24.225 C58.14597,24.225 53.12297,24.395 52.38997,25.025 C51.65697,25.645 51.93197,26.335 51.93197,26.335" id="Fill-1199" fill="#682014" transform="translate(55.243985, 25.427666) scale(-1, 1) translate(-55.243985, -25.427666) "/>
                <path d="M51.9228794,28.305 C51.9228794,28.305 48.5248794,30.545 51.2018794,36.135 C51.2018794,36.135 47.7288794,35.675 47.3738794,38.005 C47.0198794,40.345 51.5218794,41.715 53.3228794,40.725 C55.1228794,39.725 54.5668794,29.265 51.9228794,28.305" id="Fill-1200" fill="#E7AC88" transform="translate(50.861940, 34.677829) scale(-1, 1) translate(-50.861940, -34.677829) "/>
                <path d="M41.717,35.535 C41.496,35.535 41.275,35.495 41.07,35.425 C40.345,35.155 39.812,34.525 39.478,33.825 C40.001,34.235 40.551,34.625 41.177,34.855 C41.494,34.965 41.835,35.035 42.171,35.035 C42.499,35.035 42.824,34.965 43.12,34.825 C42.831,35.295 42.276,35.535 41.717,35.535" id="Fill-1201" fill="#826B5C" transform="translate(41.299000, 34.680000) scale(-1, 1) translate(-41.299000, -34.680000) "/>
                <path d="M55.655,33.795 C54.945,33.795 54.237,33.415 53.864,32.805 C54.346,33.065 54.91,33.215 55.459,33.215 C56.058,33.215 56.638,33.035 57.074,32.635 C56.91,33.145 56.504,33.575 56.003,33.765 C55.888,33.785 55.772,33.795 55.655,33.795" id="Fill-1202" fill="#826B5C" transform="translate(55.469000, 33.215000) scale(-1, 1) translate(-55.469000, -33.215000) "/>
                <path d="M24.2976641,46.315 C23.9396641,45.435 24.2136641,44.355 24.9276641,43.735 C25.3576641,43.365 25.9236641,43.175 26.4906641,43.175 C26.8676641,43.175 27.2456641,43.255 27.5826641,43.425 C28.2596641,43.775 28.7746641,44.565 28.5656641,45.295 C28.2476641,45.225 28.0486641,44.915 27.7956641,44.715 C27.3786641,44.375 26.8056641,44.305 26.2676641,44.295 C26.2246641,44.295 26.1826641,44.295 26.1396641,44.295 C25.9416641,44.295 25.7426641,44.305 25.5546641,44.365 C24.7876641,44.625 24.4886641,45.525 24.2976641,46.315" id="Fill-1203" fill="#826B5C" transform="translate(26.376832, 44.745000) scale(-1, 1) translate(-26.376832, -44.745000) "/>
                <path d="M52.0349149,38.045 C51.8299149,38.045 51.6259149,38.015 51.4299149,37.955 C51.2269149,37.895 51.0269149,37.795 50.8949149,37.635 C50.7629149,37.465 50.7149149,37.225 50.8239149,37.045 C50.9259149,36.875 51.1359149,36.795 51.3339149,36.765 C51.4259149,36.755 51.5189149,36.745 51.6119149,36.745 C51.9639149,36.745 52.3149149,36.845 52.6119149,37.025 L52.4869149,37.045 C52.6249149,37.185 52.8649149,37.245 52.9429149,37.425 C53.0029149,37.565 52.9409149,37.735 52.8289149,37.835 C52.7179149,37.935 52.5669149,37.985 52.4179149,38.005 C52.2919149,38.035 52.1629149,38.045 52.0349149,38.045" id="Fill-1204" fill="#FEC2BE" transform="translate(51.864957, 37.395000) scale(-1, 1) translate(-51.864957, -37.395000) "/>
                <path d="M40.6719495,31.365 C40.6239495,31.365 40.5759495,31.355 40.5269495,31.345 C40.1789495,31.265 39.9609495,30.915 40.0409495,30.565 C40.1099495,30.275 40.3759495,30.065 40.6709495,30.065 C40.7189495,30.065 40.7679495,30.075 40.8159495,30.085 C41.1649495,30.165 41.3819495,30.515 41.3019495,30.855 C41.2329495,31.155 40.9669495,31.365 40.6719495,31.365" id="Fill-1205" fill="#7D7D7D" transform="translate(40.671475, 30.715000) scale(-1, 1) translate(-40.671475, -30.715000) "/>
                <path d="M39.9802342,45.245 C39.9712342,45.245 39.9622342,45.245 39.9532342,45.245 L39.9012342,45.235 C39.7812342,45.195 39.6992342,45.075 39.7122342,44.945 C39.7632342,44.415 39.7412342,43.715 39.3382342,43.405 C39.1582342,43.265 38.9322342,43.215 38.7232342,43.215 C38.4022342,43.215 38.1242342,43.325 38.1192342,43.325 C38.0882342,43.335 38.0572342,43.335 38.0262342,43.335 C37.9172342,43.335 37.8142342,43.275 37.7732342,43.165 C37.7222342,43.025 37.7932342,42.875 37.9322342,42.815 C37.9562342,42.805 38.3002342,42.685 38.7212342,42.685 C39.0262342,42.685 39.3722342,42.745 39.6652342,42.975 C40.1462342,43.345 40.3422342,44.025 40.2472342,45.005 C40.2342342,45.135 40.1172342,45.245 39.9802342,45.245" id="Fill-1206" fill="#826B5C" transform="translate(39.013617, 43.965000) scale(-1, 1) translate(-39.013617, -43.965000) "/>
                <path d="M58.26,44.545 C58.26,44.545 47.544,48.615 39.997,42.695 C39.997,42.695 41.67,49.675 40.204,51.155 C40.204,51.155 55.685,57.185 58.26,44.545" id="Fill-1207" fill="#333333" transform="translate(49.128500, 47.643767) scale(-1, 1) translate(-49.128500, -47.643767) "/>
                <path d="M40.678,44.415 C40.678,44.415 40.959,48.925 41.191,48.885 C41.191,48.885 51.854,51.575 55.806,45.015 C55.806,45.015 47.302,48.005 40.678,44.415" id="Fill-1208" fill="#FFFFFF" transform="translate(48.242000, 46.923073) scale(-1, 1) translate(-48.242000, -46.923073) "/>
                <path d="M54.892,50.475 C54.892,50.475 52.054,50.325 49.054,50.475 C46.054,50.625 43.644,51.995 43.644,51.995 C43.644,51.995 48.528,53.015 51.66,52.145 C53.953,51.505 54.892,50.475 54.892,50.475" id="Fill-1209" fill="#EA8686" transform="translate(49.268000, 51.452303) scale(-1, 1) translate(-49.268000, -51.452303) "/>
                <path d="M53.2186361,29.235 C53.4896361,28.055 54.6676361,27.315 55.8496361,27.585 C57.0306361,27.855 57.7686361,29.035 57.4966361,30.215 C57.2256361,31.395 56.0486361,32.135 54.8666361,31.865 C53.6856361,31.595 52.9476361,30.415 53.2186361,29.235" id="Fill-1210" fill="#1A1A1A" transform="translate(55.357818, 29.725000) scale(-1, 1) translate(-55.357818, -29.725000) "/>
                <path d="M55.4289972,29.455 C55.3809972,29.455 55.3319972,29.445 55.2839972,29.435 C54.9349972,29.355 54.7179972,29.005 54.7979972,28.665 C54.8659972,28.365 55.1329972,28.155 55.4279972,28.155 C55.4759972,28.155 55.5239972,28.165 55.5729972,28.175 C55.9209972,28.255 56.1379972,28.605 56.0579972,28.955 C55.9899972,29.255 55.7239972,29.455 55.4289972,29.455" id="Fill-1211" fill="#7D7D7D" transform="translate(55.427999, 28.805000) scale(-1, 1) translate(-55.427999, -28.805000) "/>
                <path d="M21.7906138,163.045 C21.8446138,162.545 23.9346138,148.625 22.9006138,127.005 C21.8476138,105.025 10.9526138,72.035 6.67561385,71.505 L6.62361385,71.545 C6.56261385,71.885 1.88861385,76.265 3.78961385,90.445 C4.23261385,93.755 11.4356138,110.705 12.3296138,129.375 C13.3226138,150.135 12.0966138,161.875 12.0836138,161.985 L21.7906138,163.045" id="Fill-1212" fill="#9B9998" transform="translate(13.261307, 117.275000) scale(-1, 1) translate(-13.261307, -117.275000) "/>
                <path d="M55.4574274,41.785 C54.6834274,39.795 54.6394274,37.615 54.6064274,35.495 C54.5034274,28.905 54.3994274,22.325 54.2964274,15.735 C53.2514274,14.855 51.6904274,16.945 50.4624274,16.335 C49.9874274,16.105 49.7524274,15.525 49.2684274,15.305 C47.5714274,14.545 46.7244274,18.795 45.0174274,18.055 C45.4364274,18.635 45.4084274,19.505 44.9524274,20.055 C44.4964274,20.605 43.6534274,20.805 43.0014274,20.505 C43.8544274,20.435 45.0174274,19.895 44.6774274,19.115 C44.5384274,18.795 44.1804274,18.625 43.9774274,18.345 C43.4834274,17.645 44.1054274,16.725 44.6944274,16.105 C45.6384274,15.115 46.5834274,14.135 47.5284274,13.145 C46.7164274,14.415 44.5224274,13.265 43.2894274,14.135 C42.2944274,14.835 42.3064274,16.615 41.1434274,16.975 C40.4174274,17.195 39.5414274,16.715 38.9064274,17.135 C38.6274274,17.315 38.4714274,17.635 38.2374274,17.875 C37.3184274,18.795 35.7584274,18.165 34.6394274,17.495 C34.2594274,18.155 33.8794274,18.805 33.4994274,19.465 C33.3614274,19.705 33.1784274,19.965 32.9044274,19.985 C32.6304274,19.995 32.4674274,19.505 32.7374274,19.465 C31.2224274,19.385 29.6844274,19.905 28.5284274,20.885 C29.9224274,19.595 31.3164274,18.315 32.7094274,17.025 C31.3394274,17.985 28.9954274,16.635 27.9424274,17.935 C27.4154274,18.585 27.4334274,19.735 26.6384274,20.005 C26.0224274,20.205 25.3294274,19.675 24.7214274,19.905 C24.0014274,20.175 24.0154274,21.185 24.1604274,21.945 C23.8864274,21.965 23.6294274,22.135 23.4944274,22.375 C23.0284274,20.375 23.0514274,18.235 23.7794274,16.325 C24.6554274,14.015 26.4804274,12.185 28.4934274,10.755 C31.5314274,8.605 35.0614274,7.225 38.6634274,6.275 C40.2064274,5.875 41.7914274,5.545 43.3844274,5.625 C45.7164274,5.745 47.9094274,6.745 49.9534274,7.875 C51.6584274,8.815 53.3244274,9.865 54.6874274,11.265 C56.6094274,13.225 57.8364274,15.735 59.0294274,18.215 C59.5704274,19.325 60.1144274,20.455 60.3784274,21.675 C60.6864274,23.085 60.6014274,24.545 60.4434274,25.985 C59.8324274,31.505 58.1274274,36.905 55.4574274,41.785" id="Fill-1213" fill="#7C2512" transform="translate(41.883714, 23.698978) scale(-1, 1) translate(-41.883714, -23.698978) "/>
            </g>
        </g>
    </g>
</svg>