<?xml version="1.0" encoding="UTF-8"?>
<svg width="32px" height="50px" viewBox="0 0 32 50" version="1.1" xmlns="http://www.w3.org/2000/svg" xmlns:xlink="http://www.w3.org/1999/xlink">
    <!-- Generator: sketchtool 50.2 (55047) - http://www.bohemiancoding.com/sketch -->
    <title>customer-head</title>
    <desc>Created with sketchtool.</desc>
    <defs/>
    <g id="Page-1" stroke="none" stroke-width="1" fill-rule="evenodd">
        <g id="customer-head">
            <g id="!head">
                <path d="M1.11965077,7.2441444 C0.345024578,7.44164143 -0.170687393,8.344485 0.0522469199,9.11331273 C0.8515652,8.7324256 1.65088348,8.35859193 2.45020176,7.98475826 C2.2484321,7.84368896 1.96200383,8.00591866 1.85970803,8.23162955 C1.75741222,8.45028698 1.77363845,8.70421174 1.74682989,8.94402956 C1.63818469,9.90330085 0.816996271,10.7285563 0.8938945,11.6878276 C1.01241654,13.1690553 3.12041567,13.9449365 3.08443577,15.4261643 C3.07385344,15.8564257 2.86573439,16.2796336 2.90241978,16.709895 C2.96309178,17.4293484 3.63612764,17.9019306 4.17229878,18.3815663 C5.64465292,19.6864574 6.39811446,21.590893 7.39073655,23.2907782 C9.34493922,26.6411742 12.3947653,29.335598 15.9574814,30.8662 C18.002692,31.7478832 20.2715425,32.2486792 22.4663167,31.8748456 C24.6603854,31.5010119 26.7585077,30.1467466 27.647423,28.108295 C27.7871097,27.7908891 27.9006933,27.4452693 28.1278606,27.1842911 C28.6259353,26.5988535 29.6242013,26.4154634 29.7822307,25.667796 C29.8612454,25.2869089 29.6813459,24.8778079 29.8146832,24.5180812 C30.035501,23.9255901 31.0154243,23.6928257 30.9314712,23.0580138 C30.9025462,22.8393564 30.7395784,22.6630198 30.6930161,22.4514158 C30.5935423,21.9929405 31.0302396,21.6120534 31.2411806,21.195899 C31.397799,20.8855465 31.4302514,20.5328732 31.4612929,20.1872534 C31.6277882,18.3039781 31.7949889,16.4277563 31.9621896,14.5444811 C31.998875,14.1353801 32.0348549,13.7051187 31.9360866,13.3030712 C31.8316743,12.8798633 31.5791095,12.4778157 31.5911028,12.0405009 C31.5974522,11.800683 31.6863437,11.5679187 31.7223236,11.3281009 C31.9184494,10.0091028 30.5568569,9.00751075 29.3074371,8.5490355 C30.0291516,7.88600975 29.5204945,6.42594241 28.5405712,6.34835429 C28.7726769,5.82639785 28.0650721,5.43140379 27.6326078,5.05757012 C26.8481047,4.37338398 26.9412292,2.93447704 27.8068634,2.36314634 C27.0985531,2.37725327 26.4417435,2.9415305 26.3232214,3.63982358 C25.6635898,3.50580774 25.3383597,2.78635427 24.9291765,2.25029089 C24.5192877,1.72128099 23.596509,1.36860772 23.2472923,1.94699188 C23.206374,1.34039386 22.68784,0.860758211 22.1262713,0.635047318 C21.5639971,0.40228296 20.9466948,0.359962168 20.3533792,0.232999791 C20.1339723,0.183625533 19.9039831,0.12719781 19.6888091,0.190678998 C19.2612832,0.324694841 19.0778562,0.888972073 18.6460974,1.00182752 C18.1056933,1.14995029 17.7056814,0.529245337 17.2400591,0.21889286 C16.6537983,-0.169047737 15.7740544,-0.0279784293 15.3472339,0.536298803 C15.2414107,0.670314645 15.1532247,0.839597815 14.9959008,0.917185934 C14.7362811,1.04414831 14.4420924,0.867811676 14.1740069,0.762009695 C13.5870406,0.522191872 12.8730864,0.649154249 12.3997037,1.07236217 C12.1732419,1.2698592 11.9813491,1.53789089 11.687866,1.61547901 C11.2518742,1.72128099 10.8532733,1.34039386 10.4130486,1.25575227 C9.82678775,1.13584336 9.26733551,1.54494435 8.85533032,1.97520574 C8.44261965,2.4125206 8.05107362,2.92037011 7.47892259,3.09670674 C6.90677155,3.27304338 6.12720694,2.86394238 6.22456433,2.27145129 C5.88028603,2.53948298 5.88592993,3.13902754 6.23373568,3.39295229 C5.81044268,3.45643348 5.42947898,3.75267902 5.25663434,4.14061962 C5.15927695,4.36633051 5.12470802,4.6132018 4.99348719,4.8177523 C4.47072034,5.62890082 2.8586795,5.2056929 2.5383878,6.11558993 C2.46431153,6.3271939 2.48829813,6.56701172 2.38247488,6.76450875 C2.16024605,7.17360974 1.57327976,7.13128895 1.11965077,7.2441444" id="Fill-1184" fill="#7C2512" transform="translate(16.000000, 16.000000) scale(-1, 1) translate(-16.000000, -16.000000) "/>
                <polyline id="Fill-1194" fill="#CC9C81" transform="translate(17.066667, 44.800000) scale(-1, 1) translate(-17.066667, -44.800000) " points="14.1304554 39.4666667 20.2666667 39.6201965 20.0028779 50.1333333 13.8666667 49.9798035 14.1304554 39.4666667"/>
                <path d="M25.6940614,33.1141114 C25.6940614,33.1141114 24.7397612,39.814302 20.7720638,40.590931 C16.8043665,41.3675601 9.33225123,42.3489368 5.23971809,40.7109555 C1.14649142,39.0729742 2.27625527,36.0441209 2.27625527,36.0441209 L4.39083475,25.1783745 C4.39083475,25.1783745 4.2105164,17.0731914 5.06217386,13.2959501 C5.9131378,9.52576905 8.54439872,7.42887062 9.4480711,6.3910118 C10.3510499,5.35315298 18.9695738,2.5784692 23.1696044,5.72028671 C27.3696351,8.86210423 29.8580284,15.0821969 29.5750673,16.8331424 C29.2921061,18.5840879 26.333498,29.2874482 26.333498,29.2874482 C26.333498,29.2874482 30.4246441,25.9832446 30.9115037,31.4902506 C31.3262359,36.178266 25.6940614,33.1141114 25.6940614,33.1141114" id="Fill-1195" fill="#E6B89C" transform="translate(16.533333, 22.933333) scale(-1, 1) translate(-16.533333, -22.933333) "/>
                <path d="M13.9075067,21.5095853 C14.1057265,20.6496752 14.9641931,20.1104095 15.8248459,20.3071686 C16.6854987,20.5039277 17.2233156,21.3638378 17.0258246,22.223748 C16.8283336,23.0836582 15.969867,23.6229238 15.1092142,23.4261647 C14.2478326,23.2294056 13.7100157,22.3694955 13.9075067,21.5095853" id="Fill-1196" fill="#1A1A1A" transform="translate(15.466667, 21.866667) scale(-1, 1) translate(-15.466667, -21.866667) "/>
                <path d="M24.2009812,27.7333333 C23.935284,27.7333333 23.6736956,27.7005632 23.4237485,27.6481311 C22.940974,27.5432668 22.5033954,27.3466462 22.1699044,27.1107015 C21.5549661,26.6781362 21.2502361,26.1013825 21.3529541,25.5770609 C21.5748249,24.4432156 23.1423012,24.3121352 23.7558699,24.3055812 C22.3335684,20.5239119 24.3249275,19.2786482 24.4118954,19.2262161 C24.4386021,19.206554 24.4680479,19.2 24.4968089,19.2 C24.5509071,19.2 24.6029508,19.2262161 24.6330815,19.2720942 C24.6330815,19.2720942 22.3061769,20.7401946 24.1393504,24.4038914 C24.1393504,24.4038914 23.9476102,24.3842294 23.6675325,24.3842294 C22.9615176,24.3842294 21.6919234,24.5349718 21.5179876,25.6294931 C21.3303561,26.8157706 23.1409317,27.628469 24.5385809,27.628469 C24.9042569,27.628469 25.2411719,27.5694828 25.5075538,27.4515105 C25.0843558,27.6481311 24.6371902,27.7333333 24.2009812,27.7333333 M25.5917826,27.4121864 C25.5945217,27.4121864 25.5972609,27.4056324 25.6,27.4056324 C25.5972609,27.4056324 25.5945217,27.4121864 25.5917826,27.4121864" id="Fill-1197" fill="#826B5C" transform="translate(23.466667, 23.466667) scale(-1, 1) translate(-23.466667, -23.466667) "/>
                <path d="M17.2549597,19.1787945 C17.2549597,19.1787945 13.8732386,19.4976648 11.7484836,17.662389 C11.7484836,17.662389 11.5821923,16.627832 12.351464,16.0963815 C13.1207357,15.5649309 15.3593792,17.3789487 17.4659679,17.9387433 C19.0820673,18.3709897 17.2549597,19.1787945 17.2549597,19.1787945" id="Fill-1198" fill="#682014" transform="translate(14.933333, 17.600000) scale(-1, 1) translate(-14.933333, -17.600000) "/>
                <path d="M23.498729,18.9380644 C23.498729,18.9380644 26.7070863,19.4081311 27.2685647,19.0888405 C27.8306775,18.7784191 27.8763571,17.5899485 27.4411321,17.0666667 C27.4411321,17.0666667 24.2543456,17.2174428 23.789302,17.7762013 C23.3242583,18.3260907 23.498729,18.9380644 23.498729,18.9380644" id="Fill-1199" fill="#682014" transform="translate(25.600000, 18.133333) scale(-1, 1) translate(-25.600000, -18.133333) "/>
                <path d="M22.6732048,19.2 C22.6732048,19.2 20.0900075,20.6997002 22.1250926,24.4422554 C22.1250926,24.4422554 19.4848795,24.1342813 19.2150045,25.6942373 C18.9458898,27.2608883 22.3683602,28.1781156 23.7375004,27.5153017 C25.1058804,26.8457927 24.683203,19.8427286 22.6732048,19.2" id="Fill-1200" fill="#E7AC88" transform="translate(21.866667, 23.466667) scale(-1, 1) translate(-21.866667, -23.466667) "/>
                <path d="M16.2448472,24.5333333 C16.1153945,24.5333333 15.9859418,24.5083821 15.8658612,24.4647173 C15.4411862,24.2962963 15.1289768,23.9033138 14.9333333,23.4666667 C15.2396852,23.7224172 15.5618525,23.965692 15.9285374,24.1091618 C16.114223,24.1777778 16.3139667,24.2214425 16.5107816,24.2214425 C16.7029105,24.2214425 16.8932821,24.1777778 17.0666667,24.0904483 C16.8973824,24.3836257 16.5722863,24.5333333 16.2448472,24.5333333" id="Fill-1201" fill="#826B5C" transform="translate(16.000000, 24.000000) scale(-1, 1) translate(-16.000000, -24.000000) "/>
                <path d="M25.7236137,23.4666667 C25.2517549,23.4666667 24.7812253,23.1172414 24.5333333,22.5563218 C24.8536656,22.7954023 25.2284943,22.9333333 25.5933541,22.9333333 C25.9914434,22.9333333 26.3769055,22.7678161 26.6666667,22.4 C26.5576739,22.8689655 26.2878505,23.2643678 25.954891,23.4390805 C25.8784631,23.4574713 25.8013707,23.4666667 25.7236137,23.4666667" id="Fill-1202" fill="#826B5C" transform="translate(25.600000, 22.933333) scale(-1, 1) translate(-25.600000, -22.933333) "/>
                <path d="M4.37884472,32 C4.12266519,31.4021231 4.31873555,30.6683652 4.82966344,30.2471338 C5.1373651,29.9957537 5.54238636,29.8666667 5.94812321,29.8666667 C6.21789886,29.8666667 6.48839009,29.9210191 6.72954233,30.036518 C7.21399355,30.27431 7.58251997,30.8110403 7.43296264,31.3070064 C7.20540653,31.259448 7.06300506,31.0488323 6.88196199,30.9129512 C6.58356293,30.6819533 6.17353257,30.6343949 5.7885477,30.6276008 C5.75777753,30.6276008 5.72772295,30.6276008 5.69695278,30.6276008 C5.5552669,30.6276008 5.41286543,30.6343949 5.2783354,30.6751592 C4.7294815,30.8518047 4.5155215,31.4632696 4.37884472,32" id="Fill-1203" fill="#826B5C" transform="translate(5.866667, 30.933333) scale(-1, 1) translate(-5.866667, -30.933333) "/>
                <path d="M23.01564,26.6666667 C22.916363,26.6666667 22.8175703,26.6420513 22.7226518,26.5928205 C22.6243434,26.5435897 22.5274879,26.4615385 22.4635632,26.3302564 C22.3996385,26.1907692 22.3763932,25.9938462 22.4291795,25.8461538 C22.4785758,25.7066667 22.5802742,25.6410256 22.6761612,25.6164103 C22.7207147,25.6082051 22.7657526,25.6 22.8107904,25.6 C22.9812562,25.6 23.1512378,25.6820513 23.2950683,25.8297436 L23.2345335,25.8461538 C23.3013639,25.9610256 23.4175906,26.0102564 23.4553643,26.1579487 C23.4844209,26.2728205 23.4543957,26.4123077 23.4001566,26.494359 C23.3464017,26.5764103 23.2732758,26.6174359 23.2011184,26.6338462 C23.1400994,26.6584615 23.0776275,26.6666667 23.01564,26.6666667" id="Fill-1204" fill="#FEC2BE" transform="translate(22.933333, 26.133333) scale(-1, 1) translate(-22.933333, -26.133333) "/>
                <path d="M15.467058,21.3333333 C15.4274946,21.3333333 15.3879313,21.3251282 15.3475438,21.3169231 C15.0607096,21.2512821 14.8810262,20.9641026 14.9469651,20.6769231 C15.0038374,20.4389744 15.2230841,20.2666667 15.4662337,20.2666667 C15.5057971,20.2666667 15.5461846,20.2748718 15.5857479,20.2830769 C15.8734063,20.3487179 16.0522655,20.6358974 15.9863266,20.9148718 C15.9294543,21.1610256 15.7102076,21.3333333 15.467058,21.3333333" id="Fill-1205" fill="#7D7D7D" transform="translate(15.466667, 20.800000) scale(-1, 1) translate(-15.466667, -20.800000) "/>
                <path d="M14.6869828,32 C14.6793449,32 14.6717071,32 14.6640693,32 L14.6199397,31.9916667 C14.5181021,31.9583333 14.4485131,31.8583333 14.4595455,31.75 C14.5028265,31.3083333 14.4841563,30.725 14.1421518,30.4666667 C13.9893954,30.35 13.7976013,30.3083333 13.6202342,30.3083333 C13.3478188,30.3083333 13.1118951,30.4 13.1076518,30.4 C13.0813438,30.4083333 13.0550357,30.4083333 13.0287277,30.4083333 C12.9362252,30.4083333 12.8488147,30.3583333 12.8140202,30.2666667 C12.7707392,30.15 12.8309931,30.025 12.9489549,29.975 C12.9693225,29.9666667 13.2612568,29.8666667 13.618537,29.8666667 C13.8773741,29.8666667 14.1710058,29.9166667 14.4196592,30.1083333 C14.8278581,30.4166667 14.9941928,30.9833333 14.9135714,31.8 C14.902539,31.9083333 14.8032473,32 14.6869828,32" id="Fill-1206" fill="#826B5C" transform="translate(13.866667, 30.933333) scale(-1, 1) translate(-13.866667, -30.933333) "/>
                <path d="M27.7333333,31.0629243 C27.7333333,31.0629243 20.2228038,33.694691 14.9333333,29.8666667 C14.9333333,29.8666667 16.1058899,34.3801143 15.0784136,35.3371204 C15.0784136,35.3371204 25.9285915,39.2362736 27.7333333,31.0629243" id="Fill-1207" fill="#333333" transform="translate(21.333333, 33.066667) scale(-1, 1) translate(-21.333333, -33.066667) "/>
                <path d="M14.9333333,30.9333333 C14.9333333,30.9333333 15.1314648,33.810443 15.2950467,33.7849254 C15.2950467,33.7849254 22.8134673,35.5009841 25.6,31.3160974 C25.6,31.3160974 19.603878,33.2235381 14.9333333,30.9333333" id="Fill-1208" fill="#FFFFFF" transform="translate(20.266667, 32.533333) scale(-1, 1) translate(-20.266667, -32.533333) "/>
                <path d="M25.6,35.234058 C25.6,35.234058 23.716074,35.1574275 21.7246088,35.234058 C19.7331437,35.3106886 18.1333333,36.010581 18.1333333,36.010581 C18.1333333,36.010581 21.3754386,36.5316688 23.4545282,36.0872116 C24.9766714,35.7602545 25.6,35.234058 25.6,35.234058" id="Fill-1209" fill="#EA8686" transform="translate(21.866667, 35.733333) scale(-1, 1) translate(-21.866667, -35.733333) "/>
                <path d="M23.5075146,20.4429187 C23.7050341,19.5830085 24.5636246,19.0437428 25.4251304,19.2405019 C26.2859074,19.437261 26.8238019,20.2971712 26.6255535,21.1570813 C26.428034,22.0169915 25.5701724,22.5562572 24.7086666,22.3594981 C23.8478896,22.162739 23.3099951,21.3028288 23.5075146,20.4429187" id="Fill-1210" fill="#1A1A1A" transform="translate(25.066667, 20.800000) scale(-1, 1) translate(-25.066667, -20.800000) "/>
                <path d="M25.0674904,20.2666667 C25.0278981,20.2666667 24.987481,20.2584615 24.9478887,20.2502564 C24.6600197,20.1846154 24.4810296,19.8974359 24.5470167,19.6184615 C24.6031058,19.3723077 24.8233379,19.2 25.0666655,19.2 C25.1062578,19.2 25.1458501,19.2082051 25.1862672,19.2164103 C25.4733113,19.2820513 25.6523015,19.5692308 25.5863143,19.8564103 C25.5302252,20.1025641 25.310818,20.2666667 25.0674904,20.2666667" id="Fill-1211" fill="#7D7D7D" transform="translate(25.066667, 19.733333) scale(-1, 1) translate(-25.066667, -19.733333) "/>
                <path d="M25.2900828,29.8666667 C24.7603439,28.4582862 24.7302296,26.9154373 24.7076438,25.415052 C24.6371488,20.7511187 24.5659694,16.0942627 24.4954745,11.4303294 C23.7802585,10.807528 22.7118833,12.2866814 21.871419,11.8549668 C21.5463208,11.6921891 21.3854828,11.2817064 21.0542249,11.126006 C19.8927689,10.5881321 19.3130676,13.5959798 18.1447675,13.0722604 C18.4315383,13.4827432 18.4123746,14.0984673 18.1002804,14.4877182 C17.7881861,14.8769691 17.2112224,15.0185148 16.7649824,14.8061962 C17.3487903,14.7566552 18.1447675,14.3744816 17.9120656,13.822453 C17.8169316,13.5959798 17.5719103,13.4756659 17.4329736,13.2775018 C17.0948715,12.7820916 17.520579,12.130981 17.9237007,11.6921891 C18.5697905,10.9915375 19.2165648,10.2979632 19.863339,9.59731164 C19.3075923,10.4961273 17.805981,9.68223911 16.9620946,10.2979632 C16.2810995,10.7933734 16.2893125,12.0531308 15.4933353,12.3079132 C14.9964485,12.4636136 14.396899,12.1239037 13.9622941,12.4211499 C13.7713417,12.5485411 13.6645726,12.7750143 13.504419,12.9448692 C12.8754396,13.5959798 11.8077488,13.1501106 11.041886,12.6759323 C10.7818075,13.1430333 10.521729,13.6030571 10.2616504,14.0701581 C10.1672009,14.2400131 10.0419525,14.4240226 9.85442221,14.4381772 C9.66689191,14.4452544 9.55533191,14.0984673 9.74012454,14.0701581 C8.70323252,14.0135398 7.6505989,14.3815588 6.85941265,15.0751331 C7.81349019,14.1621629 8.76756774,13.2562699 9.72096086,12.3432997 C8.78330933,13.0227194 7.17903547,12.0672854 6.45834418,12.987333 C6.09765633,13.4473567 6.10997584,14.2612449 5.56586418,14.4523317 C5.1442632,14.5938775 4.6699621,14.2187812 4.25383646,14.3815588 C3.76105609,14.5726456 3.77063793,15.2874518 3.86987842,15.8253258 C3.68234811,15.8394803 3.5064529,15.9597942 3.41405658,16.1296492 C3.09511817,14.7141914 3.11085977,13.1996516 3.60911547,11.8478895 C4.20866492,10.2130358 5.45772627,8.91789192 6.83545805,7.90583963 C8.91471743,6.38422254 11.3307101,5.40755669 13.7959807,4.73521426 C14.8520364,4.45212271 15.9368377,4.21857218 17.0271142,4.27519049 C18.6231751,4.36011796 20.124102,5.06784683 21.5230507,5.86758046 C22.6899819,6.53284561 23.830221,7.27596093 24.7630816,8.26678135 C26.0785314,9.65392995 26.9183113,11.4303294 27.734821,13.185497 C28.1050907,13.9710761 28.4774136,14.7708097 28.6580997,15.634239 C28.8689002,16.6321367 28.8107248,17.6654208 28.7025868,18.6845504 C28.284408,22.5912138 27.1174767,26.4129497 25.2900828,29.8666667" id="Fill-1213" fill="#7C2512" transform="translate(16.000000, 17.066667) scale(-1, 1) translate(-16.000000, -17.066667) "/>
            </g>
        </g>
    </g>
</svg>