<?xml version="1.0" encoding="UTF-8"?>
<svg width="207px" height="303px" viewBox="0 0 207 303" version="1.1" xmlns="http://www.w3.org/2000/svg" xmlns:xlink="http://www.w3.org/1999/xlink">
    <!-- Generator: sketchtool 59.1 (101010) - https://sketch.com -->
    <title>etienne-pee</title>
    <desc>Created with sketchtool.</desc>
    <defs>
        <filter x="-3.3%" y="-4.2%" width="106.7%" height="108.4%" filterUnits="objectBoundingBox" id="filter-1">
            <feGaussianBlur stdDeviation="2" in="SourceGraphic"/>
        </filter>
    </defs>
    <g id="Page-1" stroke="none" stroke-width="1" fill-rule="evenodd">
        <g id="etienne-pee">
            <path d="M158.824641,214.13861 C156.57529,218.099393 151.066037,222.906828 147.239633,224.679465 C144.316236,226.03377 140.847948,227.568563 137.478315,228.613512 C133.897429,235.991209 117.840356,265.664641 80.9509105,289.746432 L76.5211197,289.616262 L73.2871645,291.745847 C73.2871645,291.745847 99.5560142,294.357132 93.8888551,299.175 L56.5458551,299.175 C56.5458551,299.175 56.2127508,295.792856 65.2324036,292.015648 L69.6428145,289.414144 L65.5389735,289.293552 C65.5389735,289.293552 109.047823,255.992652 113.74535,239.516022 C112.839591,239.528758 112.205469,239.745775 111.507293,239.983198 L112.330676,240.630841 C112.330676,240.630841 113.221358,241.479925 111.920217,241.983632 C110.619213,242.487755 109.383069,241.465657 109.383069,241.465657 L108.579497,240.969716 C108.065632,241.141013 107.5507,241.311519 107.048093,241.476392 L107.619954,242.074616 C107.619954,242.074616 108.606449,243.110073 107.066689,243.625564 C105.516172,244.143463 104.258187,242.63266 104.258187,242.63266 C103.184147,242.694987 102.547754,242.87077 102.259139,242.91515 C100.74802,243.147155 100.933331,242.647043 100.987521,242.463878 C101.002343,242.412668 101.8426,242.080275 103.045311,241.628407 L101.110586,241.839001 C97.7393454,251.175314 84.7882451,269.272854 36.4311734,289.539263 L31.4320514,289.539263 L28.0821645,291.745847 C28.0821645,291.745847 54.3500142,294.357132 48.6838551,299.175 L11.3382924,299.175 C11.3382924,299.175 11.0077508,295.792856 20.0264036,292.015648 L24.225289,289.539263 L19.7241734,289.539263 C19.7241734,289.539263 87.1260688,261.826931 86.0234291,231.738955 L84.1954126,231.904775 L86.2203486,229.817109 C85.2900962,229.209328 84.1886057,228.458097 82.8808581,227.530864 C77.1420665,223.461889 77.3977514,220.438249 76.916599,219.238599 C76.3329419,217.773711 77.7289836,215.124014 90.982091,206.975847 L88.7042012,206.336348 C88.7042012,206.336348 99.3474785,200.362191 109.534195,194.903547 C119.721911,189.444902 126.197126,190.191672 126.197126,190.191672 L140.409799,190.199671 L141.572739,190.199012 L147.640181,183.225962 C146.86029,183.130624 146.140351,183.035734 145.495134,182.945598 C140.221726,182.203646 143.631654,177.366506 143.631654,177.366506 C143.631654,177.366506 133.15379,179.293654 137.125572,175.964507 C141.530686,172.270721 145.019749,174.331115 145.402985,174.577857 C145.412364,173.663654 145.655828,172.707152 146.122288,171.734418 C146.21059,171.551339 146.305277,171.358625 146.175849,171.218906 C146.065845,171.093642 145.800536,171.026192 145.641763,170.920199 C145.202869,170.616673 145.904234,169.980714 146.918881,169.76391 C145.799571,169.69646 145.13725,169.253216 145.329348,168.699161 C145.520447,168.145106 146.551427,167.518784 147.808494,167.191169 C147.106416,167.14299 146.671985,166.878007 146.74082,166.531121 C146.804463,166.189052 147.365605,165.784351 148.124597,165.533822 C147.190444,165.562729 146.564127,165.24475 146.723229,164.815959 C146.877139,164.391987 147.800547,163.905382 148.786465,163.731939 C147.75739,163.809025 147.688139,163.163431 148.463241,162.73464 C149.237344,162.30585 150.393375,162.07941 151.447061,161.886696 C151.521626,161.496448 152.150881,161.038751 153.010411,160.749679 C153.865748,160.465424 154.907784,160.364249 155.592403,160.49915 C155.802658,160.041452 156.619835,159.535576 157.629557,159.241686 C158.639279,158.947796 159.804353,158.87071 160.540051,159.053789 C160.677075,158.57682 161.902444,158.066126 163.012593,157.911954 C164.123742,157.757782 165.095938,157.878229 165.866059,158.075762 C166.12262,157.56025 167.169103,156.996559 168.342095,156.74603 C169.51928,156.490683 170.740397,156.562951 171.237178,156.919473 C171.618127,156.51959 172.726272,156.240154 173.559848,156.2257 C174.389233,156.216065 175.001931,156.399144 175.571629,156.582223 C177.330954,155.922175 179.747147,155.917357 180.381205,156.567769 C181.179539,156.15825 182.435954,155.922175 183.285919,156.02335 C184.135884,156.124525 184.496589,156.558133 184.125142,157.020649 C185.534703,156.505137 187.431864,156.726759 187.271346,157.391624 C188.649448,156.962834 190.330064,156.97247 190.922385,157.415714 C191.515957,157.858958 190.935232,158.673177 189.666055,159.179054 C190.5732,158.899617 191.560361,159.121239 191.515957,159.521122 C191.468462,159.921005 190.656015,160.383521 189.747678,160.667775 C191.025752,160.590689 191.737191,161.106201 191.38194,161.689163 C191.021497,162.276943 189.808245,162.859905 188.511178,163.18752 C188.452609,163.498153 188.353942,163.830278 188.172978,164.170365 C186.711639,166.911732 180.628856,172.697992 180.628856,172.697992 L175.942253,180.560753 C175.942253,180.560753 175.428859,182.776972 168.239851,183.755 C164.819733,184.222244 160.703585,184.2289 156.759223,184.028096 L151.394581,190.193448 L154.530126,190.191672 C154.530126,190.191672 159.35214,190.199701 168.996166,190.215761 C169.001731,190.216649 176.889922,191.477896 166.522376,204.946905 L164.014629,208.408031 L162.347987,208.408031 C160.459633,211.376845 159.076375,213.506138 158.824641,214.13861 Z M107.411959,236.761956 L108.118408,237.317623 L108.373882,237.180247 L107.411959,236.761956 Z M103.663355,237.935615 L104.167391,238.462888 C104.250377,238.441592 104.332966,238.420458 104.415017,238.399519 L103.663355,237.935615 Z M111.681254,235.401776 L111.663105,235.356432 C111.462129,235.111337 110.615535,235.17245 109.884771,235.324809 L110.885536,235.829657 L111.681254,235.401776 Z M108.882324,234.358699 C108.086353,234.24944 107.559896,234.151999 107.559896,234.151999 L108.354956,234.553076 C108.530634,234.488197 108.706419,234.423401 108.882324,234.358699 Z M86.6853296,216.738126 C87.6231516,218.705141 87.9793564,221.850268 90.7164812,225.181692 L115.412746,199.720369 C114.747508,200.131737 114.339094,200.371827 114.339094,200.371827 L98.1257058,208.981358 L97.3209919,208.755441 C91.3159453,212.579436 87.3962829,215.503261 86.6853296,216.738126 Z" id="!shadow" fill="#666768" opacity="0.670200893" filter="url(#filter-1)"/>
            <g id="!etienne" transform="translate(5.000000, 2.000000)">
                <path d="M75.583423,277.165 L77.017423,281.755 C77.017423,281.755 48.476423,287.175 49.951423,297.175 L87.294423,297.175 C87.294423,297.175 90.570423,290.155 84.837423,282.315 L81.398423,273.665 L76.157423,276.535 L75.583423,277.165" id="Fill-1188" fill="#666768" transform="translate(69.061212, 285.420000) scale(-1, 1) translate(-69.061212, -285.420000) "/>
                <path d="M77.017423,281.755 C77.017423,281.755 48.476423,287.175 49.951423,297.175 L87.294423,297.175 C87.294423,297.175 90.570423,289.655 84.837423,281.805 L77.017423,281.755" id="Fill-1189" fill="#42210B" transform="translate(69.061212, 289.465000) scale(-1, 1) translate(-69.061212, -289.465000) "/>
                <path d="M30.3787494,277.165 L31.8117494,281.755 C31.8117494,281.755 3.27174944,287.175 4.74574944,297.175 L42.0897494,297.175 C42.0897494,297.175 45.3647494,290.155 39.6327494,282.315 L36.1927494,273.665 L30.9517494,276.535 L30.3787494,277.165" id="Fill-1190" fill="#666768" transform="translate(23.855875, 285.420000) scale(-1, 1) translate(-23.855875, -285.420000) "/>
                <path d="M31.8117494,281.755 C31.8117494,281.755 3.27174944,287.175 4.74574944,297.175 L42.0897494,297.175 C42.0897494,297.175 45.3647494,289.655 39.6327494,281.805 L31.8117494,281.755" id="Fill-1191" fill="#42210B" transform="translate(23.855875, 289.465000) scale(-1, 1) translate(-23.855875, -289.465000) "/>
                <path d="M14.5186477,277.605 C14.5186477,277.605 19.7873144,277.291667 30.3246477,276.665 C30.3246477,276.665 11.8846477,188.9625 30.3246477,162.259677 C35.296439,159.384653 35.099774,159.696743 40.7738239,164.299403 C40.7738239,164.299403 14.5186477,215.972406 59.2186477,277.175 L75.9256477,277.175 C75.9256477,277.175 31.8167605,218.565185 60.7107605,155.436331 L11.8846477,147.145 C11.8846477,147.145 -3.82535227,220.065 14.5186477,277.605 Z" id="Fill-1192" fill="#3D4A60" transform="translate(40.773824, 212.375000) scale(-1, 1) translate(-40.773824, -212.375000) "/>
                <polygon id="Fill-1558" fill="#C1272D" transform="translate(46.727892, 114.258465) scale(-1, 1) translate(-46.727892, -114.258465) " points="69.347892 70.9684652 73.511892 157.548465 19.943892 146.598465 24.985892 71.0184652"/>
                <polygon id="Fill-1559" fill="#B77F5F" transform="translate(45.940392, 64.663465) scale(-1, 1) translate(-45.940392, -64.663465) " points="41.031892 73.0784652 50.848892 73.0784652 50.848892 56.2484652 41.031892 56.2484652"/>
                <path d="M59.3326893,44.3484652 C59.3326893,44.3484652 58.5336893,54.3884652 52.6146893,55.9284652 C46.6966893,57.4584652 35.5046893,59.6484652 29.1656893,57.6084652 C22.8276893,55.5784652 24.2426893,50.9784652 24.2426893,50.9784652 L26.3976893,34.6584652 C26.3976893,34.6584652 25.3496893,22.6484652 26.2736893,16.9584652 C27.1986893,11.2784652 33.0036893,6.6684652 34.2686893,5.0484652 C35.5336893,3.4184652 45.4766893,-0.0715348002 52.1216893,4.1784652 C58.7666893,8.4284652 63.1846893,11.0984652 62.9246893,13.7284652 C62.6636893,16.3484652 59.9326893,38.6084652 59.9326893,38.6084652 C59.9326893,38.6084652 65.7956893,33.3084652 67.0586893,41.4384652 C68.1336893,48.3484652 59.3326893,44.3484652 59.3326893,44.3484652" id="Fill-1560" fill="#B77F5F" transform="translate(45.628791, 30.292052) scale(-1, 1) translate(-45.628791, -30.292052) "/>
                <path d="M42.1181347,27.8584652 C42.3221347,26.6084652 43.5061347,25.7484652 44.7621347,25.9584652 C46.0181347,26.1584652 46.8701347,27.3484652 46.6661347,28.5984652 C46.4621347,29.8584652 45.2781347,30.7084652 44.0221347,30.5084652 C42.7661347,30.2984652 41.9131347,29.1184652 42.1181347,27.8584652" id="Fill-1561" fill="#1A1A1A" transform="translate(44.392013, 28.232247) scale(-1, 1) translate(-44.392013, -28.232247) "/>
                <path d="M57.5391361,27.9884652 C57.7061361,26.9584652 58.6781361,26.2484652 59.7101361,26.4184652 C60.7421361,26.5884652 61.4421361,27.5584652 61.2741361,28.5884652 C61.1061361,29.6284652 60.1341361,30.3284652 59.1021361,30.1584652 C58.0711361,29.9884652 57.3701361,29.0184652 57.5391361,27.9884652" id="Fill-1562" fill="#1A1A1A" transform="translate(59.406514, 28.288601) scale(-1, 1) translate(-59.406514, -28.288601) "/>
                <path d="M56.7046562,38.9384652 C56.4106562,38.9384652 56.1196562,38.9084652 55.8376562,38.8684652 C55.0876562,38.7484652 54.3976562,38.4784652 53.8636562,38.1284652 C52.8786562,37.4984652 52.3536562,36.6084652 52.4566562,35.7584652 C52.6786562,33.9284652 55.0626562,33.5684652 56.0006562,33.4984652 C53.4356562,27.5884652 56.3536562,25.3984652 56.4806562,25.3084652 C56.5246562,25.2784652 56.5746562,25.2584652 56.6246562,25.2584652 C56.7006562,25.2584652 56.7756562,25.2984652 56.8236562,25.3684652 C56.8236562,25.3684652 53.4146562,27.9384652 56.5976562,33.6184652 C56.5976562,33.6184652 56.4916562,33.6084652 56.3136562,33.6084652 C55.4436562,33.6084652 52.8606562,33.7884652 52.7156562,35.8384652 C52.5726562,37.8384652 55.1286562,38.6084652 57.4436562,38.6084652 C57.8536562,38.6084652 58.2556562,38.5884652 58.6336562,38.5384652 C58.0086562,38.8184652 57.3486562,38.9384652 56.7046562,38.9384652" id="Fill-1563" fill="#6A4D3D" transform="translate(55.538774, 32.098465) scale(-1, 1) translate(-55.538774, -32.098465) "/>
                <path d="M53.4447328,25.3684652 C53.4447328,25.3684652 50.0357328,27.9384652 53.2187328,33.6184652 C53.2187328,33.6184652 49.5117328,33.3684652 49.3367328,35.8384652 C49.1187328,38.8984652 55.2257328,39.0784652 57.1107328,38.0284652 C60.2027328,36.2984652 56.6247328,34.2084652 56.5597328,33.7584652 C56.0547328,30.2584652 55.1937328,25.8784652 53.4447328,25.3684652" id="Fill-1566" fill="#844E38" transform="translate(53.849312, 31.988367) scale(-1, 1) translate(-53.849312, -31.988367) "/>
                <path d="M45.329892,32.3384652 C45.141892,32.3384652 44.953892,32.3184652 44.775892,32.2584652 C43.998892,32.0284652 43.396892,31.3984652 42.999892,30.6984652 C43.575892,31.0884652 44.178892,31.4684652 44.849892,31.6584652 C45.132892,31.7384652 45.428892,31.7784652 45.723892,31.7784652 C46.129892,31.7784652 46.530892,31.6984652 46.882892,31.4984652 C46.592892,32.0484652 45.959892,32.3384652 45.329892,32.3384652" id="Fill-1567" fill="#6A4D3D" transform="translate(44.941392, 31.518465) scale(-1, 1) translate(-44.941392, -31.518465) "/>
                <path d="M59.390892,31.9884652 C58.691892,31.9884652 57.989892,31.6384652 57.584892,31.0684652 C58.044892,31.2784652 58.564892,31.3984652 59.074892,31.3984652 C59.776892,31.3984652 60.458892,31.1784652 60.935892,30.6684652 C60.797892,31.2184652 60.402892,31.6884652 59.889892,31.9284652 C59.725892,31.9684652 59.558892,31.9884652 59.390892,31.9884652" id="Fill-1568" fill="#6A4D3D" transform="translate(59.260392, 31.328465) scale(-1, 1) translate(-59.260392, -31.328465) "/>
                <path d="M55.8785072,35.6984652 C55.7115072,35.6984652 55.5455072,35.6784652 55.3825072,35.6384652 C55.1665072,35.5884652 54.9505072,35.4984652 54.8005072,35.3384652 C54.6515072,35.1784652 54.5845072,34.9184652 54.6865072,34.7284652 C54.7825072,34.5384652 54.9965072,34.4484652 55.2025072,34.3984652 C55.3385072,34.3684652 55.4785072,34.3584652 55.6185072,34.3584652 C55.9455072,34.3584652 56.2725072,34.4384652 56.5595072,34.5884652 L56.4285072,34.6184652 C56.5835072,34.7484652 56.8375072,34.7984652 56.9325072,34.9784652 C57.0035072,35.1284652 56.9505072,35.3084652 56.8405072,35.4184652 C56.7305072,35.5284652 56.5755072,35.5884652 56.4215072,35.6284652 C56.2445072,35.6784652 56.0615072,35.6984652 55.8785072,35.6984652" id="Fill-1569" fill="#B99A8E" transform="translate(55.801200, 35.028465) scale(-1, 1) translate(-55.801200, -35.028465) "/>
                <path d="M47.1188405,44.6984387 C45.974574,44.9295615 44.7769933,46.8133821 44.0788564,49.7684652 C44.0788564,49.7684652 59.5693951,49.6576991 62.151892,51.1104181 C60.5738683,49.0701235 59.2175741,46.6304302 47.1188405,44.6984387 Z" id="Fill-1573" fill="#333333" transform="translate(53.115374, 47.904428) scale(-1, 1) translate(-53.115374, -47.904428) "/>
                <path d="M45.5248864,49.3877856 C47.1730505,47.7893502 50.2807528,46.1086455 59.1119079,44.6984387 C59.5530788,44.7875479 60.0021749,45.1223275 60.4275167,45.6694549 C54.813941,46.7531594 51.6170615,46.7531594 45.5248864,49.3877856 Z" id="Combined-Shape" fill="#FFFFFF"/>
                <path d="M49.3505454,48.4807208 C53.1496886,47.2358871 56.1429967,48.4174377 58.9048549,50.1520917 C55.9905134,49.7902056 52.0270512,49.2448778 48.2540323,49.6278982 L49.3505454,48.4807208 Z" id="Fill-1575" fill="#F797A5" transform="translate(53.579444, 49.058143) scale(-1, 1) translate(-53.579444, -49.058143) "/>
                <path d="M67.4356389,38.7184652 C67.4356389,38.7184652 67.7726389,53.8184652 60.2036389,56.0684652 C52.6346389,58.3184652 33.0726389,62.1284652 31.2806389,52.5284652 L33.1386389,40.1084652 C33.1386389,40.1084652 32.5176389,51.3784652 33.8446389,52.5984652 C35.1726389,53.8084652 39.6646389,55.3784652 41.3446389,51.9684652 L44.1246389,52.6084652 C43.4886389,55.8084652 64.5136389,57.3484652 65.8636389,37.7884652 L67.4356389,38.7184652" id="Fill-1576" fill="#282727" transform="translate(49.359265, 48.265627) scale(-1, 1) translate(-49.359265, -48.265627) "/>
                <path d="M61.213892,40.9784652 C63.859892,40.6684652 64.159892,48.7084652 62.985892,53.7184652 L65.983892,50.5184652 C65.983892,50.5184652 65.887892,40.7284652 62.904892,39.4484652 C60.312892,38.3284652 49.333892,41.1184652 39.819892,38.7584652 C38.427892,38.4084652 38.097892,50.3084652 38.097892,50.3084652 L39.172892,53.1184652 C39.172892,53.1184652 39.532892,40.2584652 40.642892,40.5684652 C49.455892,43.0084652 53.835892,41.8584652 61.213892,40.9784652" id="Fill-1577" fill="#282727" transform="translate(52.040892, 46.234679) scale(-1, 1) translate(-52.040892, -46.234679) "/>
                <path d="M63.8341439,19.7884652 C64.3751439,20.3084652 64.5841439,21.1484652 64.3501439,21.8584652 C64.1171439,22.5784652 63.4521439,23.1284652 62.7081439,23.2284652 C63.6801439,23.9084652 64.1661439,25.2084652 63.8751439,26.3584652 C63.5851439,27.5084652 62.5371439,28.4284652 61.3591439,28.5684652 C62.1851439,29.0184652 62.3331439,30.3384652 61.6301439,30.9684652 C61.3791439,31.1884652 61.0551439,31.3284652 60.8361439,31.5884652 C60.5851439,31.8784652 60.5121439,32.2784652 60.4411439,32.6584652 C60.0271439,34.8584652 59.3651439,37.0184652 58.4701439,39.0684652 C57.9891439,38.9884652 57.5081439,38.8984652 57.0261439,38.8184652 C57.2891439,35.1984652 57.5511439,31.5784652 57.8131439,27.9584652 C58.0401439,24.8284652 58.2541439,21.5884652 57.1971439,18.6284652 C56.8201439,17.5684652 56.2661439,16.5484652 55.4111439,15.8184652 C54.7151439,15.2284652 53.8581439,14.8584652 53.0011439,14.5384652 C46.6401439,12.1784652 39.6551439,12.0384652 32.9071439,12.7484652 C30.3171439,13.0184652 27.6401439,13.4484652 25.4891439,14.9184652 C24.4771439,14.2384652 23.7711439,13.0284652 23.9221439,11.8084652 C24.0741439,10.5984652 25.2341439,9.5284652 26.4451439,9.6884652 C25.7841439,9.0984652 25.3741439,8.1384652 25.6761439,7.3084652 C25.9781439,6.4784652 27.1581439,6.0184652 27.8221439,6.5984652 C26.9931439,5.5484652 27.1211439,3.8584652 28.1001439,2.9384652 C29.0781439,2.0184652 30.7671439,1.9984652 31.7721439,2.8884652 C32.1901439,1.5084652 34.2801439,1.0484652 35.2411439,2.1184652 C35.2721439,1.1584652 36.0101439,0.2584652 36.9481439,0.0484651998 C37.8861439,-0.1615348 38.9371439,0.3284652 39.3791439,1.1784652 C40.5791439,-0.1715348 42.9911439,-0.1615348 44.1761439,1.2084652 C44.9051439,0.8284652 45.6771439,0.4484652 46.4981439,0.4684652 C47.3191439,0.4984652 48.1841439,1.0784652 48.2171439,1.9084652 C49.0241439,1.1684652 50.3081439,1.0184652 51.2631439,1.5484652 C52.2181439,2.0684652 52.7741439,3.2384652 52.5821439,4.3084652 C53.5241439,3.8984652 54.6011439,3.6484652 55.5781439,3.9684652 C56.5541439,4.2884652 57.3351439,5.3484652 57.0571439,6.3384652 C57.9521439,5.9584652 59.0501439,6.1184652 59.8041439,6.7284652 C60.5581439,7.3384652 60.9351439,8.3884652 60.7471439,9.3384652 C61.5491439,9.0584652 62.5031439,9.2684652 63.1111439,9.8584652 C63.7191439,10.4584652 63.9501439,11.4084652 63.6851439,12.2184652 C64.5711439,12.6184652 65.5301439,13.0884652 65.9311439,13.9784652 C66.3331439,14.8684652 65.7021439,16.2084652 64.7401439,16.0484652 C65.5751439,16.4084652 66.0751439,17.4184652 65.8601439,18.2984652 C65.6461439,19.1884652 64.7431439,19.8484652 63.8341439,19.7884652" id="Fill-1578" fill="#000000" transform="translate(44.978018, 19.534233) scale(-1, 1) translate(-44.978018, -19.534233) "/>
                <path d="M36.982892,70.9684652 L53.982892,70.9884652 C53.982892,70.9884652 50.107892,75.8284652 44.044892,75.8284652 C37.982892,75.8284652 36.982892,70.9684652 36.982892,70.9684652" id="Fill-1579" fill="#B77F5F" transform="translate(45.482892, 73.398465) scale(-1, 1) translate(-45.482892, -73.398465) "/>
                <path d="M20.399848,148.469947 C9.07462722,158.777622 8.05880105,158.606411 7.62080105,158.336411 L0.258157901,156.707175 C16.137434,145.955868 21.654708,132.743756 25.986434,126.068465 C26.759434,120.618465 19.669434,99.3184652 8.91743399,77.9084652 L16.137434,73.6684652 C16.371434,74.1284652 21.928434,85.2284652 26.967434,97.5284652 C36.595434,121.038465 35.712434,127.768465 33.579434,131.258465 C32.054434,133.748465 29.6791663,140.024354 20.399848,148.469947 Z" id="Fill-1580" fill="#B77F5F" transform="translate(17.611663, 116.042348) scale(-1, 1) translate(-17.611663, -116.042348) "/>
                <path d="M61.1202417,171.823712 C61.1202417,171.823712 47.5672417,159.393712 46.4332417,157.663712 C45.3002417,155.933712 42.5512417,156.273712 43.5362417,158.553712 C44.5212417,160.823712 47.5862417,163.553712 47.5862417,163.553712 L33.0482417,157.093712 C33.0482417,157.093712 31.1002417,155.943712 30.2752417,157.143712 C29.4502417,158.343712 32.4822417,159.703712 32.4822417,159.703712 L41.8332417,164.423712 L30.7362417,161.263712 C30.7362417,161.263712 28.3952417,160.733712 27.9212417,162.003712 C27.4462417,163.273712 30.3462417,164.053712 30.3462417,164.053712 L41.0872417,168.003712 L29.8682417,165.753712 C29.8682417,165.753712 27.0632417,165.193712 26.6822417,166.673712 C26.3012417,168.163712 30.3032417,168.823712 30.3032417,168.823712 L40.8792417,171.663712 L34.6172417,171.983712 C34.6172417,171.983712 33.5142417,172.103712 33.8572417,173.043712 C34.2002417,173.973712 35.6202417,174.003712 35.6202417,174.003712 C35.6202417,174.003712 49.6102417,175.413712 52.7742417,175.173712 C55.9372417,174.943712 60.4262417,177.983712 60.4262417,177.983712 L61.1152417,172.263712 L61.1202417,171.823712" id="Fill-1581" fill="#B77F5F" transform="translate(43.888454, 167.276681) scale(-1, 1) rotate(-60.000000) translate(-43.888454, -167.276681) "/>
                <path d="M2.98113404,70.9684652 C2.98113404,70.9684652 10.106134,69.4184652 15.544134,80.7484652 C20.981134,92.0784652 26.426134,104.478465 26.426134,104.478465 L14.703134,109.968465 L5.98113404,92.0984652 C5.98113404,92.0984652 0.148134035,77.5284652 2.98113404,70.9684652" id="Fill-1582" fill="#9E232D" transform="translate(14.315513, 90.432697) scale(-1, 1) translate(-14.315513, -90.432697) "/>
                <path d="M62.0472087,156.266935 C62.0472087,156.266935 52.6852087,157.726935 49.8902087,157.296935 C47.0942087,156.856935 45.4502087,157.406935 45.4502087,157.406935 C45.4502087,157.406935 35.7592087,162.796935 34.9542087,163.936935 C34.1502087,165.076935 35.0882087,165.586935 35.4282087,165.786935 C35.5802087,165.876935 37.5612087,164.916935 39.7002087,163.826935 L35.7062087,167.276935 C35.7062087,167.276935 34.8562087,168.786935 36.2362087,168.786935 C37.0232087,168.776935 37.3532087,168.636935 37.4982087,168.516935 C37.3102087,168.806935 36.9802087,169.386935 37.1922087,169.586935 C37.4782087,169.846935 38.3372087,170.346935 39.1902087,169.556935 C39.1902087,169.556935 38.8132087,170.386935 39.5292087,170.816935 C40.2442087,171.236935 45.7412087,166.116935 45.7412087,166.116935 L50.7642087,165.186935 L50.8402087,165.266935 C51.2592087,165.846935 50.8312087,166.666935 50.3082087,167.156935 C49.1802087,168.206935 47.5972087,168.736935 46.6332087,169.936935 C46.3952087,170.236935 46.1942087,170.586935 46.2142087,170.966935 C46.2332087,171.346935 46.5492087,171.726935 46.9282087,171.706935 C47.0682087,171.696935 47.1982087,171.626935 47.3242087,171.566935 C51.6992087,169.456935 56.0562087,167.326935 60.1672087,164.726935 C60.5852087,164.466935 63.9062087,162.946935 63.9082087,162.456935 L75.7342087,153.886935 L67.2962087,151.276935 L62.0472087,156.266935" id="Fill-1554" fill="#A56B4E" transform="translate(55.185655, 161.492313) scale(-1, 1) rotate(-105.000000) translate(-55.185655, -161.492313) "/>
                <path d="M72.0993652,127.306396 L69.0979753,80.4544975 L73.893892,80.2384652 C76.9092906,99.0842159 78.4432937,117.722892 79.1142937,120.672892 C80.3113281,128.893921 78.9851562,138.872266 76.7011719,142.551562 C74.4171875,146.230859 71.46875,150.551953 67.9910156,152.394922 C64.5132813,154.237891 65.6318717,146.562289 67.0209961,144.520996 C71.191569,138.392415 72.8843587,132.654215 72.0993652,127.306396 Z" id="Combined-Shape" fill="#A56B4E"/>
                <path d="M70.9888907,108.778465 L68.469892,71.0184652 C68.4762295,71.0203081 77.4618662,73.638161 78.814074,101.594527 L79.3179483,108.778465 L70.9888907,108.778465 Z" id="Combined-Shape" fill="#9E232D"/>
            </g>
        </g>
    </g>
</svg>