<?xml version="1.0" encoding="UTF-8"?>
<svg width="32px" height="50px" viewBox="0 0 32 50" version="1.1" xmlns="http://www.w3.org/2000/svg" xmlns:xlink="http://www.w3.org/1999/xlink">
    <!-- Generator: sketchtool 50.2 (55047) - http://www.bohemiancoding.com/sketch -->
    <title>etienne-head</title>
    <desc>Created with sketchtool.</desc>
    <defs/>
    <g id="Page-1" stroke="none" stroke-width="1" fill-rule="evenodd">
        <g id="etienne-head">
            <g id="!etienne">
                <polygon id="Fill-1559" fill="#B77F5F" transform="translate(16.028070, 47.186853) scale(-1, 1) translate(-16.028070, -47.186853) " points="12.4582516 53.3275287 19.597888 53.3275287 19.597888 41.0461773 12.4582516 41.0461773"/>
                <path d="M25.7679224,32.3623935 C25.7679224,32.3623935 25.1868315,39.68888 20.8821042,40.8126638 C16.5781042,41.9291503 8.43846788,43.5272584 3.82828606,42.0386097 C-0.781168488,40.5572584 0.247922421,37.2005016 0.247922421,37.2005016 L1.81519515,25.2913124 C1.81519515,25.2913124 1.05301333,16.5272584 1.72501333,12.3750962 C2.3977406,8.23023136 6.61955878,4.86617731 7.53955878,3.68401515 C8.45955878,2.49455569 15.6908315,-0.0522010704 20.5235588,3.04915028 C25.3562861,6.15050163 28.569377,8.09888001 28.3802861,10.0180692 C28.1904679,11.9299611 26.2042861,28.1737449 26.2042861,28.1737449 C26.2042861,28.1737449 30.4682861,24.3061773 31.3868315,30.23888 C32.1686497,35.2813124 25.7679224,32.3623935 25.7679224,32.3623935" id="Fill-1560" fill="#B77F5F" transform="translate(15.801451, 22.105011) scale(-1, 1) translate(-15.801451, -22.105011) "/>
                <path d="M13.2482463,20.3291503 C13.3966099,19.4169881 14.2577008,18.7894206 15.1711554,18.9426638 C16.0846099,19.0886097 16.7042463,19.9569881 16.5558827,20.8691503 C16.407519,21.7886097 15.5464281,22.40888 14.6329736,22.2629341 C13.719519,22.1096908 13.0991554,21.2486097 13.2482463,20.3291503" id="Fill-1561" fill="#1A1A1A" transform="translate(14.901976, 20.601910) scale(-1, 1) translate(-14.901976, -20.601910) "/>
                <path d="M23.8566256,28.4145557 C23.6428074,28.4145557 23.4311711,28.3926638 23.2260801,28.3634746 C22.6806256,28.275907 22.1788074,28.07888 21.7904438,27.8234746 C21.0740801,27.3637449 20.692262,26.7142854 20.7671711,26.0940151 C20.9286256,24.7586097 22.6624438,24.495907 23.3446256,24.444826 C21.4791711,20.1321233 23.6013529,18.5340151 23.6937165,18.4683395 C23.7257165,18.4464476 23.7620801,18.431853 23.7984438,18.431853 C23.8537165,18.431853 23.908262,18.4610422 23.9431711,18.5121233 C23.9431711,18.5121233 21.4638983,20.3875287 23.7788074,24.5323935 C23.7788074,24.5323935 23.7017165,24.5250962 23.572262,24.5250962 C22.9395347,24.5250962 21.0609892,24.6564476 20.9555347,26.1523935 C20.8515347,27.611853 22.7104438,28.1737449 24.3940801,28.1737449 C24.692262,28.1737449 24.9846256,28.1591503 25.2595347,28.1226638 C24.8049892,28.3269881 24.3249892,28.4145557 23.8566256,28.4145557" id="Fill-1563" fill="#6A4D3D" transform="translate(23.008711, 23.423204) scale(-1, 1) translate(-23.008711, -23.423204) "/>
                <path d="M21.4857722,18.5121233 C21.4857722,18.5121233 19.0064995,20.3875287 21.3214085,24.5323935 C21.3214085,24.5323935 18.6254085,24.3499611 18.4981358,26.1523935 C18.3395904,28.3853665 22.7810449,28.5167178 24.151954,27.7505016 C26.4006813,26.4880692 23.7984995,24.9629341 23.7512267,24.6345557 C23.383954,22.0805016 22.7577722,18.8842854 21.4857722,18.5121233" id="Fill-1566" fill="#844E38" transform="translate(21.780012, 23.342862) scale(-1, 1) translate(-21.780012, -23.342862) "/>
                <path d="M15.5840698,23.5983395 C15.4473426,23.5983395 15.3106153,23.5837449 15.1811607,23.5399611 C14.6160698,23.3721233 14.1782516,22.9123935 13.8895244,22.4015827 C14.3084335,22.6861773 14.7469789,22.9634746 15.2349789,23.1021233 C15.4407971,23.1605016 15.6560698,23.1896908 15.8706153,23.1896908 C16.165888,23.1896908 16.4575244,23.1313124 16.7135244,22.9853665 C16.5026153,23.3867178 16.0422516,23.5983395 15.5840698,23.5983395" id="Fill-1567" fill="#6A4D3D" transform="translate(15.301524, 22.999961) scale(-1, 1) translate(-15.301524, -22.999961) "/>
                <path d="M23.25579,26.0502314 C23.1343354,26.0502314 23.0136081,26.0356368 22.8950627,26.0064476 C22.7379718,25.9699611 22.5808809,25.9042854 22.47179,25.7875287 C22.3634263,25.6707719 22.314699,25.4810422 22.3888809,25.3423935 C22.458699,25.2037449 22.6143354,25.1380692 22.7641536,25.1015827 C22.8630627,25.0796908 22.9648809,25.0723935 23.066699,25.0723935 C23.3045172,25.0723935 23.5423354,25.1307719 23.7510627,25.2402314 L23.65579,25.2621233 C23.7685172,25.3569881 23.9532445,25.3934746 24.0223354,25.524826 C24.0739718,25.6342854 24.0354263,25.7656368 23.9554263,25.845907 C23.8754263,25.9261773 23.762699,25.9699611 23.650699,25.9991503 C23.5219718,26.0356368 23.3888809,26.0502314 23.25579,26.0502314" id="Fill-1569" fill="#B99A8E" transform="translate(23.199566, 25.561312) scale(-1, 1) translate(-23.199566, -25.561312) "/>
                <path d="M14.7324349,31.9099611 C14.7266167,31.9099611 14.7207986,31.9099611 14.7149804,31.9099611 L14.6771622,31.9026638 C14.5891622,31.8807719 14.5287986,31.7932043 14.5382531,31.6983395 C14.5731622,31.3115827 14.5535258,30.8007719 14.2597076,30.5745557 C14.1302531,30.4723935 13.9687986,30.4432043 13.8189804,30.4432043 C13.583344,30.4432043 13.3767986,30.5234746 13.3738895,30.5234746 C13.3506167,30.5307719 13.327344,30.5307719 13.3040713,30.5307719 C13.2255258,30.5307719 13.1520713,30.4869881 13.1215258,30.4067178 C13.0837076,30.3045557 13.1346167,30.1950962 13.2349804,30.1513124 C13.2531622,30.1513124 13.5077076,30.0491503 13.8175258,30.0491503 C14.0364349,30.0491503 14.2837076,30.1002314 14.4946167,30.2607719 C14.8458895,30.5307719 14.991344,31.0269881 14.927344,31.734826 C14.9186167,31.8369881 14.8327986,31.9099611 14.7324349,31.9099611" id="Fill-1572" fill="#6A4D3D" transform="translate(14.025525, 30.979556) scale(-1, 1) translate(-14.025525, -30.979556) "/>
                <path d="M28.0102516,31.4137449 C28.0102516,31.4137449 20.2466153,34.434826 14.7360698,30.1513124 C14.7360698,30.1513124 15.9855244,35.2375287 14.9280698,36.3175287 C14.9280698,36.3175287 26.2015244,40.6375287 28.0102516,31.4137449" id="Fill-1573" fill="#333333" transform="translate(21.373161, 33.739703) scale(-1, 1) translate(-21.373161, -33.739703) "/>
                <path d="M15.2284335,30.8372584 C15.2284335,30.8372584 15.3702516,31.8515827 15.5237062,32.7345557 C15.6589789,33.5153665 16.2575244,34.1210422 17.0306153,34.2815827 C19.5447971,34.7777989 25.3455244,35.4710422 27.541888,31.7567178 C27.541888,31.7567178 21.1564335,34.3910422 15.2284335,30.8372584" id="Fill-1574" fill="#FFFFFF" transform="translate(21.385161, 32.758695) scale(-1, 1) translate(-21.385161, -32.758695) "/>
                <path d="M18.0509789,36.6386097 C18.0509789,36.6386097 21.1171607,34.8872584 25.1789789,35.9307719 C25.1789789,35.9307719 22.7113426,37.9229341 18.0509789,36.6386097" id="Fill-1575" fill="#F797A5" transform="translate(21.614979, 36.334521) scale(-1, 1) translate(-21.614979, -36.334521) "/>
                <path d="M31.6609767,28.2540151 C31.6609767,28.2540151 31.9060676,39.2729341 26.4013403,40.914826 C20.896613,42.5567178 6.66970394,45.3369881 5.36643121,38.3315827 L6.71770394,29.2683395 C6.71770394,29.2683395 6.26606758,37.4923935 7.23115849,38.3826638 C8.19697667,39.2656368 11.4638858,40.4113124 12.6857039,37.9229341 L14.7075221,38.3899611 C14.2449767,40.7250962 29.5358858,41.84888 30.5177039,27.5753665 L31.6609767,28.2540151" id="Fill-1576" fill="#282727" transform="translate(18.514523, 35.220863) scale(-1, 1) translate(-18.514523, -35.220863) "/>
                <path d="M27.1360698,29.9032043 C29.0604335,29.6769881 29.2786153,35.5440151 28.4247971,39.1999611 L30.6051607,36.864826 C30.6051607,36.864826 30.5353426,29.7207719 28.365888,28.7867178 C26.4807971,27.9694206 18.4960698,30.0053665 11.5767971,28.2832043 C10.5644335,28.0277989 10.3244335,36.7115827 10.3244335,36.7115827 L11.1062516,38.7621233 C11.1062516,38.7621233 11.3680698,29.3777989 12.1753426,29.6040151 C18.5847971,31.3845557 21.7702516,30.5453665 27.1360698,29.9032043" id="Fill-1577" fill="#282727" transform="translate(20.464797, 33.738820) scale(-1, 1) translate(-20.464797, -33.738820) "/>
                <path d="M29.0417076,14.4402314 C29.4351621,14.8196908 29.5871621,15.4326638 29.4169803,15.9507719 C29.2475258,16.4761773 28.7638894,16.8775287 28.2227985,16.9505016 C28.9297076,17.4467178 29.2831621,18.3953665 29.0715258,19.2345557 C28.8606167,20.0737449 28.0984349,20.7450962 27.2417076,20.8472584 C27.8424349,21.1756368 27.9500712,22.13888 27.4387985,22.5986097 C27.256253,22.7591503 27.0206167,22.8613124 26.8613439,23.0510422 C26.6787985,23.2626638 26.6257076,23.5545557 26.5740712,23.831853 C26.2729803,25.4372584 25.7915258,27.0134746 25.1406167,28.5094206 C24.7907985,28.4510422 24.4409803,28.3853665 24.0904349,28.3269881 C24.2817076,25.6853665 24.472253,23.0437449 24.6627985,20.4021233 C24.8278894,18.1180692 24.9835258,15.7537449 24.2147985,13.5937449 C23.9406167,12.8202314 23.5377076,12.075907 22.9158894,11.5432043 C22.4097076,11.1126638 21.7864349,10.8426638 21.1631621,10.6091503 C16.5369803,8.88698812 11.4569803,8.78482596 6.54934394,9.30293406 C4.66570758,9.49996109 2.71879849,9.81374488 1.15443485,10.8864476 C0.418434854,10.3902314 -0.0950196918,9.50725839 0.01479849,8.61698812 C0.125343945,7.73401515 0.968980308,6.95320433 1.84970758,7.06996109 C1.36898031,6.63942055 1.07079849,5.93888001 1.29043485,5.33320433 C1.51007122,4.72752866 2.36825304,4.39185298 2.85116213,4.81509623 C2.24825304,4.04888001 2.34134394,2.81563677 3.05334394,2.14428542 C3.76461667,1.47293406 4.99298031,1.45833947 5.7238894,2.10779893 C6.0278894,1.1007719 7.5478894,0.765096227 8.24679849,1.54590704 C8.26934394,0.845366497 8.80607122,0.18860974 9.48825304,0.0353664971 C10.1704349,-0.117876746 10.9347985,0.239690821 11.256253,0.859961092 C12.1289803,-0.125174043 13.8831621,-0.117876746 14.7449803,0.881852984 C15.2751621,0.604555686 15.8366167,0.327258389 16.4337076,0.341852984 C17.0307985,0.363744876 17.6598894,0.786988119 17.6838894,1.39266379 C18.2707985,0.852663794 19.2046167,0.743204335 19.8991621,1.12996109 C20.5937076,1.50942055 20.9980712,2.36320433 20.8584349,3.14401515 C21.5435258,2.84482596 22.3267985,2.66239352 23.0373439,2.89590704 C23.7471621,3.12942055 24.3151621,3.90293406 24.1129803,4.6253665 C24.7638894,4.3480692 25.5624349,4.46482596 26.1107985,4.90996109 C26.6591621,5.35509623 26.9333439,6.12131244 26.7966167,6.81455569 C27.3798894,6.61023136 28.0737076,6.76347461 28.5158894,7.19401515 C28.9580712,7.63185298 29.1260712,8.32509623 28.9333439,8.91617731 C29.5777076,9.2080692 30.2751621,9.55104217 30.5667985,10.2005016 C30.8591621,10.8499611 30.400253,11.8277989 29.7006167,11.7110422 C30.3078894,11.9737449 30.6715258,12.7107719 30.5151621,13.3529341 C30.3595258,14.0023935 29.7027985,14.4840151 29.0417076,14.4402314" id="Fill-1578" fill="#000000" transform="translate(15.328161, 14.254710) scale(-1, 1) translate(-15.328161, -14.254710) "/>
                <path d="M24.4635201,20.4240151 C24.5849746,19.6723935 25.2918837,19.1542854 26.0424292,19.2783395 C26.7929746,19.4023935 27.3020655,20.1102314 27.1798837,20.861853 C27.0577019,21.6207719 26.3507928,22.1315827 25.6002473,22.0075287 C24.8504292,21.8834746 24.340611,21.1756368 24.4635201,20.4240151" id="Fill-1562" fill="#1A1A1A" transform="translate(25.821613, 20.643033) scale(-1, 1) translate(-25.821613, -20.643033) "/>
                <path d="M25.8102516,23.3429341 C25.301888,23.3429341 24.7913426,23.0875287 24.4967971,22.6715827 C24.8313426,22.824826 25.2095244,22.9123935 25.5804335,22.9123935 C26.0909789,22.9123935 26.5869789,22.751853 26.933888,22.3796908 C26.8335244,22.7810422 26.5462516,23.1240151 26.1731607,23.2991503 C26.053888,23.3283395 25.9324335,23.3429341 25.8102516,23.3429341" id="Fill-1568" fill="#6A4D3D" transform="translate(25.715343, 22.861312) scale(-1, 1) translate(-25.715343, -22.861312) "/>
            </g>
        </g>
    </g>
</svg>