<?xml version="1.0" encoding="UTF-8"?>
<svg width="207px" height="303px" viewBox="0 0 207 303" version="1.1" xmlns="http://www.w3.org/2000/svg" xmlns:xlink="http://www.w3.org/1999/xlink">
    <!-- Generator: sketchtool 50.2 (55047) - http://www.bohemiancoding.com/sketch -->
    <title>etienne-angry</title>
    <desc>Created with sketchtool.</desc>
    <defs>
        <filter x="-3.3%" y="-4.3%" width="106.5%" height="108.5%" filterUnits="objectBoundingBox">
            <feGaussianBlur stdDeviation="2" in="SourceGraphic"/>
        </filter>
    </defs>
    <g stroke="none" stroke-width="1" fill-rule="evenodd">
        <g>
            <path d="M141.244321,191.72222 L142.91145,191.721289 L148.964918,184.961541 C148.130632,184.850282 147.381755,184.739499 146.739709,184.635705 C142.851148,184.007072 143.58806,181.266959 144.854754,179.11643 C143.210435,179.391644 135.02775,180.645463 138.647624,177.685624 C143.100313,174.043436 146.562838,176.075049 146.942896,176.318345 C146.96405,175.416912 147.219833,174.473771 147.698823,173.514625 C147.789483,173.334104 147.886651,173.144081 147.759024,173.006315 C147.650633,172.8828 147.386192,172.816292 147.228785,172.71178 C146.7938,172.412494 147.503356,171.785419 148.520796,171.571643 C147.402355,171.505135 146.745743,171.068083 146.944977,170.521768 C147.143212,169.975452 148.182259,169.357879 149.443546,169.03484 C148.742088,168.987334 148.31107,168.726053 148.384373,168.384012 C148.452422,168.046722 149.018776,167.647674 149.780995,167.400645 C148.84647,167.429148 148.224248,167.115611 148.388873,166.69281 C148.548244,166.27476 149.477919,165.794953 150.466071,165.623932 C149.436004,165.699941 149.375068,165.063365 150.155693,164.640565 C150.935318,164.217764 152.094266,163.994488 153.150435,163.804465 C153.230026,163.419669 153.865176,162.968365 154.728429,162.683331 C155.587428,162.403047 156.630766,162.303285 157.313648,162.436301 C157.529798,161.984997 158.353491,161.486188 159.366998,161.196403 C160.380505,160.906618 161.546572,160.830609 162.279912,161.011131 C162.423079,160.540825 163.655026,160.037264 164.767161,159.885246 C165.880296,159.733228 166.85094,159.851992 167.618518,160.046766 C167.881718,159.538455 168.935461,158.982638 170.11168,158.735609 C171.292154,158.483829 172.512341,158.555087 173.004529,158.906629 C173.390628,158.512332 174.502373,158.236799 175.336135,158.222548 C176.165644,158.213046 176.775984,158.393568 177.343324,158.57409 C179.111151,157.923262 181.527405,157.918511 182.153086,158.559838 C182.956694,158.15604 184.216151,157.923262 185.064812,158.023024 C185.913474,158.122786 186.268595,158.550337 185.89119,159.006391 C187.307391,158.498081 189.201697,158.716607 189.032616,159.372185 C190.416241,158.949384 192.096732,158.958886 192.683345,159.395938 C193.270957,159.83299 192.679995,160.635836 191.404303,161.134646 C192.315047,160.859113 193.299353,161.077639 193.248254,161.471936 C193.197154,161.866233 192.378749,162.322288 191.466751,162.602571 C192.745818,162.526562 193.450617,163.034873 193.087858,163.609692 C192.719844,164.189261 191.499084,164.764079 190.197797,165.087118 C190.135227,165.393411 190.032282,165.720897 189.846938,166.056234 C188.35029,168.759307 182.19298,174.464739 182.19298,174.464739 L180.592776,177.055923 L177.168701,182.954004 C173.548183,185.763979 165.347277,186.155456 158.03828,185.791942 L152.733363,191.715802 L155.868932,191.714051 C155.868932,191.714051 160.690841,191.721969 170.334661,191.737804 C170.334661,191.737804 176.964494,193.089463 166.768101,204.385425 C167.19102,204.385468 167.548173,204.44971 167.655963,204.645097 C167.841887,204.982112 166.656003,205.345693 165.655314,205.586642 C165.452771,205.800015 165.244645,206.01663 165.030802,206.236537 L164.625877,206.700832 L165.442227,206.602331 C165.442227,206.602331 168.0087,206.35055 167.942415,206.953873 C167.87713,207.557195 164.645302,207.927739 164.645302,207.927739 L163.390542,208.117293 L162.723145,208.882544 L164.400085,208.735335 C164.400085,208.735335 167.443321,208.469304 167.194698,209.172388 C166.94182,209.880222 162.659042,210.19376 162.659042,210.19376 L160.739346,210.413544 C158.919063,212.863588 157.683216,214.632087 157.454118,215.181856 C157.834842,216.264678 162.835148,220.373578 168.083007,224.255774 C169.016334,224.945187 169.835696,225.540508 170.643919,226.117663 L171.211718,226.625974 C171.211718,226.625974 179.952603,227.319557 182.930534,227.115282 C185.91372,226.906258 187.323738,227.167539 187.323738,227.167539 C187.323738,227.167539 194.721717,229.728095 195.041736,230.26966 C195.360756,230.811224 194.205791,231.053503 193.780707,231.148515 C193.590419,231.19127 192.017824,230.735215 190.342533,230.217403 L192.868829,231.856349 C192.868829,231.856349 193.076443,232.573685 191.696443,232.573685 C190.913697,232.568934 190.643256,232.502426 190.549307,232.44542 C190.613935,232.583186 190.69719,232.858719 190.400106,232.95373 C190.003496,233.077245 188.931786,233.314774 188.414869,232.939479 C188.414869,232.939479 188.438769,233.333776 187.539838,233.53805 C186.646161,233.737574 183.327318,231.305283 183.327318,231.305283 L178.69996,230.863481 C177.924182,231.177018 178.003336,231.566565 178.31788,231.799342 C178.999187,232.298152 180.356714,232.549932 180.810209,233.12 C180.920582,233.262517 180.972685,233.428787 180.791025,233.609309 C180.610364,233.78983 180.132704,233.970352 179.762213,233.960851 C175.948411,232.891973 172.497558,231.880102 169.492654,230.644954 C169.185263,230.52144 166.510904,229.799353 166.71736,229.566576 L165.247733,228.835146 C155.97614,224.977498 151.514069,221.451625 149.729691,219.025906 L143.223316,227.642596 L139.092486,228.011639 C138.112327,230.157372 122.431493,263.436195 81.0074501,289.878139 L76.5793359,289.749788 L73.3179516,291.849624 C73.3179516,291.849624 99.553168,294.424432 93.8239547,299.175 L56.4809547,299.175 C56.4809547,299.175 56.4041231,295.602573 65.4766805,291.873377 L69.703634,289.550492 L65.6013462,289.431585 C65.6013462,289.431585 88.8046392,276.980347 108.169137,251.332031 L118.584565,235.34637 C118.584565,235.34637 115.994633,232.168241 100.875264,236.248978 C100.875264,236.248978 82.6863971,262.595628 36.4903813,289.673864 L31.4912593,289.673864 L28.1129516,291.849624 C28.1129516,291.849624 54.347168,294.424432 48.6189547,299.175 L11.2749342,299.175 C11.2749342,299.175 11.1991231,295.602573 20.2706805,291.873377 L24.2844969,289.673864 L19.7833813,289.673864 C19.7833813,289.673864 57.2320321,271.295145 89.1232696,232.475827 L84.9969529,232.844467 L96.8984208,220.904262 C91.3247389,221.728748 87.0760323,222.136687 84.0149497,222.136687 C80.3109497,222.136687 78.3469805,221.538116 77.8812797,220.355224 C77.3164903,218.910799 78.7466601,216.298115 92.104716,208.263769 L89.8350629,207.633204 C89.8350629,207.633204 100.555287,201.7425 110.812311,196.360106 C121.070335,190.977713 127.535932,191.714051 127.535932,191.714051 L141.244321,191.72222 Z M116.628821,201.109643 C115.958285,201.515264 115.546779,201.752001 115.546779,201.752001 L99.2224998,210.241265 L98.4206956,210.018505 C92.366396,213.789082 88.4090747,216.672065 87.6822164,217.88968 C89.657944,217.990115 94.6128244,217.476642 101.304389,216.483953 L116.628821,201.109643 Z" fill="#666768" opacity="0.670200893" filter="url(#filter-1)"/>
            <g transform="translate(5.000000, 2.000000)">
                <path d="M75.583423,277.165 L77.017423,281.755 C77.017423,281.755 48.476423,287.175 49.951423,297.175 L87.294423,297.175 C87.294423,297.175 90.570423,290.155 84.837423,282.315 L81.398423,273.665 L76.157423,276.535 L75.583423,277.165" fill="#666768" transform="translate(69.061212, 285.420000) scale(-1, 1) translate(-69.061212, -285.420000) "/>
                <path d="M77.017423,281.755 C77.017423,281.755 48.476423,287.175 49.951423,297.175 L87.294423,297.175 C87.294423,297.175 90.570423,289.655 84.837423,281.805 L77.017423,281.755" fill="#42210B" transform="translate(69.061212, 289.465000) scale(-1, 1) translate(-69.061212, -289.465000) "/>
                <path d="M30.3787494,277.165 L31.8117494,281.755 C31.8117494,281.755 3.27174944,287.175 4.74574944,297.175 L42.0897494,297.175 C42.0897494,297.175 45.3647494,290.155 39.6327494,282.315 L36.1927494,273.665 L30.9517494,276.535 L30.3787494,277.165" fill="#666768" transform="translate(23.855875, 285.420000) scale(-1, 1) translate(-23.855875, -285.420000) "/>
                <path d="M31.8117494,281.755 C31.8117494,281.755 3.27174944,287.175 4.74574944,297.175 L42.0897494,297.175 C42.0897494,297.175 45.3647494,289.655 39.6327494,281.805 L31.8117494,281.755" fill="#42210B" transform="translate(23.855875, 289.465000) scale(-1, 1) translate(-23.855875, -289.465000) "/>
                <path d="M11.8846477,147.145 C11.8846477,147.145 -3.82535227,220.065 14.5186477,277.605 L30.3246477,276.665 C30.3246477,276.665 18.2716477,250.455 21.8756477,196.465 L25.7756477,162.815 C25.7756477,162.815 31.2116477,156.125 42.6766477,164.715 C42.6766477,164.715 37.2716477,220.175 59.2186477,277.175 L75.9256477,277.175 C75.9256477,277.175 53.3226477,235.515 58.2366477,147.345 L11.8846477,147.145" fill="#3D4A60" transform="translate(40.773824, 212.375000) scale(-1, 1) translate(-40.773824, -212.375000) "/>
                <path d="M68.879892,149.138465 L65.901892,143.388465 C75.837892,134.278465 87.314892,123.018465 88.884892,120.368465 C89.555892,117.418465 90.776892,97.7984652 91.574892,80.2384652 L99.566892,80.5984652 C99.044892,92.0884652 97.694892,119.238465 96.450892,123.008465 C95.182892,126.838465 87.485892,137.208465 68.879892,149.138465" fill="#A56B4E" transform="translate(82.734392, 114.688465) scale(-1, 1) translate(-82.734392, -114.688465) "/>
                <path d="M75.6411081,71.0184652 C75.6411081,71.0184652 66.9611081,74.1684652 67.9611081,101.538465 L67.8811081,108.738465 L76.2301081,108.778465 L75.6411081,71.0184652" fill="#9E232D" transform="translate(72.055500, 89.898465) scale(-1, 1) translate(-72.055500, -89.898465) "/>
                <polyline fill="#C1272D" transform="translate(46.727892, 114.258465) scale(-1, 1) translate(-46.727892, -114.258465) " points="24.985892 71.0184652 69.347892 70.9684652 73.511892 157.548465 19.943892 146.598465 24.985892 71.0184652"/>
                <polygon fill="#B77F5F" transform="translate(45.940392, 64.663465) scale(-1, 1) translate(-45.940392, -64.663465) " points="41.031892 73.0784652 50.848892 73.0784652 50.848892 56.2484652 41.031892 56.2484652"/>
                <path d="M59.3326893,44.3484652 C59.3326893,44.3484652 58.5336893,54.3884652 52.6146893,55.9284652 C46.6966893,57.4584652 35.5046893,59.6484652 29.1656893,57.6084652 C22.8276893,55.5784652 24.2426893,50.9784652 24.2426893,50.9784652 L26.3976893,34.6584652 C26.3976893,34.6584652 25.3496893,22.6484652 26.2736893,16.9584652 C27.1986893,11.2784652 33.0036893,6.6684652 34.2686893,5.0484652 C35.5336893,3.4184652 45.4766893,-0.0715348002 52.1216893,4.1784652 C58.7666893,8.4284652 63.1846893,11.0984652 62.9246893,13.7284652 C62.6636893,16.3484652 59.9326893,38.6084652 59.9326893,38.6084652 C59.9326893,38.6084652 65.7956893,33.3084652 67.0586893,41.4384652 C68.1336893,48.3484652 59.3326893,44.3484652 59.3326893,44.3484652" fill="#B77F5F" transform="translate(45.628791, 30.292052) scale(-1, 1) translate(-45.628791, -30.292052) "/>
                <path d="M42.1181347,27.8584652 C42.3221347,26.6084652 43.5061347,25.7484652 44.7621347,25.9584652 C46.0181347,26.1584652 46.8701347,27.3484652 46.6661347,28.5984652 C46.4621347,29.8584652 45.2781347,30.7084652 44.0221347,30.5084652 C42.7661347,30.2984652 41.9131347,29.1184652 42.1181347,27.8584652" fill="#1A1A1A" transform="translate(44.392013, 28.232247) scale(-1, 1) translate(-44.392013, -28.232247) "/>
                <path d="M57.5391361,27.9884652 C57.7061361,26.9584652 58.6781361,26.2484652 59.7101361,26.4184652 C60.7421361,26.5884652 61.4421361,27.5584652 61.2741361,28.5884652 C61.1061361,29.6284652 60.1341361,30.3284652 59.1021361,30.1584652 C58.0711361,29.9884652 57.3701361,29.0184652 57.5391361,27.9884652" fill="#1A1A1A" transform="translate(59.406514, 28.288601) scale(-1, 1) translate(-59.406514, -28.288601) "/>
                <path d="M56.7046562,38.9384652 C56.4106562,38.9384652 56.1196562,38.9084652 55.8376562,38.8684652 C55.0876562,38.7484652 54.3976562,38.4784652 53.8636562,38.1284652 C52.8786562,37.4984652 52.3536562,36.6084652 52.4566562,35.7584652 C52.6786562,33.9284652 55.0626562,33.5684652 56.0006562,33.4984652 C53.4356562,27.5884652 56.3536562,25.3984652 56.4806562,25.3084652 C56.5246562,25.2784652 56.5746562,25.2584652 56.6246562,25.2584652 C56.7006562,25.2584652 56.7756562,25.2984652 56.8236562,25.3684652 C56.8236562,25.3684652 53.4146562,27.9384652 56.5976562,33.6184652 C56.5976562,33.6184652 56.4916562,33.6084652 56.3136562,33.6084652 C55.4436562,33.6084652 52.8606562,33.7884652 52.7156562,35.8384652 C52.5726562,37.8384652 55.1286562,38.6084652 57.4436562,38.6084652 C57.8536562,38.6084652 58.2556562,38.5884652 58.6336562,38.5384652 C58.0086562,38.8184652 57.3486562,38.9384652 56.7046562,38.9384652" fill="#6A4D3D" transform="translate(55.538774, 32.098465) scale(-1, 1) translate(-55.538774, -32.098465) "/>
                <path d="M53.4447328,25.3684652 C53.4447328,25.3684652 50.0357328,27.9384652 53.2187328,33.6184652 C53.2187328,33.6184652 49.5117328,33.3684652 49.3367328,35.8384652 C49.1187328,38.8984652 55.2257328,39.0784652 57.1107328,38.0284652 C60.2027328,36.2984652 56.6247328,34.2084652 56.5597328,33.7584652 C56.0547328,30.2584652 55.1937328,25.8784652 53.4447328,25.3684652" fill="#844E38" transform="translate(53.849312, 31.988367) scale(-1, 1) translate(-53.849312, -31.988367) "/>
                <path d="M45.329892,32.3384652 C45.141892,32.3384652 44.953892,32.3184652 44.775892,32.2584652 C43.998892,32.0284652 43.396892,31.3984652 42.999892,30.6984652 C43.575892,31.0884652 44.178892,31.4684652 44.849892,31.6584652 C45.132892,31.7384652 45.428892,31.7784652 45.723892,31.7784652 C46.129892,31.7784652 46.530892,31.6984652 46.882892,31.4984652 C46.592892,32.0484652 45.959892,32.3384652 45.329892,32.3384652" fill="#6A4D3D" transform="translate(44.941392, 31.518465) scale(-1, 1) translate(-44.941392, -31.518465) "/>
                <path d="M59.390892,31.9884652 C58.691892,31.9884652 57.989892,31.6384652 57.584892,31.0684652 C58.044892,31.2784652 58.564892,31.3984652 59.074892,31.3984652 C59.776892,31.3984652 60.458892,31.1784652 60.935892,30.6684652 C60.797892,31.2184652 60.402892,31.6884652 59.889892,31.9284652 C59.725892,31.9684652 59.558892,31.9884652 59.390892,31.9884652" fill="#6A4D3D" transform="translate(59.260392, 31.328465) scale(-1, 1) translate(-59.260392, -31.328465) "/>
                <path d="M55.8785072,35.6984652 C55.7115072,35.6984652 55.5455072,35.6784652 55.3825072,35.6384652 C55.1665072,35.5884652 54.9505072,35.4984652 54.8005072,35.3384652 C54.6515072,35.1784652 54.5845072,34.9184652 54.6865072,34.7284652 C54.7825072,34.5384652 54.9965072,34.4484652 55.2025072,34.3984652 C55.3385072,34.3684652 55.4785072,34.3584652 55.6185072,34.3584652 C55.9455072,34.3584652 56.2725072,34.4384652 56.5595072,34.5884652 L56.4285072,34.6184652 C56.5835072,34.7484652 56.8375072,34.7984652 56.9325072,34.9784652 C57.0035072,35.1284652 56.9505072,35.3084652 56.8405072,35.4184652 C56.7305072,35.5284652 56.5755072,35.5884652 56.4215072,35.6284652 C56.2445072,35.6784652 56.0615072,35.6984652 55.8785072,35.6984652" fill="#B99A8E" transform="translate(55.801200, 35.028465) scale(-1, 1) translate(-55.801200, -35.028465) "/>
                <path d="M47.1188405,44.6984387 C45.974574,44.9295615 44.7769933,46.8133821 44.0788564,49.7684652 C44.0788564,49.7684652 59.5693951,49.6576991 62.151892,51.1104181 C60.5738683,49.0701235 59.2175741,46.6304302 47.1188405,44.6984387 Z" fill="#333333" transform="translate(53.115374, 47.904428) scale(-1, 1) translate(-53.115374, -47.904428) "/>
                <path d="M45.5248864,49.3877856 C47.1730505,47.7893502 50.2807528,46.1086455 59.1119079,44.6984387 C59.5530788,44.7875479 60.0021749,45.1223275 60.4275167,45.6694549 C54.813941,46.7531594 51.6170615,46.7531594 45.5248864,49.3877856 Z" fill="#FFFFFF"/>
                <path d="M49.3505454,48.4807208 C53.1496886,47.2358871 56.1429967,48.4174377 58.9048549,50.1520917 C55.9905134,49.7902056 52.0270512,49.2448778 48.2540323,49.6278982 L49.3505454,48.4807208 Z" fill="#F797A5" transform="translate(53.579444, 49.058143) scale(-1, 1) translate(-53.579444, -49.058143) "/>
                <path d="M67.4356389,38.7184652 C67.4356389,38.7184652 67.7726389,53.8184652 60.2036389,56.0684652 C52.6346389,58.3184652 33.0726389,62.1284652 31.2806389,52.5284652 L33.1386389,40.1084652 C33.1386389,40.1084652 32.5176389,51.3784652 33.8446389,52.5984652 C35.1726389,53.8084652 39.6646389,55.3784652 41.3446389,51.9684652 L44.1246389,52.6084652 C43.4886389,55.8084652 64.5136389,57.3484652 65.8636389,37.7884652 L67.4356389,38.7184652" fill="#282727" transform="translate(49.359265, 48.265627) scale(-1, 1) translate(-49.359265, -48.265627) "/>
                <path d="M61.213892,40.9784652 C63.859892,40.6684652 64.159892,48.7084652 62.985892,53.7184652 L65.983892,50.5184652 C65.983892,50.5184652 65.887892,40.7284652 62.904892,39.4484652 C60.312892,38.3284652 49.333892,41.1184652 39.819892,38.7584652 C38.427892,38.4084652 38.097892,50.3084652 38.097892,50.3084652 L39.172892,53.1184652 C39.172892,53.1184652 39.532892,40.2584652 40.642892,40.5684652 C49.455892,43.0084652 53.835892,41.8584652 61.213892,40.9784652" fill="#282727" transform="translate(52.040892, 46.234679) scale(-1, 1) translate(-52.040892, -46.234679) "/>
                <path d="M63.8341439,19.7884652 C64.3751439,20.3084652 64.5841439,21.1484652 64.3501439,21.8584652 C64.1171439,22.5784652 63.4521439,23.1284652 62.7081439,23.2284652 C63.6801439,23.9084652 64.1661439,25.2084652 63.8751439,26.3584652 C63.5851439,27.5084652 62.5371439,28.4284652 61.3591439,28.5684652 C62.1851439,29.0184652 62.3331439,30.3384652 61.6301439,30.9684652 C61.3791439,31.1884652 61.0551439,31.3284652 60.8361439,31.5884652 C60.5851439,31.8784652 60.5121439,32.2784652 60.4411439,32.6584652 C60.0271439,34.8584652 59.3651439,37.0184652 58.4701439,39.0684652 C57.9891439,38.9884652 57.5081439,38.8984652 57.0261439,38.8184652 C57.2891439,35.1984652 57.5511439,31.5784652 57.8131439,27.9584652 C58.0401439,24.8284652 58.2541439,21.5884652 57.1971439,18.6284652 C56.8201439,17.5684652 56.2661439,16.5484652 55.4111439,15.8184652 C54.7151439,15.2284652 53.8581439,14.8584652 53.0011439,14.5384652 C46.6401439,12.1784652 39.6551439,12.0384652 32.9071439,12.7484652 C30.3171439,13.0184652 27.6401439,13.4484652 25.4891439,14.9184652 C24.4771439,14.2384652 23.7711439,13.0284652 23.9221439,11.8084652 C24.0741439,10.5984652 25.2341439,9.5284652 26.4451439,9.6884652 C25.7841439,9.0984652 25.3741439,8.1384652 25.6761439,7.3084652 C25.9781439,6.4784652 27.1581439,6.0184652 27.8221439,6.5984652 C26.9931439,5.5484652 27.1211439,3.8584652 28.1001439,2.9384652 C29.0781439,2.0184652 30.7671439,1.9984652 31.7721439,2.8884652 C32.1901439,1.5084652 34.2801439,1.0484652 35.2411439,2.1184652 C35.2721439,1.1584652 36.0101439,0.2584652 36.9481439,0.0484651998 C37.8861439,-0.1615348 38.9371439,0.3284652 39.3791439,1.1784652 C40.5791439,-0.1715348 42.9911439,-0.1615348 44.1761439,1.2084652 C44.9051439,0.8284652 45.6771439,0.4484652 46.4981439,0.4684652 C47.3191439,0.4984652 48.1841439,1.0784652 48.2171439,1.9084652 C49.0241439,1.1684652 50.3081439,1.0184652 51.2631439,1.5484652 C52.2181439,2.0684652 52.7741439,3.2384652 52.5821439,4.3084652 C53.5241439,3.8984652 54.6011439,3.6484652 55.5781439,3.9684652 C56.5541439,4.2884652 57.3351439,5.3484652 57.0571439,6.3384652 C57.9521439,5.9584652 59.0501439,6.1184652 59.8041439,6.7284652 C60.5581439,7.3384652 60.9351439,8.3884652 60.7471439,9.3384652 C61.5491439,9.0584652 62.5031439,9.2684652 63.1111439,9.8584652 C63.7191439,10.4584652 63.9501439,11.4084652 63.6851439,12.2184652 C64.5711439,12.6184652 65.5301439,13.0884652 65.9311439,13.9784652 C66.3331439,14.8684652 65.7021439,16.2084652 64.7401439,16.0484652 C65.5751439,16.4084652 66.0751439,17.4184652 65.8601439,18.2984652 C65.6461439,19.1884652 64.7431439,19.8484652 63.8341439,19.7884652" fill="#000000" transform="translate(44.978018, 19.534233) scale(-1, 1) translate(-44.978018, -19.534233) "/>
                <path d="M36.982892,70.9684652 L53.982892,70.9884652 C53.982892,70.9884652 50.107892,75.8284652 44.044892,75.8284652 C37.982892,75.8284652 36.982892,70.9684652 36.982892,70.9684652" fill="#B77F5F" transform="translate(45.482892, 73.398465) scale(-1, 1) translate(-45.482892, -73.398465) "/>
                <path d="M45.8321579,135.008465 C40.6091579,135.008465 32.9921579,132.508465 22.3371579,127.418465 C11.1091579,122.048465 0.696157901,115.788465 0.258157901,115.518465 L4.3561579,109.018465 C21.8651579,119.568465 40.9851579,126.578465 45.9681579,126.068465 C46.7411579,120.618465 39.6511579,99.3184652 28.8991579,77.9084652 L36.1191579,73.6684652 C36.3531579,74.1284652 41.9101579,85.2284652 46.9491579,97.5284652 C56.5771579,121.038465 55.6941579,127.768465 53.5611579,131.258465 C52.0361579,133.748465 49.5361579,135.008465 45.8321579,135.008465" fill="#B77F5F" transform="translate(27.602525, 104.338465) scale(-1, 1) translate(-27.602525, -104.338465) "/>
                <path d="M80.9684667,112.868465 C80.9684667,112.868465 67.4154667,100.438465 66.2814667,98.7084652 C65.1484667,96.9784652 62.3994667,97.3184652 63.3844667,99.5984652 C64.3694667,101.868465 67.4344667,104.598465 67.4344667,104.598465 L52.8964667,98.1384652 C52.8964667,98.1384652 50.9484667,96.9884652 50.1234667,98.1884652 C49.2984667,99.3884652 52.3304667,100.748465 52.3304667,100.748465 L61.6814667,105.468465 L50.5844667,102.308465 C50.5844667,102.308465 48.2434667,101.778465 47.7694667,103.048465 C47.2944667,104.318465 50.1944667,105.098465 50.1944667,105.098465 L60.9354667,109.048465 L49.7164667,106.798465 C49.7164667,106.798465 46.9114667,106.238465 46.5304667,107.718465 C46.1494667,109.208465 50.1514667,109.868465 50.1514667,109.868465 L60.7274667,112.708465 L54.4654667,113.028465 C54.4654667,113.028465 53.3624667,113.148465 53.7054667,114.088465 C54.0484667,115.018465 55.4684667,115.048465 55.4684667,115.048465 C55.4684667,115.048465 69.4584667,116.458465 72.6224667,116.218465 C75.7854667,115.988465 80.2744667,119.028465 80.2744667,119.028465 L80.9634667,113.308465 L80.9684667,112.868465" fill="#B77F5F" transform="translate(63.736679, 108.321434) scale(-1, 1) translate(-63.736679, -108.321434) "/>
                <path d="M2.98113404,70.9684652 C2.98113404,70.9684652 10.106134,69.4184652 15.544134,80.7484652 C20.981134,92.0784652 26.426134,104.478465 26.426134,104.478465 L14.703134,109.968465 L5.98113404,92.0984652 C5.98113404,92.0984652 0.148134035,77.5284652 2.98113404,70.9684652" fill="#9E232D" transform="translate(14.315513, 90.432697) scale(-1, 1) translate(-14.315513, -90.432697) "/>
                <path d="M114.313,144.458465 C114.313,144.458465 104.951,145.918465 102.156,145.488465 C99.36,145.048465 97.716,145.598465 97.716,145.598465 C97.716,145.598465 88.025,150.988465 87.22,152.128465 C86.416,153.268465 87.354,153.778465 87.694,153.978465 C87.846,154.068465 89.827,153.108465 91.966,152.018465 L87.972,155.468465 C87.972,155.468465 87.122,156.978465 88.502,156.978465 C89.289,156.968465 89.619,156.828465 89.764,156.708465 C89.576,156.998465 89.246,157.578465 89.458,157.778465 C89.744,158.038465 90.603,158.538465 91.456,157.748465 C91.456,157.748465 91.079,158.578465 91.795,159.008465 C92.51,159.428465 98.007,154.308465 98.007,154.308465 L103.03,153.378465 L103.106,153.458465 C103.525,154.038465 103.097,154.858465 102.574,155.348465 C101.446,156.398465 99.863,156.928465 98.899,158.128465 C98.661,158.428465 98.46,158.778465 98.48,159.158465 C98.499,159.538465 98.815,159.918465 99.194,159.898465 C99.334,159.888465 99.464,159.818465 99.59,159.758465 C103.965,157.648465 108.322,155.518465 112.433,152.918465 C112.851,152.658465 116.172,151.138465 116.174,150.648465 L128,142.078465 L119.562,139.468465 L114.313,144.458465" fill="#A56B4E" transform="translate(107.451446, 149.683843) scale(-1, 1) translate(-107.451446, -149.683843) "/>
            </g>
        </g>
    </g>
</svg>