<?xml version="1.0" encoding="UTF-8"?>
<svg width="1500px" height="1301px" viewBox="0 0 1500 1301" version="1.1" xmlns="http://www.w3.org/2000/svg" xmlns:xlink="http://www.w3.org/1999/xlink">
    <!-- Generator: sketchtool 50.2 (55047) - http://www.bohemiancoding.com/sketch -->
    <title>exterior</title>
    <desc>Created with sketchtool.</desc>
    <defs>
        <polygon id="path-1" points="0.982 706.875 0 706.875 0.982 0.836"/>
        <polygon id="path-3" points="0.02 291.875 0 291.875 0 0.523 0.02 0.525"/>
    </defs>
    <g id="Page-1" stroke="none" stroke-width="1" fill-rule="evenodd">
        <g id="exterior">
            <g id="!restaurant" transform="translate(-168.000000, 1.000000)">
                <polygon id="Fill-1" fill="#D1E6EE" points="0 1300 2321 1300 2321 0 0 0"/>
                <g id="Group-69" transform="translate(0.000000, 967.000000)">
                    <polygon id="Fill-2" fill="#87B9BA" points="0 301 2320 301 2320 0 0 0"/>
                    <polygon id="Fill-8" fill="#A2ABB2" points="145 333 212 333 212 301 145 301"/>
                    <polygon id="Fill-9" fill="#767A79" points="141 333 208 333 208 301 141 301"/>
                    <polygon id="Fill-10" fill="#A2ABB2" points="215 333 282 333 282 301 215 301"/>
                    <polygon id="Fill-11" fill="#767A79" points="211 333 278 333 278 301 211 301"/>
                    <polygon id="Fill-12" fill="#A2ABB2" points="286 333 353 333 353 301 286 301"/>
                    <polygon id="Fill-13" fill="#767A79" points="282 333 349 333 349 301 282 301"/>
                    <polygon id="Fill-14" fill="#A2ABB2" points="356 333 423 333 423 301 356 301"/>
                    <polygon id="Fill-15" fill="#767A79" points="352 333 419 333 419 301 352 301"/>
                    <polygon id="Fill-16" fill="#A2ABB2" points="426 333 493 333 493 301 426 301"/>
                    <polygon id="Fill-17" fill="#767A79" points="423 333 490 333 490 301 423 301"/>
                    <polygon id="Fill-18" fill="#A2ABB2" points="497 333 564 333 564 301 497 301"/>
                    <polygon id="Fill-19" fill="#767A79" points="493 333 560 333 560 301 493 301"/>
                    <polygon id="Fill-20" fill="#A2ABB2" points="567 333 634 333 634 301 567 301"/>
                    <polygon id="Fill-21" fill="#767A79" points="563 333 630 333 630 301 563 301"/>
                    <polygon id="Fill-22" fill="#A2ABB2" points="638 333 705 333 705 301 638 301"/>
                    <polygon id="Fill-23" fill="#767A79" points="634 333 701 333 701 301 634 301"/>
                    <polygon id="Fill-24" fill="#A2ABB2" points="708 333 775 333 775 301 708 301"/>
                    <polygon id="Fill-25" fill="#767A79" points="704 333 771 333 771 301 704 301"/>
                    <polygon id="Fill-26" fill="#A2ABB2" points="779 333 846 333 846 301 779 301"/>
                    <polygon id="Fill-27" fill="#767A79" points="775 333 842 333 842 301 775 301"/>
                    <polygon id="Fill-28" fill="#A2ABB2" points="849 333 916 333 916 301 849 301"/>
                    <polygon id="Fill-29" fill="#767A79" points="845 333 912 333 912 301 845 301"/>
                    <polygon id="Fill-30" fill="#A2ABB2" points="919 333 986 333 986 301 919 301"/>
                    <polygon id="Fill-31" fill="#767A79" points="915 333 982 333 982 301 915 301"/>
                    <polygon id="Fill-32" fill="#A2ABB2" points="990 333 1057 333 1057 301 990 301"/>
                    <polygon id="Fill-33" fill="#767A79" points="986 333 1053 333 1053 301 986 301"/>
                    <polygon id="Fill-34" fill="#A2ABB2" points="1060 333 1127 333 1127 301 1060 301"/>
                    <polygon id="Fill-35" fill="#767A79" points="1056 333 1123 333 1123 301 1056 301"/>
                    <polygon id="Fill-36" fill="#A2ABB2" points="1131 333 1198 333 1198 301 1131 301"/>
                    <polygon id="Fill-37" fill="#767A79" points="1127 333 1194 333 1194 301 1127 301"/>
                    <polygon id="Fill-38" fill="#A2ABB2" points="1201 333 1268 333 1268 301 1201 301"/>
                    <polygon id="Fill-39" fill="#767A79" points="1197 333 1264 333 1264 301 1197 301"/>
                    <polygon id="Fill-40" fill="#A2ABB2" points="1271 333 1338 333 1338 301 1271 301"/>
                    <polygon id="Fill-41" fill="#767A79" points="1268 333 1335 333 1335 301 1268 301"/>
                    <polygon id="Fill-42" fill="#A2ABB2" points="1342 333 1409 333 1409 301 1342 301"/>
                    <polygon id="Fill-43" fill="#767A79" points="1338 333 1405 333 1405 301 1338 301"/>
                    <polygon id="Fill-44" fill="#A2ABB2" points="1412 333 1479 333 1479 301 1412 301"/>
                    <polygon id="Fill-45" fill="#767A79" points="1408 333 1475 333 1475 301 1408 301"/>
                    <polygon id="Fill-46" fill="#A2ABB2" points="1483 333 1550 333 1550 301 1483 301"/>
                    <polygon id="Fill-47" fill="#767A79" points="1479 333 1546 333 1546 301 1479 301"/>
                    <polygon id="Fill-48" fill="#A2ABB2" points="1553 333 1620 333 1620 301 1553 301"/>
                    <polygon id="Fill-49" fill="#767A79" points="1549 333 1616 333 1616 301 1549 301"/>
                    <polygon id="Fill-50" fill="#A2ABB2" points="1624 333 1691 333 1691 301 1624 301"/>
                    <polygon id="Fill-51" fill="#767A79" points="1620 333 1687 333 1687 301 1620 301"/>
                </g>
                <polygon id="Fill-70" fill="#E6E4CD" points="1533 1081 1668 1081 1668 145 1533 145"/>
                <polygon id="Fill-71" fill="#FCF7E1" points="1569 204 1668 204 1668 146 1569 146"/>
                <polygon id="Fill-72" fill="#FFFEF8" points="1569 153 1668 153 1668 146 1569 146"/>
                <polygon id="Fill-73" fill="#D2CEBC" points="1569 204 1668 204 1668 197 1569 197"/>
                <polygon id="Fill-74" fill="#FCF7E1" points="1602 262 1668 262 1668 204 1602 204"/>
                <polygon id="Fill-75" fill="#FFFEF8" points="1602 211 1668 211 1668 204 1602 204"/>
                <polygon id="Fill-76" fill="#D2CEBC" points="1602 262 1668 262 1668 255 1602 255"/>
                <polygon id="Fill-77" fill="#FCF7E1" points="1569 321 1668 321 1668 263 1569 263"/>
                <polygon id="Fill-78" fill="#FFFEF8" points="1569 270 1668 270 1668 263 1569 263"/>
                <polygon id="Fill-79" fill="#D2CEBC" points="1569 321 1668 321 1668 314 1569 314"/>
                <polygon id="Fill-80" fill="#FCF7E1" points="1602 379 1668 379 1668 321 1602 321"/>
                <polygon id="Fill-81" fill="#FFFEF8" points="1602 328 1668 328 1668 321 1602 321"/>
                <polygon id="Fill-82" fill="#D2CEBC" points="1602 379 1668 379 1668 372 1602 372"/>
                <polygon id="Fill-83" fill="#FCF7E1" points="1569 437 1668 437 1668 379 1569 379"/>
                <polygon id="Fill-84" fill="#FFFEF8" points="1569 386 1668 386 1668 379 1569 379"/>
                <polygon id="Fill-85" fill="#D2CEBC" points="1569 438 1668 438 1668 431 1569 431"/>
                <polygon id="Fill-86" fill="#FCF7E1" points="1602 496 1668 496 1668 438 1602 438"/>
                <polygon id="Fill-87" fill="#FFFEF8" points="1602 445 1668 445 1668 438 1602 438"/>
                <polygon id="Fill-88" fill="#D2CEBC" points="1602 496 1668 496 1668 489 1602 489"/>
                <polygon id="Fill-89" fill="#FCF7E1" points="1569 554 1668 554 1668 496 1569 496"/>
                <polygon id="Fill-90" fill="#FFFEF8" points="1569 503 1668 503 1668 496 1569 496"/>
                <polygon id="Fill-91" fill="#D2CEBC" points="1569 555 1668 555 1668 548 1569 548"/>
                <polygon id="Fill-92" fill="#FCF7E1" points="1602 613 1668 613 1668 555 1602 555"/>
                <polygon id="Fill-93" fill="#FFFEF8" points="1602 562 1668 562 1668 555 1602 555"/>
                <polygon id="Fill-94" fill="#D2CEBC" points="1602 613 1668 613 1668 606 1602 606"/>
                <polygon id="Fill-95" fill="#FCF7E1" points="1569 671 1668 671 1668 613 1569 613"/>
                <polygon id="Fill-96" fill="#FFFEF8" points="1569 620 1668 620 1668 613 1569 613"/>
                <polygon id="Fill-97" fill="#D2CEBC" points="1569 671 1668 671 1668 664 1569 664"/>
                <polygon id="Fill-98" fill="#FCF7E1" points="1602 730 1668 730 1668 672 1602 672"/>
                <polygon id="Fill-99" fill="#FFFEF8" points="1602 679 1668 679 1668 672 1602 672"/>
                <polygon id="Fill-100" fill="#D2CEBC" points="1602 730 1668 730 1668 723 1602 723"/>
                <polygon id="Fill-101" fill="#FCF7E1" points="1569 788 1668 788 1668 730 1569 730"/>
                <polygon id="Fill-102" fill="#FFFEF8" points="1569 737 1668 737 1668 730 1569 730"/>
                <polygon id="Fill-103" fill="#D2CEBC" points="1569 788 1668 788 1668 781 1569 781"/>
                <polygon id="Fill-104" fill="#FCF7E1" points="1602 847 1668 847 1668 789 1602 789"/>
                <polygon id="Fill-105" fill="#FFFEF8" points="1602 796 1668 796 1668 789 1602 789"/>
                <polygon id="Fill-106" fill="#D2CEBC" points="1602 847 1668 847 1668 840 1602 840"/>
                <polygon id="Fill-107" fill="#FCF7E1" points="1569 905 1668 905 1668 847 1569 847"/>
                <polygon id="Fill-108" fill="#FFFEF8" points="1569 854 1668 854 1668 847 1569 847"/>
                <polygon id="Fill-109" fill="#D2CEBC" points="1569 905 1668 905 1668 898 1569 898"/>
                <polygon id="Fill-110" fill="#FCF7E1" points="1602 964 1668 964 1668 906 1602 906"/>
                <polygon id="Fill-111" fill="#FFFEF8" points="1602 913 1668 913 1668 906 1602 906"/>
                <polygon id="Fill-112" fill="#D2CEBC" points="1602 964 1668 964 1668 957 1602 957"/>
                <polygon id="Fill-113" fill="#FCF7E1" points="1569 1022 1668 1022 1668 964 1569 964"/>
                <polygon id="Fill-114" fill="#FFFEF8" points="1569 971 1668 971 1668 964 1569 964"/>
                <polygon id="Fill-115" fill="#D2CEBC" points="1569 1022 1668 1022 1668 1015 1569 1015"/>
                <polygon id="Fill-116" fill="#FCF7E1" points="1602 1080 1668 1080 1668 1022 1602 1022"/>
                <polygon id="Fill-117" fill="#FFFEF8" points="1602 1029 1668 1029 1668 1022 1602 1022"/>
                <polygon id="Fill-118" fill="#D2CEBC" points="1602 1081 1668 1081 1668 1074 1602 1074"/>
                <polygon id="Fill-119" fill="#E6E4CD" points="169 1081 304 1081 304 145 169 145"/>
                <polygon id="Fill-120" fill="#FCF7E1" points="169 204 268 204 268 146 169 146"/>
                <polygon id="Fill-121" fill="#FFFEF8" points="169 153 268 153 268 146 169 146"/>
                <polygon id="Fill-122" fill="#D2CEBC" points="169 204 268 204 268 197 169 197"/>
                <polygon id="Fill-123" fill="#FCF7E1" points="169 262 235 262 235 204 169 204"/>
                <polygon id="Fill-124" fill="#FFFEF8" points="169 211 235 211 235 204 169 204"/>
                <polygon id="Fill-125" fill="#D2CEBC" points="169 262 235 262 235 255 169 255"/>
                <polygon id="Fill-126" fill="#FCF7E1" points="169 321 268 321 268 263 169 263"/>
                <polygon id="Fill-127" fill="#FFFEF8" points="169 270 268 270 268 263 169 263"/>
                <polygon id="Fill-128" fill="#D2CEBC" points="169 321 268 321 268 314 169 314"/>
                <polygon id="Fill-129" fill="#FCF7E1" points="169 379 235 379 235 321 169 321"/>
                <polygon id="Fill-130" fill="#FFFEF8" points="169 328 235 328 235 321 169 321"/>
                <polygon id="Fill-131" fill="#D2CEBC" points="169 379 235 379 235 372 169 372"/>
                <polygon id="Fill-132" fill="#FCF7E1" points="169 437 268 437 268 379 169 379"/>
                <polygon id="Fill-133" fill="#FFFEF8" points="169 386 268 386 268 379 169 379"/>
                <polygon id="Fill-134" fill="#D2CEBC" points="169 438 268 438 268 431 169 431"/>
                <polygon id="Fill-135" fill="#FCF7E1" points="169 496 235 496 235 438 169 438"/>
                <polygon id="Fill-136" fill="#FFFEF8" points="169 445 235 445 235 438 169 438"/>
                <polygon id="Fill-137" fill="#D2CEBC" points="169 496 235 496 235 489 169 489"/>
                <polygon id="Fill-138" fill="#FCF7E1" points="169 554 268 554 268 496 169 496"/>
                <polygon id="Fill-139" fill="#FFFEF8" points="169 503 268 503 268 496 169 496"/>
                <polygon id="Fill-140" fill="#D2CEBC" points="169 555 268 555 268 548 169 548"/>
                <polygon id="Fill-141" fill="#FCF7E1" points="169 613 235 613 235 555 169 555"/>
                <polygon id="Fill-142" fill="#FFFEF8" points="169 562 235 562 235 555 169 555"/>
                <polygon id="Fill-143" fill="#D2CEBC" points="169 613 235 613 235 606 169 606"/>
                <polygon id="Fill-144" fill="#FCF7E1" points="169 671 268 671 268 613 169 613"/>
                <polygon id="Fill-145" fill="#FFFEF8" points="169 620 268 620 268 613 169 613"/>
                <polygon id="Fill-146" fill="#D2CEBC" points="169 671 268 671 268 664 169 664"/>
                <polygon id="Fill-147" fill="#FCF7E1" points="169 730 235 730 235 672 169 672"/>
                <polygon id="Fill-148" fill="#FFFEF8" points="169 679 235 679 235 672 169 672"/>
                <polygon id="Fill-149" fill="#D2CEBC" points="169 730 235 730 235 723 169 723"/>
                <polygon id="Fill-150" fill="#FCF7E1" points="169 788 268 788 268 730 169 730"/>
                <polygon id="Fill-151" fill="#FFFEF8" points="169 737 268 737 268 730 169 730"/>
                <polygon id="Fill-152" fill="#D2CEBC" points="169 788 268 788 268 781 169 781"/>
                <polygon id="Fill-153" fill="#FCF7E1" points="169 847 235 847 235 789 169 789"/>
                <polygon id="Fill-154" fill="#FFFEF8" points="169 796 235 796 235 789 169 789"/>
                <polygon id="Fill-155" fill="#D2CEBC" points="169 847 235 847 235 840 169 840"/>
                <polygon id="Fill-156" fill="#FCF7E1" points="169 905 268 905 268 847 169 847"/>
                <polygon id="Fill-157" fill="#FFFEF8" points="169 854 268 854 268 847 169 847"/>
                <polygon id="Fill-158" fill="#D2CEBC" points="169 905 268 905 268 898 169 898"/>
                <polygon id="Fill-159" fill="#FCF7E1" points="169 964 235 964 235 906 169 906"/>
                <polygon id="Fill-160" fill="#FFFEF8" points="169 913 235 913 235 906 169 906"/>
                <polygon id="Fill-161" fill="#D2CEBC" points="169 964 235 964 235 957 169 957"/>
                <polygon id="Fill-162" fill="#FCF7E1" points="169 1022 268 1022 268 964 169 964"/>
                <polygon id="Fill-163" fill="#FFFEF8" points="169 971 268 971 268 964 169 964"/>
                <polygon id="Fill-164" fill="#D2CEBC" points="169 1022 268 1022 268 1015 169 1015"/>
                <polygon id="Fill-165" fill="#FCF7E1" points="169 1080 235 1080 235 1022 169 1022"/>
                <polygon id="Fill-166" fill="#FFFEF8" points="169 1029 235 1029 235 1022 169 1022"/>
                <polygon id="Fill-167" fill="#D2CEBC" points="169 1081 235 1081 235 1074 169 1074"/>
                <polygon id="Fill-168" fill="#433D41" points="322 374.377 322 195 1514 195.623 1514 375"/>
                <polygon id="Fill-169" fill="#2E2C2D" points="322 208 1514 208 1514 196 322 196"/>
                <polygon id="Fill-170" fill="#884E29" points="643 1028 874 1028 874 748 643 748"/>
                <polygon id="Fill-171" fill="#93D3E9" points="655 804 860 804 860 544 655 544"/>
                <polygon id="Fill-172" fill="#884E29" points="749 804 767 804 767 559 749 559"/>
                <polygon id="Fill-173" fill="#884E29" points="646 690 870 690 870 672 646 672"/>
                <path d="M659,803.658388 L659,559.999839 L858,559.999839 L858,1025.00016 L659,1025.00016 L659,803.658388 M643,747.998948 L643,1041 L874,1041 L874,544 L643,544 L643,747.998948" id="Fill-174" fill="#532D1C"/>
                <polygon id="Fill-175" fill="#A5D9EB" points="944 1081 1444 1081 1444 544 944 544"/>
                <path d="M1212.95471,809.152205 L1213,809.156449 L957,1065 L957,981.531437 L1038,900.579672 L1038,900.531437 L1115,823.57729 L1115,823.531437 L1294.63841,644 L1371,651.156449 L1293.95695,728.152415 L1294,728.156449 L1212.95471,809.152205 Z M1043.5132,793.025863 L1124.23841,712 L1124.49963,712.024586 L1201.23841,635 L1249,639.495379 L1115,774 L1115,773.710031 L1038,851 L1038,850.694968 L957,932 L957,879.559592 L1043.23841,793 L1043.5132,793.025863 Z" id="Combined-Shape" fill="#BAE2EE"/>
                <polygon id="Fill-178" fill="#32454F" points="944 1081 1444 1081 1444 959 944 959"/>
                <polyline id="Fill-179" fill="#2C3E46" points="944 697 890 711.478518 890 1040.96539 944 1081 944 697"/>
                <polyline id="Fill-180" fill="#7CBFD5" points="944 511 890 525.453092 890 905.522653 944 960 944 511"/>
                <polyline id="Fill-181" fill="#3B515D" points="890 919.351186 944 961 944 945.014273 890 905 890 919.351186"/>
                <polygon id="Fill-182" fill="#3B515D" points="1431 960 1443 960 1443 416 1431 416"/>
                <polygon id="Fill-183" fill="#3B515D" points="944 961 956 961 956 527 944 527"/>
                <polygon id="Fill-184" fill="#3B515D" points="944 961 1431 961 1431 946 944 946"/>
                <polygon id="Fill-185" fill="#3B515D" points="874 1041 890 1041 890 527 874 527"/>
                <polygon id="Fill-186" fill="#A5D9EB" points="392 1081 573 1081 573 544 392 544"/>
                <polygon id="Fill-186-Copy" fill="#A5D9EB" points="392 1081 573 1081 573 544 392 544"/>
                <path d="M573,575.736028 L573,619.386543 L404,788 L404,735.762948 L565.132265,575 L573,575.736028 Z M573,669.245178 L573,752.789237 L404,922 L404,838.455941 L573,669.245178 Z" id="Combined-Shape" fill="#BAE2EE"/>
                <polygon id="Fill-189" fill="#32454F" points="392 1081 573 1081 573 959 392 959"/>
                <polyline id="Fill-190" fill="#2C3E46" points="573 697 627 711.478518 627 1040.96539 573 1081 573 697"/>
                <polyline id="Fill-191" fill="#7CBFD5" points="573 511 627 525.453092 627 905.522653 573 960 573 511"/>
                <polyline id="Fill-192" fill="#3B515D" points="627 919.351186 573 961 573 945.014273 627 905 627 919.351186"/>
                <polygon id="Fill-193" fill="#3B515D" points="392 960 404 960 404 416 392 416"/>
                <polygon id="Fill-194" fill="#3B515D" points="561 961 573 961 573 527 561 527"/>
                <polygon id="Fill-195" fill="#3B515D" points="393 961 574 961 574 946 393 946"/>
                <g id="Group-2" transform="translate(1057.000000, 980.000000)">
                    <path d="M168,3 C172.319093,10.6884305 174.84272,19.9877416 174.84272,30.0019999 C174.84272,40.0112584 172.319093,49.3105696 168,57 L258.770781,57 C258.770781,51.4804089 262.451486,47.0007407 267,47.0007407 L267,12.9992593 C262.451486,12.9992593 258.770781,8.51859122 258.770781,3 L168,3" id="Fill-214" fill="#333A3F"/>
                    <path d="M172.954647,54.0004 L256.099367,54.0004 C257.046005,49.3907073 260.105141,45.7209519 264.021233,44.4710353 L264.021233,15.5289647 C260.105141,14.2710486 257.046005,10.605293 256.099367,5.99960003 L172.954647,5.99960003 C176.22304,13.3431105 177.936953,21.5425638 177.936953,30.0019999 C177.936953,38.4514366 176.22304,46.6508899 172.954647,54.0004 Z M261.779195,60 L163,60 L165.511082,55.5202986 C169.726113,48.0107993 171.958186,39.1813879 171.958186,30.0019999 C171.958186,20.8126125 169.726113,11.9862009 165.511082,4.47070195 L163,0 L261.779195,0 L261.779195,2.99980001 C261.779195,6.79254716 264.170702,9.99933338 267.010617,9.99933338 L270,9.99933338 L270,50.0006666 L267.010617,50.0006666 C264.170702,50.0006666 261.779195,53.2004533 261.779195,57.0002 L261.779195,60 Z" id="Fill-215" fill="#5F6C78"/>
                    <path d="M264,44 C260.086771,45.300954 257.029872,49.1205551 256.083926,53.9184735 L173,53.9184735 L173,56 L256.083926,56 C257.029872,51.2020815 260.086771,47.3824805 264,46.0815265 L264,44" id="Fill-216" fill="#B6D1E3"/>
                    <polyline id="Fill-217" fill="#B6D1E3" points="262 2 262 0 163 0 164.118531 2 262 2"/>
                    <path d="M165.522803,57.52 C169.757508,50.01 172,41.18 172,32 C172,31.66 171.969967,31.33 171.969967,31 C171.809789,39.82 169.59733,48.28 165.522803,55.52 L163,60 L164.121246,60 L165.522803,57.52" id="Fill-218" fill="#B6D1E3"/>
                    <path d="M267.090909,10 C264.327273,10 262,6.793 262,3 L262,5 C262,8.793 264.327273,12 267.090909,12 L270,12 L270,10 L267.090909,10" id="Fill-219" fill="#B6D1E3"/>
                    <path d="M3,12.9992593 L3,47.0007407 C7.54851385,47.0007407 11.2292191,51.4804089 11.2292191,57 L102,57 C97.6809068,49.3105696 95.1572796,40.0112584 95.1572796,30.0019999 C95.1572796,19.9877416 97.6809068,10.6884305 102,3 L11.2292191,3 C11.2292191,8.51859122 7.54851385,12.9992593 3,12.9992593" id="Fill-220" fill="#333A3F"/>
                    <path d="M13.9006333,54.0004 L97.0353883,54.0004 C93.7769603,46.6508899 92.0630471,38.4514366 92.0630471,30.0019999 C92.0630471,21.5425638 93.7769603,13.3431105 97.0353883,5.99960003 L13.9006333,5.99960003 C12.9539952,10.605293 9.89485938,14.2710486 5.978767,15.5289647 L5.978767,44.4710353 C9.89485938,45.7209519 12.9539952,49.3907073 13.9006333,54.0004 Z M107,60 L8.22080462,60 L8.22080462,57.0002 C8.22080462,53.2004533 5.82929782,50.0006666 2.9893835,50.0006666 L0,50.0006666 L0,9.99933338 L2.9893835,9.99933338 C5.82929782,9.99933338 8.22080462,6.79254716 8.22080462,2.99980001 L8.22080462,0 L107,0 L104.488918,4.47070195 C100.273887,11.985201 98.0418141,20.8126125 98.0418141,30.0019999 C98.0418141,39.1813879 100.273887,48.0107993 104.488918,55.5202986 L107,60 Z" id="Fill-221" fill="#5F6C78"/>
                    <polyline id="Fill-222" fill="#B6D1E3" points="107 0 8 0 8 2 105.871482 2 107 0"/>
                    <path d="M13.9169402,56 L97,56 L97,53.9184735 L13.9169402,53.9184735 C12.9708908,49.1205551 9.91365726,45.300954 6,44 L6,46.0815265 C9.91365726,47.3824805 12.9708908,51.2020815 13.9169402,56" id="Fill-223" fill="#B6D1E3"/>
                    <path d="M8,5 L8,3 C8,6.793 5.67272727,10 2.90909091,10 L0,10 L0,12 L2.90909091,12 C5.67272727,12 8,8.793 8,5" id="Fill-224" fill="#B6D1E3"/>
                    <path d="M108,30.0019999 C108,44.9108955 120.09,57 135,57 C149.91,57 162,44.9108955 162,30.0019999 C162,15.0861047 149.91,3 135,3 C120.09,3 108,15.0861047 108,30.0019999" id="Fill-225" fill="#333A3F"/>
                    <path d="M135,5.99960003 C121.77,5.99960003 111,16.7648823 111,30.0019999 C111,43.2311179 121.77,54.0004 135,54.0004 C148.23,54.0004 159,43.2311179 159,30.0019999 C159,16.7648823 148.23,5.99960003 135,5.99960003 Z M135,60 C118.46,60 105,46.5408973 105,30.0019999 C105,13.4571029 118.46,0 135,0 C151.54,0 165,13.4571029 165,30.0019999 C165,46.5408973 151.54,60 135,60 Z" id="Fill-226" fill="#5F6C78"/>
                    <path d="M135,1.99974197 C151.21,1.99974197 164.44,14.9170752 164.97,31 C164.99,30.6600439 165,30.3300864 165,30.000129 C165,13.4562637 151.54,0 135,0 C118.46,0 105,13.4562637 105,30.000129 C105,30.3300864 105.01,30.6600439 105.02,31 C105.55,14.9170752 118.79,1.99974197 135,1.99974197" id="Fill-227" fill="#B6D1E3"/>
                    <path d="M135,56 C148.23,56 159,45.23 159,32 C159,31.66 158.99,31.33 158.97,31 C158.45,43.77 147.9,54 135,54 C122.1,54 111.55,43.77 111.02,31 C111.01,31.33 111,31.66 111,32 C111,45.23 121.77,56 135,56" id="Fill-228" fill="#B6D1E3"/>
                    <path d="M121,30.0019997 C121,37.7308956 127.27,44 135,44 C142.73,44 149,37.7308956 149,30.0019997 C149,22.2631053 142.73,16 135,16 C127.27,16 121,22.2631053 121,30.0019997" id="Fill-229" fill="#4D5862"/>
                    <path d="M135,18.9992942 C128.93,18.9992942 124,23.9327138 124,30.0019998 C124,36.0612869 128.93,41.0007058 135,41.0007058 C141.06,41.0007058 146,36.0612869 146,30.0019998 C146,23.9327138 141.06,18.9992942 135,18.9992942 Z M135,47 C125.63,47 118,39.3708975 118,30.0019998 C118,20.6231032 125.63,13 135,13 C144.37,13 152,20.6231032 152,30.0019998 C152,39.3708975 144.37,47 135,47 Z" id="Fill-230" fill="#454F57"/>
                    <path d="M135,14.9995557 C144.04,14.9995557 151.43,22.0919796 151.95,31 C151.97,30.6600755 152,30.3301489 152,30.0002222 C152,20.6223062 144.37,13 135,13 C125.63,13 118,20.6223062 118,30.0002222 C118,30.3301489 118.03,30.6600755 118.05,31 C118.57,22.0919796 125.96,14.9995557 135,14.9995557" id="Fill-231" fill="#606C78"/>
                </g>
                <polygon id="Fill-232" fill="#3B515D" points="627 1041 643 1041 643 559 627 559"/>
                <polygon id="Fill-233" fill="#3B515D" points="627 1041 643 1041 643 524 627 524"/>
                <polygon id="Fill-234" fill="#333A3F" points="414 1081 573 1081 573 1064 414 1064"/>
                <path d="M394,391 L394,374 L399,374.001971 L399,379.092216 C397.333001,383.062134 395.666999,387.030082 394,391" id="Fill-235" fill="#9BA9AD"/>
                <path d="M393.982,373.998005 L393.982,229.944873 L393,229.944873 C393.31,219.999856 401.73,211.112182 410,210.992483 L410,208 L416,208 L416,210.992483 C407.73,211.112182 399.31,219.999856 399,229.944873 L399,374 L393.982,373.998005 Z" id="Fill-236" fill="#322F31"/>
                <polygon id="Fill-237" fill="#212121" points="410 208 416 208 416 196 410 196"/>
                <polygon id="Fill-238" fill="#26343A" points="394 1081 399 1081 399 978 394 978"/>
                <polyline id="Fill-239" fill="#2A3C44" points="399 946 394 946 394 559 399 559.470342 399 946"/>
                <polyline id="Fill-240" fill="#2A3C44" points="399 957 394 950.403527 394 946 399 946 399 957"/>
                <polygon id="Fill-241" fill="#32454F" points="304 1081 394 1081 394 230 304 230"/>
                <path d="M393,230 L304,230 C303.7,220.04 296,211 288,211 L410,211 C401.73,211.12 393.31,220.03 393,230 Z" id="Fill-242" fill="#283840"/>
                <polygon id="Fill-243" fill="#2F4049" points="279 1081 414 1081 414 978 279 978"/>
                <polygon id="Fill-244" fill="#4A6574" points="278 1081 307 1081 307 978 278 978"/>
                <polygon id="Fill-245" fill="#384D58" points="301 1081 396 1081 396 978 301 978"/>
                <polyline id="Fill-246" fill="#28373D" points="416 978 281 978 305.999481 949 393.09632 949 416 978"/>
                <polyline id="Fill-247" fill="#516D7E" points="348 949 304.046139 949 278 978 348 978 348 949"/>
                <polyline id="Fill-248" fill="#435B67" points="396 978 300 978 303.833909 949 392.994584 949 396 978"/>
                <path d="M361.898083,302 C361.898083,307.519987 366.420711,311.994544 372,311.994544 L372,900.007547 C365.30546,900.007547 359.877699,905.376616 359.877699,912 L339.122301,912 C339.122301,905.376616 333.69454,900.007547 327,900.007547 L327,311.994544 C332.579289,311.994544 337.101917,307.519987 337.101917,302 L361.898083,302" id="Fill-249" fill="#333A3F"/>
                <path d="M341.856962,909.003242 L357.143038,909.003242 C358.34978,903.138412 363.025403,898.506916 368.946108,897.311562 L368.946108,314.642544 C364.139319,313.514154 360.348574,309.758184 359.209433,304.996758 L339.790567,304.996758 C338.652435,309.758184 334.860681,313.514154 330.053892,314.642544 L330.053892,897.311562 C335.974597,898.507915 340.651229,903.138412 341.856962,909.003242 M362.892217,915 L336.107783,915 L336.107783,912.001621 C336.107783,907.042302 332.034523,903.007483 327.026946,903.007483 L324,903.007483 L324,308.994597 L327.026946,308.994597 C330.920607,308.994597 334.089819,305.856294 334.089819,301.998379 L334.089819,299 L364.910181,299 L364.910181,301.998379 C364.910181,305.856294 368.079393,308.994597 371.973054,308.994597 L375,308.994597 L375,903.007483 L371.973054,903.007483 C366.965477,903.007483 362.892217,907.042302 362.892217,912.001621 L362.892217,915" id="Fill-250" fill="#5F6C78"/>
                <polygon id="Fill-251" fill="#B6D1E3" points="334 301 365 301 365 299 334 299"/>
                <path d="M369,898 C363.062886,899.222279 358.374306,903.958099 357.164219,909.956055 L341.835781,909.956055 C340.626706,903.958099 335.937114,899.223301 330,898 L330,900.043945 C335.937114,901.267246 340.626706,906.002044 341.835781,912 L357.164219,912 C358.374306,906.002044 363.062886,901.266224 369,900.043945 L369,898" id="Fill-252" fill="#B6D1E3"/>
                <path d="M334,304 L334,302 C334,305.859 330.86,309 327,309 L324,309 L324,311 L327,311 C330.86,311 334,307.859 334,304" id="Fill-253" fill="#B6D1E3"/>
                <path d="M371,309 C367.141,309 364,305.859 364,302 L364,304 C364,307.859 367.141,311 371,311 L374,311 L374,309 L371,309" id="Fill-254" fill="#B6D1E3"/>
                <polygon id="Fill-255" fill="#333A3F" points="327 285 370 285 370 248 327 248"/>
                <path d="M330,282 L367,282 L367,251 L330,251 L330,282 Z M324,288 L373,288 L373,245 L324,245 L324,288 Z" id="Fill-256" fill="#5F6C78"/>
                <polygon id="Fill-257" fill="#B6D1E3" points="324 247 373 247 373 245 324 245"/>
                <polygon id="Fill-258" fill="#B6D1E3" points="330 284 367 284 367 282 330 282"/>
                <polygon id="Fill-259" fill="#435B67" points="288 211 410 211 410 196 288 196"/>
                <g id="Group-262" transform="translate(303.000000, 242.000000)">
                    <mask id="mask-2" fill="white">
                        <use xlink:href="#path-1"/>
                    </mask>
                    <g id="Clip-261"/>
                    <polygon id="Fill-260" fill="#E9E7D2" mask="url(#mask-2)" points="0 706.875 0.982 706.875 0.982 0.836 0 0.836"/>
                </g>
                <path d="M304,230 C304,230.005 304,230.009 304,230.014 C304,230.009 304,230.005 304,230 Z" id="Fill-263" fill="#D5E8F0"/>
                <path d="M303.944,229.004266 C303.971,229.33451 303.989,229.666754 304,230 C303.989,229.666754 303.97,229.33451 303.944,229.004266 Z M288,211 C289.645,211 291.277,211.382282 292.834,212.076793 C291.291,211.404298 289.663,211.024018 288,211 Z" id="Fill-264" fill="#E9E7D2"/>
                <polygon id="Fill-265" fill="#475860" points="304 949 304 242.961 304.01796 230 312 230 312 949"/>
                <path d="M304,230 C303.989,229.653 303.971,229.321 303.944,228.991 C303.344,221.425 298.707,214.633 292.834,212.076 C291.277,211.382 289.645,211 288,211 L295,211 C303.27,211.12 311.69,220.03 312,230 L304,230 Z" id="Fill-266" fill="#3E4C53"/>
                <polygon id="Fill-267" fill="#546B76" points="288 211 295 211 295 196 288 196"/>
                <polygon id="Fill-268" fill="#2A3033" points="396 1081 414 1081 414 1064 396 1064"/>
                <polygon id="Fill-269" fill="#2F4049" points="301 1081 396 1081 396 1064 301 1064"/>
                <polygon id="Fill-270" fill="#B3C2C9" points="1514 196 1514 195.623 322.492 195 322.492 196 304 196 304 145.001 280 145.001 1586 145 1533 145.001 1533 196"/>
                <path d="M1533.02,1081 L1533.02,977.99644 L1556,977.99644 L1533.38,951.730552 L1533.02,949.139564 L1533.02,229.998637 C1533.3,220.038679 1541,210.998718 1549,210.998718 L1549,195.998782 L1533,195.998782 L1533,145 L1586,145 L1569,145.819996 L1569,190.067807 C1568.35,191.924799 1568,193.920791 1568,195.998782 L1563,195.998782 C1561.34,195.998782 1560,197.341776 1560,198.998769 L1560,210.998718 C1552,210.998718 1542.3,220.038679 1542,229.998637 L1542.84,948.995564 L1543,948.995564 L1568,977.99644 L1568,1081 L1533.02,1081 Z" id="Fill-271" fill="#C4C1B1"/>
                <path d="M1569,146 L1586,146 L1569,146 L1569,153.265052 L1586,153.265052 L1586,177.998644 C1578.14,177.998644 1571.45,183.012385 1569,190 L1569,146 Z" id="Fill-272" fill="#D7D3BE"/>
                <polygon id="Fill-273" fill="#DBDACF" points="1569 153 1586 153 1586 146 1569 146"/>
                <path d="M298,196 C298,186.059 289.941,178 280,178 L280,145 L304,145.001 L304,196 L298,196 Z" id="Fill-274" fill="#C4C1B1"/>
                <polygon id="Fill-275" fill="#3A3538" points="322 196 322 195 1514 195.623 1514 196"/>
                <path d="M322,196 L1514,196 L322,196 Z" id="Fill-276" fill="#282627"/>
                <path d="M322,196 L416,196 L322,196 Z" id="Fill-277" fill="#1C1C1C"/>
                <path d="M298,196 L410,196 L298,196 Z" id="Fill-278" fill="#384D58"/>
                <polygon id="Fill-279" fill="#32454F" points="1443 1081 1533 1081 1533 230 1443 230"/>
                <path d="M1444,230 L1533,230 C1533.3,220.04 1541,211 1549,211 L1427,211 C1435.27,211.12 1443.69,220.03 1444,230 Z" id="Fill-280" fill="#283840"/>
                <polygon id="Fill-281" fill="#4A6574" points="1423 1081 1558 1081 1558 978 1423 978"/>
                <polygon id="Fill-282" fill="#2F4049" points="1530 1081 1559 1081 1559 978 1530 978"/>
                <polygon id="Fill-283" fill="#384D58" points="1441 1081 1537 1081 1537 978 1441 978"/>
                <path d="M1500.89672,302 C1500.89672,307.519987 1505.42299,311.994544 1511,311.994544 L1511,900.007547 C1504.31163,900.007547 1498.87607,905.376616 1498.87607,912 L1478.12393,912 C1478.12393,905.376616 1472.68837,900.007547 1466,900.007547 L1466,311.994544 C1471.57701,311.994544 1476.10328,307.519987 1476.10328,302 L1500.89672,302" id="Fill-284" fill="#333A3F"/>
                <path d="M1480.8611,909.003242 L1496.1389,909.003242 C1497.34982,903.138412 1502.02196,898.506916 1507.94539,897.311562 L1507.94539,314.642544 C1503.14207,313.514154 1499.34784,309.758184 1498.20756,304.996758 L1478.79244,304.996758 C1477.65216,309.758184 1473.85793,313.514154 1469.05461,314.642544 L1469.05461,897.311562 C1474.96795,898.507915 1479.65018,903.138412 1480.8611,909.003242 M1501.89078,915 L1475.10922,915 L1475.10922,912.001621 C1475.10922,907.042302 1471.03245,903.007483 1466.02731,903.007483 L1463,903.007483 L1463,308.994597 L1466.02731,308.994597 C1469.92244,308.994597 1473.09102,305.856294 1473.09102,301.998379 L1473.09102,299 L1503.90898,299 L1503.90898,301.998379 C1503.90898,305.856294 1507.07756,308.994597 1510.97269,308.994597 L1514,308.994597 L1514,903.007483 L1510.97269,903.007483 C1505.96755,903.007483 1501.89078,907.042302 1501.89078,912.001621 L1501.89078,915" id="Fill-285" fill="#5F6C78"/>
                <polygon id="Fill-286" fill="#B6D1E3" points="1473 301 1504 301 1504 299 1473 299"/>
                <path d="M1508,898 C1502.05994,899.222279 1497.37468,903.958099 1496.16035,909.956055 L1480.82953,909.956055 C1479.62532,903.958099 1474.92994,899.223301 1469,898 L1469,900.043945 C1474.92994,901.267246 1479.62532,906.002044 1480.82953,912 L1496.16035,912 C1497.37468,906.002044 1502.05994,901.266224 1508,900.043945 L1508,898" id="Fill-287" fill="#B6D1E3"/>
                <path d="M1473,304 L1473,302 C1473,305.859 1469.86,309 1466,309 L1463,309 L1463,311 L1466,311 C1469.86,311 1473,307.859 1473,304" id="Fill-288" fill="#B6D1E3"/>
                <path d="M1510,309 C1506.14,309 1503,305.859 1503,302 L1503,304 C1503,307.859 1506.14,311 1510,311 L1513,311 L1513,309 L1510,309" id="Fill-289" fill="#B6D1E3"/>
                <polygon id="Fill-290" fill="#333A3F" points="1466 285 1509 285 1509 248 1466 248"/>
                <path d="M1469,282 L1506,282 L1506,251 L1469,251 L1469,282 Z M1463,288 L1512,288 L1512,245 L1463,245 L1463,288 Z" id="Fill-291" fill="#5F6C78"/>
                <polygon id="Fill-292" fill="#B6D1E3" points="1463 247 1512 247 1512 245 1463 245"/>
                <polygon id="Fill-293" fill="#B6D1E3" points="1469 284 1506 284 1506 282 1469 282"/>
                <polyline id="Fill-294" fill="#516D7E" points="1421 978 1556 978 1530.99778 949 1443.90036 949 1421 978"/>
                <polyline id="Fill-295" fill="#28373D" points="1489 949 1532.95535 949 1559 978 1489 978 1489 949"/>
                <polyline id="Fill-296" fill="#435B67" points="1441 978 1537 978 1533 949 1444 949 1441 978"/>
                <polygon id="Fill-297" fill="#435B67" points="1427 211 1549 211 1549 196 1427 196"/>
                <g id="Group-300" transform="translate(1443.000000, 657.000000)">
                    <mask id="mask-4" fill="white">
                        <use xlink:href="#path-3"/>
                    </mask>
                    <g id="Clip-299"/>
                    <polygon id="Fill-298" fill="#D5E8F0" mask="url(#mask-4)" points="0 291.875 0.02 291.875 0.02 0.523 0 0.523"/>
                </g>
                <polyline id="Fill-301" fill="#4E636D" points="1442.98039 948 1442 948 1442.40196 657 1443 657.057919 1442.98039 948"/>
                <polyline id="Fill-302" fill="#475860" points="1451 949 1443 949 1443 658 1451 658.747101 1451 949"/>
                <path d="M1442.82,358.989003 L1443,229.994866 C1442.69,220.02756 1435.27,211.119968 1427,211 C1435.27,211.119968 1443.69,220.02756 1444,229.994866 L1443.02,229.994866 L1443.02,359 L1442.82,358.989003 Z" id="Fill-303" fill="#555153"/>
                <polygon id="Fill-304" fill="#475860" points="1443 358.715105 1443 230 1451 230 1451 375"/>
                <path d="M1444,230 C1443.69,220.03 1435.27,211.12 1427,211 L1434,211 C1442.27,211.12 1450.69,220.03 1451,230 L1444,230 Z" id="Fill-305" fill="#3E4C53"/>
                <polygon id="Fill-306" fill="#546B76" points="1427 211 1434 211 1434 196 1427 196"/>
                <polygon id="Fill-307" fill="#2A3033" points="1537 1081 1559 1081 1559 1064 1537 1064"/>
                <polygon id="Fill-308" fill="#2F4049" points="1441 1081 1537 1081 1537 1064 1441 1064"/>
                <path d="M1533,666 L1513.25482,664.146242 L1513.25482,502.516944 L1533,542.953296 L1533,666 M1462.72714,659.401742 L1451,658.300698 L1451,551.9198 C1454.90905,551.9198 1458.81809,551.9198 1462.72714,551.9198 L1462.72714,659.401742 M1462.72714,441.239825 C1458.81809,431.817889 1454.90905,422.39295 1451,412.971014 L1451,375 L1462.72714,399.013776 L1462.72714,441.239825" id="Fill-309" fill="#2A3A41"/>
                <path d="M1508,664 L1469,660.38566 L1469,552.46236 C1482.00337,552.46236 1494.99663,552.46236 1508,552.46236 L1508,664 M1508,549.169961 C1494.99663,518.232608 1481.99325,487.293256 1469,456.354903 L1469,412 L1508,490.842608 L1508,549.169961" id="Fill-310" fill="#2B3135"/>
                <path d="M1514,664 L1507.94539,663.437748 L1507.94539,551.829629 C1508.40958,551.829629 1508.86367,551.829629 1509.32786,551.829629 C1508.86367,550.731136 1508.40958,549.634643 1507.94539,548.53515 L1507.94539,490.170941 L1514,502.451456 L1514,664 M1469.05461,659.821123 L1463,659.257871 L1463,551.829629 C1465.0182,551.829629 1467.03641,551.829629 1469.05461,551.829629 L1469.05461,659.821123 M1469.05461,455.661444 C1467.03641,450.84228 1465.0182,446.024116 1463,441.204952 L1463,399 L1469.05461,411.278514 L1469.05461,455.661444" id="Fill-311" fill="#4F5B65"/>
                <path d="M767,593.422932 L767,560 L858,560 L858,602 L767,593.422932 Z M659,583.242626 L659,560 L749,560 L749,591.726214 L659,583.242626 Z" id="Fill-312" fill="#77B6CA"/>
                <polyline id="Fill-313" fill="#704224" points="767 609 749 607.317802 749 560 767 560 767 609"/>
                <path d="M858,601.501878 L858,559.87213 L659,559.87213 L659,582.864245 L643,581.366123 L643,552 C657.056,552 671.114,552 685.17,552 C709.78,552 734.39,552 759,552 C783.61,552 808.22,552 832.83,552 C846.55,552 860.28,552 874,552 L874,603 L858,601.501878 Z" id="Fill-314" fill="#452719"/>
                <polygon id="Path-2" fill="#89BBCB" points="1431 656 957 612.42345 957 544 1431 544"/>
                <path d="M1248.76923,639 L1201,634.532435 L1283.74741,552 C1284.71598,552 1285.67456,552 1286.64312,552 C1303.09874,552 1319.54438,552 1336,552 L1248.76923,639" id="Fill-316" fill="#9AC0CB"/>
                <path d="M1370.55263,651 L1294,643.828324 L1385.91533,552 C1400.9469,552 1415.96843,552 1431,552 L1431,590.607153 L1370.55263,651" id="Fill-317" fill="#9AC0CB"/>
                <path d="M890,604.911797 L890,552 C895.55,552 901.11,552 906.66,552 C919.11,552 931.55,552 944,552 L944,610 L890,604.911797 Z" id="Fill-318" fill="#6A9FB0"/>
                <path d="M1442.85455,657 L1431,655.935804 L1431,552 C1432.31948,552 1433.63896,552 1434.95844,552 C1437.63896,552 1440.31948,552 1443,552 L1442.85455,657" id="Fill-319" fill="#31444E"/>
                <path d="M944,610.871585 L944,552 C948,552 952,552 956,552 L956,612 L944,610.871585 Z" id="Fill-320" fill="#31444E"/>
                <path d="M874,603.490902 L874,552 C879.33,552 884.67,552 890,552 L890,605 L874,603.490902 Z" id="Fill-321" fill="#31444E"/>
                <path d="M573,574.927122 L573,552 C585.78,552 598.56,552 611.34,552 C616.56,552 621.781,552 627,552 L627,580 L573,574.927122 Z" id="Fill-325" fill="#6A9FB0"/>
                <path d="M404,560 L399,559.536904 L399,552 C399.73,552 400.46,552 401.19,552 C402.127,552 403.063,552 404,552 L404,560" id="Fill-326" fill="#31444E"/>
                <path d="M573,591 L561,589.870918 L561,552 C565,552 569,552 573,552 L573,591" id="Fill-327" fill="#31444E"/>
                <path d="M627,579.513969 L627,552 C632.334,552 637.666,552 643,552 L643,581 L627,579.513969 Z" id="Fill-328" fill="#31444E"/>
                <path d="M399,560 L394,559.507402 L394,552 C395.666999,552 397.333001,552 399,552 L399,560" id="Fill-329" fill="#253339"/>
                <path d="M394,559 L374,557.192098 L374,552 C380.665991,552 387.335023,552 394,552 L394,559" id="Fill-330" fill="#2A3A41"/>
                <path d="M369,557 L330,553.386172 L330,552.250226 C343.000337,552.250226 355.999663,552.250226 369,552.250226 L369,557 M330,546.593496 L330,536.700967 L334.450812,536 C332.966533,539.531832 331.484279,543.060664 330,546.593496" id="Fill-331" fill="#2B3135"/>
                <path d="M374,557 L368.032378,556.433303 L368.032378,551.652111 C370.02258,551.652111 372.009798,551.652111 374,551.652111 L374,557 M329.694382,552.795571 L327,552.539903 L327,536.434837 L329.694382,536 L329.694382,545.957964 C328.915607,547.855342 328.136832,549.754733 327.358057,551.652111 C328.135837,551.652111 328.916601,551.652111 329.694382,551.652111 L329.694382,552.795571" id="Fill-332" fill="#4F5B65"/>
                <path d="M1442.96891,394 C1440.31606,387.667008 1437.65285,381.332992 1435,375 L1443,375.004102 L1442.96891,394" id="Fill-333" fill="#AFBEC3"/>
                <path d="M1442.97987,375 L1435.20865,374.995983 C1433.96042,371.995607 1432.71219,369.000251 1431.46397,366.000879 C1420.64264,366.000879 1409.82132,366.000879 1399,366.000879 L1443,359 L1442.97987,375" id="Fill-334" fill="#393537"/>
                <path d="M1443.02,658 L1443,552 C1443.01,552 1443.01,552 1443.02,552 L1443.02,658" id="Fill-335" fill="#B2BFC4"/>
                <path d="M1442.61,658 L1442,657.941743 L1442.14,552 C1442.29,552 1442.44,552 1442.59,552 L1442.59,657.997991" id="Fill-336" fill="#42535B"/>
                <path d="M1451,658 L1443,657.253971 L1443,552 C1445.66667,552 1448.33333,552 1451,552 L1451,658" id="Fill-337" fill="#3B4A51"/>
                <path d="M1443.25,394 C1443.17,393.804226 1443.08,393.605471 1443,393.409697 L1443.03,375 L1443.25,375 L1443.25,394" id="Fill-338" fill="#B2BFC4"/>
                <polyline id="Fill-339" fill="#474345" points="1443.22 375 1443 375 1443.02 359.029067 1443.2 359 1443.22 359.040093 1443.22 375"/>
                <path d="M1451,413 C1448.33333,406.623818 1445.66667,400.249627 1443,393.873445 L1443,359 L1451,375.247471 L1451,413" id="Fill-340" fill="#3B4A51"/>
                <path d="M1463,552 C1459,552 1455,552 1451,552 L1451,413 C1455,422.425409 1459,431.853822 1463,441.279231 L1463,552" id="Fill-341" fill="#2A3A41"/>
                <path d="M1508,552 C1494.99663,552 1482.00337,552 1469,552 L1469,456 C1481.99325,486.903761 1494.99663,517.80852 1508,548.711282 L1508,552" id="Fill-342" fill="#2B3135"/>
                <path d="M1509,552 C1508.5391,552 1508.08822,552 1507.62731,552 L1507.62731,548.694343 C1508.08822,549.797567 1508.5391,550.89778 1509,552 M1469.01176,552 C1467.00784,552 1465.00392,552 1463,552 L1463,441 C1465.00392,445.835514 1467.00784,450.670025 1469.01176,455.505539 L1469.01176,552" id="Fill-343" fill="#4F5B65"/>
                <path d="M1033.13971,552 L1033.13971,543.868295 L802.088803,543.868295 L802.088803,523.83453 L786.085277,523.83453 L786.085277,552 L786.085277,525.831896 L736.814423,512.613618 L736.814423,505.253213 L698.255928,543.868295 L648.755023,543.868295 L718.770448,473.750118 L666.428916,473.750118 L596.414492,543.868295 L404.001102,543.868295 L404.001102,415.6522 L399,415.6522 L399,379.17372 C399.716158,377.447811 400.429315,375.725909 401.144472,374 L1435.30831,374.541913 C1437.86887,380.72834 1440.43944,386.915768 1443,393.102195 L1442.96999,415.6522 L1431.22741,415.6522 L1431.22741,506.996151 L1394.4093,543.868295 L1344.90839,543.868295 L1424.92602,463.733236 L1372.58449,463.733236 L1292.56686,543.868295 L1115.15777,543.868295 L1115.15777,526.839595 L1103.15513,526.839595 L1103.15513,543.868295 L1103.15513,511.341474 L1049.14323,525.831896 L1049.14323,526.839595 L1033.13971,526.839595 L1033.13971,552" id="Fill-344" fill="#AFBEC3"/>
                <path d="M1435,375 L401,374.456463 C402.165072,371.638312 403.331144,368.818151 404.496216,366 C425.88754,366 447.278864,366 468.670188,366 C490.061513,366 511.452837,366 532.844161,366 C554.235485,366 575.626809,366 597.018133,366 C618.409457,366 639.800781,366 661.192105,366 C682.583429,366 703.974753,366 725.366077,366 C746.757401,366 768.148725,366 789.540049,366 C810.931373,366 832.322697,366 853.714021,366 C875.105345,366 896.496669,366 917.887993,366 C939.279317,366 960.671641,366 982.061965,366 C1003.45329,366 1024.84461,366 1046.23594,366 C1067.62726,366 1089.01859,366 1110.40991,366 C1131.80123,366 1153.19256,366 1174.58388,366 C1195.97521,366 1217.36653,366 1238.75785,366 C1260.14918,366 1281.5405,366 1302.93183,366 C1324.32315,366 1345.71447,366 1367.1058,366 C1377.74646,366 1388.38711,366 1399.02777,366 C1409.77844,366 1420.5291,366 1431.27977,366 C1432.51985,369.001005 1433.75992,371.997991 1435,375" id="Fill-345" fill="#393537"/>
                <path d="M1033,552 C1019.28,552 1005.55,552 991.83,552 C967.22,552 942.61,552 918,552 C893.39,552 868.78,552 844.17,552 C830.114,552 816.056,552 802,552 L802,544 L1033,544 L1033,552" id="Fill-346" fill="#452719"/>
                <path d="M1385.88553,552 C1377.53122,552 1369.16691,552 1360.8126,552 C1352.68813,552 1344.55367,552 1336.42921,552 L1344.54368,544 L1394,544 L1385.88553,552 M1284.13482,552 C1260.51091,552 1236.877,552 1213.25309,552 C1188.65984,552 1164.06659,552 1139.47333,552 C1131.31889,552 1123.15445,552 1115,552 L1115,544 L1292.24929,544 L1284.13482,552" id="Fill-347" fill="#89BBCB"/>
                <polyline id="Fill-348" fill="#B6C3C6" points="1344.1995 544 1292 544 1371.8005 464 1424 464 1344.1995 544"/>
                <path d="M1335.94045,552 C1319.58313,552 1303.23573,552 1286.87841,552 C1285.91563,552 1284.96278,552 1284,552 L1292.05955,544 L1344,544 L1335.94045,552" id="Fill-349" fill="#9AC0CB"/>
                <polyline id="Fill-350" fill="#B6C3C6" points="1431 544 1394 544 1431 507 1431 544"/>
                <path d="M1431,552 C1415.99666,552 1401.00334,552 1386,552 L1394.13265,544 L1431,544 L1431,552" id="Fill-351" fill="#9AC0CB"/>
                <path d="M1103,552 C1090.55,552 1078.11,552 1065.66,552 C1060.11,552 1054.55,552 1049,552 L1049,525.612121 L1103,511 L1103,552" id="Fill-352" fill="#6A9FB0"/>
                <path d="M1442.80579,552 C1440.16865,552 1437.53152,552 1434.89438,552 C1433.59625,552 1432.29813,552 1431,552 L1431,416 L1443,416 L1442.80579,552" id="Fill-353" fill="#31444E"/>
                <path d="M1115,552 C1111,552 1107,552 1103,552 L1103,527 L1115,527 L1115,552" id="Fill-354" fill="#31444E"/>
                <path d="M1049,552 C1043.67,552 1038.33,552 1033,552 L1033,527 L1049,527 L1049,552" id="Fill-355" fill="#31444E"/>
                <polyline id="Fill-357" fill="#B6C3C6" points="648.188263 544 596 544 665.81074 474 718 474 648.188263 544"/>
                <polyline id="Fill-359" fill="#B6C3C6" points="720.064591 544 698 544 737 505 737 512.433774 732.204669 511.148949 732.204669 526.801556 720.064591 526.801556 720.064591 544"/>
                <path d="M786,552 C780.781,552 775.56,552 770.34,552 C757.56,552 744.78,552 732,552 L732,511 L736.74,512.282828 L786,525.612121 L786,552" id="Fill-361" fill="#6A9FB0"/>
                <path d="M404,552 C403.063,552 402.127,552 401.19,552 C400.46,552 399.73,552 399,552 L399,416 L404,416 L404,552" id="Fill-362" fill="#31444E"/>
                <path d="M732,552 C728,552 724,552 720,552 L720,527 L732,527 L732,552" id="Fill-363" fill="#31444E"/>
                <path d="M802,552 C796.666,552 791.334,552 786,552 L786,524 L802,524 L802,552" id="Fill-364" fill="#31444E"/>
                <path d="M399,415 L394,415 L394,390.946618 C395.666999,386.963753 397.333001,382.982865 399,379 L399,415" id="Fill-365" fill="#818E92"/>
                <path d="M399,552 C397.333001,552 395.666999,552 394,552 L394,416 L399,416 L399,552" id="Fill-366" fill="#253339"/>
                <path d="M394,552 C387.335023,552 380.665991,552 374,552 L374,439.376753 C380.665991,423.586164 387.334009,407.791586 394,392 L394,552" id="Fill-367" fill="#2A3A41"/>
                <path d="M369,552 C355.999663,552 343.000337,552 330,552 L330,546.371087 C331.484279,542.855629 332.966533,539.34415 334.450812,535.829687 C345.966871,508.554783 357.483941,481.274904 369,454 L369,552" id="Fill-368" fill="#2B3135"/>
                <path d="M374,552 C371.99452,552 369.992046,552 367.986566,552 L367.986566,453.458677 C369.991044,448.639118 371.995522,443.819559 374,439 L374,552 M329.35426,552 C328.570509,552 327.783751,552 327,552 C327.784753,550.113999 328.569506,548.225996 329.35426,546.339995 L329.35426,552" id="Fill-369" fill="#4F5B65"/>
                <path d="M1443.28,552 C1443.27,552 1443.27,552 1443.26,552 L1443.26,415.564509 L1443,415.564509 L1443.03,393 C1443.11,393.197459 1443.2,393.397926 1443.28,393.595385 L1443.28,552" id="Fill-370" fill="#B2BFC4"/>
                <path d="M1443.45,552 C1443.3,552 1443.15,552 1443,552 L1443.19,416 L1443.45,416 L1443.45,552" id="Fill-371" fill="#42535B"/>
                <path d="M1451,552 C1448.33333,552 1445.66667,552 1443,552 L1443,394 C1445.66667,400.405541 1448.33333,406.809081 1451,413.214622 L1451,552" id="Fill-372" fill="#3B4A51"/>
                <polygon id="Fill-373" fill="#F4F4F1" points="327 544 401 544 401 503 327 503"/>
                <polygon id="Fill-374" fill="#D8382A" points="401 544 475 544 475 503 401 503"/>
                <polygon id="Fill-375" fill="#F4F4F1" points="475 544 549 544 549 503 475 503"/>
                <polygon id="Fill-376" fill="#D8382A" points="549 544 623 544 623 503 549 503"/>
                <polygon id="Fill-377" fill="#F4F4F1" points="623 544 697 544 697 503 623 503"/>
                <polygon id="Fill-378" fill="#D8382A" points="696 544 770 544 770 503 696 503"/>
                <polygon id="Fill-379" fill="#F4F4F1" points="770 544 844 544 844 503 770 503"/>
                <polygon id="Fill-380" fill="#D8382A" points="844 544 918 544 918 503 844 503"/>
                <polygon id="Fill-381" fill="#F4F4F1" points="918 544 992 544 992 503 918 503"/>
                <polygon id="Fill-382" fill="#D8382A" points="992 544 1066 544 1066 503 992 503"/>
                <polygon id="Fill-383" fill="#F4F4F1" points="1066 544 1140 544 1140 503 1066 503"/>
                <polygon id="Fill-384" fill="#D8382A" points="1140 544 1214 544 1214 503 1140 503"/>
                <polygon id="Fill-385" fill="#F4F4F1" points="1214 544 1288 544 1288 503 1214 503"/>
                <polygon id="Fill-386" fill="#D8382A" points="1287 544 1361 544 1361 503 1287 503"/>
                <polygon id="Fill-387" fill="#F4F4F1" points="1361 544 1435 544 1435 503 1361 503"/>
                <polygon id="Fill-388" fill="#D8382A" points="1435 544 1509 544 1509 503 1435 503"/>
                <path d="M327,503 C351.531707,503 376.063415,503 400.595122,503 C423.063415,457.333666 445.531707,411.666334 468,366 C446.678049,366 425.356098,366 404.034146,366 C378.356098,411.666334 352.678049,457.333666 327,503" id="Fill-389" fill="#FFFFFE"/>
                <path d="M401,503 C425.649215,503 450.298429,503 474.947644,503 C494.298429,457.333666 513.649215,411.666334 533,366 C511.575916,366 490.151832,366 468.727749,366 C446.151832,411.666334 423.575916,457.333666 401,503" id="Fill-390" fill="#D5483C"/>
                <path d="M475,503 C499.583804,503 524.167608,503 548.751412,503 C564.834275,457.333666 580.917137,411.666334 597,366 C575.632768,366 554.265537,366 532.898305,366 C513.59887,411.666334 494.299435,457.333666 475,503" id="Fill-391" fill="#FFFFFE"/>
                <path d="M549,503 C573.507157,503 598.014315,503 622.521472,503 C635.347648,457.333666 648.173824,411.666334 661,366 C639.699387,366 618.398773,366 597.09816,366 C581.06544,411.666334 565.03272,457.333666 549,503" id="Fill-392" fill="#D5483C"/>
                <path d="M623,503 C647.655481,503 672.310962,503 696.966443,503 C706.644295,457.333666 716.322148,411.666334 726,366 C704.57047,366 683.14094,366 661.711409,366 C648.807606,411.666334 635.903803,457.333666 623,503" id="Fill-393" fill="#FFFFFE"/>
                <path d="M697,503 C721.57037,503 746.140741,503 770.711111,503 C777.140741,457.333666 783.57037,411.666334 790,366 C768.644444,366 747.288889,366 725.933333,366 C716.288889,411.666334 706.644444,457.333666 697,503" id="Fill-394" fill="#D5483C"/>
                <path d="M770,503 C794.465565,503 818.931129,503 843.396694,503 C846.597796,457.333666 849.798898,411.666334 853,366 C831.735537,366 810.471074,366 789.206612,366 C782.804408,411.666334 776.402204,457.333666 770,503" id="Fill-395" fill="#FFFFFE"/>
                <path d="M844,503 C868.666667,503 893.333333,503 918,503 C918,457.333666 918,411.666334 918,366 C896.560748,366 875.121495,366 853.682243,366 C850.454829,411.666334 847.227414,457.333666 844,503" id="Fill-396" fill="#D5483C"/>
                <path d="M918,503 C942.666667,503 967.333333,503 992,503 C988.772586,457.333666 985.545171,411.666334 982.317757,366 C960.878505,366 939.439252,366 918,366 C918,411.666334 918,457.333666 918,503" id="Fill-397" fill="#FFFFFE"/>
                <path d="M991.603306,503 C1016.06887,503 1040.53444,503 1065,503 C1058.5978,457.333666 1052.19559,411.666334 1045.79339,366 C1024.52893,366 1003.26446,366 982,366 C985.201102,411.666334 988.402204,457.333666 991.603306,503" id="Fill-398" fill="#D5483C"/>
                <path d="M1065.28889,503 C1089.85926,503 1114.42963,503 1139,503 C1129.35556,457.333666 1119.71111,411.666334 1110.06667,366 C1088.71111,366 1067.35556,366 1046,366 C1052.42963,411.666334 1058.85926,457.333666 1065.28889,503" id="Fill-399" fill="#FFFFFE"/>
                <path d="M1140.03356,503 C1164.68904,503 1189.34452,503 1214,503 C1201.0962,457.333666 1188.19239,411.666334 1175.28859,366 C1153.85906,366 1132.42953,366 1111,366 C1120.67785,411.666334 1130.3557,457.333666 1140.03356,503" id="Fill-400" fill="#D5483C"/>
                <path d="M1213.47853,503 C1237.98569,503 1262.49284,503 1287,503 C1270.96728,457.333666 1254.93456,411.666334 1238.90184,366 C1217.60123,366 1196.30061,366 1175,366 C1187.82618,411.666334 1200.65235,457.333666 1213.47853,503" id="Fill-401" fill="#FFFFFE"/>
                <path d="M1287.24859,503 C1311.83239,503 1336.4162,503 1361,503 C1341.70056,457.333666 1322.40113,411.666334 1303.10169,366 C1281.73446,366 1260.36723,366 1239,366 C1255.08286,411.666334 1271.16573,457.333666 1287.24859,503" id="Fill-402" fill="#D5483C"/>
                <path d="M1361.05236,503 C1385.70157,503 1410.35079,503 1435,503 C1412.42408,457.333666 1389.84817,411.666334 1367.27225,366 C1345.84817,366 1324.42408,366 1303,366 C1322.35079,411.666334 1341.70157,457.333666 1361.05236,503" id="Fill-403" fill="#FFFFFE"/>
                <path d="M1434.40488,503 C1458.93659,503 1483.46829,503 1508,503 C1482.32195,457.333666 1456.6439,411.666334 1430.96585,366 C1409.6439,366 1388.32195,366 1367,366 C1389.46829,411.666334 1411.93659,457.333666 1434.40488,503" id="Fill-404" fill="#D5483C"/>
                <polygon id="Fill-405" fill="#C1D3DA" points="1064 366 1431 366 1431 353 1064 353"/>
                <polygon id="Fill-406" fill="#EBF1F3" points="1064 363 1431 363 1431 356 1064 356"/>
                <polygon id="Fill-407" fill="#BABFBE" points="1431 374 1443 374 1443 346 1431 346"/>
                <polygon id="Fill-408" fill="#CED3D1" points="1431 369 1443 369 1443 351 1431 351"/>
                <polygon id="Fill-409" fill="#E7EEEE" points="1431 365 1443 365 1443 355 1431 355"/>
                <polygon id="Fill-410" fill="#C1D3DA" points="403 366 1088 366 1088 353 403 353"/>
                <polygon id="Fill-411" fill="#EBF1F3" points="403 363 1088 363 1088 356 403 356"/>
                <polygon id="Fill-412" fill="#BABFBE" points="394 374 406 374 406 346 394 346"/>
                <polygon id="Fill-413" fill="#CED3D1" points="394 369 406 369 406 351 394 351"/>
                <polygon id="Fill-414" fill="#E7EEEE" points="394 365 406 365 406 355 394 355"/>
                <path d="M780.678322,842 C780.678322,843.656 779.576003,845 778.214784,845 L738.786212,845 C737.424992,845 736.321678,843.656 736.321678,842 L736.321678,834 C736.321678,832.342 737.424992,831 738.786212,831 L778.214784,831 C779.576003,831 780.678322,832.342 780.678322,834 L780.678322,842 Z M789.71495,824 L727.286046,824 C725.470755,824 724,825.791 724,828 L724,848 C724,850.209 725.470755,852 727.286046,852 L789.71495,852 C791.529245,852 793,850.209 793,848 L793,828 C793,825.791 791.529245,824 789.71495,824 Z" id="Fill-415" fill="#E79530"/>
                <polygon id="Fill-416" fill="#CB7C42" points="794 881 835 881 835 877 794 877"/>
                <path d="M793.413086,983 L834.592904,983 L834.592904,877 L793.413086,877 L793.413086,983 Z M786,992 L842,992 L842,868 L786,868 L786,992 Z" id="Fill-417" fill="#532D1C"/>
                <path d="M684.411427,983 L725.588573,983 L725.588573,877 L684.411427,877 L684.411427,983 Z M677,992 L733,992 L733,868 L677,868 L677,992 Z" id="Fill-418" fill="#532D1C"/>
                <polygon id="Fill-419" fill="#CB7C42" points="786 992 842 992 842 988 786 988"/>
                <polygon id="Fill-420" fill="#CB7C42" points="685 881 726 881 726 877 685 877"/>
                <polygon id="Fill-421" fill="#CB7C42" points="677 992 733 992 733 988 677 988"/>
                <path d="M854,821.501 C854,829.508 847.509105,836 839.502,836 C831.492896,836 825,829.508 825,821.501 C825,813.492 831.492896,807 839.502,807 C847.509105,807 854,813.492 854,821.501" id="Fill-422" fill="#FFFFFE"/>
                <path d="M854,822.501 C854,830.508 847.509105,837 839.502,837 C831.492896,837 825,830.508 825,822.501 C825,814.492 831.492896,808 839.502,808 C847.509105,808 854,814.492 854,822.501" id="Fill-423" fill="#D1E6EE"/>
                <path d="M829,833 L803.552837,833 C801.0383,833 799,830.966 799,828.458 L799,823.54 C799,821.033 801.0383,819 803.552837,819 L825.300381,819 C825.095849,819.968 824.98857,820.971 824.98857,822 C824.98857,822.167 824.991578,822.334 824.997594,822.5 C824.991578,822.665 824.98857,822.832 824.98857,823 C824.98857,826.876 826.514538,830.398 829,833" id="Fill-424" fill="#603921"/>
                <path d="M825.009,823 C825.003,822.810286 825,822.619429 825,822.428571 C825,821.252571 825.107,820.106286 825.311,819 L825.559,819 C825.239,820.276571 825.05,821.616 825.009,823" id="Fill-425" fill="#B7B7B2"/>
                <path d="M839.366799,833 L829.081338,833 C826.552561,830.398 825,826.876 825,823 C825,822.832 825.00306,822.665 825.009181,822.5 C825.051004,821.289 825.243799,820.117 825.570224,819 L839.366799,819 C841.929239,819 844,821.033 844,823.54 L844,828.458 C844,830.966 841.929239,833 839.366799,833" id="Fill-426" fill="#96A4AA"/>
                <path d="M839.411812,830 L803.587178,830 C801.054684,830 799,827.966 799,825.458 L799,820.541 C799,818.033 801.054684,816 803.587178,816 L839.411812,816 C841.949357,816 844,818.033 844,820.541 L844,825.458 C844,827.966 841.949357,830 839.411812,830" id="Fill-427" fill="#D1E6EE"/>
                <path d="M839.832043,816 L803.166947,816 C800.865782,816 799,818.238 799,821 L799,824 C799,821.238 800.865782,819 803.166947,819 L839.832043,819 C842.131187,819 844,821.238 844,824 L844,821 C844,818.238 842.131187,816 839.832043,816" id="Fill-428" fill="#FFFFFE"/>
                <polygon id="Fill-429" fill="#435B67" points="270 165 1576 165 1576 145 270 145"/>
                <path d="M288,196 C288,186.059 279.941,178 270,178 L270,165 L1576,165 L1576,178 C1566.06,178 1558,186.059 1558,196 L288,196 Z" id="Fill-430" fill="#283840"/>
                <polygon id="Fill-431" fill="#333A3F" points="944 1081 1423 1081 1423 1064 944 1064"/>
                <path d="M522,904 C522.626756,900.498258 525.980688,898.006652 529.79073,898 C525.981742,898.006652 522.626756,900.498258 522,904 M531,898.081723 C530.976826,898.077922 530.954705,898.075071 530.932584,898.07222 C530.954705,898.075071 530.976826,898.077922 531,898.081723 M529.809691,898 C529.808638,898 529.807584,898 529.805478,898 C529.807584,898 529.808638,898 529.809691,898" id="Fill-437" fill="#8CB4BF"/>
                <g id="Group" transform="translate(170.000000, 890.000000)">
                    <path d="M150,319 C67.157,319 0,314.07 0,308 C0,305.7 9.602,303.57 26.028,301.8 C25.668,305.7 28.385,309.27 32.31,309.9 C32.539,309.94 32.767,309.96 32.995,309.98 C33.167,309.99 33.339,310 33.509,310 C33.582,310 33.655,310 33.728,309.99 C37.257,309.89 40.322,307.3 40.91,303.69 L41.435,300.4 C68.753,298.3 107.294,297 150,297 C169.512,297 188.148,297.27 205.247,297.77 L205.01,302.09 C204.883,304.36 205.788,306.46 207.319,307.92 C208.158,308.72 209.185,309.33 210.333,309.68 C210.893,309.85 211.481,309.95 212.09,309.99 C212.229,310 212.366,310 212.505,310 C212.506,310 212.506,310 212.507,310 L212.508,310 C212.509,310 212.509,310 212.51,310 C212.514,310 212.517,310 212.52,310 C212.528,310 212.535,310 212.542,310 C213.71,309.99 214.829,309.71 215.82,309.22 C216.24,309.02 216.63,308.77 217,308.5 C218.71,307.22 219.86,305.22 219.99,302.91 L220.244,298.27 C267.686,300.12 300,303.78 300,308 C300,314.07 232.843,319 150,319" id="Fill-432" fill="#7DA5A7"/>
                    <path d="M235.988236,11.9120662 L219.990058,302.910168 C219.860073,305.220113 218.710204,307.220066 217.000398,308.500036 C216.630441,308.770029 216.240485,309.020023 215.820533,309.220018 C214.820647,309.720007 213.690775,310 212.51091,310 C212.370926,310 212.230942,310 212.090957,309.99 C207.951429,309.760006 204.78179,306.22009 205.011764,302.090188 L221.009942,11.0920856 C221.079934,9.77211692 221.489887,8.54314605 222.149812,7.50217073 C223.559652,5.27222359 226.089364,3.85225725 228.909043,4.01225346 C233.048571,4.242248 236.21821,7.78216409 235.988236,11.9120662" id="Fill-433" fill="#B99368"/>
                    <path d="M86.9057422,16.6940041 L40.9121828,303.690194 C40.3122668,307.38008 37.1327121,310 33.5132189,310 C33.1132749,310 32.7133309,309.970001 32.3133869,309.900003 C28.2239596,309.250023 25.4443488,305.390142 26.0942578,301.310267 L72.0878172,14.3140772 C72.7477248,10.2242027 76.5971857,7.44428808 80.6866131,8.09426813 C84.7760404,8.75524784 87.5556512,12.6041297 86.9057422,16.6940041" id="Fill-434" fill="#B99368"/>
                    <path d="M206.972725,302.080136 L222.664461,11.0891233 C222.859627,7.4421858 225.573317,4.54523545 229,4.07124357 C228.818564,4.04724398 228.637129,4.02224441 228.450789,4.01224458 C224.384668,3.77724861 220.92464,6.95319418 220.702994,11.0891233 L205.011258,302.080136 C204.788631,306.220065 207.894615,309.760004 211.950928,309.98 C212.088231,309.99 212.225534,310 212.361856,310 C212.692363,310 213.016005,309.970001 213.335724,309.920001 C209.566765,309.41001 206.759906,306.020068 206.972725,302.080136" id="Fill-435" fill="#81664C"/>
                    <path d="M34.2415565,309.899999 C30.1869607,309.249994 27.4280511,305.399961 28.0773812,301.309926 L73.6791924,14.306493 C74.20857,10.9694647 76.8495097,8.50444384 80,8.06444011 C76.0346251,7.53843565 72.3349303,10.287459 71.696505,14.306493 L26.0946938,301.309926 C25.4453636,305.399961 28.2042732,309.249994 32.258869,309.899999 C32.6573892,309.97 33.0529354,310 33.4445161,310 C33.7885124,310 34.1255693,309.97 34.4596521,309.919999 L34.2415565,309.899999" id="Fill-436" fill="#81664C"/>
                    <path d="M207,274 L207.280101,268.807742 L207.001008,274 L207,274 M209.020151,273.927742 L209.852393,258.412903 L223,258 L222.163728,273.504516 L209.020151,273.927742" id="Fill-440" fill="#9A8163"/>
                    <polyline id="Fill-441" fill="#74624E" points="207 273 207.878799 258.069536 210 258 209.124382 272.930464 207 273"/>
                    <path d="M260,257.990256 L101.11202,263 L71.020235,11.3505171 C70.8143801,9.56504416 72.2053994,8 73.9981355,8 L228.848962,8 C230.371888,8 231.651986,9.14322368 231.826863,10.6601743 L260,257.990256" id="Fill-442" fill="#45372A"/>
                    <path d="M107.986255,46 L207.012554,46 C210.677867,46 213.482221,42.728 212.930528,39.096 C212.485583,36.165 209.970544,34 207.012554,34 L107.986255,34 C104.330919,34 101.528561,37.255 102.066286,40.88 C102.501255,43.822 105.020285,46 107.986255,46" id="Fill-443" fill="#FEEBD6"/>
                    <path d="M115.986255,93 L215.012554,93 C218.677867,93 221.482221,89.728 220.930528,86.096 C220.485583,83.165 217.970544,81 215.012554,81 L115.986255,81 C112.330919,81 109.528561,84.255 110.066286,87.88 C110.501255,90.822 113.020285,93 115.986255,93" id="Fill-444" fill="#FEEBD6"/>
                    <path d="M123.986255,140 L223.012554,140 C226.677867,140 229.482221,136.72 228.930528,133.09 C228.485583,130.16 225.970544,128 223.012554,128 L123.986255,128 C120.330919,128 117.528561,131.25 118.066286,134.88 C118.501255,137.82 121.020285,140 123.986255,140" id="Fill-445" fill="#FEEBD6"/>
                    <path d="M184.970111,197 L228.029143,197 C231.503957,197 234.244403,194.02 233.982697,190.54 C233.746864,187.41 231.151699,185 228.029143,185 L184.970111,185 C181.500273,185 178.760822,187.96 179.016557,191.44 C179.24642,194.57 181.843575,197 184.970111,197" id="Fill-446" fill="#FEEBD6"/>
                    <path d="M107.297439,254.310708 L79.5787085,14.9998058 L225.735659,14.9998058 L252.923456,249.750767 L107.297439,254.310708 Z M273.950422,300.640108 L240.20109,9.28987974 C239.590015,3.99994822 235.092108,0 229.752721,0 L74.5198148,0 C71.524549,0 68.6595121,1.27898344 66.6660074,3.50895458 C64.6725028,5.74992557 63.7208297,8.728887 64.0714461,11.7098484 L97.740638,302.350086 C98.2114657,306.440033 101.887929,309.379995 105.965097,308.960001 C106.636277,308.890001 107.277404,308.730003 107.878461,308.500006 C109.190768,308.010013 110.322758,307.140024 111.15422,306.060038 C112.266174,304.630057 112.857214,302.79008 112.686914,300.840106 L109.881983,269.250515 L254.365992,264.710573 L259.034199,302.420085 C259.505027,306.220036 262.740715,309 266.477284,309 C266.777813,309 267.078341,308.98 267.378869,308.940001 C271.48609,308.460007 274.42125,304.730055 273.950422,300.640108 Z" id="Fill-447" fill="#B99368"/>
                    <polyline id="Fill-448" fill="#81664C" points="227.92433 15 224.932213 15 252.007883 249.4262 110 253.900135 110.010971 254 255 249.4262 227.92433 15"/>
                    <path d="M261.883245,302.463084 L257.080536,265 L254,265.089411 L258.791372,302.463084 C259.275766,306.228268 262.604682,309 266.452002,309 C266.759128,309 267.069346,308.980131 267.380595,308.940393 C267.590842,308.920524 267.795936,308.880786 268,308.841048 C264.839075,308.215173 262.300648,305.711673 261.883245,302.463084" id="Fill-449" fill="#81664C"/>
                    <path d="M101.003049,302.360262 L67.0963151,11.7058553 C66.749309,8.73389202 67.7015583,5.74892892 69.709957,3.51395656 C71.717347,1.28098416 74.5993134,0 77.6174596,0 L74.5912435,0 C71.5730974,0 68.691131,1.28098416 66.683741,3.51395656 C64.6753423,5.74892892 63.7230929,8.73389202 64.0700991,11.7058553 L97.9768325,302.360262 C98.4529571,306.430211 102.148976,309.380175 106.260595,308.96018 C106.510762,308.930181 106.757903,308.890181 107,308.840182 C103.882997,308.210189 101.388387,305.660221 101.003049,302.360262" id="Fill-450" fill="#81664C"/>
                    <path d="M216.068,306.654501 C216.17,307.170316 216.411,307.647202 216.767,308.036496 L217,308.29927 C216.63,308.562044 216.24,308.805353 215.82,309 L215.341,308.29927 C215.118,307.978102 215,307.59854 215,307.218978 L215,305.350365 C215,305.048662 215.072,304.746959 215.211,304.474453 L215.789,303.355231 C215.928,303.082725 216,302.781022 216,302.479319 L216,301 L216.738,303.150852 C216.906,303.63747 216.867,304.172749 216.63,304.639903 L216.211,305.447689 C216.072,305.720195 216,306.021898 216,306.323601 L216.068,306.654501" id="Fill-451" fill="#81664C"/>
                    <path d="M111,306.56 C110.159919,307.64 109.016194,308.51 107.690283,309 L108.024291,305 C108.024291,305 108.024291,301 108.024291,300 C108.024291,299 108.024291,297 107.012146,296 C106,295 106,293 106,293 L106,286 L107.012146,292 L109.036437,296 L110.048583,300 L110.048583,305 L111,306.56" id="Fill-452" fill="#81664C"/>
                </g>
                <g id="Group-3" transform="translate(1125.000000, 680.000000)" fill="#FFFFFE">
                    <path d="M69.5,18.9771167 C48.2576659,18.9771167 30.9771167,36.2576659 30.9771167,57.5 C30.9771167,67.2680892 34.6502288,76.588238 41.309611,83.7413501 C48.5762014,91.5464645 58.8489703,96.0228833 69.5,96.0228833 C90.7423341,96.0228833 108.022883,78.7423341 108.022883,57.5 C108.022883,47.3785355 104.120824,37.8155034 97.0334096,30.5708124 C89.7170481,23.0941876 79.9419908,18.9771167 69.5,18.9771167 Z M69.5,101 C57.475286,101 45.8786041,95.9462357 37.6663616,87.1337529 C30.1409611,79.054897 26,68.5312815 26,57.5 C26,33.5132838 45.5102975,14 69.5,14 C81.2858124,14 92.3350114,18.6496224 100.587071,27.0908124 C108.590275,35.2712014 113,46.0695538 113,57.5 C113,81.4867162 93.4897025,101 69.5,101 Z" id="Fill-459"/>
                    <path d="M70,30.0094877 C54.5619308,30.0094877 42.0091075,42.5662694 42.0091075,58.0005009 C42.0091075,65.0558634 44.643898,71.7956281 49.4326047,76.978444 C54.7222222,82.7062922 62.215847,85.9905123 70,85.9905123 C85.428051,85.9905123 97.9908925,73.4347324 97.9908925,58.0005009 C97.9908925,50.5994839 95.1256831,43.6182619 89.9162113,38.3442732 C84.6165756,32.9700949 77.5437158,30.0094877 70,30.0094877 Z M70,91 C60.8233151,91 51.9872495,87.1286679 45.7559199,80.3778824 C40.1056466,74.2663074 37,66.3202581 37,58.0005009 C37,39.804038 51.8069217,25 70,25 C78.8961749,25 87.2313297,28.4896091 93.4826958,34.8256091 C99.6138434,41.0443871 103,49.2739734 103,58.0005009 C103,76.1969639 88.1930783,91 70,91 Z" id="Fill-460"/>
                    <path d="M130.033978,5.56206873 C127.243074,6.93168337 125.365917,10.4632188 124.2138,13.531912 C122.118139,19.0949761 120.966022,26.8358867 120.966022,35.3302845 C120.966022,51.1156904 124.918975,64.7839666 130.033978,68.2030264 L130.033978,5.56206873 Z M135,74 L132.516989,74 C121.174595,74 116,53.9544556 116,35.3302845 C116,26.2506154 117.271302,17.8866097 119.565604,11.7760979 C123.230528,2.043473 128.63356,0 132.516989,0 L135,0 L135,74 Z" id="Fill-461"/>
                    <path d="M127.204376,112.711185 L127.204376,112.716194 L127.204376,112.711185 Z M127.093443,112.391653 C127.980913,113.094825 128.454903,113.201002 129.554157,112.534891 L129.917213,74.0517529 C128.243121,73.8193656 127.103528,73.3255426 126.185802,72.5782972 C124.420946,84.1656093 124.703323,105.044407 127.093443,112.391653 Z M128.354054,118 C126.921999,118 125.328586,117.467112 123.583899,116.005676 C123.059485,115.565943 122.666174,115.001002 122.444306,114.371953 C118.914593,104.396327 119.449093,75.3238731 122.504816,65.9292154 L124.108314,61 L127.002679,65.3101836 C127.35565,65.8400668 127.668282,66.3228715 127.950659,66.7595993 C129.473478,69.1495826 129.503732,69.1956594 132.458607,69.1956594 L135,69.1956594 L134.586519,113.247078 C134.576434,114.469115 133.971341,115.609015 132.972936,116.297162 C131.68207,117.176628 130.139081,118 128.354054,118 Z" id="Fill-462"/>
                    <path d="M19.9954175,43 L7.00458255,43 C5.07594321,43 3.28720518,42.2246173 1.95814284,40.8172168 C0.599101647,39.3704415 -0.090411898,37.4511673 0.00951760123,35.4127587 L1.40853059,7.39599956 C1.47848124,6.00475293 2.62767048,4.94566895 4.03667642,5.00321689 C5.41570351,5.07388979 6.4749562,6.260185 6.40500555,7.65244125 L4.99599961,35.6681908 C4.96602076,36.3103046 5.17587271,36.903957 5.58558366,37.3380906 C5.95532281,37.7338589 6.4549703,37.9519353 7.00458255,37.9519353 L19.9954175,37.9519353 C20.5350367,37.9519353 21.0446772,37.7338589 21.4144163,37.3380906 C21.8241273,36.903957 22.0339792,36.3103046 22.0040004,35.6671812 L20.5949944,7.65244125 C20.5250438,6.25917539 21.5842965,5.07388979 22.9633236,5.00321689 C24.3823225,4.93355359 25.5115258,6.00374331 25.5814765,7.39599956 L26.9904824,35.4117491 C27.0904119,37.4511673 26.4008984,39.3704415 25.0418572,40.8172168 C23.7127948,42.2246173 21.9240568,43 19.9954175,43" id="Fill-463"/>
                    <path d="M10.3392449,78.0068984 C10.076659,78.0068984 9.86270023,78.2031688 9.86270023,78.4455027 L9.86270023,112.554497 C9.86270023,112.79583 10.076659,112.993102 10.3392449,112.993102 L16.6704805,112.993102 C16.9330664,112.993102 17.1372998,112.79583 17.1372998,112.554497 L17.1372998,78.4455027 C17.1372998,78.2031688 16.9330664,78.0068984 16.6704805,78.0068984 L10.3392449,78.0068984 Z M16.6704805,118 L10.3392449,118 C7.39244851,118 5,115.556634 5,112.554497 L5,78.4455027 C5,75.4433664 7.39244851,73 10.3392449,73 L16.6704805,73 C19.6075515,73 22,75.4433664 22,78.4455027 L22,112.554497 C22,115.556634 19.6075515,118 16.6704805,118 Z" id="Fill-464"/>
                    <path d="M13.5,76 C12.12,76 11,74.8795372 11,73.4967318 L11,42.5032682 C11,41.1204628 12.12,40 13.5,40 C14.88,40 16,41.1204628 16,42.5032682 L16,73.4967318 C16,74.8795372 14.88,76 13.5,76" id="Fill-465"/>
                    <path d="M13.5,37 C12.12,37 11,35.8875004 11,34.516742 L11,8.48325803 C11,7.1115063 12.12,6 13.5,6 C14.88,6 16,7.1115063 16,8.48325803 L16,34.516742 C16,35.8875004 14.88,37 13.5,37" id="Fill-466"/>
                </g>
            </g>
            <g id="!logo" transform="translate(649.000000, 16.000000)">
                <rect id="Rectangle-7" stroke="#FFFFFF" stroke-width="10" fill="#D22424" x="45" y="5" width="143" height="270"/>
                <path d="M76.2247191,243 C72.1210282,243 68.9070528,241.851417 66.5826966,239.554217 C64.2583404,237.257017 63.0961798,233.971909 63.0961798,229.698795 L63.0961798,228.783133 C66.3342484,229.168677 69.2997618,229.361446 71.992809,229.361446 C72.3454699,229.361446 72.7542299,229.353414 73.2191011,229.337349 C73.6839724,229.321285 73.9805237,229.313253 74.108764,229.313253 C74.461425,232.815279 75.1827661,234.566265 76.272809,234.566265 C76.9781309,234.566265 77.5872634,234.124502 78.1002247,233.240964 C78.6131861,232.357425 78.8696629,231.048201 78.8696629,229.313253 C78.8696629,228.863452 78.7734841,228.550202 78.5811236,228.373494 C78.3887631,228.196786 78.068167,228.076306 77.6193258,228.012048 C76.3689825,227.883533 74.7018831,227.71486 72.6179775,227.506024 C70.534072,227.297188 68.995211,227.128515 68.0013483,227 C66.366284,226.775099 65.1239743,226.285144 64.274382,225.53012 C63.4247898,224.775097 63,223.546193 63,221.843373 C63,218.630506 63.6732517,215.449815 65.0197753,212.301205 C66.3662989,209.152595 68.3379645,206.951813 70.9348315,205.698795 C72.249295,205.056222 73.8202156,204.73494 75.6476404,204.73494 C79.6551511,204.73494 82.9011861,205.819266 85.3858427,207.987952 C87.8704993,210.156637 89.112809,213.377489 89.112809,217.650602 L89.112809,218.518072 C88.6639678,218.518072 87.9426267,218.493976 86.948764,218.445783 C85.9549014,218.39759 85.2656199,218.373494 84.8808989,218.373494 C82.668753,218.373494 80.6169383,218.502007 78.7253933,218.759036 C78.5330327,215.224882 77.619334,213.457831 75.9842697,213.457831 C75.5033684,213.457831 75.0545339,213.859434 74.6377528,214.662651 C73.9324309,215.915669 73.5797753,217.232925 73.5797753,218.614458 C73.5797753,219.385546 74.0125799,219.819277 74.8782022,219.915663 C79.5589747,220.429721 82.4603689,220.734939 83.5824719,220.831325 C85.7946178,220.991969 87.3735533,221.441763 88.3193258,222.180723 C89.2650984,222.919682 89.7379775,224.236938 89.7379775,226.13253 C89.7379775,228.188765 89.4815007,230.180713 88.9685393,232.108434 C88.455578,234.036154 87.6781326,235.835333 86.6361798,237.506024 C85.594227,239.176715 84.1755895,240.510035 82.3802247,241.506024 C80.5848599,242.502013 78.5330452,243 76.2247191,243 Z M91.8539326,242.614458 C92.1745334,234.678675 92.3348315,225.891614 92.3348315,216.253012 L92.3348315,203.385542 C96.4385224,203.385542 99.9330193,203.257029 102.818427,203 C102.465766,210.357467 102.289438,216.493951 102.289438,221.409639 C102.289438,221.891569 102.281423,223.85942 102.265393,227.313253 C102.249363,230.767086 102.241348,232.895578 102.241348,233.698795 C102.241348,236.847405 102.273408,239.706814 102.337528,242.277108 C97.5926355,242.277108 94.0981386,242.389557 91.8539326,242.614458 Z M123.06427,241.698795 C121.429205,242.566269 119.553718,243 117.437753,243 C115.321787,243 113.438285,242.566269 111.787191,241.698795 C110.136097,240.831321 108.829668,239.65061 107.867865,238.156627 C106.906063,236.662643 106.176707,234.975913 105.679775,233.096386 C105.182844,231.216858 104.934382,229.18475 104.934382,227 C104.934382,224.108419 105.351157,221.514068 106.184719,219.216867 C107.018281,216.919667 108.396844,215.024104 110.320449,213.53012 C112.244055,212.036137 114.616465,211.289157 117.437753,211.289157 C120.25904,211.289157 122.631451,212.036137 124.555056,213.53012 C126.478661,215.024104 127.857224,216.919667 128.690787,219.216867 C129.524349,221.514068 129.941124,224.108419 129.941124,227 C129.941124,229.18475 129.692662,231.216858 129.19573,233.096386 C128.698799,234.975913 127.969443,236.662643 127.00764,238.156627 C126.045838,239.65061 124.731394,240.831321 123.06427,241.698795 Z M117.437753,235.385542 C118.239255,235.385542 118.864417,234.622498 119.313258,233.096386 C119.7621,231.570273 119.986517,229.538165 119.986517,227 C119.986517,224.558221 119.7621,222.598401 119.313258,221.120482 C118.864417,219.642563 118.239255,218.903614 117.437753,218.903614 C116.668311,218.903614 116.059178,219.642563 115.610337,221.120482 C115.161496,222.598401 114.937079,224.558221 114.937079,227 C114.937079,229.538165 115.161496,231.570273 115.610337,233.096386 C116.059178,234.622498 116.668311,235.385542 117.437753,235.385542 Z M135.80809,242.807229 C135.231008,239.337332 134.405474,233.99602 133.331461,226.783133 C132.257448,219.570245 131.512062,214.678728 131.095281,212.108434 C134.205109,212.108434 137.603427,211.963857 141.290337,211.674699 C141.418577,213.024103 141.787263,216.156602 142.396404,221.072289 C143.005546,225.987976 143.374232,229.232924 143.502472,230.807229 C143.566592,230.29317 144.007412,227.514081 144.824944,222.46988 C145.642476,217.425678 146.195504,213.90764 146.484045,211.915663 C148.664131,211.915663 151.276989,211.755022 154.322697,211.433735 C155.188319,217.152639 156.198196,223.337316 157.35236,229.987952 C157.44854,228.959834 158.21797,222.951862 159.660674,211.963855 C162.321661,211.963855 164.03685,211.931727 164.806292,211.86747 C166.537537,211.86747 168.268755,211.755021 170,211.53012 C167.884034,223.41773 166.216935,233.73088 164.998652,242.46988 C160.029338,242.46988 155.8135,242.598392 152.351011,242.855422 C151.90217,240.156613 151.260978,236.012076 150.427416,230.421687 C150.395356,230.710845 149.818283,234.710805 148.69618,242.421687 C143.245965,242.421687 138.949978,242.5502 135.80809,242.807229 Z" id="Slow" fill="#FFFFFF"/>
                <path d="M37.3334398,97 C37.0199655,97 36.7398979,97.1958834 36.63237,97.4903387 L5.77235503,181.997634 C5.74239913,182.079665 5.72707245,182.166318 5.72707245,182.253648 C5.72707245,182.665847 6.0612258,183 6.47342486,183 L227.523578,183 C227.610908,183 227.69756,182.984673 227.779592,182.954717 C228.166782,182.813325 228.36604,182.384824 228.224648,181.997634 L197.364633,97.4903387 C197.257105,97.1958834 196.977037,97 196.663563,97 L37.3334398,97 Z" id="Rectangle-8" stroke="#FFFFFF" stroke-width="10" fill="#D22424"/>
                <path d="M115.557554,152 C102.972359,152 93.1157431,148.428037 85.9874101,141.284005 C78.8590771,134.139973 75.294964,123.92366 75.294964,110.634761 L75.294964,107.787154 C85.2254693,108.986152 94.3201026,109.585642 102.579137,109.585642 C103.660677,109.585642 104.914261,109.560664 106.339928,109.510705 C107.765595,109.460747 108.675058,109.435768 109.068345,109.435768 C110.149886,120.326671 112.362094,125.77204 115.705036,125.77204 C117.868116,125.77204 119.736203,124.398209 121.309353,121.650504 C122.882502,118.902799 123.669065,114.831261 123.669065,109.435768 C123.669065,108.036937 123.374104,107.062765 122.784173,106.513224 C122.194242,105.963683 121.211038,105.589002 119.834532,105.389169 C115.999981,104.989503 110.887322,104.464949 104.496403,103.815491 C98.1054836,103.166034 93.3861064,102.64148 90.3381295,102.241814 C85.3237159,101.542398 81.513802,100.018694 78.9082734,97.6706549 C76.3027448,95.3226163 75,91.5008661 75,86.2052897 C75,76.213636 77.0647276,66.3220473 81.1942446,56.5302267 C85.3237617,46.7384061 91.3704638,39.894226 99.3345324,35.9974811 C103.365728,33.9991504 108.183425,33 113.78777,33 C126.077999,33 136.032936,36.3721325 143.652878,43.1164987 C151.27282,49.860865 155.082734,59.8773475 155.082734,73.1662469 L155.082734,75.8639798 C153.706228,75.8639798 151.49402,75.7890436 148.446043,75.6391688 C145.398066,75.489294 143.284179,75.4143577 142.104317,75.4143577 C135.32011,75.4143577 129.027607,75.8140178 123.226619,76.6133501 C122.636688,65.6225311 119.834557,60.127204 114.820144,60.127204 C113.345316,60.127204 111.968831,61.376142 110.690647,63.8740554 C108.527567,67.7708003 107.446043,71.8673169 107.446043,76.163728 C107.446043,78.5617248 108.773368,79.9105778 111.428058,80.2103275 C125.783045,81.808992 134.681038,82.7581849 138.122302,83.0579345 C144.906509,83.5575172 149.748786,84.9563277 152.649281,87.2544081 C155.549775,89.5524884 157,93.6490049 157,99.5440806 C157,105.938739 156.213437,112.133471 154.640288,118.128463 C153.067138,124.123456 150.68287,129.718698 147.48741,134.914358 C144.29195,140.110018 139.941275,144.256492 134.435252,147.353904 C128.929229,150.451317 122.636726,152 115.557554,152 Z" id="S" fill="#FFFFFF"/>
            </g>
        </g>
    </g>
</svg>