<?xml version="1.0" encoding="UTF-8"?>
<svg width="48px" height="48px" viewBox="0 0 48 48" version="1.1" xmlns="http://www.w3.org/2000/svg" xmlns:xlink="http://www.w3.org/1999/xlink">
    <!-- Generator: sketchtool 59.1 (101010) - https://sketch.com -->
    <title>favicon</title>
    <desc>Created with sketchtool.</desc>
    <g id="Page-1" stroke="none" stroke-width="1" fill-rule="evenodd">
        <g id="favicon">
            <rect id="Rectangle-6" stroke="#FFFFFF" stroke-width="1.5" x="0.75" y="0.75" width="46.5" height="46.5"/>
            <path d="M23.438448,40.3010393 C19.8890452,40.3010393 17.1091835,39.3014589 15.0987795,37.3022682 C13.0883756,35.3030774 12.0831887,32.4441376 12.0831887,28.7253632 L12.0831887,27.9284869 C14.8838894,28.2640155 17.448849,28.4317772 19.7781446,28.4317772 C20.0831714,28.4317772 20.4367199,28.4247871 20.8388007,28.4108068 C21.2408815,28.3968264 21.4973775,28.3898363 21.6082963,28.3898363 C21.9133231,31.4375538 22.5372322,32.9613896 23.4800423,32.9613896 C24.0900959,32.9613896 24.6169525,32.5769356 25.0606279,31.8080161 C25.5043032,31.0390965 25.7261376,29.8997147 25.7261376,28.3898363 C25.7261376,27.9983864 25.6429497,27.7257736 25.4765714,27.5719897 C25.3101932,27.4182058 25.0329002,27.3133547 24.6446843,27.2574332 C23.5632256,27.1455904 22.1213024,26.9987989 20.3188713,26.8170543 C18.5164401,26.6353096 17.185434,26.4885181 16.3258131,26.3766753 C14.9115979,26.1809503 13.8370877,25.7545559 13.1022504,25.0974792 C12.3674131,24.4404025 12,23.3709214 12,21.8890037 C12,19.0929327 12.5823152,16.3248639 13.746963,13.5847143 C14.9116108,10.8445647 16.6169623,8.92928481 18.8630688,7.83881711 C19.9999869,7.27960291 21.3587223,7 22.9393157,7 C26.4055294,7 29.2131204,7.94365981 31.3621728,9.83100775 C33.5112253,11.7183557 34.5857354,14.5213748 34.5857354,18.2401493 L34.5857354,18.9950847 C34.1975195,18.9950847 33.5736104,18.9741145 32.7139894,18.9321734 C31.8543684,18.8902323 31.2581886,18.8692621 30.9254321,18.8692621 C29.0120821,18.8692621 27.2374074,18.9811033 25.6013545,19.204789 C25.4349762,16.1291109 24.6446914,14.5912949 23.2304762,14.5912949 C22.8145305,14.5912949 22.4263204,14.9407985 22.0658342,15.6398163 C21.4557806,16.7302839 21.1507584,17.8766559 21.1507584,19.0789664 C21.1507584,19.7500235 21.5251038,20.1274874 22.273806,20.2113695 C26.3223436,20.6587409 28.8318446,20.9243636 29.8023845,21.0082458 C31.7157344,21.1480493 33.0814021,21.5394934 33.8994286,22.1825897 C34.717455,22.8256861 35.1264621,23.972058 35.1264621,25.6217399 C35.1264621,27.4112253 34.9046277,29.1447634 34.4609524,30.822406 C34.017277,32.5000486 33.3448417,34.0658249 32.4436261,35.5197818 C31.5424105,36.9737387 30.3153893,38.1340908 28.7625256,39.0008728 C27.2096618,39.8676548 25.4349871,40.3010393 23.438448,40.3010393 Z" id="S"/>
        </g>
    </g>
</svg>