<?xml version="1.0" encoding="UTF-8"?>
<svg width="370px" height="323px" viewBox="0 0 370 323" version="1.1" xmlns="http://www.w3.org/2000/svg" xmlns:xlink="http://www.w3.org/1999/xlink">
    <!-- Generator: sketchtool 50.2 (55047) - http://www.bohemiancoding.com/sketch -->
    <title>heart</title>
    <desc>Created with sketchtool.</desc>
    <defs>
        <linearGradient x1="49.9821616%" y1="22.1279404%" x2="50.2764554%" y2="75.8711455%">
            <stop stop-color="#FFFFFF" offset="0%"/>
            <stop stop-color="#FFFFFF" stop-opacity="0" offset="100%"/>
        </linearGradient>
    </defs>
    <g stroke="none" stroke-width="1" fill-rule="evenodd">
        <g fill-rule="nonzero">
            <g>
                <path d="M184.992314,30.1686385 C184.992314,30.1686385 196.064058,23.4271916 201.923449,20.6872011 C217.154976,13.5646075 232.519784,5.75885797 249.056091,2.71274165 C264.057019,-0.0506056962 279.970734,-0.791757848 294.815953,2.71274165 C308.0939,5.84724114 320.949451,12.2749748 331.423786,21.0166416 C343.134506,30.7901916 351.800543,44.1135216 358.87973,57.6245353 C363.356931,66.1696806 366.486424,75.5580185 368.031689,85.0804743 C370.474996,100.136791 370.474996,115.784002 368.031689,130.840318 C366.486424,140.362774 363.292326,149.717531 358.87973,158.296215 C345.397061,184.508448 326.847921,208.134981 306.896533,229.833031 C284.19952,254.516977 257.920157,275.919908 230.752172,295.575732 C216.340321,306.002608 184.992314,323.031741 184.992314,323.031741 C184.992314,323.031741 153.644289,306.002608 139.232424,295.575732 C112.064443,275.919908 85.7850854,254.516977 63.0880724,229.833031 C43.1366889,208.134981 24.5875304,184.508448 11.1048601,158.296215 C6.69233753,149.717531 3.49816922,140.362774 1.95290122,130.840318 C-0.490403199,115.784002 -0.490403199,100.136791 1.95290122,85.0804743 C3.49816922,75.5580185 6.62766153,66.1696806 11.1048601,57.6245353 C18.1840378,44.1135216 26.8500851,30.7901916 38.5608038,21.0166416 C49.0352335,12.2749748 61.8907056,5.84724114 75.1686427,2.71274165 C90.0139372,-0.791757848 105.927651,-0.0506056962 120.9285,2.71274165 C137.464878,5.75885797 152.829694,13.5646075 168.061147,20.6872011 C173.920551,23.4271916 184.992314,30.1686385 184.992314,30.1686385 Z" fill="#C81919"/>
                <path d="M185.372389,134.525331 C221.761729,135.441034 260.120716,125.566661 293.731685,110.021387 C322.176362,92.5789411 364.781773,82.1411475 344.525125,47.2837753 C339.342484,38.2596111 332.343067,30.0695253 324.20776,23.5801375 C316.629397,17.5350353 307.842051,12.5221348 298.472415,10.0352243 C285.614981,6.62253165 271.738074,6.65250165 258.588153,8.66238848 C241.060152,11.3414648 224.806946,19.5675343 208.398744,26.2891416 C200.548978,29.5047648 185.372389,37.1250553 185.372389,37.1250553 C185.372389,37.1250553 170.176189,29.5522185 162.346047,26.2891416 C145.931714,19.4487175 129.812945,10.6599716 112.229861,8.00346532 C98.8202089,5.97752797 84.6859841,6.49219797 71.5951265,10.0352243 C62.7960675,12.416638 54.464473,16.9674553 47.3218338,22.6311343 C39.1677195,29.0968843 32.2758662,37.3621785 27.0044678,46.3347675 C3.98601843,79.7093248 53.5440676,99.4031743 77.9805677,110.529721 C111.310275,125.844807 146.414475,133.545018 185.372389,134.525331 Z" fill="url(#linearGradient-1)" opacity="0.47000002"/>
            </g>
        </g>
    </g>
</svg>