<?xml version="1.0" encoding="UTF-8"?>
<svg width="40px" height="40px" viewBox="0 0 40 40" version="1.1" xmlns="http://www.w3.org/2000/svg" xmlns:xlink="http://www.w3.org/1999/xlink">
    <!-- Generator: sketchtool 59.1 (101010) - https://sketch.com -->
    <title>info</title>
    <desc>Created with sketchtool.</desc>
    <g id="Page-1" stroke="none" stroke-width="1" fill-rule="evenodd">
        <g id="info">
            <path d="M18.6690257,3 L33.4746928,5.95525109 L35.4869351,24.2131024 L33.4746928,33.7395285 L6.83286689,36.3576341 L8.95172617,26.556 L4,15.30507 L8.95172617,7.628 L18.6690257,3 Z M22.756,14.464 C21.5946609,14.6200008 19.7486793,14.698 17.218,14.698 C17.2700003,17.090012 17.296,18.7886616 17.296,19.794 C17.296,21.0246728 17.2093342,24.8466346 17.036,31.26 C18.6826749,31.1039992 20.537323,31.026 22.6,31.026 C22.6,30.6446648 22.5913334,29.8213397 22.574,28.556 C22.5589777,27.4593723 22.5504652,26.7663518 22.5484622,26.4769244 L22.5484062,26.062741 C22.5524687,24.4814086 22.5869997,22.3745132 22.652,19.742 C22.7213337,16.933986 22.756,15.1746702 22.756,14.464 Z M22.964,9.628 C21.1959912,9.74933394 19.2720104,9.81 17.192,9.81 L17.192,9.81 L17.218,13.502 C18.6393404,13.3459992 20.5113217,13.268 22.834,13.268 L22.834,13.268 Z" id="Combined-Shape"/>
        </g>
    </g>
</svg>