<?xml version="1.0" encoding="UTF-8"?>
<svg width="66px" height="80px" viewBox="0 0 66 80" version="1.1" xmlns="http://www.w3.org/2000/svg" xmlns:xlink="http://www.w3.org/1999/xlink">
    <!-- Generator: sketchtool 50.2 (55047) - http://www.bohemiancoding.com/sketch -->
    <title>logo</title>
    <desc>Created with sketchtool.</desc>
    <defs/>
    <g id="Page-1" stroke="none" stroke-width="1" fill-rule="evenodd">
        <g id="logo">
            <g id="!logo">
                <rect id="Rectangle-7" stroke="#FFFFFF" stroke-width="3.28362995" fill="#D22424" x="13.3008391" y="2.17392331" width="39.5711613" height="75.1966074"/>
                <path d="M21.9177049,68.7320701 C20.76146,68.7320701 19.855899,68.4064492 19.2009947,67.7551976 C18.5460904,67.1039461 18.2186432,66.1726248 18.2186432,64.9612059 L18.2186432,64.7016174 C19.1309926,64.8109183 19.9665476,64.865568 20.7253333,64.865568 C20.8246981,64.865568 20.9398692,64.8632909 21.0708501,64.8587367 C21.201831,64.8541825 21.2853865,64.8519054 21.3215191,64.8519054 C21.4208839,65.8447225 21.624127,66.3411236 21.9312546,66.3411236 C22.1299841,66.3411236 22.3016117,66.2158848 22.4461423,65.9654034 C22.5906729,65.714922 22.6629371,65.3437598 22.6629371,64.8519054 C22.6629371,64.7243877 22.635838,64.635582 22.581639,64.5854857 C22.5274401,64.5353894 22.4371098,64.5012334 22.3106455,64.4830166 C21.9583521,64.4465829 21.4886347,64.3987645 20.9014791,64.3395598 C20.3143235,64.2803551 19.8807382,64.2325366 19.6007102,64.196103 C19.1400189,64.1323441 18.789989,63.9934429 18.5506102,63.7793952 C18.3112314,63.5653474 18.1915438,63.2169559 18.1915438,62.73421 C18.1915438,61.8233687 18.3812374,60.9216493 18.7606302,60.0290248 C19.1400231,59.1364003 19.6955542,58.5124834 20.4272404,58.1572552 C20.7976001,57.975087 21.2402185,57.8840042 21.7551088,57.8840042 C22.8842541,57.8840042 23.7988482,58.1914085 24.4989183,58.8062264 C25.1989884,59.4210443 25.5490182,60.334149 25.5490182,61.545568 L25.5490182,61.7914939 C25.4225539,61.7914939 25.2193108,61.7846627 24.9392828,61.7710001 C24.6592547,61.7573375 24.4650446,61.7505063 24.3566467,61.7505063 C23.7333584,61.7505063 23.1552447,61.7869394 22.6222881,61.8598067 C22.5680891,60.8578812 22.3106478,60.356926 21.8499565,60.356926 C21.7144591,60.356926 21.5879967,60.4707795 21.4705655,60.6984898 C21.271836,61.0537179 21.1724727,61.4271573 21.1724727,61.818819 C21.1724727,62.0374209 21.2944185,62.1603827 21.5383139,62.1877079 C22.8571557,62.3334425 23.6746447,62.4199712 23.9908054,62.4472964 C24.6140937,62.4928385 25.0589703,62.6203543 25.3254486,62.8298478 C25.5919269,63.0393413 25.725164,63.4127807 25.725164,63.9501771 C25.725164,64.5331155 25.6528998,65.0978286 25.5083692,65.6443334 C25.3638386,66.1908382 25.1447877,66.7009017 24.8512099,67.1745392 C24.5576321,67.6481767 24.1579206,68.0261702 23.6520635,68.308531 C23.1462064,68.5908918 22.5680926,68.7320701 21.9177049,68.7320701 Z M26.3213498,68.6227696 C26.4116814,66.3729916 26.4568466,63.881878 26.4568466,61.149354 L26.4568466,57.5014528 C27.6130914,57.5014528 28.5976914,57.4650197 29.4106761,57.3921524 C29.3113113,59.477979 29.2616296,61.2176598 29.2616296,62.611247 C29.2616296,62.7478732 29.2593714,63.3057551 29.2548548,64.2849096 C29.2503382,65.264064 29.24808,65.8674873 29.24808,66.0951976 C29.24808,66.9878221 29.257113,67.7984587 29.2751793,68.5271318 C27.9382712,68.5271318 26.9536712,68.5590108 26.3213498,68.6227696 Z M35.1150899,68.3631812 C34.6543986,68.6091083 34.1259665,68.7320701 33.5297778,68.7320701 C32.933589,68.7320701 32.4028987,68.6091083 31.9376908,68.3631812 C31.4724829,68.117254 31.104387,67.7825248 30.8333921,67.3589836 C30.5623972,66.9354424 30.3568959,66.4572579 30.2168818,65.9244157 C30.0768678,65.3915736 30.0068618,64.8154751 30.0068618,64.196103 C30.0068618,63.3763458 30.1242912,62.6408525 30.3591534,61.9896009 C30.5940157,61.3383494 30.9824359,60.8009611 31.5244256,60.3774198 C32.0664154,59.9538786 32.7348594,59.7421112 33.5297778,59.7421112 C34.3246961,59.7421112 34.9931401,59.9538786 35.5351299,60.3774198 C36.0771197,60.8009611 36.4655399,61.3383494 36.7004021,61.9896009 C36.9352644,62.6408525 37.0526937,63.3763458 37.0526937,64.196103 C37.0526937,64.8154751 36.9826877,65.3915736 36.8426737,65.9244157 C36.7026597,66.4572579 36.4971583,66.9354424 36.2261634,67.3589836 C35.9551685,67.7825248 35.5848144,68.117254 35.1150899,68.3631812 Z M33.5297778,66.5733869 C33.7556069,66.5733869 33.9317509,66.3570654 34.0582152,65.9244157 C34.1846794,65.4917661 34.2479106,64.9156676 34.2479106,64.196103 C34.2479106,63.5038636 34.1846794,62.9482587 34.0582152,62.5292717 C33.9317509,62.1102847 33.7556069,61.9007943 33.5297778,61.9007943 C33.3129819,61.9007943 33.1413543,62.1102847 33.0148901,62.5292717 C32.8884258,62.9482587 32.8251946,63.5038636 32.8251946,64.196103 C32.8251946,64.9156676 32.8884258,65.4917661 33.0148901,65.9244157 C33.1413543,66.3570654 33.3129819,66.5733869 33.5297778,66.5733869 Z M38.7057543,68.6774198 C38.5431573,67.6937112 38.3105569,66.1794603 38.0079459,64.1346215 C37.705335,62.0897827 37.4953171,60.7030476 37.3778859,59.9743746 C38.2541028,59.9743746 39.2116037,59.9333873 40.2504174,59.8514116 C40.2865501,60.233965 40.3904299,61.1220219 40.56206,62.5156091 C40.7336901,63.9091964 40.8375699,64.8291323 40.8737025,65.2754445 C40.8917689,65.1297099 41.015973,64.341844 41.2463186,62.9118231 C41.4766643,61.4818023 41.632484,60.484446 41.7137825,59.9197244 C42.3280376,59.9197244 43.0642293,59.874183 43.9223798,59.7830989 C44.1662752,61.4043964 44.4508155,63.1577396 44.7760094,65.0431812 C44.8031089,64.7517119 45.0199016,63.0484642 45.4263939,59.9333869 C46.1761464,59.9333869 46.6594134,59.9242787 46.8762093,59.9060618 C47.3640001,59.9060618 47.8517836,59.8741829 48.3395744,59.810424 C47.7433856,63.1805368 47.2736682,66.1042936 46.930408,68.581782 C45.5302677,68.581782 44.3424246,68.6182151 43.366843,68.6910824 C43.2403788,67.9259757 43.0597182,66.751008 42.824856,65.1661441 C42.8158228,65.2481198 42.6532283,66.3821003 42.3370676,68.5681194 C40.8014299,68.5681194 39.5910042,68.6045525 38.7057543,68.6774198 Z" id="Slow" fill="#FFFFFF"/>
                <path d="M13.8006341,27.9103574 C12.0720655,27.9103574 10.5287483,28.9933157 9.94081314,30.6188253 L4.32927044,46.1334896 C4.16736041,46.5811348 4.08455391,47.0535329 4.08455391,47.5295592 C4.08455391,49.7964326 5.92221792,51.6340966 8.18909135,51.6340966 L57.9837482,51.6340966 C58.4597744,51.6340966 58.9321725,51.5512901 59.3798177,51.3893801 C61.5115379,50.6183522 62.614597,48.2652099 61.8435691,46.1334896 L56.2320264,30.6188253 C55.6440912,28.9933157 54.100774,27.9103574 52.3722054,27.9103574 L13.8006341,27.9103574 Z" id="Rectangle-8" stroke="#FFFFFF" stroke-width="3.28362995" fill="#D22424"/>
                <path d="M32.9427302,43.1020768 C29.3933273,43.1020768 26.6134657,42.1024964 24.6030617,40.1033056 C22.5926578,38.1041148 21.5874709,35.2451751 21.5874709,31.5264006 L21.5874709,30.7295244 C24.3881716,31.0650529 26.9531312,31.2328146 29.2824268,31.2328146 C29.5874536,31.2328146 29.9410021,31.2258246 30.3430829,31.2118442 C30.7451637,31.1978638 31.0016596,31.1908738 31.1125785,31.1908738 C31.4176053,34.2385912 32.0415144,35.762427 32.9843245,35.762427 C33.5943781,35.762427 34.1212347,35.377973 34.5649101,34.6090535 C35.0085854,33.840134 35.2304198,32.7007521 35.2304198,31.1908738 C35.2304198,30.7994238 35.1472319,30.526811 34.9808536,30.3730271 C34.8144754,30.2192432 34.5371824,30.1143921 34.1489665,30.0584707 C33.0675078,29.9466278 31.6255846,29.7998363 29.8231534,29.6180917 C28.0207223,29.4363471 26.6897162,29.2895555 25.8300952,29.1777127 C24.4158801,28.9819877 23.3413699,28.5555933 22.6065326,27.8985166 C21.8716953,27.2414399 21.5042822,26.1719588 21.5042822,24.6900412 C21.5042822,21.8939701 22.0865974,19.1259013 23.2512451,16.3857517 C24.4158929,13.6456021 26.1212445,11.7303222 28.367351,10.6398545 C29.5042691,10.0806403 30.8630044,9.80103742 32.4435979,9.80103742 C35.9098116,9.80103742 38.7174025,10.7446972 40.866455,12.6320452 C43.0155075,14.5193931 44.0900176,17.3224123 44.0900176,21.0411867 L44.0900176,21.7961221 C43.7018017,21.7961221 43.0778926,21.7751519 42.2182716,21.7332108 C41.3586506,21.6912698 40.7624708,21.6702996 40.4297143,21.6702996 C38.5163643,21.6702996 36.7416895,21.7821407 35.1056367,22.0058264 C34.9392584,18.9301483 34.1489736,17.3923323 32.7347584,17.3923323 C32.3188127,17.3923323 31.9306026,17.7418359 31.5701164,18.4408537 C30.9600628,19.5313214 30.6550406,20.6776933 30.6550406,21.8800038 C30.6550406,22.5510609 31.029386,22.9285248 31.7780882,23.0124069 C35.8266258,23.4597783 38.3361268,23.7254011 39.3066667,23.8092832 C41.2200166,23.9490867 42.5856843,24.3405308 43.4037108,24.9836271 C44.2217372,25.6267235 44.6307443,26.7730954 44.6307443,28.4227773 C44.6307443,30.2122628 44.4089099,31.9458008 43.9652346,33.6234434 C43.5215592,35.301086 42.8491238,36.8668623 41.9479083,38.3208192 C41.0466927,39.7747761 39.8196715,40.9351282 38.2668078,41.8019102 C36.713944,42.6686922 34.9392692,43.1020768 32.9427302,43.1020768 Z" id="S" fill="#FFFFFF"/>
            </g>
        </g>
    </g>
</svg>