<?xml version="1.0" encoding="UTF-8"?>
<svg width="66px" height="80px" viewBox="0 0 66 80" version="1.1" xmlns="http://www.w3.org/2000/svg" xmlns:xlink="http://www.w3.org/1999/xlink">
    <!-- Generator: sketchtool 59.1 (101010) - https://sketch.com -->
    <title>logo</title>
    <desc>Created with sketchtool.</desc>
    <g id="Page-1" stroke="none" stroke-width="1" fill-rule="evenodd">
        <g id="logo">
            <g id="!logo" transform="translate(2.000000, 0.000000)">
                <rect id="Rectangle-7" stroke="#FFFFFF" stroke-width="1.5" fill="#ED1B2D" x="10.4090241" y="1.28210834" width="41.3547913" height="76.9802373"/>
                <path d="M19.9177049,68.7320701 C18.76146,68.7320701 17.855899,68.4064492 17.2009947,67.7551976 C16.5460904,67.1039461 16.2186432,66.1726248 16.2186432,64.9612059 L16.2186432,64.7016174 C17.1309926,64.8109183 17.9665476,64.865568 18.7253333,64.865568 C18.8246981,64.865568 18.9398692,64.8632909 19.0708501,64.8587367 C19.201831,64.8541825 19.2853865,64.8519054 19.3215191,64.8519054 C19.4208839,65.8447225 19.624127,66.3411236 19.9312546,66.3411236 C20.1299841,66.3411236 20.3016117,66.2158848 20.4461423,65.9654034 C20.5906729,65.714922 20.6629371,65.3437598 20.6629371,64.8519054 C20.6629371,64.7243877 20.635838,64.635582 20.581639,64.5854857 C20.5274401,64.5353894 20.4371098,64.5012334 20.3106455,64.4830166 C19.9583521,64.4465829 19.4886347,64.3987645 18.9014791,64.3395598 C18.3143235,64.2803551 17.8807382,64.2325366 17.6007102,64.196103 C17.1400189,64.1323441 16.789989,63.9934429 16.5506102,63.7793952 C16.3112314,63.5653474 16.1915438,63.2169559 16.1915438,62.73421 C16.1915438,61.8233687 16.3812374,60.9216493 16.7606302,60.0290248 C17.1400231,59.1364003 17.6955542,58.5124834 18.4272404,58.1572552 C18.7976001,57.975087 19.2402185,57.8840042 19.7551088,57.8840042 C20.8842541,57.8840042 21.7988482,58.1914085 22.4989183,58.8062264 C23.1989884,59.4210443 23.5490182,60.334149 23.5490182,61.545568 L23.5490182,61.7914939 C23.4225539,61.7914939 23.2193108,61.7846627 22.9392828,61.7710001 C22.6592547,61.7573375 22.4650446,61.7505063 22.3566467,61.7505063 C21.7333584,61.7505063 21.1552447,61.7869394 20.6222881,61.8598067 C20.5680891,60.8578812 20.3106478,60.356926 19.8499565,60.356926 C19.7144591,60.356926 19.5879967,60.4707795 19.4705655,60.6984898 C19.271836,61.0537179 19.1724727,61.4271573 19.1724727,61.818819 C19.1724727,62.0374209 19.2944185,62.1603827 19.5383139,62.1877079 C20.8571557,62.3334425 21.6746447,62.4199712 21.9908054,62.4472964 C22.6140937,62.4928385 23.0589703,62.6203543 23.3254486,62.8298478 C23.5919269,63.0393413 23.725164,63.4127807 23.725164,63.9501771 C23.725164,64.5331155 23.6528998,65.0978286 23.5083692,65.6443334 C23.3638386,66.1908382 23.1447877,66.7009017 22.8512099,67.1745392 C22.5576321,67.6481767 22.1579206,68.0261702 21.6520635,68.308531 C21.1462064,68.5908918 20.5680926,68.7320701 19.9177049,68.7320701 Z M24.3213498,68.6227696 C24.4116814,66.3729916 24.4568466,63.881878 24.4568466,61.149354 L24.4568466,57.5014528 C25.6130914,57.5014528 26.5976914,57.4650197 27.4106761,57.3921524 C27.3113113,59.477979 27.2616296,61.2176598 27.2616296,62.611247 C27.2616296,62.7478732 27.2593714,63.3057551 27.2548548,64.2849096 C27.2503382,65.264064 27.24808,65.8674873 27.24808,66.0951976 C27.24808,66.9878221 27.257113,67.7984587 27.2751793,68.5271318 C25.9382712,68.5271318 24.9536712,68.5590108 24.3213498,68.6227696 Z M33.1150899,68.3631812 C32.6543986,68.6091083 32.1259665,68.7320701 31.5297778,68.7320701 C30.933589,68.7320701 30.4028987,68.6091083 29.9376908,68.3631812 C29.4724829,68.117254 29.104387,67.7825248 28.8333921,67.3589836 C28.5623972,66.9354424 28.3568959,66.4572579 28.2168818,65.9244157 C28.0768678,65.3915736 28.0068618,64.8154751 28.0068618,64.196103 C28.0068618,63.3763458 28.1242912,62.6408525 28.3591534,61.9896009 C28.5940157,61.3383494 28.9824359,60.8009611 29.5244256,60.3774198 C30.0664154,59.9538786 30.7348594,59.7421112 31.5297778,59.7421112 C32.3246961,59.7421112 32.9931401,59.9538786 33.5351299,60.3774198 C34.0771197,60.8009611 34.4655399,61.3383494 34.7004021,61.9896009 C34.9352644,62.6408525 35.0526937,63.3763458 35.0526937,64.196103 C35.0526937,64.8154751 34.9826877,65.3915736 34.8426737,65.9244157 C34.7026597,66.4572579 34.4971583,66.9354424 34.2261634,67.3589836 C33.9551685,67.7825248 33.5848144,68.117254 33.1150899,68.3631812 Z M31.5297778,66.5733869 C31.7556069,66.5733869 31.9317509,66.3570654 32.0582152,65.9244157 C32.1846794,65.4917661 32.2479106,64.9156676 32.2479106,64.196103 C32.2479106,63.5038636 32.1846794,62.9482587 32.0582152,62.5292717 C31.9317509,62.1102847 31.7556069,61.9007943 31.5297778,61.9007943 C31.3129819,61.9007943 31.1413543,62.1102847 31.0148901,62.5292717 C30.8884258,62.9482587 30.8251946,63.5038636 30.8251946,64.196103 C30.8251946,64.9156676 30.8884258,65.4917661 31.0148901,65.9244157 C31.1413543,66.3570654 31.3129819,66.5733869 31.5297778,66.5733869 Z M36.7057543,68.6774198 C36.5431573,67.6937112 36.3105569,66.1794603 36.0079459,64.1346215 C35.705335,62.0897827 35.4953171,60.7030476 35.3778859,59.9743746 C36.2541028,59.9743746 37.2116037,59.9333873 38.2504174,59.8514116 C38.2865501,60.233965 38.3904299,61.1220219 38.56206,62.5156091 C38.7336901,63.9091964 38.8375699,64.8291323 38.8737025,65.2754445 C38.8917689,65.1297099 39.015973,64.341844 39.2463186,62.9118231 C39.4766643,61.4818023 39.632484,60.484446 39.7137825,59.9197244 C40.3280376,59.9197244 41.0642293,59.874183 41.9223798,59.7830989 C42.1662752,61.4043964 42.4508155,63.1577396 42.7760094,65.0431812 C42.8031089,64.7517119 43.0199016,63.0484642 43.4263939,59.9333869 C44.1761464,59.9333869 44.6594134,59.9242787 44.8762093,59.9060618 C45.3640001,59.9060618 45.8517836,59.8741829 46.3395744,59.810424 C45.7433856,63.1805368 45.2736682,66.1042936 44.930408,68.581782 C43.5302677,68.581782 42.3424246,68.6182151 41.366843,68.6910824 C41.2403788,67.9259757 41.0597182,66.751008 40.824856,65.1661441 C40.8158228,65.2481198 40.6532283,66.3821003 40.3370676,68.5681194 C38.8014299,68.5681194 37.5910042,68.6045525 36.7057543,68.6774198 Z" id="Slow" fill="#FFFFFF"/>
                <path d="M9.69526225,27.0185424 C8.85467474,27.0185424 8.10417331,27.5451754 7.81826567,28.3356463 L0.0363111394,49.8510153 C-0.0424242679,50.0687012 -0.0826923302,50.2984242 -0.0826923302,50.5299115 C-0.0826923302,51.6322719 0.810947332,52.5259116 1.91330772,52.5259116 L60.2595318,52.5259116 C60.4910191,52.5259116 60.7207421,52.4856435 60.938428,52.4069081 C61.9750646,52.0319641 62.5114724,50.8876519 62.1365284,49.8510153 L54.3545738,28.3356463 C54.0686662,27.5451754 53.3181648,27.0185424 52.4775773,27.0185424 L9.69526225,27.0185424 Z" id="Rectangle-8" stroke="#FFFFFF" stroke-width="1.5" fill="#ED1B2D"/>
                <path d="M30.9427302,43.1020768 C27.3933273,43.1020768 24.6134657,42.1024964 22.6030617,40.1033056 C20.5926578,38.1041148 19.5874709,35.2451751 19.5874709,31.5264006 L19.5874709,30.7295244 C22.3881716,31.0650529 24.9531312,31.2328146 27.2824268,31.2328146 C27.5874536,31.2328146 27.9410021,31.2258246 28.3430829,31.2118442 C28.7451637,31.1978638 29.0016596,31.1908738 29.1125785,31.1908738 C29.4176053,34.2385912 30.0415144,35.762427 30.9843245,35.762427 C31.5943781,35.762427 32.1212347,35.377973 32.5649101,34.6090535 C33.0085854,33.840134 33.2304198,32.7007521 33.2304198,31.1908738 C33.2304198,30.7994238 33.1472319,30.526811 32.9808536,30.3730271 C32.8144754,30.2192432 32.5371824,30.1143921 32.1489665,30.0584707 C31.0675078,29.9466278 29.6255846,29.7998363 27.8231534,29.6180917 C26.0207223,29.4363471 24.6897162,29.2895555 23.8300952,29.1777127 C22.4158801,28.9819877 21.3413699,28.5555933 20.6065326,27.8985166 C19.8716953,27.2414399 19.5042822,26.1719588 19.5042822,24.6900412 C19.5042822,21.8939701 20.0865974,19.1259013 21.2512451,16.3857517 C22.4158929,13.6456021 24.1212445,11.7303222 26.367351,10.6398545 C27.5042691,10.0806403 28.8630044,9.80103742 30.4435979,9.80103742 C33.9098116,9.80103742 36.7174025,10.7446972 38.866455,12.6320452 C41.0155075,14.5193931 42.0900176,17.3224123 42.0900176,21.0411867 L42.0900176,21.7961221 C41.7018017,21.7961221 41.0778926,21.7751519 40.2182716,21.7332108 C39.3586506,21.6912698 38.7624708,21.6702996 38.4297143,21.6702996 C36.5163643,21.6702996 34.7416895,21.7821407 33.1056367,22.0058264 C32.9392584,18.9301483 32.1489736,17.3923323 30.7347584,17.3923323 C30.3188127,17.3923323 29.9306026,17.7418359 29.5701164,18.4408537 C28.9600628,19.5313214 28.6550406,20.6776933 28.6550406,21.8800038 C28.6550406,22.5510609 29.029386,22.9285248 29.7780882,23.0124069 C33.8266258,23.4597783 36.3361268,23.7254011 37.3066667,23.8092832 C39.2200166,23.9490867 40.5856843,24.3405308 41.4037108,24.9836271 C42.2217372,25.6267235 42.6307443,26.7730954 42.6307443,28.4227773 C42.6307443,30.2122628 42.4089099,31.9458008 41.9652346,33.6234434 C41.5215592,35.301086 40.8491238,36.8668623 39.9479083,38.3208192 C39.0466927,39.7747761 37.8196715,40.9351282 36.2668078,41.8019102 C34.713944,42.6686922 32.9392692,43.1020768 30.9427302,43.1020768 Z" id="S" fill="#FFFFFF"/>
            </g>
        </g>
    </g>
</svg>