<?xml version="1.0" encoding="UTF-8"?>
<svg width="168px" height="222px" viewBox="0 0 168 222" version="1.1" xmlns="http://www.w3.org/2000/svg" xmlns:xlink="http://www.w3.org/1999/xlink">
    <!-- Generator: sketchtool 59.1 (101010) - https://sketch.com -->
    <title>marie</title>
    <desc>Created with sketchtool.</desc>
    <g id="Page-1" stroke="none" stroke-width="1" fill-rule="evenodd">
        <g id="marie">
            <g id="!server">
                <path d="M137,87.9443085 C137,87.9443085 147.916,74.6223085 148.693,72.9443085 C149.47,71.2673085 152.092,71.4043085 151.516,73.5773085 C150.94,75.7513085 148.667,78.4743085 148.667,78.4743085 L160.689,71.5663085 C160.689,71.5663085 162.278,70.3793085 163.159,71.4423085 C164.041,72.5043085 161.552,73.9523085 161.552,73.9523085 L153.922,78.9173085 L163.3,75.2993085 C163.3,75.2993085 165.296,74.6623085 165.878,75.8123085 C166.459,76.9623085 164.004,77.8653085 164.004,77.8653085 L155.045,82.2033085 L164.645,79.4183085 C164.645,79.4183085 167.045,78.7223085 167.571,80.0783085 C168.098,81.4353085 164.656,82.3003085 164.656,82.3003085 L155.699,85.5863085 L161.26,85.5023085 C161.26,85.5023085 162.246,85.5403085 162.065,86.4343085 C161.883,87.3273085 160.635,87.4413085 160.635,87.4413085 C160.635,87.4413085 148.484,89.6093085 145.666,89.5863085 C142.847,89.5633085 138.971,92.6943085 138.971,92.6943085 L137.5,89.1943085 L137,87.9443085" id="Fill-3094" fill="#E6B89C"/>
                <path d="M107.776459,127.463997 C100.932459,127.636997 94.0574589,126.567997 87.5884589,124.326997 C81.0184589,122.051997 74.5854589,118.292997 71.1374589,112.254997 C68.8094589,108.178997 68.0364589,103.423997 67.3264589,98.7829967 C63.8894589,76.3339967 60.9694589,53.8069967 58.5704589,31.2239967 C57.9784589,25.6549967 57.4374589,19.8879967 59.1834589,14.5659967 C61.3824589,7.86899668 67.2494589,2.59299668 74.0574589,0.76399668 C80.8644589,-1.06500332 88.4174589,0.46999668 94.1924589,4.51199668 C96.3644589,6.03199668 98.2894589,7.87299668 100.204459,9.70699668 C101.792459,11.2269967 103.403459,12.7769967 104.476459,14.6959967 C105.935459,17.3059967 106.279459,20.3769967 106.517459,23.3579967 C108.083459,43.0429967 106.254459,62.8529967 107.204459,82.5779967 C107.456459,87.7919967 107.901459,92.9949967 108.347459,98.1969967 C108.761459,103.033997 109.175459,107.870997 109.589459,112.706997 C109.996459,117.456997 110.517459,122.507997 113.474459,126.246997 C111.012459,127.007997 108.124459,126.098997 106.542459,124.065997 C106.530459,125.296997 106.977459,126.526997 107.776459,127.463997" id="Fill-3063" fill="#F2D091"/>
                <polygon id="Fill-3064" fill="#CC9C81" points="78 67.033 88.602 67.033 88.602 53 78 53"/>
                <path d="M96.755,44.2480587 C97.402,44.5180587 86.952,58.3590587 75.85,58.4774608 C65.562,58.5860587 60.623,36.4980587 60.619,36.4650587 C60.537,35.7120587 60,22.1850587 60,15.5790587 C60,8.78205873 92.883,0.915058735 99.218,19.7250587 C100.211,22.6750587 97.74,38.4110587 97.74,38.4110587 C97.74,38.4110587 102.227,35.7120587 102.118,41.6210587 C102.077,43.8210587 96.755,44.2480587 96.755,44.2480587" id="Fill-3065" fill="#E6B89C"/>
                <path d="M86.07,30.714 C86.664,30.882 87.357,30.562 87.613,30 C87.624,30.401 87.433,30.803 87.116,31.048 C87.456,31.25 87.933,31.18 88.202,30.89 C88.179,31.249 87.894,31.548 87.565,31.694 C87.236,31.839 86.868,31.861 86.509,31.88 L86.247,31.838 C86.151,31.774 86.125,31.647 86.107,31.533 C86.071,31.306 86.036,31.079 86,30.853" id="Fill-3066" fill="#1A1A1A"/>
                <path d="M82.0010846,32.7930846 C81.9590846,31.2930846 83.1420846,30.0420846 84.6440846,30.0010846 C86.1440846,29.9590846 87.3940846,31.1420846 87.4360846,32.6440846 C87.4770846,34.1440846 86.2940846,35.3950846 84.7930846,35.4360846 C83.2920846,35.4770846 82.0420846,34.2940846 82.0010846,32.7930846" id="Fill-3067" fill="#333333"/>
                <path d="M65.1198558,31.174 C64.4998558,31.181 63.9318558,30.653 63.8578558,30 C63.7248558,30.412 63.7858558,30.881 64.0158558,31.224 C63.6278558,31.336 63.1918558,31.13 63.0218558,30.754 C62.9348558,31.131 63.1178558,31.521 63.3888558,31.765 C63.6598558,32.008 64.0058558,32.135 64.3448558,32.256 L64.6088558,32.286 C64.7208558,32.247 64.7838558,32.122 64.8358558,32.01 C64.9388558,31.786 65.0428558,31.562 65.1458558,31.338 L65.1198558,31.174" id="Fill-3068" fill="#1A1A1A"/>
                <path d="M64,32.432 C64,31.089 65.089,30 66.433,30 C67.776,30 68.865,31.089 68.865,32.432 C68.865,33.776 67.776,34.865 66.433,34.865 C65.089,34.865 64,33.776 64,32.432" id="Fill-3069" fill="#333333"/>
                <path d="M83.8003012,32.602 C83.3683012,32.602 83.0123012,32.258 83.0003012,31.823 C82.9883012,31.381 83.3363012,31.013 83.7783012,31 C83.7863012,31 83.7933012,31 83.8013012,31 C84.2333012,31 84.5893012,31.344 84.6013012,31.779 C84.6133012,32.221 84.2653012,32.59 83.8223012,32.602 C83.8153012,32.602 83.8073012,32.602 83.8003012,32.602" id="Fill-3070" fill="#8B8B8B"/>
                <path d="M65.661,33.322 C65.296,33.322 65,33.026 65,32.661 C65,32.296 65.296,32 65.661,32 C66.026,32 66.322,32.296 66.322,32.661 C66.322,33.026 66.026,33.322 65.661,33.322" id="Fill-3071" fill="#8B8B8B"/>
                <path d="M70.294,28.5572033 C70.294,28.5572033 66.411,26.9192033 64.08,27.4832033 C63.9,27.5272033 62.676,27.9042033 61,28.8102033 L63.595,26.3012033 C63.595,26.3012033 65.605,25.5392033 69.82,26.4392033 C69.82,26.4392033 71.209,27.1602033 70.294,28.5572033" id="Fill-3072" fill="#8C6239"/>
                <path d="M80.3201007,28.372738 C80.3201007,28.372738 84.7191007,26.915738 87.3091007,27.589738 C87.5091007,27.641738 88.8661007,28.075738 90.7121007,29.059738 L87.8901007,26.429738 C87.8901007,26.429738 85.6651007,25.574738 80.9201007,26.276738 C80.9201007,26.276738 79.3411007,26.932738 80.3201007,28.372738" id="Fill-3073" fill="#8C6239"/>
                <path d="M74.172,43.21 C72.392,43.21 72,42.803 72,42.135 C72,41.715 72.225,40.987 72.616,40.712 C72.419,40.971 72.3,41.346 72.338,41.886 C72.385,42.54 72.835,42.929 74.593,42.929 C75.148,42.929 75.833,42.89 76.677,42.808 C76.538,42.969 76.34,43.081 76.131,43.1 C75.341,43.174 74.696,43.21 74.172,43.21 M74.325,40.166 C74.325,40.166 74.199,40.146 74.01,40.146 C73.995,40.146 73.978,40.146 73.961,40.147 L73.921,35.129 C74.084,35.068 74.239,35.026 74.386,35 L74.325,40.166" id="Fill-3074" fill="#826B5C"/>
                <path d="M74.0562602,35.1556742 L73.9942602,40.3676742 C73.9942602,40.3676742 71.8602602,40.0386742 72.0072602,42.0876742 C72.0732602,42.9926742 72.9102602,43.3896742 76.9232602,42.9506742 L76.9332602,42.9466742 C76.9162602,42.7216742 77.9272602,33.7166742 74.0562602,35.1556742" id="Fill-3075" fill="#FE938C"/>
                <path d="M74.0453491,41.399 C73.7333491,41.399 73.4213491,41.303 73.1493491,41.11 L73.0253491,41.268 C72.9083491,40.782 73.2133491,40.258 73.5913491,40.089 C73.7333491,40.026 73.8793491,40 74.0283491,40 C74.2773491,40 74.5323491,40.073 74.7733491,40.162 C75.0153491,40.252 75.3093491,40.491 75.2233491,40.791 C75.1923491,40.902 75.1133491,40.98 75.0343491,41.043 C74.7413491,41.28 74.3933491,41.399 74.0453491,41.399" id="Fill-3076" fill="#FEC2BE"/>
                <path d="M86.9750716,41.1460029 C85.7700716,41.1460029 84.5720716,40.995 83.4160716,40.644 C82.7450716,40.44 82.0740716,40.157 81.5880716,39.651 C81.1030716,39.145 80.8430716,38.373 81.1020716,37.721 C81.5050716,36.708 82.8190716,36.492 83.9080716,36.43 C86.2100716,36.298 88.5120716,36.165 90.8140716,36.034 C91.1070716,36.017 91.4030716,36 91.6970716,36 C92.1400716,36 92.5790716,36.038 93.0010716,36.167 C93.7030716,36.381 94.3570716,36.908 94.5110716,37.626 C94.6660716,38.35 94.2740716,39.106 93.7020716,39.576 C93.1300716,40.046 92.4040716,40.28 91.6890716,40.473 C90.1570716,40.885 88.5600716,41.147 86.9750716,41.1460029" id="Fill-3077" fill="#F2A594"/>
                <path d="M66.2339475,40.22 C66.0639475,40.22 65.8939475,40.212 65.7249475,40.196 C64.6319475,40.093 63.5799475,39.666 62.6809475,39.035 C62.4509475,38.873 62.2229475,38.69 62.0969475,38.439 C61.8969475,38.042 62.0159475,37.512 62.3659475,37.239 C62.5959475,37.059 62.8749475,37 63.1689475,37 C63.4559475,37 63.7569475,37.057 64.0369475,37.116 C65.2479475,37.367 66.4729475,37.551 67.7049475,37.667 C68.1429475,37.708 68.5949475,37.744 68.9849475,37.948 C69.2449475,38.084 69.4819475,38.322 69.5009475,38.616 C69.5259475,38.99 69.2019475,39.29 68.8839475,39.489 C68.0949475,39.98 67.1639475,40.22 66.2339475,40.22" id="Fill-3078" fill="#F2A594"/>
                <path d="M25.584,129.786 L23,122.214 C30.879,119.525 44.69,113.946 48.214,110.422 C51.069,107.567 57.293,85.25 62.918,69 L67.476,70.73 C65.78,79.872 59.789,110.16 53.871,116.079 C47.887,122.063 27.849,129.013 25.584,129.786" id="Fill-3079" fill="#E6B89C"/>
                <path d="M98.401,42.058 C98.264,42.058 98.127,42.033 98,41.979 C98.355,41.856 98.618,41.502 98.632,41.126 C98.647,40.75 98.412,40.376 98.068,40.227 C98.316,39.654 98.795,39.144 99.408,39.022 C99.484,39.007 99.561,39 99.639,39 C100.134,39 100.638,39.293 100.799,39.745 C100.497,39.692 100.189,39.665 99.882,39.665 C99.683,39.665 99.485,39.676 99.288,39.698 C99.155,39.713 98.989,39.767 98.98,39.9 C98.972,40.005 99.07,40.083 99.15,40.153 C99.534,40.493 99.623,41.119 99.35,41.554 C99.15,41.871 98.774,42.058 98.401,42.058 M100.84,39.901 C100.831,39.847 100.817,39.795 100.799,39.745 C100.853,39.754 100.906,39.765 100.959,39.776 L100.84,39.901" id="Fill-3080" fill="#CCA48B"/>
                <path d="M63.579,68 C63.579,68 59.625,70.586 52,101.211 L60.375,106.961 C60.375,106.961 67.533,69.413 63.579,68" id="Fill-3081" fill="#8E1414"/>
                <path d="M114.511067,152.378 C113.238067,146.609 90.8540671,125.419 90.8470671,125.375 C89.6400671,118.22 105.333067,88.741 105.333067,88.741 C105.333067,88.741 107.792067,70.943 105.378067,69.259 C102.964067,67.575 86.0180671,66 86.0180671,66 L63.0820671,67.048 C63.0820671,67.048 61.8750671,85.461 54.2290671,90.933 C54.2290671,90.933 51.4130671,100.14 60.6680671,103.086 L68.4010671,127.394 C68.4010671,127.394 55.9480671,139.483 52.4560671,154.004 C50.1540671,163.574 57.1630671,203.456 60.1750671,219.817 C71.9560671,222.457 86.3780671,222.457 107.097067,219.613 L110.871067,174.348 C110.871067,174.348 116.877067,163.101 114.511067,152.378" id="Fill-3083" fill="#A31C19"/>
                <path d="M82.776,103.515 C79.86,103.515 76.716,101.935 74,97 C74,97 78.321,100.564 84.484,100.564 C86.905,100.564 89.609,100.015 92.448,98.484 C92.448,98.484 87.976,103.515 82.776,103.515" id="Fill-3084" fill="#7E1614"/>
                <path d="M82.63,47.4566228 C82.63,47.4566228 78.361,45.5906228 76.526,46.0826228 C74.82,46.5396228 74.593,47.1016228 74.593,47.1016228 C74.593,47.1016228 73.964,46.2616228 72.966,46.2956228 C71.968,46.3296228 70,47.2006228 70,47.2006228 C70,47.2006228 70.698,52.7516228 75.308,52.7656683 C81.12,52.7836228 82.63,47.4566228 82.63,47.4566228" id="Fill-3085" fill="#D86F6C"/>
                <path d="M74.405693,51.945 C74.040693,51.945 73.674693,51.862 73.349693,51.694 L73.326693,51.74 C73.051693,51.629 72.916693,51.262 73.054693,51 C73.415693,51.221 73.827693,51.291 74.253693,51.291 C74.659693,51.291 75.078693,51.227 75.478693,51.17 C75.511693,51.165 75.547693,51.163 75.583693,51.163 C75.705693,51.163 75.829693,51.197 75.852693,51.308 C75.875693,51.416 75.777693,51.508 75.685693,51.569 C75.309693,51.819 74.857693,51.945 74.405693,51.945" id="Fill-3086" fill="#E9ADAB"/>
                <path d="M82.697,47.118 C82.697,47.118 75.491,48.592 70,47 C70,47 73.397,54.567 82.697,47.118" id="Fill-3087" fill="#FFFFFF"/>
                <path d="M85.0970611,66 L91.7220611,66.875 C91.7220611,66.875 85.8470611,72.875 78.0970611,72.875 C70.3470611,72.875 75.9720611,66.875 75.9720611,66.875 C75.9720611,66.875 82.0970611,66 85.0970611,66" id="Fill-3095" fill="#CC9C81"/>
                <path d="M112.125,119.962 C110.735,119.962 108.625,118.62 107.875,116.62 C105.448,110.148 102.268,90.026 101,76.37 L107.108,76 C108.402,89.928 112.538,103.183 114.687,108.37 C119.886,105.166 130.832,94.457 141.25,81.37 L145.937,88.495 C145.872,88.576 141.683,93.856 134.38,101.983 C120.567,117.355 115.644,119.687 112.65,119.939 C112.473,119.954 112.299,119.962 112.125,119.962" id="Fill-3096" fill="#E6B89C"/>
                <path d="M103.231622,69.0144348 C103.231622,69.0144348 107.231622,68.1394348 109.731622,80.0144348 C112.231622,91.8894348 114.981622,106.639435 114.981622,106.639435 L104.981622,113.389435 L100.106622,91.1394348 C100.106622,91.1394348 99.1066222,69.3894348 103.231622,69.0144348" id="Fill-3097" fill="#8E1414"/>
                <polyline id="Fill-3098" fill="#C6841A" points="96.16 82.966 80.819 81 80 87.393 95.341 89.358 96.16 82.966"/>
                <polyline id="Fill-3099" fill="#E5A74E" points="94.287 83.616 81.673 82 81 87.255 93.613 88.872 94.287 83.616"/>
                <path d="M91.4784203,84.528 C91.4654203,84.528 91.4524203,84.527 91.4394203,84.525 L84.2654203,83.606 C84.0994203,83.585 83.9814203,83.432 84.0024203,83.266 C84.0224203,83.113 84.1534203,83 84.3044203,83 C84.3174203,83 84.3304203,83.001 84.3434203,83.003 L91.5164203,83.922 C91.6824203,83.943 91.8014203,84.096 91.7794203,84.262 C91.7604203,84.415 91.6284203,84.528 91.4784203,84.528" id="Fill-3100" fill="#AA7D3C"/>
                <path d="M93.2826209,86.887 C93.2696209,86.887 93.2576209,86.887 93.2446209,86.885 L83.2656209,85.606 C83.0996209,85.585 82.9806209,85.432 83.0026209,85.266 C83.0216209,85.113 83.1536209,85 83.3046209,85 C83.3166209,85 83.3296209,85.001 83.3426209,85.003 L93.3216209,86.281 C93.4876209,86.303 93.6056209,86.455 93.5846209,86.621 C93.5646209,86.775 93.4336209,86.887 93.2826209,86.887" id="Fill-3101" fill="#AA7D3C"/>
                <path d="M100.803829,24.299102 C100.640829,29.156102 100.259829,34.306102 97.4298291,38.257102 C95.2248291,31.545102 93.0208291,24.834102 90.8168291,18.122102 C90.0798291,15.878102 89.1708291,13.422102 87.0828291,12.315102 C80.8978291,18.126102 73.2818291,22.166102 65.6128291,25.804102 C63.4058291,26.851102 61.0778291,27.962102 59.7058291,29.982102 C59.2778291,27.883102 58.8758291,25.778102 58.4998291,23.670102 C58.0708291,21.259102 57.6798291,18.738102 58.3978291,16.397102 C58.9088291,14.735102 59.9488291,13.282102 61.1128291,11.990102 C65.7478291,6.841102 72.6858291,3.846102 79.6118291,4.006102 C86.5388291,4.165102 93.3308291,7.476102 97.7248291,12.833102 C98.5878291,13.885102 99.3668291,15.019102 99.8898291,16.276102 C100.932829,18.781102 100.894829,21.587102 100.803829,24.299102" id="Fill-3102" fill="#F2D091"/>
                <path d="M63,10.352 C63.718,9.147 64.86,8.169 66.022,7.342 C70.879,3.886 76.832,2 82.791,2 C83.311,2 83.83,2.014 84.349,2.043 C81.91,2.606 79.514,3.352 77.187,4.272 C71.974,4.709 66.911,6.879 63,10.352" id="Fill-3103" fill="#F8E6C3"/>
                <path d="M62.0340996,21.151 C61.7750996,19.713 63.0400996,18.497 64.1820996,17.584 C65.9190996,16.197 67.6550996,14.811 69.3920996,13.425 C67.3400996,13.647 65.3220996,14.179 63.4270996,14.996 C64.6740996,12.718 66.2430996,10.616 68.0740996,8.773 C67.9410996,8.763 67.8080996,8.757 67.6750996,8.757 C65.7860996,8.757 63.9200996,9.828 62.9950996,11.48 C63.1240996,10.981 63.3280996,10.516 63.5870996,10.08 C67.4980996,6.607 72.5610996,4.437 77.7740996,4 C75.3430996,4.961 72.9860996,6.111 70.7340996,7.438 C72.1170996,7.474 73.4990996,7.509 74.8820996,7.545 C73.2520996,8.68 71.8920996,10.202 70.9460996,11.949 C76.6880996,10.672 82.3310996,8.943 87.8040996,6.784 C87.6190996,7.437 87.0340996,7.884 86.4770996,8.272 C81.8320996,11.511 76.7310996,14.094 71.3710996,15.92 C67.9290996,17.092 64.0940996,18.155 62.0340996,21.151" id="Fill-3104" fill="#F8E6C3"/>
                <path d="M17.08,121.91 C19.92,121.43 21.6,121.96 21.6,121.96 C21.6,121.96 31.57,127.29 32.41,128.44 C33.25,129.6 32.3,130.13 31.95,130.34 C31.8,130.43 29.77,129.48 27.57,128.41 L31.69,131.86 C31.69,131.86 32.59,133.39 31.18,133.4 C30.38,133.41 30.04,133.27 29.89,133.15 C30.08,133.45 30.43,134.03 30.22,134.23 C29.93,134.5 29.06,135.03 28.18,134.24 C28.18,134.24 28.58,135.08 27.86,135.53 C27.13,135.97 21.45,130.84 21.45,130.84 L16.31,129.97 L16.24,130.05 C15.82,130.65 16.27,131.48 16.81,131.97 C17.98,133.02 19.6,133.54 20.6,134.75 C20.85,135.05 21.06,135.41 21.04,135.79 C21.03,136.18 20.72,136.57 20.33,136.55 C20.19,136.54 20.05,136.48 19.92,136.42 C15.43,134.34 10.96,132.23 6.72,129.66 C6.29,129.4 5.11,128.64 5.1,128.13 L0,125.83 L1.74747807,120.5 L6.81,121.77 C6.81,121.77 14.24,122.4 17.08,121.91 Z" id="Fill-101" fill="#E6B89C" transform="translate(16.373739, 128.525369) scale(-1, 1) translate(-16.373739, -128.525369) "/>
            </g>
        </g>
    </g>
</svg>