<?xml version="1.0" encoding="UTF-8"?>
<svg width="32px" height="44px" viewBox="0 0 32 44" version="1.1" xmlns="http://www.w3.org/2000/svg" xmlns:xlink="http://www.w3.org/1999/xlink">
    <!-- Generator: sketchtool 50.2 (55047) - http://www.bohemiancoding.com/sketch -->
    <title>marie-head</title>
    <desc>Created with sketchtool.</desc>
    <defs/>
    <g stroke="none" stroke-width="1" fill-rule="evenodd">
        <g>
            <g>
                <path d="M3.08017637,42.88 C2.0821586,35.2591963 1.17700486,27.6262882 0.365093697,19.9833579 C-0.0137863029,16.4191979 -0.360026303,12.7283179 0.757413697,9.32223788 C2.1647737,5.03615788 5.9196537,1.65951788 10.2767737,0.488957875 C14.6332537,-0.681602125 19.4671737,0.300797875 23.1631737,2.88767788 C24.5532537,3.86047788 25.7852537,5.03871788 27.0108537,6.21247788 C28.0271737,7.18527788 29.0582137,8.17727788 29.7449337,9.40543788 C30.6786937,11.0758379 30.8988537,13.0412779 31.0511737,14.9491179 C31.7898051,24.2338934 31.3483012,33.5621202 31.3083276,42.88 L3.08017639,42.88 Z" fill="#F2D091"/>
                <polygon fill="#CC9C81" points="12.8 42.90112 19.58528 42.90112 19.58528 33.92 12.8 33.92"/>
                <path d="M24.8032,28.3187576 C25.21728,28.4915576 18.52928,37.3497976 11.424,37.4253176 C4.83968,37.4950776 1.67872,23.3587576 1.67616,23.3376376 C1.62368,22.8557176 1.28,14.1984376 1.28,9.97059759 C1.28,5.62051759 22.32512,0.58563759 26.37952,12.6240376 C27.01504,14.5120376 25.4336,24.5830776 25.4336,24.5830776 C25.4336,24.5830776 28.30528,22.8557176 28.23552,26.6374776 C28.20928,28.0454776 24.8032,28.3187576 24.8032,28.3187576" fill="#E6B89C"/>
                <path d="M17.9648,19.65696 C18.34496,19.76448 18.78848,19.55968 18.95232,19.2 C18.95936,19.45664 18.83712,19.71392 18.63424,19.87072 C18.85184,20 19.15712,19.9552 19.32928,19.7696 C19.31456,19.99936 19.13216,20.19072 18.9216,20.28416 C18.71104,20.37696 18.47552,20.39104 18.24576,20.4032 L18.07808,20.37632 C18.01664,20.33536 18,20.25408 17.98848,20.18112 C17.96544,20.03584 17.94304,19.89056 17.92,19.74592" fill="#1A1A1A"/>
                <path d="M15.3606941,20.9875741 C15.3338141,20.0275741 16.0909341,19.2269341 17.0522141,19.2006941 C18.0122141,19.1738141 18.8122141,19.9309341 18.8390941,20.8922141 C18.8653341,21.8522141 18.1082141,22.6528541 17.1475741,22.6790941 C16.1869341,22.7053341 15.3869341,21.9482141 15.3606941,20.9875741" fill="#333333"/>
                <path d="M4.55670773,19.95136 C4.15990773,19.95584 3.79638773,19.61792 3.74902773,19.2 C3.66390773,19.46368 3.70294773,19.76384 3.85014773,19.98336 C3.60182773,20.05504 3.32278773,19.9232 3.21398773,19.68256 C3.15830773,19.92384 3.27542773,20.17344 3.44886773,20.3296 C3.62230773,20.48512 3.84374773,20.5664 4.06070773,20.64384 L4.22966773,20.66304 C4.30134773,20.63808 4.34166773,20.55808 4.37494773,20.4864 C4.44086773,20.34304 4.50742773,20.19968 4.57334773,20.05632 L4.55670773,19.95136" fill="#1A1A1A"/>
                <path d="M3.84,20.75648 C3.84,19.89696 4.53696,19.2 5.39712,19.2 C6.25664,19.2 6.9536,19.89696 6.9536,20.75648 C6.9536,21.61664 6.25664,22.3136 5.39712,22.3136 C4.53696,22.3136 3.84,21.61664 3.84,20.75648" fill="#333333"/>
                <path d="M16.5121928,20.86528 C16.2357128,20.86528 16.0078728,20.64512 16.0001928,20.36672 C15.9925128,20.08384 16.2152328,19.84832 16.4981128,19.84 C16.5032328,19.84 16.5077128,19.84 16.5128328,19.84 C16.7893128,19.84 17.0171528,20.06016 17.0248328,20.33856 C17.0325128,20.62144 16.8097928,20.8576 16.5262728,20.86528 C16.5217928,20.86528 16.5166728,20.86528 16.5121928,20.86528" fill="#8B8B8B"/>
                <path d="M4.90304,21.32608 C4.66944,21.32608 4.48,21.13664 4.48,20.90304 C4.48,20.66944 4.66944,20.48 4.90304,20.48 C5.13664,20.48 5.32608,20.66944 5.32608,20.90304 C5.32608,21.13664 5.13664,21.32608 4.90304,21.32608" fill="#8B8B8B"/>
                <path d="M7.86816,18.2766101 C7.86816,18.2766101 5.38304,17.2282901 3.8912,17.5892501 C3.776,17.6174101 2.99264,17.8586901 1.92,18.4385301 L3.5808,16.8327701 C3.5808,16.8327701 4.8672,16.3450901 7.5648,16.9210901 C7.5648,16.9210901 8.45376,17.3825301 7.86816,18.2766101" fill="#8C6239"/>
                <path d="M14.2848644,18.1585523 C14.2848644,18.1585523 17.1002244,17.2260723 18.7578244,17.6574323 C18.8858244,17.6907123 19.7543044,17.9684723 20.9357444,18.5982323 L19.1296644,16.9150323 C19.1296644,16.9150323 17.7056644,16.3678323 14.6688644,16.8171123 C14.6688644,16.8171123 13.6583044,17.2369523 14.2848644,18.1585523" fill="#8C6239"/>
                <path d="M10.35008,27.6544 C9.21088,27.6544 8.96,27.39392 8.96,26.9664 C8.96,26.6976 9.104,26.23168 9.35424,26.05568 C9.22816,26.22144 9.152,26.46144 9.17632,26.80704 C9.2064,27.2256 9.4944,27.47456 10.61952,27.47456 C10.97472,27.47456 11.41312,27.4496 11.95328,27.39712 C11.86432,27.50016 11.7376,27.57184 11.60384,27.584 C11.09824,27.63136 10.68544,27.6544 10.35008,27.6544 M10.448,25.70624 C10.448,25.70624 10.36736,25.69344 10.2464,25.69344 C10.2368,25.69344 10.22592,25.69344 10.21504,25.69408 L10.18944,22.48256 C10.29376,22.44352 10.39296,22.41664 10.48704,22.4 L10.448,25.70624" fill="#826B5C"/>
                <path d="M10.2760065,22.4996315 L10.2363265,25.8353115 C10.2363265,25.8353115 8.87056652,25.6247515 8.96464652,26.9361115 C9.00688652,27.5153115 9.54256652,27.7693915 12.1108865,27.4884315 L12.1172865,27.4858715 C12.1064065,27.3418715 12.7534465,21.5786715 10.2760065,22.4996315" fill="#FE938C"/>
                <path d="M10.2690234,26.49536 C10.0693434,26.49536 9.8696634,26.43392 9.6955834,26.3104 L9.6162234,26.41152 C9.5413434,26.10048 9.7365434,25.76512 9.9784634,25.65696 C10.0693434,25.61664 10.1627834,25.6 10.2581434,25.6 C10.4175034,25.6 10.5807034,25.64672 10.7349434,25.70368 C10.8898234,25.76128 11.0779834,25.91424 11.0229434,26.10624 C11.0031034,26.17728 10.9525434,26.2272 10.9019834,26.26752 C10.7144634,26.4192 10.4917434,26.49536 10.2690234,26.49536" fill="#FEC2BE"/>
                <path d="M18.5440458,26.33344 C17.7728458,26.33344 17.0061258,26.2368 16.2662858,26.01216 C15.8368458,25.8816 15.4074058,25.70048 15.0963658,25.37664 C14.7859658,25.0528 14.6195658,24.55872 14.7853258,24.14144 C15.0432458,23.49312 15.8842058,23.35488 16.5811658,23.3152 C18.0544458,23.23072 19.5277258,23.1456 21.0010058,23.06176 C21.1885258,23.05088 21.3779658,23.04 21.5661258,23.04 C21.8496458,23.04 22.1306058,23.06432 22.4006858,23.14688 C22.8499658,23.28384 23.2685258,23.62112 23.3670858,24.08064 C23.4662858,24.544 23.2154058,25.02784 22.8493258,25.32864 C22.4832458,25.62944 22.0186058,25.7792 21.5610058,25.90272 C20.5805258,26.1664 19.5584458,26.33408 18.5440458,26.33344" fill="#F2A594"/>
                <path d="M5.26972642,25.7408 C5.16092642,25.7408 5.05212642,25.73568 4.94396642,25.72544 C4.24444642,25.65952 3.57116642,25.38624 2.99580642,24.9824 C2.84860642,24.87872 2.70268642,24.7616 2.62204642,24.60096 C2.49404642,24.34688 2.57020642,24.00768 2.79420642,23.83296 C2.94140642,23.71776 3.11996642,23.68 3.30812642,23.68 C3.49180642,23.68 3.68444642,23.71648 3.86364642,23.75424 C4.63868642,23.91488 5.42268642,24.03264 6.21116642,24.10688 C6.49148642,24.13312 6.78076642,24.15616 7.03036642,24.28672 C7.19676642,24.37376 7.34844642,24.52608 7.36060642,24.71424 C7.37660642,24.9536 7.16924642,25.1456 6.96572642,25.27296 C6.46076642,25.5872 5.86492642,25.7408 5.26972642,25.7408" fill="#F2A594"/>
                <path d="M25.85664,26.91712 C25.76896,26.91712 25.68128,26.90112 25.6,26.86656 C25.8272,26.78784 25.99552,26.56128 26.00448,26.32064 C26.01408,26.08 25.86368,25.84064 25.64352,25.74528 C25.80224,25.37856 26.1088,25.05216 26.50112,24.97408 C26.54976,24.96448 26.59904,24.96 26.64896,24.96 C26.96576,24.96 27.28832,25.14752 27.39136,25.4368 C27.19808,25.40288 27.00096,25.3856 26.80448,25.3856 C26.67712,25.3856 26.5504,25.39264 26.42432,25.40672 C26.3392,25.41632 26.23296,25.45088 26.2272,25.536 C26.22208,25.6032 26.2848,25.65312 26.336,25.69792 C26.58176,25.91552 26.63872,26.31616 26.464,26.59456 C26.336,26.79744 26.09536,26.91712 25.85664,26.91712 M27.4176,25.53664 C27.41184,25.50208 27.40288,25.4688 27.39136,25.4368 C27.42592,25.44256 27.45984,25.4496 27.49376,25.45664 L27.4176,25.53664" fill="#CCA48B"/>
                <path d="M15.7632,30.3722386 C15.7632,30.3722386 13.03104,29.1779986 11.85664,29.4928786 C10.7648,29.7853586 10.61952,30.1450386 10.61952,30.1450386 C10.61952,30.1450386 10.21696,29.6074386 9.57824,29.6291986 C8.93952,29.6509586 7.68,30.2083986 7.68,30.2083986 C7.68,30.2083986 8.12672,33.7610386 11.07712,33.7699986 C14.7968,33.7815186 15.7632,30.3722386 15.7632,30.3722386" fill="#D86F6C"/>
                <path d="M10.4996435,33.2448 C10.2660435,33.2448 10.0318035,33.19168 9.82380351,33.08416 L9.80908351,33.1136 C9.63308351,33.04256 9.54668351,32.80768 9.63500351,32.64 C9.86604351,32.78144 10.1297235,32.82624 10.4023635,32.82624 C10.6622035,32.82624 10.9303635,32.78528 11.1863635,32.7488 C11.2074835,32.7456 11.2305235,32.74432 11.2535635,32.74432 C11.3316435,32.74432 11.4110035,32.76608 11.4257235,32.83712 C11.4404435,32.90624 11.3777235,32.96512 11.3188435,33.00416 C11.0782035,33.16416 10.7889235,33.2448 10.4996435,33.2448" fill="#E9ADAB"/>
                <path d="M15.80608,30.15552 C15.80608,30.15552 11.19424,31.09888 7.68,30.08 C7.68,30.08 9.85408,34.92288 15.80608,30.15552" fill="#FFFFFF"/>
                <path d="M27.3944507,15.5514253 C27.2901307,18.6599053 27.0462907,21.9559053 25.2350907,24.4845453 C23.8238907,20.1888653 22.4133307,15.8938253 21.0027707,11.5981453 C20.5310907,10.1619853 19.9493307,8.59014528 18.6130107,7.88166528 C14.6546107,11.6007053 9.78037065,14.1863053 4.87221065,16.5146253 C3.45973065,17.1847053 1.96981065,17.8957453 1.09173065,19.1885453 C0.817810653,17.8451853 0.560530653,16.4979853 0.319890653,15.1488653 C0.0453306532,13.6058253 -0.204909347,11.9923853 0.254610653,10.4941453 C0.581650653,9.43046528 1.24725065,8.50054528 1.99221065,7.67366528 C4.95861065,4.37830528 9.39893065,2.46150528 13.8315707,2.56390528 C18.2648507,2.66566528 22.6117307,4.78470528 25.4238907,8.21318528 C25.9762107,8.88646528 26.4747707,9.61222528 26.8094907,10.4167053 C27.4770107,12.0199053 27.4526907,13.8157453 27.3944507,15.5514253" fill="#F2D091"/>
                <path d="M3.2,6.62528 C3.65952,5.85408 4.3904,5.22816 5.13408,4.69888 C8.24256,2.48704 12.05248,1.28 15.86624,1.28 C16.19904,1.28 16.5312,1.28896 16.86336,1.30752 C15.3024,1.66784 13.76896,2.14528 12.27968,2.73408 C8.94336,3.01376 5.70304,4.40256 3.2,6.62528" fill="#F8E6C3"/>
                <path d="M2.58182374,13.53664 C2.41606374,12.61632 3.22566374,11.83808 3.95654374,11.25376 C5.06822374,10.36608 6.17926374,9.47904 7.29094374,8.592 C5.97766374,8.73408 4.68614374,9.07456 3.47334374,9.59744 C4.27142374,8.13952 5.27558374,6.79424 6.44742374,5.61472 C6.36230374,5.60832 6.27718374,5.60448 6.19206374,5.60448 C4.98310374,5.60448 3.78886374,6.28992 3.19686374,7.3472 C3.27942374,7.02784 3.40998374,6.73024 3.57574374,6.4512 C6.07878374,4.22848 9.31910374,2.83968 12.6554237,2.56 C11.0995837,3.17504 9.59110374,3.91104 8.14982374,4.76032 C9.03494374,4.78336 9.91942374,4.80576 10.8045437,4.8288 C9.76134374,5.5552 8.89094374,6.52928 8.28550374,7.64736 C11.9603837,6.83008 15.5719037,5.72352 19.0746237,4.34176 C18.9562237,4.75968 18.5818237,5.04576 18.2253437,5.29408 C15.2525437,7.36704 11.9879037,9.02016 8.55750374,10.1888 C6.35462374,10.93888 3.90022374,11.6192 2.58182374,13.53664" fill="#F8E6C3"/>
            </g>
        </g>
    </g>
</svg>