<?xml version="1.0" encoding="UTF-8"?>
<svg width="32px" height="47px" viewBox="0 0 32 47" version="1.1" xmlns="http://www.w3.org/2000/svg" xmlns:xlink="http://www.w3.org/1999/xlink">
    <!-- Generator: sketchtool 50.2 (55047) - http://www.bohemiancoding.com/sketch -->
    <title>mr-slow-head</title>
    <desc>Created with sketchtool.</desc>
    <defs/>
    <g id="Page-1" stroke="none" stroke-width="1" fill-rule="evenodd">
        <g id="mr-slow-head">
            <g id="!chef-head">
                <path d="M22.7330104,2.90905477 C22.4415642,2.90905477 22.157995,2.92825477 21.8808258,2.95927015 C21.8980565,2.79090092 21.9005181,2.62154707 21.8749181,2.45170092 C21.620395,0.743885535 19.2376258,-0.316052927 16.5540565,0.0846855349 C14.7581181,0.352993227 13.2861181,1.20813169 12.5826104,2.25576246 C11.4296258,1.6571163 9.63713346,1.6891163 7.88944115,2.46154707 C5.47762577,3.52788553 4.05042577,5.6059163 4.61214884,7.17145477 C3.725995,7.45207015 2.80144115,7.99754707 1.98224115,8.7867163 C0.0277796127,10.6693009 -0.585635772,13.2037009 0.612641151,14.4477625 C1.81042577,15.6913317 4.365995,15.173424 6.32045654,13.2908394 C7.78901038,11.8759471 10.381995,12.3653009 10.1368258,11.039024 C10.8329488,10.9661625 10.7463027,9.75360861 11.4768873,9.43065477 C12.8681488,8.81576246 13.4333181,9.53354707 13.9783027,8.53760861 C14.9767027,9.1515163 15.8933796,6.50634707 17.4771335,6.27003938 C17.5977488,6.251824 17.7154104,6.22819323 17.8330719,6.20505477 C17.9714104,7.85280861 20.1090104,9.16283938 22.7330104,9.16283938 C25.4466104,9.16283938 27.6462412,7.7627163 27.6462412,6.03619323 C27.6462412,4.30917784 25.4466104,2.90905477 22.7330104,2.90905477" id="Fill-2902" fill="#FFFFFF"/>
                <polygon id="Fill-2905" fill="#CC9C81" points="16.7384615 46.8224 21.2425846 46.8224 21.2425846 40.8615385 16.7384615 40.8615385"/>
                <path d="M12.6748867,35.2754374 C12.6748867,35.2754374 13.7402405,40.5746374 16.9919328,41.017222 C20.2441175,41.460299 26.3472559,41.9097759 29.5955021,40.423499 C32.8437482,38.9377144 31.7961175,36.5741451 31.7961175,36.5741451 L29.6083021,28.0134067 C29.6083021,28.0134067 29.4025175,21.5479297 28.547379,18.5773451 C27.6927328,15.6067605 27.3338405,15.1686067 26.5559944,14.3814067 C25.7781482,13.5942067 19.3294098,13.1683605 16.0590098,15.8553759 C12.7886098,18.5428836 8.38294822,19.788422 8.6886713,21.170822 C8.99488668,22.553222 11.9895944,32.2561144 11.9895944,32.2561144 C11.9895944,32.2561144 8.52768668,29.805899 8.37211745,34.2159913 C8.24017899,37.9688528 12.6748867,35.2754374 12.6748867,35.2754374" id="Fill-2906" fill="#CA9A7D"/>
                <path d="M19.1637585,25.5102749 C18.9747124,24.8540288 18.2899124,24.4749519 17.6336662,24.663998 C16.9769277,24.8530442 16.5983431,25.5378442 16.786897,26.1940903 C16.9759431,26.8503365 17.6612354,27.2294134 18.3169893,27.0403672 C18.9737277,26.8518134 19.3523124,26.1665211 19.1637585,25.5102749" id="Fill-2907" fill="#1A1A1A"/>
                <path d="M27.0998299,24.8583898 C26.9442607,24.3188206 26.381553,24.0081744 25.8429684,24.162759 C25.3038914,24.317836 24.992753,24.8805436 25.1473376,25.4196206 C25.3024145,25.9586975 25.8651222,26.2703283 26.4046914,26.114759 C26.943276,25.9601744 27.2549068,25.3969744 27.0998299,24.8583898" id="Fill-2908" fill="#1A1A1A"/>
                <path d="M29.0151385,32.9846154 C29.0151385,32.9846154 27.2881231,36.4982154 25.6797538,36.7665231 C24.0718769,37.0343385 20.6769231,34.5629538 20.6769231,34.5629538 L29.0151385,32.9846154" id="Fill-2909" fill="#FFFFFF"/>
                <path d="M23.6657231,30.9435077 C23.3531077,30.9435077 23.0336,30.8873846 22.7249231,30.7574154 C22.912,30.8322462 23.1374769,30.8672 23.3816615,30.8672 C24.5484308,30.8672 26.1351385,30.0686769 25.9160615,29.0171077 C25.7427692,28.1851077 24.8866462,28.0349538 24.2924308,28.0349538 C23.9576615,28.0349538 23.7060923,28.0827077 23.7060923,28.0827077 C25.0402462,24.8536615 23.0596923,23.6992 23.0596923,23.6992 C23.0838154,23.6558769 23.1286154,23.6307692 23.1753846,23.6307692 C23.1970462,23.6307692 23.2187077,23.6361846 23.2393846,23.6475077 C23.3127385,23.6878769 25.0072615,24.6700308 24.0162462,27.9778462 C24.0659692,27.9758769 24.1230769,27.9744 24.1860923,27.9744 C24.7650462,27.9744 25.8372923,28.0950154 26.0489846,28.9609846 C26.1582769,29.408 25.9352615,29.9140923 25.4503385,30.3133538 C25.1874462,30.5304615 24.8369231,30.7180308 24.4455385,30.8307692 C24.1984,30.9021538 23.9345231,30.9435077 23.6657231,30.9435077 M22.6540308,30.7264 C22.6510769,30.7249231 22.6486154,30.7239385 22.6461538,30.7224615 C22.6486154,30.7239385 22.6510769,30.7249231 22.6540308,30.7264" id="Fill-2910" fill="#826B5C"/>
                <path d="M15.6304251,24.1682499 C15.6304251,24.1682499 18.3164558,23.6365576 19.5457481,21.7534807 C19.5457481,21.7534807 19.4408866,20.9254192 18.7260558,20.6960038 C18.0112251,20.4665884 16.6903635,22.3639422 15.1873481,23.2722499 C14.0348558,23.9693576 15.6304251,24.1682499 15.6304251,24.1682499" id="Fill-2911" fill="#333333"/>
                <path d="M27.5224733,22.9700923 C27.5224733,22.9700923 24.7389656,22.2966154 24.3352733,21.9416615 C23.9320733,21.5867077 24.1457348,20.8635077 24.6217963,20.6769231 C24.6217963,20.6769231 27.2561348,21.7147077 27.5273963,22.1858462 C27.7981656,22.6564923 27.5224733,22.9700923 27.5224733,22.9700923" id="Fill-2912" fill="#333333"/>
                <path d="M23.3006506,24.1230769 C23.3006506,24.1230769 25.2812045,25.2775385 23.9470506,28.5065846 C23.9470506,28.5065846 25.8862506,28.1403077 26.1570199,29.4409846 C26.4277891,30.7411692 23.9381891,31.6548923 22.8949891,31.1502769 C21.8512968,30.6451692 21.8429276,24.7438769 23.3006506,24.1230769" id="Fill-2913" fill="#C08968"/>
                <path d="M18.4738462,28.1097846 C18.1794462,28.1097846 17.8884923,27.9916308 17.7230769,27.7518769 C17.8697846,27.8129231 18.0268308,27.84 18.1853538,27.84 C18.4004923,27.84 18.6176,27.7902769 18.8164923,27.7065846 C19.1616,27.5618462 19.4594462,27.3240615 19.7410462,27.0769231 C19.5746462,27.4786462 19.2940308,27.8537846 18.8947692,28.0251077 C18.7633231,28.0812308 18.6180923,28.1097846 18.4738462,28.1097846" id="Fill-2914" fill="#826B5C"/>
                <path d="M25.8806154,27.1960615 C25.8353231,27.1960615 25.7900308,27.1931077 25.7447385,27.1876923 C25.4562462,27.0956308 25.2150154,26.8672 25.1076923,26.5846154 C25.3420308,26.7815385 25.6379077,26.8676923 25.9431385,26.8676923 C26.2808615,26.8676923 26.6294154,26.7618462 26.9179077,26.5846154 C26.7175385,26.9558154 26.3010462,27.1960615 25.8806154,27.1960615" id="Fill-2915" fill="#826B5C"/>
                <path d="M11.8237413,34.6855385 C11.6922952,34.2493538 11.4963567,33.7486769 11.0572182,33.6315077 C10.9809105,33.6108308 10.9021413,33.6044308 10.8228798,33.6044308 C10.7662644,33.6044308 10.709649,33.6073846 10.6540182,33.6118154 C10.351249,33.6344615 10.031249,33.6900923 9.8067567,33.8939077 C9.67137209,34.0169846 9.56847978,34.1947077 9.39174132,34.2434462 C9.25192593,33.8382769 9.51727978,33.3814154 9.88798747,33.1652923 C10.0942644,33.0446769 10.3330336,32.9846154 10.5718029,32.9846154 C10.8647259,32.9846154 11.157649,33.0752 11.3900182,33.2544 C11.8109413,33.5798154 11.9985105,34.1824 11.8237413,34.6855385" id="Fill-2916" fill="#826B5C"/>
                <path d="M24.5979345,29.3006769 C24.5472268,29.3006769 24.4965191,29.2977231 24.4458114,29.2913231 C24.3616268,29.2804923 24.275473,29.2588308 24.2095038,29.2051692 C24.1435345,29.1515077 24.1036576,29.0584615 24.1327038,28.9787077 C24.1711038,28.8728615 24.3040268,28.8344615 24.377873,28.7517538 L24.3064884,28.7463385 C24.4837191,28.6217846 24.7003345,28.5538462 24.9174422,28.5538462 C24.9509191,28.5538462 24.9843961,28.5553231 25.017873,28.5587692 C25.1301191,28.5696 25.2502422,28.6055385 25.3132576,28.6985846 C25.3797191,28.7970462 25.3605191,28.9363692 25.2911038,29.0333538 C25.2221807,29.1303385 25.1123961,29.1904 25.0006422,29.2307692 C24.8716576,29.2770462 24.7347961,29.3006769 24.5979345,29.3006769" id="Fill-2917" fill="#FEC2BE"/>
                <path d="M18.0878873,25.8363077 C17.9293642,25.8363077 17.7836412,25.7324308 17.7373642,25.5729231 C17.6817335,25.3794462 17.7934873,25.1776 17.9869642,25.1219692 C18.0209335,25.1121231 18.0544104,25.1076923 18.0878873,25.1076923 C18.2459181,25.1076923 18.3921335,25.2115692 18.4379181,25.3715692 C18.4935489,25.5645538 18.381795,25.7664 18.1883181,25.8220308 C18.1548412,25.8318769 18.1208719,25.8363077 18.0878873,25.8363077" id="Fill-2918" fill="#7D7D7D"/>
                <path d="M26.368356,25.1672615 C26.248233,25.1672615 26.137956,25.0884923 26.1030022,24.9678769 C26.061156,24.8211692 26.145833,24.6680615 26.2920483,24.6262154 C26.3176483,24.6188308 26.3432483,24.6153846 26.368356,24.6153846 C26.4884791,24.6153846 26.598756,24.6941538 26.6337099,24.8147692 C26.6760483,24.9614769 26.5913714,25.1140923 26.4446637,25.1564308 C26.4190637,25.1638154 26.3934637,25.1672615 26.368356,25.1672615" id="Fill-2919" fill="#7D7D7D"/>
                <path d="M9.04921595,21.5517538 C9.2062621,21.3124923 9.46767748,21.1672615 9.71973902,21.0323692 C10.9042313,20.3968 12.1015236,19.7858462 13.3111236,19.2 C12.4766621,22.3862154 12.3496467,25.7555692 12.9414006,28.9954462 C12.9748775,29.1805538 13.0113083,29.3691077 12.9881698,29.5561846 C12.9679852,29.7230769 12.9010313,29.8796308 12.8449083,30.0381538 C12.574139,30.8007385 12.542139,31.6460308 12.7548159,32.4268308 C12.5441083,32.4824615 12.3329083,32.5376 12.1222006,32.5932308 C12.0542621,32.6109538 11.9794313,32.6281846 11.9164159,32.5971692 C11.8366621,32.5582769 11.8090929,32.4603077 11.7898929,32.3736615 C11.2975852,30.1366154 10.6585698,28.6848 9.80983133,25.8264615 C9.46275441,24.6567385 8.83949287,23.5209846 8.86213902,22.3015385 C8.8670621,22.0406154 8.9054621,21.7698462 9.04921595,21.5517538" id="Fill-2921" fill="#1A1A1A"/>
                <path d="M9.34498462,25.261341 C9.34498462,25.261341 20.1993846,16.9083564 28.4627692,18.650141 L23.8173538,5.83094102 C23.8173538,5.83094102 21.1372308,4.62478718 15.6878769,6.3222641 C10.2385231,8.01924872 4.92307692,13.1116795 4.92307692,13.1116795 L9.34498462,25.261341" id="Fill-2923" fill="#D22424"/>
                <path d="M25.5409231,33.0161027 C25.5409231,33.0161027 25.7196308,34.0878566 24.1117538,34.8622566 C22.5038769,35.6366566 18.2749538,35.1005335 18.2153846,33.1948104 C18.2153846,33.1948104 19.4663385,34.2665643 20.7763692,34.0282873 C22.0868923,33.7905027 23.4269538,29.2041643 25.5409231,33.0161027" id="Fill-2956" fill="#1A1A1A"/>
                <path d="M24.6153846,32.4839385 C24.6153846,32.4839385 24.7153231,33.5640615 26.3433846,33.9544615 C27.9714462,34.3453538 31.6283077,32.8777846 31.2192,31.0153846 C31.2192,31.0153846 30.3591385,32.3357538 29.1278769,32.3982769 C27.8966154,32.4608 25.1190154,29.2883692 24.6153846,32.4839385" id="Fill-2957" fill="#1A1A1A"/>
                <path d="M16.6755401,17.6351286 C15.8773412,17.6351286 15.2521988,17.4121975 14.8000939,16.9663286 C14.3479891,16.5204597 14.1219401,15.8828455 14.1219401,15.053467 L14.1219401,14.875744 C14.7517689,14.9505751 15.3285836,14.9879901 15.8524016,14.9879901 C15.9209969,14.9879901 16.0005037,14.9864312 16.0909247,14.9833132 C16.1813457,14.9801952 16.2390272,14.9786363 16.2639709,14.9786363 C16.3325661,15.6583525 16.4728724,15.9982055 16.6848939,15.9982055 C16.8220844,15.9982055 16.9405652,15.9124628 17.0403401,15.7409747 C17.140115,15.5694867 17.1900016,15.3153764 17.1900016,14.9786363 C17.1900016,14.8913333 17.1712941,14.8305339 17.1338786,14.7962363 C17.096463,14.7619387 17.0341046,14.7385543 16.9468016,14.7260824 C16.7036004,14.7011387 16.379337,14.6684006 15.9740016,14.627867 C15.5686663,14.5873335 15.2693462,14.5545954 15.0760324,14.5296517 C14.758,14.4860002 14.5163614,14.3909037 14.3511093,14.2443593 C14.1858572,14.097815 14.1032324,13.8592943 14.1032324,13.5287901 C14.1032324,12.9051973 14.2341849,12.2878496 14.4960939,11.6767286 C14.7580029,11.0656076 15.1415068,10.6384529 15.646617,10.3952517 C15.9022901,10.2705331 16.207846,10.2081747 16.5632939,10.2081747 C17.342785,10.2081747 17.9741633,10.4186342 18.4574478,10.8395593 C18.9407323,11.2604845 19.1823709,11.885627 19.1823709,12.7150055 L19.1823709,12.8833747 C19.0950679,12.8833747 18.9547616,12.8786979 18.7614478,12.869344 C18.568134,12.8599901 18.4340635,12.8553132 18.3592324,12.8553132 C17.9289533,12.8553132 17.5298599,12.8802565 17.1619401,12.930144 C17.1245245,12.2441918 16.9468032,11.9012209 16.6287709,11.9012209 C16.5352319,11.9012209 16.4479302,11.9791688 16.3668632,12.135067 C16.2296727,12.3782683 16.1610786,12.6339375 16.1610786,12.9020824 C16.1610786,13.0517447 16.2452623,13.1359285 16.4136324,13.1546363 C17.324078,13.2544111 17.8884211,13.3136516 18.1066786,13.3323593 C18.5369576,13.363539 18.8440725,13.4508407 19.0280324,13.594267 C19.2119923,13.7376934 19.3039709,13.9933626 19.3039709,14.3612824 C19.3039709,14.7603819 19.2540842,15.1470036 19.1543093,15.5211593 C19.0545345,15.8953151 18.9033155,16.2445218 18.7006478,16.5687901 C18.4979801,16.8930584 18.2220444,17.1518456 17.8728324,17.3451593 C17.5236204,17.5384731 17.124527,17.6351286 16.6755401,17.6351286 Z" id="S" fill="#FFFFFF" transform="translate(16.703602, 13.921652) rotate(-15.000000) translate(-16.703602, -13.921652) "/>
            </g>
        </g>
    </g>
</svg>