<?xml version="1.0" encoding="UTF-8"?>
<svg width="109px" height="90px" viewBox="0 0 109 90" version="1.1" xmlns="http://www.w3.org/2000/svg" xmlns:xlink="http://www.w3.org/1999/xlink">
    <!-- Generator: sketchtool 59.1 (101010) - https://sketch.com -->
    <title>order-here</title>
    <desc>Created with sketchtool.</desc>
    <defs>
        <filter x="-5.8%" y="-7.1%" width="111.7%" height="114.1%" filterUnits="objectBoundingBox" id="filter-1">
            <feGaussianBlur stdDeviation="1" in="SourceGraphic"/>
        </filter>
    </defs>
    <g id="Page-1" stroke="none" stroke-width="1" fill-rule="evenodd">
        <g id="order-here">
            <g id="!order-here">
                <polygon id="Path-2" fill="#000000" opacity="0.468303595" filter="url(#filter-1)" points="86.5 45 61 77.5 45 82 42 87.5 67 87.5 70 82 68 77.5 93.5 45"/>
                <polygon id="Path-2" fill="#ED1B2D" points="51 36 51 78.5 42 83 42 88.5 67 88.5 67 83 58 78.5 58 36"/>
                <path d="M9,1 C4.581722,1 1,4.581722 1,9 L1,29 C1,33.418278 4.581722,37 9,37 L100,37 C104.418278,37 108,33.418278 108,29 L108,9 C108,4.581722 104.418278,1 100,1 L9,1 Z" id="Rectangle-4" stroke="#FFFFFF" stroke-width="2" fill="#ED1B2D"/>
                <text id="Order-here" font-family="Barbieri-Bold, Barbieri" font-size="14" font-weight="bold" fill="#FFFFFF">
                    <tspan x="19" y="24">Order here</tspan>
                </text>
            </g>
        </g>
    </g>
</svg>