<?xml version="1.0" encoding="UTF-8"?>
<svg width="109px" height="174px" viewBox="0 0 109 174" version="1.1" xmlns="http://www.w3.org/2000/svg" xmlns:xlink="http://www.w3.org/1999/xlink">
    <!-- Generator: sketchtool 50.2 (55047) - http://www.bohemiancoding.com/sketch -->
    <title>order-here</title>
    <desc>Created with sketchtool.</desc>
    <defs>
        <filter x="-6.8%" y="-9.0%" width="113.6%" height="117.9%" filterUnits="objectBoundingBox" id="filter-1">
            <feGaussianBlur stdDeviation="1" in="SourceGraphic"/>
        </filter>
    </defs>
    <g id="Page-1" stroke="none" stroke-width="1" fill-rule="evenodd">
        <g id="order-here">
            <g id="!order-here">
                <rect id="Rectangle-4" fill="#C5C5C5" x="0" y="1" width="109" height="120" rx="9"/>
                <polygon id="Path-2" fill="#000000" opacity="0.600000024" filter="url(#filter-1)" points="79 137 61 160.5 45 165 42 170.5 67 170.5 70 165 68 160.5 86 137"/>
                <path d="M9,4 C6.23857625,4 4,6.23857625 4,9 L4,112 C4,114.761424 6.23857625,117 9,117 L100,117 C102.761424,117 105,114.761424 105,112 L105,9 C105,6.23857625 102.761424,4 100,4 L9,4 Z M58,121 L58,161.5 L67,166 L67,171.5 L42,171.5 L42,166 L51,161.5 L51,121 L9,121 C4.02943725,121 0,116.970563 0,112 L0,9 C0,4.02943725 4.02943725,0 9,0 L100,0 C104.970563,0 109,4.02943725 109,9 L109,112 C109,116.970563 104.970563,121 100,121 L58,121 Z" id="Combined-Shape" fill="#CF3C3C" fill-rule="nonzero"/>
                <text id="Order-here" font-family="Barbieri-Bold, Barbieri" font-size="14" font-weight="bold" fill="#CF3C3C">
                    <tspan x="19" y="108">Order here</tspan>
                </text>
                <g id="Logo" transform="translate(23.000000, 9.000000)">
                    <rect id="Rectangle-7" stroke="#FFFFFF" stroke-width="4" fill="#D22424" x="13.1" y="5.28294574" width="36.8" height="69.7170543"/>
                    <path d="M20.8668,67.3436628 C19.7659945,67.3436628 18.9038531,67.0378047 18.28035,66.4260795 C17.6568469,65.8143542 17.3451,64.9395574 17.3451,63.8016628 L17.3451,63.5578295 C18.2137043,63.6604966 19.0091964,63.7118295 19.7316,63.7118295 C19.8262005,63.7118295 19.9358494,63.7096906 20.06055,63.7054128 C20.1852506,63.701135 20.2647998,63.6989961 20.2992,63.6989961 C20.3938005,64.6315563 20.5872985,65.0978295 20.8797,65.0978295 C21.0689009,65.0978295 21.2322993,64.9801917 21.3699,64.7449128 C21.5075007,64.5096338 21.5763,64.1609984 21.5763,63.6989961 C21.5763,63.5792177 21.5505003,63.4958019 21.4989,63.4487461 C21.4472997,63.4016903 21.3613006,63.3696073 21.2409,63.3524961 C20.9054983,63.3182737 20.4583028,63.2733575 19.8993,63.2177461 C19.3402972,63.1621347 18.9275013,63.1172185 18.6609,63.0829961 C18.2222978,63.0231069 17.8890511,62.892636 17.66115,62.6915795 C17.4332489,62.4905229 17.3193,62.1632762 17.3193,61.7098295 C17.3193,60.8542696 17.4998982,60.0072781 17.8611,59.1688295 C18.2223018,58.3303808 18.7511965,57.7443311 19.4478,57.4106628 C19.8004018,57.2395508 20.2217975,57.1539961 20.712,57.1539961 C21.7870054,57.1539961 22.6577467,57.4427432 23.32425,58.0202461 C23.9907533,58.597749 24.324,59.4554349 24.324,60.5933295 L24.324,60.8243295 C24.2035994,60.8243295 24.0101013,60.8179129 23.7435,60.8050795 C23.4768987,60.7922461 23.2920005,60.7858295 23.1888,60.7858295 C22.595397,60.7858295 22.0450025,60.8200513 21.5376,60.8884961 C21.4859997,59.9473803 21.2409022,59.4768295 20.8023,59.4768295 C20.6732994,59.4768295 20.5529006,59.5837728 20.4411,59.7976628 C20.2518991,60.1313311 20.1573,60.4821054 20.1573,60.8499961 C20.1573,61.0553305 20.2733988,61.1708293 20.5056,61.1964961 C21.7612063,61.3333857 22.5394985,61.4146627 22.8405,61.4403295 C23.433903,61.4831074 23.8574487,61.602884 24.11115,61.7996628 C24.3648513,61.9964416 24.4917,62.3472158 24.4917,62.8519961 C24.4917,63.3995544 24.4229007,63.9299936 24.2853,64.4433295 C24.1476993,64.9566654 23.9391514,65.4357717 23.65965,65.8806628 C23.3801486,66.3255539 22.9996024,66.6806059 22.518,66.9458295 C22.0363976,67.211053 21.4860031,67.3436628 20.8668,67.3436628 Z M25.0593,67.2409961 C25.1453004,65.1277633 25.1883,62.7878423 25.1883,60.2211628 L25.1883,56.7946628 C26.2891055,56.7946628 27.2264961,56.7604409 28.0005,56.6919961 C27.9058995,58.6512281 27.8586,60.2853229 27.8586,61.5943295 C27.8586,61.7226634 27.85645,62.246686 27.85215,63.1664128 C27.84785,64.0861396 27.8457,64.6529395 27.8457,64.8668295 C27.8457,65.7052781 27.8542999,66.4667149 27.8715,67.1511628 C26.5986936,67.1511628 25.661303,67.1811069 25.0593,67.2409961 Z M33.4314,66.9971628 C32.9927978,67.2281639 32.4897028,67.3436628 31.9221,67.3436628 C31.3544972,67.3436628 30.8492522,67.2281639 30.40635,66.9971628 C29.9634478,66.7661616 29.6130013,66.4517481 29.355,66.0539128 C29.0969987,65.6560775 28.9013507,65.2069153 28.76805,64.7064128 C28.6347493,64.2059103 28.5681,63.6647768 28.5681,63.0829961 C28.5681,62.3129923 28.6798989,61.6221381 28.9035,61.0104128 C29.1271011,60.3986875 29.4968974,59.8939148 30.0129,59.4960795 C30.5289026,59.0982441 31.1652962,58.8993295 31.9221,58.8993295 C32.6789038,58.8993295 33.3152974,59.0982441 33.8313,59.4960795 C34.3473026,59.8939148 34.7170989,60.3986875 34.9407,61.0104128 C35.1643011,61.6221381 35.2761,62.3129923 35.2761,63.0829961 C35.2761,63.6647768 35.2094507,64.2059103 35.07615,64.7064128 C34.9428493,65.2069153 34.7472013,65.6560775 34.4892,66.0539128 C34.2311987,66.4517481 33.8786022,66.7661616 33.4314,66.9971628 Z M31.9221,65.3159961 C32.1371011,65.3159961 32.3047994,65.1128037 32.4252,64.7064128 C32.5456006,64.3000219 32.6058,63.7588884 32.6058,63.0829961 C32.6058,62.4327707 32.5456006,61.910887 32.4252,61.5173295 C32.3047994,61.1237719 32.1371011,60.9269961 31.9221,60.9269961 C31.715699,60.9269961 31.5523006,61.1237719 31.4319,61.5173295 C31.3114994,61.910887 31.2513,62.4327707 31.2513,63.0829961 C31.2513,63.7588884 31.3114994,64.3000219 31.4319,64.7064128 C31.5523006,65.1128037 31.715699,65.3159961 31.9221,65.3159961 Z M36.8499,67.2923295 C36.6950992,66.3683248 36.4736514,64.9459779 36.18555,63.0252461 C35.8974486,61.1045143 35.6975006,59.801944 35.5857,59.1174961 C36.4199042,59.1174961 37.3314951,59.0789965 38.3205,59.0019961 C38.3549002,59.3613313 38.4537992,60.1954896 38.6172,61.5044961 C38.7806008,62.8135027 38.8794998,63.6776051 38.9139,64.0968295 C38.9311001,63.9599399 39.0493489,63.2198917 39.26865,61.8766628 C39.4879511,60.5334339 39.6362996,59.5966099 39.7137,59.0661628 C40.2985029,59.0661628 40.9993959,59.0233854 41.8164,58.9378295 C42.0486012,60.460726 42.3194985,62.1076539 42.6291,63.8786628 C42.6549001,63.6048836 42.8612981,62.0050108 43.2483,59.0789961 C43.9621036,59.0789961 44.422199,59.0704407 44.6286,59.0533295 C45.0930023,59.0533295 45.5573977,59.0233853 46.0218,58.9634961 C45.4541972,62.1290675 45.0070016,64.8753734 44.6802,67.2024961 C43.3471933,67.2024961 42.2163046,67.236718 41.2875,67.3051628 C41.1670994,66.5864925 40.9951011,65.4828369 40.7715,63.9941628 C40.7629,64.0711632 40.6081015,65.1363192 40.3071,67.1896628 C38.8450927,67.1896628 37.6927042,67.2238847 36.8499,67.2923295 Z" id="Slow" fill="#FFFFFF"/>
                    <path d="M14.1893584,29.4573643 C12.0916178,29.4573643 10.2169184,30.766804 9.49487637,32.7363651 L5.32728279,44.1045821 C5.12518406,44.65586 5.02176482,45.2384262 5.02176482,45.8255814 C5.02176482,48.5870051 7.26034107,50.8255814 10.0217648,50.8255814 L52.9782352,50.8255814 C53.5653904,50.8255814 54.1479565,50.7221622 54.6992344,50.5200634 C57.2919253,49.5695818 58.6231989,46.697273 57.6727172,44.1045821 L53.5051236,32.7363651 C52.7830816,30.766804 50.9083822,29.4573643 48.8106416,29.4573643 L14.1893584,29.4573643 Z" id="Rectangle-8" stroke="#FFFFFF" stroke-width="4" fill="#D22424"/>
                    <path d="M31.3632,43.2692248 C27.9839831,43.2692248 25.3374096,42.3303117 23.4234,40.4524574 C21.5093904,38.574603 20.5524,35.8891803 20.5524,32.3961085 L20.5524,31.6475969 C23.2188133,31.9627613 25.6607889,32.1203411 27.8784,32.1203411 C28.1688015,32.1203411 28.5053981,32.1137753 28.8882,32.1006434 C29.2710019,32.0875116 29.5151995,32.0809457 29.6208,32.0809457 C29.9112015,34.9436887 30.5051955,36.3750388 31.4028,36.3750388 C31.9836029,36.3750388 32.4851979,36.0139183 32.9076,35.2916667 C33.3300021,34.569415 33.5412,33.4991854 33.5412,32.0809457 C33.5412,31.713254 33.4620008,31.4571868 33.3036,31.3127364 C33.1451992,31.1682861 32.8812018,31.0697987 32.5116,31.0172713 C31.4819949,30.9122165 30.1092086,30.7743342 28.3932,30.6036202 C26.6771914,30.4329061 25.4100041,30.2950238 24.5916,30.189969 C23.2451933,30.0061231 22.2222035,29.6056077 21.5226,28.9884109 C20.8229965,28.371214 20.4732,27.3666426 20.4732,25.9746667 C20.4732,23.3482969 21.0275945,20.7482299 22.1364,18.1743876 C23.2452055,15.6005453 24.8687893,13.801509 27.0072,12.7772248 C28.0896054,12.2519509 29.3831925,11.9893178 30.888,11.9893178 C34.1880165,11.9893178 36.8609898,12.8757043 38.907,14.6485039 C40.9530102,16.4213034 41.976,19.0541996 41.976,22.5472713 L41.976,23.2563876 C41.6063982,23.2563876 41.0124041,23.2366901 40.194,23.1972946 C39.3755959,23.157899 38.8080016,23.1382016 38.4912,23.1382016 C36.6695909,23.1382016 34.9800078,23.2432548 33.4224,23.4533643 C33.2639992,20.5643576 32.5116067,19.119876 31.1652,19.119876 C30.769198,19.119876 30.3996017,19.4481673 30.0564,20.1047597 C29.4755971,21.1290439 29.1852,22.2058393 29.1852,23.3351783 C29.1852,23.965507 29.5415964,24.3200616 30.2544,24.3988527 C34.1088193,24.8190719 36.4979954,25.0685732 37.422,25.1473643 C39.2436091,25.2786828 40.5437961,25.6463691 41.3226,26.2504341 C42.1014039,26.8544991 42.4908,27.9312946 42.4908,29.4808527 C42.4908,31.1617293 42.2796021,32.7900541 41.8572,34.365876 C41.4347979,35.9416978 40.7946043,37.4124428 39.9366,38.778155 C39.0785957,40.1438673 37.9104074,41.2337944 36.432,42.047969 C34.9535926,42.8621436 33.2640095,43.2692248 31.3632,43.2692248 Z" id="S" fill="#FFFFFF"/>
                </g>
            </g>
        </g>
    </g>
</svg>