<?xml version="1.0" encoding="UTF-8"?>
<svg width="66px" height="81px" viewBox="0 0 66 81" version="1.1" xmlns="http://www.w3.org/2000/svg" xmlns:xlink="http://www.w3.org/1999/xlink">
    <!-- Generator: sketchtool 59.1 (101010) - https://sketch.com -->
    <title>quick-logo</title>
    <desc>Created with sketchtool.</desc>
    <g id="Page-1" stroke="none" stroke-width="1" fill-rule="evenodd">
        <g id="quick-logo">
            <g id="Quick-Logo" transform="translate(0.000000, 0.500000)">
                <path d="M62.0315172,53.2518008 L62.0315172,53.2518008 C61.7280345,53.2518008 62.7290345,53.2212312 63.0491034,53.1052465 L63.0491034,53.1052465 C63.7282414,52.9753257 64.4553448,52.0973487 64.5176552,51.5933997 L64.5176552,51.5933997 C64.5548621,51.2975939 64.7534483,50.9446948 64.4118621,49.9857982 L64.4118621,49.9857982 L56.5692759,27.9720868 C56.4451034,27.557599 56.0954483,26.9970064 55.822,26.7713308 L55.822,26.7713308 C55.726069,26.6706309 55.241931,26.3847152 55.0872759,26.3613384 L55.0872759,26.3671826 C54.9034828,26.2435556 54.0087241,26.2093895 54.0087241,26.2093895 L54.0033448,0.226574713 L10.8818966,0.226574713 L10.8818966,26.2165824 C10.8818966,26.2165824 9.98713793,26.2502989 9.80334483,26.3739259 L9.80334483,26.3680817 C9.64913793,26.3914585 9.165,26.6773742 9.06862069,26.7780741 L9.06862069,26.7780741 C8.79517241,27.0037497 8.44551724,27.5643423 8.32134483,27.9788301 L0.478758621,49.9929911 L0.478758621,49.9929911 C0.137172414,50.9518876 0.335310345,51.3047867 0.372965517,51.6005926 L0.372965517,51.6005926 C0.435724138,52.1036424 1.16282759,52.9816194 1.84151724,53.1124393 L1.84151724,53.1124393 C2.16158621,53.2275249 3.17782759,53.2423602 2.87434483,53.2423602 L2.87434483,53.2423602 L10.8818966,53.2432593 L10.8818966,79.2337165 L54.0028966,79.2337165 L54.0028966,53.2432593 L62.0315172,53.2518008 L62.0315172,53.2518008 Z" id="path10259"/>
                <path d="M3.9407931,52.7058555 L3.9407931,52.7071605 C3.96320639,52.7071966 3.96408843,52.707198 3.96741311,52.7072327 C3.96572012,52.7072158 3.96490719,52.7071819 3.95380997,52.7067194 C3.94765062,52.7063335 3.94404307,52.7061075 3.9407931,52.7058555 Z M10.2451083,27.8793792 C10.336067,27.8280152 10.4333904,27.7945617 10.5343731,27.7792871 L10.4605172,27.291014 L9.96669008,27.291014 L9.96669008,27.9647112 L10.2451083,27.8793792 Z M54.5435332,27.8810977 L54.8163444,27.9647112 L54.8163444,27.291014 L54.3225172,27.291014 L54.2485523,27.7792706 C54.3529649,27.7950878 54.4536291,27.8304139 54.5435332,27.8810977 Z M60.8417931,51.7205541 C60.8314032,51.7204678 60.8277087,51.7204054 60.8202661,51.7202765 C60.8223715,51.7203432 60.8239657,51.7204231 60.8313815,51.7207943 C60.8354201,51.7210066 60.8373702,51.7211091 60.8417931,51.7215284 L60.8417931,51.7205541 Z M60.8202661,51.7202765 C60.8201302,51.7202741 60.819993,51.7202718 60.8198544,51.7202694 C60.8203017,51.7202806 60.8206528,51.7202893 60.8210223,51.7203009 Z M60.8417931,52.6476578 C60.7988957,52.7120936 60.8043505,52.7103951 60.8144466,52.7072516 C60.8196275,52.7071955 60.8196275,52.7071955 60.8417931,52.7071605 L60.8417931,52.6476578 Z" id="path10261" stroke="#FFFFFF" stroke-width="0.987654321"/>
                <polygon id="polygon10263" stroke="#FFFFFF" stroke-width="0.987654321" points="52.9691724 78.2028914 52.9691724 53.2387637 11.908 53.2387637 11.908 78.2028914"/>
                <path d="M17.9180345,27.5121941 C19.456069,33.8009911 24.890069,36.5297778 26.8333448,37.0638467 L26.8333448,37.0660945 C25.6781379,37.0660945 20.384,38.7191009 20.5355172,40.2093691 C20.5355172,40.3990805 20.5884138,40.5218084 20.7533793,40.8364955 C20.9784138,41.2667178 23.1404483,44.3003014 23.4376552,44.6118416 L23.4376552,44.6118416 L23.6407241,44.5686845 L23.6407241,44.5686845 C25.163069,41.3988863 27.5151724,41.1390447 28.8653793,41.1399438 L28.8653793,41.1399438 C34.0792759,41.1345492 40.6124483,46.0436679 45.8626552,46.0436679 L45.8626552,46.0436679 C47.0873448,46.0382733 47.5808966,45.6597497 47.9637241,45.3428148 C49.2870345,44.2486028 50.3153793,39.7984777 50.5668621,38.1841328 L50.5668621,38.1841328 L50.4108621,38.0690473 L50.4108621,38.0690473 C49.7388966,38.4642043 47.7436207,39.3102631 45.6698966,39.3089144 C42.0617241,39.3066667 38.0868621,38.0474687 36.7882069,37.6801839 L36.7882069,37.6801839 C39.1766207,37.0224879 45.084,34.4465492 46.7058621,27.511295 L17.9180345,27.511295 L17.9180345,27.5121941 Z" id="path10265"/>
                <path d="M34.5046897,60.7669783 C35.2008621,60.7669783 35.7652414,60.2032388 35.7652414,59.5086794 C35.7652414,58.8132209 35.2008621,58.2503806 34.5046897,58.2503806 C33.808069,58.2503806 33.2436894,58.8132209 33.2436894,59.5086794 C33.2432414,60.2032388 33.808069,60.7669783 34.5046897,60.7669783 L34.5046897,60.7669783 Z" id="path10267"/>
                <polygon id="polygon10269" points="35.5993793 67.9121737 35.5993793 61.7362146 33.397 61.7362146 33.397 67.9121737"/>
                <polygon id="polygon10271" points="46.189 64.0523116 46.1881034 58.495387 43.9745172 58.495387 43.9745172 67.9121737 46.1881034 67.9121737 46.189 65.3501711 46.189 65.3501711 48.2784138 67.9121737 50.999 67.9121737 48.3201034 64.6259413 48.3201034 64.6259413 50.496931 61.7353155 47.9345862 61.7353155 46.189 64.0523116"/>
                <path d="M38.0648966,67.2688633 C38.6194138,67.7800051 39.429,68.1598774 40.5465517,68.1585323 C40.664,68.1585323 41.7932069,68.1639234 42.7076897,67.6446897 L42.7076897,67.6446897 L42.7072414,65.8851392 L42.7072414,65.8851392 C42.5386897,66.0065185 41.5627931,66.3953819 40.9136897,66.3953819 C40.0265517,66.3953819 39.3079655,65.8289451 39.3079655,64.7999183 C39.3079655,63.7699923 40.1951034,63.2404189 41.0015517,63.2404189 C41.8084483,63.2404189 42.319931,63.5978135 42.6355172,63.7744879 L42.6355172,63.7744879 L42.6355172,61.9475045 C41.8868966,61.5671826 40.9491034,61.4907565 40.5021724,61.4907565 C39.8198966,61.4898595 38.6575172,61.7744266 37.8613793,62.6434125 L37.8613793,62.6434125 C37.314931,63.24941 36.9903793,64.0595045 37.0132414,64.9401788 C37.0374483,65.8604138 37.4417931,66.6875913 38.0648966,67.2688633 L38.0648966,67.2688633 L38.0648966,67.2688633 Z" id="path10273"/>
                <path d="M27.4470345,64.9428761 C27.4452414,65.4607612 27.4353793,66.298728 28.2400345,66.298728 C28.7264138,66.2996271 29.1679655,65.9098646 29.3566897,65.7273461 L29.3566897,65.5331392 L29.3566897,61.7416092 L31.5832759,61.7416092 L31.5832759,67.9166692 L29.3566897,67.9166692 L29.3566897,67.2697625 L29.3566897,67.2697625 C28.7676552,67.8456398 28.2382414,68.1365006 27.5447586,68.1356166 C26.7091724,68.1382989 25.228069,67.7800051 25.2320952,65.3564649 L25.2320952,61.7416092 L27.4465862,61.7416092 L27.4465862,64.9428761 L27.4470345,64.9428761 Z" id="path10275"/>
                <polygon id="polygon10277" stroke="#FFFFFF" stroke-width="0.987654321" points="52.9691724 26.2242248 52.9691724 1.25964751 11.908 1.25964751 11.908 26.2242248"/>
                <path d="M46.7054138,27.5989475 C46.973931,26.4512387 47.1254483,25.1843983 47.1236709,23.7867381 C47.1124483,13.7594584 39.6253448,8.96227829 32.2332759,9.0674737 C24.5027586,8.95733321 17.6091724,13.6664009 17.5087586,23.913512 C17.4957586,25.2590241 17.645931,26.4845056 17.9184828,27.5989475 L46.7054138,27.5989475 L46.7054138,27.5989475 Z" id="path10279"/>
                <path d="M32.4197586,12.9349862 C37.1028966,12.9385849 38.7857241,18.2266769 38.8067931,23.3870958 C38.8283103,28.6945185 37.4834828,34.5319642 32.2332759,34.5077638 C27.6967241,34.4870089 25.8296552,29.3450217 25.817034,23.7426922 C25.8076897,19.4247356 26.7495172,12.930493 32.4197586,12.9349862 L32.4197586,12.9349862 Z" id="path10281"/>
                <path d="M24.2387241,69.0652771 C24.0867586,69.2567867 23.2368276,70.2912082 22.5962414,70.2912082 L22.5962414,70.2912082 C21.9431034,70.2876117 19.2386552,68.5033359 19.0965517,68.4471418 L19.0965517,68.4471418 C17.2837241,68.657083 14.3268966,67.0247561 14.3304795,63.7942682 C14.3336207,61.0434534 16.1173103,58.9229119 19.0736897,58.9220119 C22.7692759,58.9202146 23.9688621,61.8193819 23.8576897,63.8441686 C23.7178276,66.3886386 22.0668276,67.5354483 21.6275172,67.8065287 C22.0318621,68.1144725 23.6308621,68.9290626 24.2387241,69.0652771 L24.2387241,69.0652771 L24.2387241,69.0652771 Z" id="path10283"/>
                <path d="M19.0947586,60.9346206 C20.912069,60.9441022 21.4455172,62.516189 21.4455172,63.7610013 C21.4455172,64.9491699 20.7202069,66.5023755 19.0750345,66.5023755 C17.4294138,66.5023755 16.7596897,65.2292414 16.7578949,63.7048072 C16.7565517,62.1174355 17.5746552,60.9265696 19.0947586,60.9346206 L19.0947586,60.9346206 Z" id="path10285"/>
            </g>
        </g>
    </g>
</svg>