<?xml version="1.0" encoding="UTF-8"?>
<svg width="135px" height="322px" viewBox="0 0 135 322" version="1.1" xmlns="http://www.w3.org/2000/svg" xmlns:xlink="http://www.w3.org/1999/xlink">
    <!-- Generator: sketchtool 59.1 (101010) - https://sketch.com -->
    <title>random-dude-angry</title>
    <desc>Created with sketchtool.</desc>
    <g id="Page-1" stroke="none" stroke-width="1" fill-rule="evenodd">
        <g id="random-dude-angry">
            <g id="!random-dude">
                <path d="M76.6507428,18.395 C73.7707428,18.081 70.8857428,17.608 67.9937428,17.773 C65.1007428,17.937 62.1337428,18.813 60.0587428,20.834 C57.1247428,23.69 56.5497428,28.146 56.4167428,32.237 C56.2837428,36.329 56.3647428,40.662 54.2877428,44.19 C50.6807428,39.487 49.3047428,33.491 48.1117428,27.686 C47.0937428,22.733 46.1767428,17.396 48.2277428,12.774 C48.5897428,11.959 49.0387428,11.183 49.3827428,10.361 C49.7067428,9.587 49.9367428,8.776 50.2887428,8.015 C52.1217428,4.055 56.8087428,2.295 61.1397428,1.77 C65.4707428,1.246 69.9817428,1.544 74.0627428,0 C73.2797428,0.166 72.5377428,0.524 71.9197428,1.034 C76.8207428,1.449 81.7487428,1.552 86.6627428,1.342 C86.6987428,2.672 86.1187428,4.005 85.1217428,4.885 C85.9817428,4.687 86.7717428,4.197 87.3317428,3.515 C87.5767428,4.637 87.3407428,5.855 86.6957428,6.805 C86.6977428,7.662 86.6997428,8.52 86.7017428,9.378 C86.7077428,12.535 86.7147428,15.692 86.7217428,18.849 C83.3597428,18.912 79.9937428,18.759 76.6507428,18.395" id="Fill-4051" fill="#333333"/>
                <path d="M88.6576868,298.525 L87.1096868,303.987 C87.1096868,303.987 117.940687,309.518 116.347687,321.153 L76.0066868,321.153 C76.0066868,321.153 72.4676868,313.068 78.6606868,304.592 L82.3766868,295 L88.0376868,297.973 L88.6576868,298.525" id="Fill-4052" fill="#666768"/>
                <path d="M87.1096868,304 C87.1096868,304 117.940687,309.531 116.347687,321.166 L76.0066868,321.166 C76.0066868,321.166 72.4676868,312.785 78.6606868,304.309 L87.1096868,304" id="Fill-4053" fill="#1A1A1A"/>
                <path d="M22.67,287.117 L18.425,291.258 C18.425,291.258 42.229,311.578 34.732,321.137 L0,300.615 C0,300.615 1.2,291.628 10.843,287.481 L18.989,281 L22.384,286.384 L22.67,287.117" id="Fill-4054" fill="#666768"/>
                <path d="M18.425,291.919 C18.425,291.919 42.229,312.239 34.732,321.798 L0,301.276 C0,301.276 1.284,292.147 10.927,288 L18.425,291.919" id="Fill-4055" fill="#1A1A1A"/>
                <polyline id="Fill-4058" fill="#F2D091" points="62 76.576 76.355 119.89 79.773 76 62 76.576"/>
                <polyline id="Fill-4059" fill="#CC9C81" points="74.02 61 65 61.225 65.298 73.165 74.318 72.94 74.02 61"/>
                <polyline id="Fill-4060" fill="#495E3C" points="72.71 78.305 77.599 100.484 76.12 119.193 70 100.939 70.756 78 72.71 78.305"/>
                <path d="M67,76.432 C67,76.432 69.77,81.053 72.242,80.814 C74.714,80.576 76.636,76.015 76.636,76.015 L72.249,74 L67,76.432" id="Fill-4061" fill="#627755"/>
                <path d="M61.012,76.743 C61.008,76.742 61.004,76.74 61,76.738 C61,76.738 70.312,74.017 71.02,74 C71.023,74 71.026,74 71.029,74 C71.79,74 79.102,76.055 79.102,76.055 C79.102,76.055 79.062,76.096 78.982,76.162 L78.906,76.159 L78.9,76.227 L78.906,76.159 L75.763,76.261 L71.693,74.392 L67.05,76.543 L61.133,76.735 L61.012,76.743" id="Fill-4062" fill="#633A43"/>
                <path d="M67.175,77.693 C65.793,77.693 64.093,77.407 62.02,76.637 L62,76.576 L67.917,76.384 L67.311,76.665 C67.311,76.665 67.561,77.082 67.978,77.659 C67.723,77.681 67.456,77.693 67.175,77.693 M77.019,76.943 C76.892,76.943 76.761,76.938 76.626,76.928 C76.834,76.517 76.947,76.248 76.947,76.248 L76.63,76.102 L79.773,76 L79.767,76.068 C79.381,76.365 78.446,76.943 77.019,76.943" id="Fill-4063" fill="#A08F6F"/>
                <path d="M67.667,77.426 C67.25,76.849 67,76.432 67,76.432 L67.606,76.151 L72.249,74 L76.319,75.869 L76.636,76.015 C76.636,76.015 76.523,76.284 76.315,76.695 C75.202,76.615 73.826,76.181 72.209,75.052 C72.209,75.052 71.054,77.134 67.667,77.426" id="Fill-4064" fill="#576151"/>
                <path d="M65.853,70 C65.853,70 71.195,72.632 71.903,72.615 C72.61,72.597 75.05,70.169 75.05,70.169 L80.123,75.772 C80.123,75.772 77.335,77.523 72.561,74.191 C72.561,74.191 70.924,77.728 62,76.534 C62,76.534 63.847,74.74 65.853,70" id="Fill-4065" fill="#F2D091"/>
                <polyline id="Fill-4066" fill="#2D4056" points="61.621 76 53 76.563 64.217 89.608 60.197 90.77 75.903 119.051 61.621 76"/>
                <polyline id="Fill-4067" fill="#2D4056" points="79.418 76 86.269 76.239 79.778 90.46 82.972 90.779 76 119.89 79.418 76"/>
                <polyline id="Fill-4069" fill="#2B3723" points="76.219 119.709 76.107 119.376 76.146 119.446 76 119.007 76.274 119 76.219 119.709"/>
                <polyline id="Fill-4070" fill="#1A2633" points="76.21 119.439 76.171 119.369 76.001 119.063 76 119.001 76.064 119 76.21 119.439"/>
                <polyline id="Fill-4071" fill="#1A2633" points="76 119.712 76 119.712 76.055 119.003 76.17 119 76 119.712"/>
                <path d="M73.6534086,124.293409 C73.6354086,123.561409 73.0264086,122.982409 72.2934086,123.000409 C71.5614086,123.018409 70.9824086,123.627409 71.0004086,124.360409 C71.0184086,125.092409 71.6274086,125.671409 72.3604086,125.653409 C73.0924086,125.635409 73.6714086,125.026409 73.6534086,124.293409" id="Fill-4072" fill="#1A1A1A"/>
                <path d="M73.6534086,132.294409 C73.6354086,131.561409 73.0264086,130.982409 72.2934086,131.000409 C71.5614086,131.018409 70.9824086,131.627409 71.0004086,132.360409 C71.0184086,133.092409 71.6274086,133.672409 72.3594086,133.653409 C73.0924086,133.635409 73.6714086,133.026409 73.6534086,132.294409" id="Fill-4073" fill="#1A1A1A"/>
                <path d="M55.6520485,49.4146796 C55.6520485,49.4146796 57.9390485,59.9996796 64.4670485,60.7916796 C70.9940485,61.5846796 83.2320485,62.3086796 89.6960485,59.2376796 C96.1600485,56.1666796 93.9930485,51.4626796 93.9930485,51.4626796 L89.3630485,34.3766796 C89.3630485,34.3766796 88.7630485,21.4316796 86.9640485,15.5046796 C85.1660485,9.57867963 80.7940485,5.06267963 79.2130485,3.50767963 C77.6310485,1.95467963 59.8690485,0.297679627 53.3960485,5.77567963 C46.9220485,11.2536796 48.5560485,24.8206796 49.2090485,27.5806796 C49.8620485,30.3416796 54.1920485,43.3856796 54.1920485,43.3856796 C54.1920485,43.3856796 47.1860485,38.5776796 47.0020485,47.4166796 C46.8460485,54.9386796 55.6520485,49.4146796 55.6520485,49.4146796" id="Fill-4075" fill="#E6B89C"/>
                <path d="M68.8482912,29.7582912 C68.4512912,28.4492912 67.0682912,27.7102912 65.7582912,28.1072912 C64.4492912,28.5042912 63.7102912,29.8872912 64.1072912,31.1972912 C64.5042912,32.5062912 65.8882912,33.2452912 67.1972912,32.8482912 C68.5062912,32.4502912 69.2452912,31.0672912 68.8482912,29.7582912" id="Fill-4076" fill="#1A1A1A"/>
                <path d="M77.976,40.635 C77.373,40.635 76.758,40.53 76.161,40.289 C76.519,40.426 76.946,40.491 77.407,40.491 C79.751,40.491 82.977,38.832 82.503,36.71 C82.142,35.095 80.507,34.789 79.323,34.789 C78.602,34.789 78.049,34.902 78.049,34.902 C80.628,28.395 76.627,26.14 76.627,26.14 C76.674,26.051 76.765,26 76.86,26 C76.902,26 76.945,26.01 76.985,26.031 C77.134,26.111 80.557,28.028 78.667,34.683 C78.797,34.676 78.953,34.67 79.126,34.67 C80.308,34.67 82.334,34.923 82.768,36.593 C83,37.486 82.567,38.506 81.607,39.321 C81.087,39.763 80.391,40.15 79.609,40.386 C79.093,40.543 78.54,40.635 77.976,40.635 M76.017,40.228 C76.011,40.226 76.006,40.223 76,40.22 C76.006,40.223 76.012,40.226 76.017,40.228" id="Fill-4077" fill="#826B5C"/>
                <path d="M62.6598548,26.5078685 C62.6598548,26.5078685 68.2218548,27.6728685 72.0988548,25.0748685 C72.0988548,25.0748685 72.5708548,23.4078685 71.3918548,22.3888685 C70.2128548,21.3708685 66.1498548,23.9218685 62.5418548,24.4368685 C59.7748548,24.8318685 62.6598548,26.5078685 62.6598548,26.5078685" id="Fill-4078" fill="#333333" transform="translate(66.767059, 24.459783) rotate(-326.000000) translate(-66.767059, -24.459783) "/>
                <path d="M85.6440009,23.6089013 C85.6440009,23.6089013 80.1010009,25.0879013 79.0510009,24.8499013 C78.0010009,24.6119013 77.6850009,23.1349013 78.3440009,22.3499013 C78.3440009,22.3499013 83.9740009,21.6549013 84.9020009,22.2239013 C85.8290009,22.7929013 85.6440009,23.6089013 85.6440009,23.6089013" id="Fill-4079" fill="#333333" transform="translate(81.829528, 23.437913) rotate(-15.000000) translate(-81.829528, -23.437913) "/>
                <path d="M77.1855961,26 C77.1855961,26 81.1865961,28.255 78.6075961,34.762 C78.6075961,34.762 82.4815961,33.973 83.0615961,36.57 C83.6415961,39.167 78.6805961,41.07 76.5755961,40.088 C74.4715961,39.107 74.2835961,27.286 77.1855961,26" id="Fill-4080" fill="#FE938C"/>
                <path d="M67.483,35.105 C66.904,35.105 66.333,34.877 66,34.41 C66.284,34.523 66.585,34.574 66.889,34.574 C67.332,34.574 67.781,34.466 68.189,34.288 C68.877,33.987 69.466,33.502 70.023,33 C69.701,33.808 69.15,34.568 68.355,34.923 C68.084,35.044 67.782,35.105 67.483,35.105" id="Fill-4081" fill="#826B5C"/>
                <path d="M83.535,32.255 C83.455,32.255 83.374,32.251 83.294,32.242 C82.714,32.066 82.225,31.615 82,31.052 C82.464,31.43 83.042,31.595 83.636,31.595 C84.327,31.595 85.041,31.372 85.627,31 C85.232,31.759 84.388,32.255 83.535,32.255" id="Fill-4082" fill="#826B5C"/>
                <path d="M53.967098,48.371 C53.691098,47.502 53.285098,46.504 52.401098,46.282 C52.260098,46.246 52.115098,46.234 51.970098,46.234 C51.844098,46.234 51.718098,46.243 51.593098,46.254 C50.988098,46.309 50.348098,46.429 49.904098,46.844 C49.636098,47.095 49.435098,47.453 49.083098,47.557 C48.790098,46.749 49.310098,45.826 50.045098,45.381 C50.467098,45.127 50.959098,45 51.451098,45 C52.025098,45 52.598098,45.173 53.057098,45.517 C53.910098,46.157 54.303098,47.358 53.967098,48.371" id="Fill-4083" fill="#826B5C"/>
                <path d="M79.9247294,37.507 C79.8347294,37.507 79.7437294,37.502 79.6547294,37.492 C79.4857294,37.472 79.3117294,37.432 79.1777294,37.326 C79.0447294,37.221 78.9617294,37.036 79.0177294,36.875 C79.0917294,36.662 79.3567294,36.581 79.5017294,36.414 L79.3597294,36.405 C79.7197294,36.143 80.1637294,36 80.6087294,36 C80.6657294,36 80.7217294,36.003 80.7787294,36.007 C81.0037294,36.026 81.2457294,36.095 81.3747294,36.28 C81.5107294,36.475 81.4757294,36.755 81.3397294,36.951 C81.2047294,37.147 80.9867294,37.271 80.7637294,37.355 C80.4957294,37.456 80.2107294,37.507 79.9247294,37.507" id="Fill-4084" fill="#FEC2BE"/>
                <path d="M64.7296061,30.46 C64.4166061,30.46 64.1276061,30.257 64.0316061,29.942 C63.9146061,29.556 64.1326061,29.149 64.5176061,29.032 C64.5886061,29.01 64.6596061,29 64.7306061,29 C65.0436061,29 65.3326061,29.203 65.4286061,29.518 C65.5456061,29.904 65.3276061,30.312 64.9416061,30.428 C64.8716061,30.45 64.7996061,30.46 64.7296061,30.46" id="Fill-4085" fill="#7D7D7D"/>
                <path d="M64.3706822,54.989 C64.2246822,54.989 64.0956822,54.884 64.0716822,54.736 C63.8886822,53.646 64.0566822,52.864 64.5686822,52.41 C64.9346822,52.084 65.3976822,52 65.7796822,52 C66.1746822,52 66.4836822,52.09 66.5086822,52.098 C66.6686822,52.146 66.7606822,52.314 66.7136822,52.474 C66.6736822,52.609 66.5536822,52.693 66.4216822,52.693 C66.3936822,52.693 66.3646822,52.689 66.3366822,52.681 C66.3316822,52.679 66.0816822,52.607 65.7746822,52.607 C65.5066822,52.607 65.1966822,52.662 64.9706822,52.867 C64.5416822,53.248 64.5706822,54.039 64.6696822,54.635 C64.6956822,54.781 64.6116822,54.919 64.4786822,54.97 L64.4206822,54.985 C64.4046822,54.988 64.3876822,54.989 64.3706822,54.989" id="Fill-4086" fill="#826B5C" transform="translate(65.362984, 53.494500) rotate(-59.000000) translate(-65.362984, -53.494500) "/>
                <g id="Group" transform="translate(67.000000, 46.000000)">
                    <path d="M3.11884051,0.698438657 C1.97457399,0.929561492 0.776993341,2.81338206 0.0788563692,5.7684652 C0.0788563692,5.7684652 15.5693951,5.65769909 18.151892,7.11041809 C16.5738683,5.07012349 15.2175741,2.63043016 3.11884051,0.698438657 Z" id="Fill-1573" fill="#333333" transform="translate(9.115374, 3.904428) scale(-1, 1) translate(-9.115374, -3.904428) "/>
                    <path d="M1.52488638,5.38778559 C3.17305054,3.78935018 6.28075284,2.10864546 15.1119079,0.698438657 C15.5530788,0.787547866 16.0021749,1.12232751 16.4275167,1.66945487 C10.813941,2.75315942 7.61706149,2.75315942 1.52488638,5.38778559 Z" id="Combined-Shape" fill="#FFFFFF"/>
                    <path d="M5.35054543,4.48072077 C9.14968858,3.2358871 12.1429967,4.41743772 14.9048549,6.15209173 C11.9905134,5.79020557 8.02705123,5.24487777 4.25403226,5.62789819 L5.35054543,4.48072077 Z" id="Fill-1575" fill="#ED7270" transform="translate(9.579444, 5.058143) scale(-1, 1) translate(-9.579444, -5.058143) "/>
                </g>
                <path d="M85.8476579,26.7582912 C85.4506579,25.4492912 84.0676579,24.7102912 82.7586579,25.1072912 C81.4496579,25.5042912 80.7096579,26.8872912 81.1076579,28.1962912 C81.5046579,29.5052912 82.8886579,30.2452912 84.1976579,29.8472912 C85.5066579,29.4502912 86.2456579,28.0672912 85.8476579,26.7582912" id="Fill-4090" fill="#1A1A1A"/>
                <path d="M81.7306061,27.46 C81.4166061,27.46 81.1276061,27.257 81.0316061,26.942 C80.9146061,26.556 81.1326061,26.149 81.5176061,26.031 C81.5886061,26.01 81.6596061,26 81.7296061,26 C82.0436061,26 82.3326061,26.203 82.4286061,26.518 C82.5456061,26.904 82.3276061,27.311 81.9416061,27.429 C81.8716061,27.45 81.8006061,27.46 81.7306061,27.46" id="Fill-4091" fill="#7D7D7D"/>
                <path d="M77.3709796,11.4075877 C77.1299796,11.7795877 76.8889796,12.1505877 76.6479796,12.5225877 C79.5589796,11.2295877 82.8799796,10.8765877 85.9969796,11.5305877 C85.1479796,8.54158766 82.7579796,6.27258766 80.3799796,4.27158766 C79.6829796,3.68558766 78.9659796,3.10058766 78.1269796,2.74358766 C77.2119796,2.35358766 76.2029796,2.25558766 75.2119796,2.18358766 C70.7069796,1.85358766 66.1559796,1.93758766 61.7019796,2.68958766 C59.2849796,3.09858766 56.8559796,3.72158766 54.7769796,5.02058766 C51.3169796,7.18458766 49.1749796,11.0625877 48.3989796,15.0695877 C47.6239796,19.0765877 48.0799796,23.2245877 48.8969796,27.2225877 C49.8129796,31.7045877 51.1749796,36.0815877 52.5349796,40.4495877 C53.0939796,42.2445877 53.8759796,44.2785877 55.6569796,44.8815877 C53.5239796,37.0935877 55.0719796,28.8305877 54.8289796,20.7585877 C54.8809796,21.9425877 54.9319796,23.1245877 54.9839796,24.3075877 C55.8799796,20.5175877 55.5749796,16.4515877 54.1209796,12.8375877 C56.3029796,13.1955877 58.5099796,13.3945877 60.7209796,13.4335877 C59.8069796,13.2745877 58.9369796,12.8735877 58.2219796,12.2825877 C60.6549796,13.3205877 63.3589796,12.9585877 66.0589796,12.5965877 C68.8199796,12.2275877 71.5769796,11.8575877 74.0369796,12.9855877 C73.6809796,12.6945877 73.3949796,12.3155877 73.2119796,11.8935877 C73.7539796,12.3975877 74.4079796,12.7805877 75.1129796,13.0045877 C75.4829796,12.1045877 76.3989796,11.4575877 77.3709796,11.4075877" id="Fill-4094" fill="#333333"/>
                <path d="M81.704,4.827 C81.335,4.497 80.96,4.175 80.585,3.859 C80.392,3.697 80.198,3.535 80,3.378 C80.243,3.366 80.487,3.361 80.73,3.361 C80.753,3.361 80.775,3.361 80.798,3.361 C81.254,3.363 81.718,3.383 82.178,3.383 C82.981,3.383 83.775,3.322 84.502,3 C83.864,3.957 82.827,4.482 81.704,4.827" id="Fill-4095" fill="#535353"/>
                <path d="M52,8.076 C53.711,5.855 56.301,4.427 59.01,3.709 C61.048,3.169 63.16,3 65.273,3 C65.97,3 66.666,3.019 67.361,3.048 C66.343,3.246 65.374,3.688 64.557,4.327 C65.111,4.568 65.694,4.658 66.29,4.658 C67.352,4.658 68.455,4.37 69.505,4.128 C71.054,3.772 72.628,3.526 74.211,3.395 C73.798,3.786 73.538,4.333 73.495,4.901 C75.289,4.122 77.225,3.676 79.178,3.587 C79.376,3.744 79.57,3.906 79.763,4.068 C80.138,4.384 80.513,4.706 80.882,5.036 C80.289,5.218 79.673,5.349 79.077,5.467 C75.94,6.086 72.803,6.706 69.666,7.325 C70.265,6.964 70.808,6.509 71.271,5.984 C68.692,6.353 66.12,6.769 63.557,7.231 C64.093,6.929 64.562,6.508 64.919,6.007 C62.518,6.014 60.117,6.155 57.73,6.428 C55.738,6.655 53.692,7 52,8.076" id="Fill-4096" fill="#535353"/>
                <path d="M117.779,159 C117.779,159 130.936,170.114 132.602,170.916 C134.268,171.718 134.091,174.338 131.926,173.729 C129.762,173.121 127.073,170.808 127.073,170.808 L133.8,182.932 C133.8,182.932 134.964,184.538 133.888,185.403 C132.812,186.269 131.401,183.759 131.401,183.759 L126.551,176.055 L130.029,185.486 C130.029,185.486 130.635,187.492 129.477,188.056 C128.319,188.62 127.452,186.152 127.452,186.152 L123.249,177.129 L125.89,186.769 C125.89,186.769 126.55,189.179 125.186,189.685 C123.821,190.192 123.008,186.737 123.008,186.737 L119.856,177.732 L119.858,183.293 C119.858,183.293 119.804,184.279 118.914,184.084 C118.023,183.89 117.928,182.639 117.928,182.639 C117.928,182.639 115.942,170.458 116.007,167.64 C116.072,164.822 113,160.9 113,160.9 L116.522,159.481 L117.779,159" id="Fill-4047" fill="#E6B89C"/>
                <path d="M30.40775,171.858 C30.40775,171.858 32.49375,188.954 33.16975,190.675 C33.84475,192.396 31.93375,194.196 30.76075,192.278 C29.58875,190.36 29.19075,186.835 29.19075,186.835 L25.87575,200.299 C25.87575,200.299 25.63575,202.267 24.25875,202.17 C22.88175,202.073 23.55475,199.273 23.55475,199.273 L25.23875,190.327 L21.37375,199.606 C21.37375,199.606 20.45375,201.489 19.22175,201.115 C17.98875,200.74 19.03175,198.342 19.03175,198.342 L22.08775,188.868 L17.46675,197.732 C17.46675,197.732 16.31175,199.948 14.96775,199.391 C13.62275,198.833 15.37575,195.748 15.37575,195.748 L19.19075,187.003 L15.40875,191.081 C15.40875,191.081 14.69875,191.767 14.17875,191.019 C13.65875,190.27 14.43875,189.289 14.43875,189.289 C14.43875,189.289 21.26875,179.008 23.23275,176.987 C25.19675,174.965 25.61275,170 25.61275,170 L29.15875,171.356 L30.40775,171.858" id="Fill-4048" fill="#E6B89C"/>
                <polyline id="Fill-4049" fill="#F2D091" points="121.594 160.735 119.641 158 113 163.958 115.148 166.301 121.594 160.735"/>
                <path d="M112.381,164.721 C111.795,163.979 98.009,146.381 94.457,132.172 C92.297,123.533 88.174,83.179 88,81.465 L95.391,76 C99.266,87.875 103.117,123.405 104.766,130 C107.796,142.121 120.105,158.365 120.234,158.53 L112.381,164.721" id="Fill-4050" fill="#2D4056"/>
                <path d="M96.865,158 C96.865,158 113.836,236.772 94.019,298.926 L76.945,297.917 C76.945,297.917 89.965,269.595 86.072,211.275 L81.859,174.927 C81.859,174.927 75.987,167.545 63.602,176.828 C63.602,176.828 67.492,249.926 28.039,290.551 L13,281.762 C13,281.762 52.101,253.309 46.793,158.06 L96.865,158" id="Fill-4056" fill="#111E2D"/>
                <polyline id="Fill-4057" fill="#1B2B40" points="95.71 76 43 77.167 45.101 161.362 99.403 160.007 95.71 76"/>
                <polyline id="Fill-4068" fill="#101926" points="77.029 160.317 76 119.077 76.17 119.383 76.282 119.716 76.452 119.004 76.617 119 77.648 160.301 77.029 160.317"/>
                <path d="M73.6534546,141.294409 C73.6354546,140.561409 73.0264546,139.982409 72.2934546,140.000409 C71.5604546,140.019409 70.9814546,140.627409 71.0004546,141.360409 C71.0184546,142.093409 71.6274546,142.672409 72.3594546,142.653409 C73.0924546,142.635409 73.6714546,142.027409 73.6534546,141.294409" id="Fill-4074" fill="#1A1A1A"/>
                <polyline id="Fill-4092" fill="#F2D091" points="32.302 174 32.595 177.15 23.293 177.37 23 174.513 32.302 174"/>
                <path d="M22.2027428,175.552 C22.1657428,175.009 21.3197428,161.981 23.3827428,138.692 C25.4807428,115.014 41.9707428,79.359 42.5337428,78 L42.5887428,78.037 C42.6397428,78.411 47.4837428,82.761 44.8107428,97.984 C44.1877428,101.528 35.6707428,119.51 33.8887428,139.623 C31.9067428,161.989 32.7167428,174.712 32.7257428,174.838 L22.2027428,175.552" id="Fill-4093" fill="#2D4056"/>
            </g>
        </g>
    </g>
</svg>