<?xml version="1.0" encoding="UTF-8"?>
<svg width="145px" height="222px" viewBox="0 0 145 222" version="1.1" xmlns="http://www.w3.org/2000/svg" xmlns:xlink="http://www.w3.org/1999/xlink">
    <!-- Generator: sketchtool 50.2 (55047) - http://www.bohemiancoding.com/sketch -->
    <title>server</title>
    <desc>Created with sketchtool.</desc>
    <defs/>
    <g id="Page-1" stroke="none" stroke-width="1" fill-rule="evenodd">
        <g id="server">
            <g id="!server">
                <path d="M114,87.9443085 C114,87.9443085 124.916,74.6223085 125.693,72.9443085 C126.47,71.2673085 129.092,71.4043085 128.516,73.5773085 C127.94,75.7513085 125.667,78.4743085 125.667,78.4743085 L137.689,71.5663085 C137.689,71.5663085 139.278,70.3793085 140.159,71.4423085 C141.041,72.5043085 138.552,73.9523085 138.552,73.9523085 L130.922,78.9173085 L140.3,75.2993085 C140.3,75.2993085 142.296,74.6623085 142.878,75.8123085 C143.459,76.9623085 141.004,77.8653085 141.004,77.8653085 L132.045,82.2033085 L141.645,79.4183085 C141.645,79.4183085 144.045,78.7223085 144.571,80.0783085 C145.098,81.4353085 141.656,82.3003085 141.656,82.3003085 L132.699,85.5863085 L138.26,85.5023085 C138.26,85.5023085 139.246,85.5403085 139.065,86.4343085 C138.883,87.3273085 137.635,87.4413085 137.635,87.4413085 C137.635,87.4413085 125.484,89.6093085 122.666,89.5863085 C119.847,89.5633085 115.971,92.6943085 115.971,92.6943085 L114.5,89.1943085 L114,87.9443085" id="Fill-3094" fill="#E6B89C"/>
                <path d="M84.7764589,127.463997 C77.9324589,127.636997 71.0574589,126.567997 64.5884589,124.326997 C58.0184589,122.051997 51.5854589,118.292997 48.1374589,112.254997 C45.8094589,108.178997 45.0364589,103.423997 44.3264589,98.7829967 C40.8894589,76.3339967 37.9694589,53.8069967 35.5704589,31.2239967 C34.9784589,25.6549967 34.4374589,19.8879967 36.1834589,14.5659967 C38.3824589,7.86899668 44.2494589,2.59299668 51.0574589,0.76399668 C57.8644589,-1.06500332 65.4174589,0.46999668 71.1924589,4.51199668 C73.3644589,6.03199668 75.2894589,7.87299668 77.2044589,9.70699668 C78.7924589,11.2269967 80.4034589,12.7769967 81.4764589,14.6959967 C82.9354589,17.3059967 83.2794589,20.3769967 83.5174589,23.3579967 C85.0834589,43.0429967 83.2544589,62.8529967 84.2044589,82.5779967 C84.4564589,87.7919967 84.9014589,92.9949967 85.3474589,98.1969967 C85.7614589,103.033997 86.1754589,107.870997 86.5894589,112.706997 C86.9964589,117.456997 87.5174589,122.507997 90.4744589,126.246997 C88.0124589,127.007997 85.1244589,126.098997 83.5424589,124.065997 C83.5304589,125.296997 83.9774589,126.526997 84.7764589,127.463997" id="Fill-3063" fill="#F2D091"/>
                <polygon id="Fill-3064" fill="#CC9C81" points="55 67.033 65.602 67.033 65.602 53 55 53"/>
                <path d="M73.755,44.2480587 C74.402,44.5180587 63.952,58.3590587 52.85,58.4770587 C42.562,58.5860587 37.623,36.4980587 37.619,36.4650587 C37.537,35.7120587 37,22.1850587 37,15.5790587 C37,8.78205873 69.883,0.915058735 76.218,19.7250587 C77.211,22.6750587 74.74,38.4110587 74.74,38.4110587 C74.74,38.4110587 79.227,35.7120587 79.118,41.6210587 C79.077,43.8210587 73.755,44.2480587 73.755,44.2480587" id="Fill-3065" fill="#E6B89C"/>
                <path d="M63.07,30.714 C63.664,30.882 64.357,30.562 64.613,30 C64.624,30.401 64.433,30.803 64.116,31.048 C64.456,31.25 64.933,31.18 65.202,30.89 C65.179,31.249 64.894,31.548 64.565,31.694 C64.236,31.839 63.868,31.861 63.509,31.88 L63.247,31.838 C63.151,31.774 63.125,31.647 63.107,31.533 C63.071,31.306 63.036,31.079 63,30.853" id="Fill-3066" fill="#1A1A1A"/>
                <path d="M59.0010846,32.7930846 C58.9590846,31.2930846 60.1420846,30.0420846 61.6440846,30.0010846 C63.1440846,29.9590846 64.3940846,31.1420846 64.4360846,32.6440846 C64.4770846,34.1440846 63.2940846,35.3950846 61.7930846,35.4360846 C60.2920846,35.4770846 59.0420846,34.2940846 59.0010846,32.7930846" id="Fill-3067" fill="#333333"/>
                <path d="M42.1198558,31.174 C41.4998558,31.181 40.9318558,30.653 40.8578558,30 C40.7248558,30.412 40.7858558,30.881 41.0158558,31.224 C40.6278558,31.336 40.1918558,31.13 40.0218558,30.754 C39.9348558,31.131 40.1178558,31.521 40.3888558,31.765 C40.6598558,32.008 41.0058558,32.135 41.3448558,32.256 L41.6088558,32.286 C41.7208558,32.247 41.7838558,32.122 41.8358558,32.01 C41.9388558,31.786 42.0428558,31.562 42.1458558,31.338 L42.1198558,31.174" id="Fill-3068" fill="#1A1A1A"/>
                <path d="M41,32.432 C41,31.089 42.089,30 43.433,30 C44.776,30 45.865,31.089 45.865,32.432 C45.865,33.776 44.776,34.865 43.433,34.865 C42.089,34.865 41,33.776 41,32.432" id="Fill-3069" fill="#333333"/>
                <path d="M60.8003012,32.602 C60.3683012,32.602 60.0123012,32.258 60.0003012,31.823 C59.9883012,31.381 60.3363012,31.013 60.7783012,31 C60.7863012,31 60.7933012,31 60.8013012,31 C61.2333012,31 61.5893012,31.344 61.6013012,31.779 C61.6133012,32.221 61.2653012,32.59 60.8223012,32.602 C60.8153012,32.602 60.8073012,32.602 60.8003012,32.602" id="Fill-3070" fill="#8B8B8B"/>
                <path d="M42.661,33.322 C42.296,33.322 42,33.026 42,32.661 C42,32.296 42.296,32 42.661,32 C43.026,32 43.322,32.296 43.322,32.661 C43.322,33.026 43.026,33.322 42.661,33.322" id="Fill-3071" fill="#8B8B8B"/>
                <path d="M47.294,28.5572033 C47.294,28.5572033 43.411,26.9192033 41.08,27.4832033 C40.9,27.5272033 39.676,27.9042033 38,28.8102033 L40.595,26.3012033 C40.595,26.3012033 42.605,25.5392033 46.82,26.4392033 C46.82,26.4392033 48.209,27.1602033 47.294,28.5572033" id="Fill-3072" fill="#8C6239"/>
                <path d="M57.3201007,28.372738 C57.3201007,28.372738 61.7191007,26.915738 64.3091007,27.589738 C64.5091007,27.641738 65.8661007,28.075738 67.7121007,29.059738 L64.8901007,26.429738 C64.8901007,26.429738 62.6651007,25.574738 57.9201007,26.276738 C57.9201007,26.276738 56.3411007,26.932738 57.3201007,28.372738" id="Fill-3073" fill="#8C6239"/>
                <path d="M51.172,43.21 C49.392,43.21 49,42.803 49,42.135 C49,41.715 49.225,40.987 49.616,40.712 C49.419,40.971 49.3,41.346 49.338,41.886 C49.385,42.54 49.835,42.929 51.593,42.929 C52.148,42.929 52.833,42.89 53.677,42.808 C53.538,42.969 53.34,43.081 53.131,43.1 C52.341,43.174 51.696,43.21 51.172,43.21 M51.325,40.166 C51.325,40.166 51.199,40.146 51.01,40.146 C50.995,40.146 50.978,40.146 50.961,40.147 L50.921,35.129 C51.084,35.068 51.239,35.026 51.386,35 L51.325,40.166" id="Fill-3074" fill="#826B5C"/>
                <path d="M51.0562602,35.1556742 L50.9942602,40.3676742 C50.9942602,40.3676742 48.8602602,40.0386742 49.0072602,42.0876742 C49.0732602,42.9926742 49.9102602,43.3896742 53.9232602,42.9506742 L53.9332602,42.9466742 C53.9162602,42.7216742 54.9272602,33.7166742 51.0562602,35.1556742" id="Fill-3075" fill="#FE938C"/>
                <path d="M51.0453491,41.399 C50.7333491,41.399 50.4213491,41.303 50.1493491,41.11 L50.0253491,41.268 C49.9083491,40.782 50.2133491,40.258 50.5913491,40.089 C50.7333491,40.026 50.8793491,40 51.0283491,40 C51.2773491,40 51.5323491,40.073 51.7733491,40.162 C52.0153491,40.252 52.3093491,40.491 52.2233491,40.791 C52.1923491,40.902 52.1133491,40.98 52.0343491,41.043 C51.7413491,41.28 51.3933491,41.399 51.0453491,41.399" id="Fill-3076" fill="#FEC2BE"/>
                <path d="M63.9750716,41.146 C62.7700716,41.146 61.5720716,40.995 60.4160716,40.644 C59.7450716,40.44 59.0740716,40.157 58.5880716,39.651 C58.1030716,39.145 57.8430716,38.373 58.1020716,37.721 C58.5050716,36.708 59.8190716,36.492 60.9080716,36.43 C63.2100716,36.298 65.5120716,36.165 67.8140716,36.034 C68.1070716,36.017 68.4030716,36 68.6970716,36 C69.1400716,36 69.5790716,36.038 70.0010716,36.167 C70.7030716,36.381 71.3570716,36.908 71.5110716,37.626 C71.6660716,38.35 71.2740716,39.106 70.7020716,39.576 C70.1300716,40.046 69.4040716,40.28 68.6890716,40.473 C67.1570716,40.885 65.5600716,41.147 63.9750716,41.146" id="Fill-3077" fill="#F2A594"/>
                <path d="M43.2339475,40.22 C43.0639475,40.22 42.8939475,40.212 42.7249475,40.196 C41.6319475,40.093 40.5799475,39.666 39.6809475,39.035 C39.4509475,38.873 39.2229475,38.69 39.0969475,38.439 C38.8969475,38.042 39.0159475,37.512 39.3659475,37.239 C39.5959475,37.059 39.8749475,37 40.1689475,37 C40.4559475,37 40.7569475,37.057 41.0369475,37.116 C42.2479475,37.367 43.4729475,37.551 44.7049475,37.667 C45.1429475,37.708 45.5949475,37.744 45.9849475,37.948 C46.2449475,38.084 46.4819475,38.322 46.5009475,38.616 C46.5259475,38.99 46.2019475,39.29 45.8839475,39.489 C45.0949475,39.98 44.1639475,40.22 43.2339475,40.22" id="Fill-3078" fill="#F2A594"/>
                <path d="M2.584,129.786 L0,122.214 C7.879,119.525 21.69,113.946 25.214,110.422 C28.069,107.567 34.293,85.25 39.918,69 L44.476,70.73 C42.78,79.872 36.789,110.16 30.871,116.079 C24.887,122.063 4.849,129.013 2.584,129.786" id="Fill-3079" fill="#E6B89C"/>
                <path d="M75.401,42.058 C75.264,42.058 75.127,42.033 75,41.979 C75.355,41.856 75.618,41.502 75.632,41.126 C75.647,40.75 75.412,40.376 75.068,40.227 C75.316,39.654 75.795,39.144 76.408,39.022 C76.484,39.007 76.561,39 76.639,39 C77.134,39 77.638,39.293 77.799,39.745 C77.497,39.692 77.189,39.665 76.882,39.665 C76.683,39.665 76.485,39.676 76.288,39.698 C76.155,39.713 75.989,39.767 75.98,39.9 C75.972,40.005 76.07,40.083 76.15,40.153 C76.534,40.493 76.623,41.119 76.35,41.554 C76.15,41.871 75.774,42.058 75.401,42.058 M77.84,39.901 C77.831,39.847 77.817,39.795 77.799,39.745 C77.853,39.754 77.906,39.765 77.959,39.776 L77.84,39.901" id="Fill-3080" fill="#CCA48B"/>
                <path d="M40.579,68 C40.579,68 36.625,70.586 29,101.211 L37.375,106.961 C37.375,106.961 44.533,69.413 40.579,68" id="Fill-3081" fill="#8E1414"/>
                <path d="M91.5110671,152.378 C90.2380671,146.609 67.8540671,125.419 67.8470671,125.375 C66.6400671,118.22 82.3330671,88.741 82.3330671,88.741 C82.3330671,88.741 84.7920671,70.943 82.3780671,69.259 C79.9640671,67.575 63.0180671,66 63.0180671,66 L40.0820671,67.048 C40.0820671,67.048 38.8750671,85.461 31.2290671,90.933 C31.2290671,90.933 28.4130671,100.14 37.6680671,103.086 L45.4010671,127.394 C45.4010671,127.394 32.9480671,139.483 29.4560671,154.004 C27.1540671,163.574 34.1630671,203.456 37.1750671,219.817 C48.9560671,222.457 63.3780671,222.457 84.0970671,219.613 L87.8710671,174.348 C87.8710671,174.348 93.8770671,163.101 91.5110671,152.378" id="Fill-3083" fill="#A31C19"/>
                <path d="M59.776,103.515 C56.86,103.515 53.716,101.935 51,97 C51,97 55.321,100.564 61.484,100.564 C63.905,100.564 66.609,100.015 69.448,98.484 C69.448,98.484 64.976,103.515 59.776,103.515" id="Fill-3084" fill="#7E1614"/>
                <path d="M59.63,47.4566228 C59.63,47.4566228 55.361,45.5906228 53.526,46.0826228 C51.82,46.5396228 51.593,47.1016228 51.593,47.1016228 C51.593,47.1016228 50.964,46.2616228 49.966,46.2956228 C48.968,46.3296228 47,47.2006228 47,47.2006228 C47,47.2006228 47.698,52.7516228 52.308,52.7656228 C58.12,52.7836228 59.63,47.4566228 59.63,47.4566228" id="Fill-3085" fill="#D86F6C"/>
                <path d="M51.405693,51.945 C51.040693,51.945 50.674693,51.862 50.349693,51.694 L50.326693,51.74 C50.051693,51.629 49.916693,51.262 50.054693,51 C50.415693,51.221 50.827693,51.291 51.253693,51.291 C51.659693,51.291 52.078693,51.227 52.478693,51.17 C52.511693,51.165 52.547693,51.163 52.583693,51.163 C52.705693,51.163 52.829693,51.197 52.852693,51.308 C52.875693,51.416 52.777693,51.508 52.685693,51.569 C52.309693,51.819 51.857693,51.945 51.405693,51.945" id="Fill-3086" fill="#E9ADAB"/>
                <path d="M59.697,47.118 C59.697,47.118 52.491,48.592 47,47 C47,47 50.397,54.567 59.697,47.118" id="Fill-3087" fill="#FFFFFF"/>
                <path d="M62.0970611,66 L68.7220611,66.875 C68.7220611,66.875 62.8470611,72.875 55.0970611,72.875 C47.3470611,72.875 52.9720611,66.875 52.9720611,66.875 C52.9720611,66.875 59.0970611,66 62.0970611,66" id="Fill-3095" fill="#CC9C81"/>
                <path d="M89.125,119.962 C87.735,119.962 85.625,118.62 84.875,116.62 C82.448,110.148 79.268,90.026 78,76.37 L84.108,76 C85.402,89.928 89.538,103.183 91.687,108.37 C96.886,105.166 107.832,94.457 118.25,81.37 L122.937,88.495 C122.872,88.576 118.683,93.856 111.38,101.983 C97.567,117.355 92.644,119.687 89.65,119.939 C89.473,119.954 89.299,119.962 89.125,119.962" id="Fill-3096" fill="#E6B89C"/>
                <path d="M80.2316222,69.0144348 C80.2316222,69.0144348 84.2316222,68.1394348 86.7316222,80.0144348 C89.2316222,91.8894348 91.9816222,106.639435 91.9816222,106.639435 L81.9816222,113.389435 L77.1066222,91.1394348 C77.1066222,91.1394348 76.1066222,69.3894348 80.2316222,69.0144348" id="Fill-3097" fill="#8E1414"/>
                <polyline id="Fill-3098" fill="#C6841A" points="73.16 82.966 57.819 81 57 87.393 72.341 89.358 73.16 82.966"/>
                <polyline id="Fill-3099" fill="#E5A74E" points="71.287 83.616 58.673 82 58 87.255 70.613 88.872 71.287 83.616"/>
                <path d="M68.4784203,84.528 C68.4654203,84.528 68.4524203,84.527 68.4394203,84.525 L61.2654203,83.606 C61.0994203,83.585 60.9814203,83.432 61.0024203,83.266 C61.0224203,83.113 61.1534203,83 61.3044203,83 C61.3174203,83 61.3304203,83.001 61.3434203,83.003 L68.5164203,83.922 C68.6824203,83.943 68.8014203,84.096 68.7794203,84.262 C68.7604203,84.415 68.6284203,84.528 68.4784203,84.528" id="Fill-3100" fill="#AA7D3C"/>
                <path d="M70.2826209,86.887 C70.2696209,86.887 70.2576209,86.887 70.2446209,86.885 L60.2656209,85.606 C60.0996209,85.585 59.9806209,85.432 60.0026209,85.266 C60.0216209,85.113 60.1536209,85 60.3046209,85 C60.3166209,85 60.3296209,85.001 60.3426209,85.003 L70.3216209,86.281 C70.4876209,86.303 70.6056209,86.455 70.5846209,86.621 C70.5646209,86.775 70.4336209,86.887 70.2826209,86.887" id="Fill-3101" fill="#AA7D3C"/>
                <path d="M77.8038291,24.299102 C77.6408291,29.156102 77.2598291,34.306102 74.4298291,38.257102 C72.2248291,31.545102 70.0208291,24.834102 67.8168291,18.122102 C67.0798291,15.878102 66.1708291,13.422102 64.0828291,12.315102 C57.8978291,18.126102 50.2818291,22.166102 42.6128291,25.804102 C40.4058291,26.851102 38.0778291,27.962102 36.7058291,29.982102 C36.2778291,27.883102 35.8758291,25.778102 35.4998291,23.670102 C35.0708291,21.259102 34.6798291,18.738102 35.3978291,16.397102 C35.9088291,14.735102 36.9488291,13.282102 38.1128291,11.990102 C42.7478291,6.841102 49.6858291,3.846102 56.6118291,4.006102 C63.5388291,4.165102 70.3308291,7.476102 74.7248291,12.833102 C75.5878291,13.885102 76.3668291,15.019102 76.8898291,16.276102 C77.9328291,18.781102 77.8948291,21.587102 77.8038291,24.299102" id="Fill-3102" fill="#F2D091"/>
                <path d="M40,10.352 C40.718,9.147 41.86,8.169 43.022,7.342 C47.879,3.886 53.832,2 59.791,2 C60.311,2 60.83,2.014 61.349,2.043 C58.91,2.606 56.514,3.352 54.187,4.272 C48.974,4.709 43.911,6.879 40,10.352" id="Fill-3103" fill="#F8E6C3"/>
                <path d="M39.0340996,21.151 C38.7750996,19.713 40.0400996,18.497 41.1820996,17.584 C42.9190996,16.197 44.6550996,14.811 46.3920996,13.425 C44.3400996,13.647 42.3220996,14.179 40.4270996,14.996 C41.6740996,12.718 43.2430996,10.616 45.0740996,8.773 C44.9410996,8.763 44.8080996,8.757 44.6750996,8.757 C42.7860996,8.757 40.9200996,9.828 39.9950996,11.48 C40.1240996,10.981 40.3280996,10.516 40.5870996,10.08 C44.4980996,6.607 49.5610996,4.437 54.7740996,4 C52.3430996,4.961 49.9860996,6.111 47.7340996,7.438 C49.1170996,7.474 50.4990996,7.509 51.8820996,7.545 C50.2520996,8.68 48.8920996,10.202 47.9460996,11.949 C53.6880996,10.672 59.3310996,8.943 64.8040996,6.784 C64.6190996,7.437 64.0340996,7.884 63.4770996,8.272 C58.8320996,11.511 53.7310996,14.094 48.3710996,15.92 C44.9290996,17.092 41.0940996,18.155 39.0340996,21.151" id="Fill-3104" fill="#F8E6C3"/>
            </g>
        </g>
    </g>
</svg>