<?xml version="1.0" encoding="UTF-8"?>
<svg width="161px" height="156px" viewBox="0 0 161 156" version="1.1" xmlns="http://www.w3.org/2000/svg" xmlns:xlink="http://www.w3.org/1999/xlink">
    <!-- Generator: sketchtool 50.2 (55047) - http://www.bohemiancoding.com/sketch -->
    <title>table</title>
    <desc>Created with sketchtool.</desc>
    <defs>
        <linearGradient x1="50%" y1="0%" x2="50%" y2="100%" id="linearGradient-1">
            <stop stop-color="#585858" offset="0%"/>
            <stop stop-color="#000000" offset="100%"/>
        </linearGradient>
        <linearGradient x1="50%" y1="0%" x2="50%" y2="66.5078577%" id="linearGradient-2">
            <stop stop-color="#FFFFFF" offset="0%"/>
            <stop stop-color="#000000" offset="100%"/>
        </linearGradient>
        <linearGradient x1="50%" y1="0%" x2="50%" y2="97.4485188%" id="linearGradient-3">
            <stop stop-color="#D5A17A" offset="0%"/>
            <stop stop-color="#975E30" offset="100%"/>
        </linearGradient>
    </defs>
    <g id="Page-1" stroke="none" stroke-width="1" fill-rule="evenodd">
        <g id="table">
            <g id="!table" transform="translate(1.000000, 0.000000)">
                <path d="M49.9132146,121 L108.113893,121 C108.619638,121 109.045769,121.377598 109.106627,121.879669 L112.864202,152.879669 C112.930659,153.42794 112.540072,153.926277 111.9918,153.992734 C111.951872,153.997574 111.911689,154 111.871468,154 L47.0950328,154 C46.5427481,154 46.0950328,153.552285 46.0950328,153 C46.0950328,152.969775 46.0964032,152.939565 46.0991396,152.909464 L48.9173214,121.909464 C48.9641468,121.394385 49.3960114,121 49.9132146,121 Z" id="Rectangle-5" fill="url(#linearGradient-1)"/>
                <rect id="Rectangle-4" fill="#000000" x="46" y="153" width="67" height="3" rx="1"/>
                <path d="M113,155 C113,154.447715 112.552285,154 112,154 L47,154 C46.4477153,154 46,154.447715 46,155 L46,154 C46,153.447715 46.4477153,153 47,153 L112,153 C112.552285,153 113,153.447715 113,154 L113,155 Z" id="Combined-Shape" fill-opacity="0.439999998" fill="url(#linearGradient-2)"/>
                <polygon id="Path-3" fill="#AD751D" points="0 33.5 22 0 139 0 159 33.5"/>
                <rect id="Rectangle" fill="#975E30" x="0" y="35" width="159" height="7"/>
                <rect id="Rectangle-2" fill="url(#linearGradient-3)" x="0" y="33.5" width="159" height="1.5"/>
                <path d="M72,42 L87,42 L87,138 C87,139.104569 86.1045695,140 85,140 L74,140 C72.8954305,140 72,139.104569 72,138 L72,42 Z" id="Rectangle-3" fill="#000000"/>
            </g>
        </g>
    </g>
</svg>